M48
;DRILL file {KiCad 5.0.0-rc2-dev-unknown-r12463-620c2af3} date Thu Mar 22 22:12:35 2018
;FORMAT={-:-/ absolute / inch / decimal}
FMAT,2
INCH,TZ
T1C0.0157
T2C0.0197
T3C0.0315
T4C0.0394
T5C0.1260
%
G90
G05
M72
T1
X3.5Y-3.
X3.6Y-3.
X3.65Y-2.6
X3.65Y-4.8
X3.7Y-2.85
X3.7Y-4.55
X3.7Y-4.75
X3.75Y-2.6
X3.75Y-3.1
X3.75Y-4.15
X3.75Y-4.7
X3.8Y-4.55
X3.85Y-2.6
X3.85Y-3.1
X3.9Y-3.15
X3.9Y-4.5
X3.95Y-3.2
X4.Y-2.6
X4.Y-3.25
X4.Y-3.8
X4.Y-4.5
X4.05Y-3.3
X4.1Y-2.6
X4.1Y-3.35
X4.1Y-3.85
X4.1Y-4.55
X4.15Y-3.4
X4.2Y-2.6
X4.2Y-3.45
X4.2Y-3.9
X4.2Y-4.55
X4.2Y-4.7
X4.3Y-3.45
X4.3Y-3.95
X4.3Y-4.6
X4.3Y-4.7
X4.4Y-3.45
X4.4Y-4.
X4.4Y-4.05
X4.45Y-3.8
X4.45Y-3.85
X4.5Y-3.45
X4.5Y-3.9
X4.5Y-4.05
X4.55Y-3.95
X4.6Y-4.
X4.6Y-4.1
X4.65Y-3.95
X4.7Y-4.15
X4.7Y-4.05
X4.75Y-3.95
X4.75Y-4.7
X4.8Y-4.55
X4.8Y-4.65
X4.85Y-4.
X4.9Y-2.8
X4.9Y-4.55
X4.9Y-4.7
X4.95Y-2.75
X5.Y-2.7
X5.Y-4.55
X5.1Y-3.75
X5.1Y-4.55
X5.2Y-2.8
X5.2Y-2.9
X5.2Y-3.
X5.2Y-3.35
X5.2Y-3.45
X5.2Y-3.55
X5.2Y-3.65
X5.2Y-4.55
X5.2Y-4.65
X5.25Y-3.1
X5.25Y-3.3
X5.3Y-3.25
X5.3Y-4.55
X5.3Y-4.65
X5.35Y-3.2
X5.4Y-4.55
X5.5Y-4.55
X5.5Y-4.65
X5.6Y-4.55
X5.6Y-4.65
X5.7Y-4.55
X5.7Y-4.65
X6.27Y-4.12
X6.27Y-4.18
X6.29Y-2.98
X6.29Y-4.
X6.2972Y-3.58
X6.31Y-3.3
X6.31Y-3.38
X6.31Y-3.48
X6.31Y-3.6507
X6.33Y-3.08
X6.33Y-3.14
X6.33Y-3.94
X6.33Y-4.24
X6.33Y-4.38
X6.3329Y-4.3148
X6.35Y-2.8
X6.35Y-2.88
X6.35Y-2.94
X6.35Y-3.54
X6.35Y-3.7
X6.37Y-3.24
X6.37Y-3.44
X6.37Y-4.12
X6.3879Y-3.7447
X6.39Y-3.04
X6.39Y-3.82
X6.45Y-3.1906
X6.55Y-3.54
X6.57Y-3.34
X6.65Y-3.1
X6.65Y-3.3
X6.65Y-3.4937
X6.65Y-3.5863
X6.65Y-3.7
X6.65Y-4.1
X6.65Y-4.3
X6.65Y-4.42
X6.65Y-4.5
X6.75Y-3.54
X6.77Y-3.22
X6.93Y-3.08
X6.95Y-2.85
X6.95Y-3.22
X6.95Y-3.28
X6.99Y-3.54
X7.01Y-3.14
X7.01Y-3.32
X7.01Y-3.38
X7.01Y-4.22
X7.01Y-4.3
X7.05Y-3.22
X7.25Y-3.4
X7.35Y-2.8
X7.35Y-2.9
X7.35Y-3.
X7.35Y-3.1
X7.35Y-3.2
X7.35Y-3.3
X7.35Y-3.4
X7.35Y-3.5
X7.35Y-3.6
X7.35Y-3.9
X7.35Y-4.
X7.35Y-4.1
X7.35Y-4.2
X7.35Y-4.3
X7.45Y-4.2
T2
X6.0555Y-2.5
X6.0832Y-2.4332
X6.0832Y-2.5668
X6.15Y-2.4055
X6.15Y-2.5945
X6.2168Y-2.4332
X6.2168Y-2.5668
X6.2445Y-2.5
X7.4555Y-2.5
X7.4832Y-2.4332
X7.4832Y-2.5668
X7.55Y-2.4055
X7.55Y-2.5945
X7.6168Y-2.4332
X7.6168Y-2.5668
X7.6445Y-2.5
X5.875Y-3.3638
X5.875Y-3.4031
X5.875Y-3.4425
X5.875Y-3.4819
X5.875Y-3.5213
X5.875Y-3.5606
X5.875Y-3.6
X5.875Y-3.6394
X5.875Y-3.6787
X5.875Y-3.7181
X5.875Y-3.7575
X5.875Y-3.7969
X5.875Y-3.8362
X5.875Y-3.8756
X6.0555Y-4.7
X6.0832Y-4.6332
X6.0832Y-4.7668
X6.15Y-4.6055
X6.15Y-4.7945
X6.2168Y-4.6332
X6.2168Y-4.7668
X6.2445Y-4.7
X7.4555Y-4.7
X7.4832Y-4.6332
X7.4832Y-4.7668
X7.55Y-4.6055
X7.55Y-4.7945
X7.6168Y-4.6332
X7.6168Y-4.7668
X7.6445Y-4.7
T3
X6.45Y-3.3
X6.85Y-3.3
X6.45Y-4.3
X6.85Y-4.3
X6.45Y-3.9
X6.85Y-3.9
X6.45Y-3.7
X6.85Y-3.7
X6.45Y-3.5
X6.85Y-3.5
X6.45Y-2.9
X6.85Y-2.9
X6.45Y-3.1
X6.85Y-3.1
X6.45Y-4.1
X6.85Y-4.1
T4
X7.15Y-2.8044
X7.15Y-2.9044
X7.15Y-3.0044
X7.15Y-3.1044
X7.15Y-3.2044
X7.15Y-3.3044
X7.15Y-3.4044
X7.15Y-3.5044
X7.15Y-3.6044
X7.15Y-3.7044
X7.15Y-3.8044
X7.15Y-3.9044
X7.15Y-4.0044
X7.15Y-4.1044
X7.15Y-4.2044
X7.15Y-4.3044
X7.15Y-4.4044
X3.5Y-4.3
X3.5Y-4.4
X3.6Y-4.3
X3.6Y-4.4
X3.7Y-4.3
X3.7Y-4.4
X3.8Y-4.3
X3.8Y-4.4
X3.9Y-4.3
X3.9Y-4.4
X4.Y-4.3
X4.Y-4.4
X4.1Y-4.3
X4.1Y-4.4
X4.2Y-4.3
X4.2Y-4.4
X4.3Y-4.3
X4.3Y-4.4
X4.4Y-4.3
X4.4Y-4.4
X4.5Y-4.3
X4.5Y-4.4
X4.6Y-4.3
X4.6Y-4.4
X4.7Y-4.3
X4.7Y-4.4
X4.8Y-4.3
X4.8Y-4.4
X4.9Y-4.3
X4.9Y-4.4
X5.Y-4.3
X5.Y-4.4
X5.1Y-4.3
X5.1Y-4.4
X5.2Y-4.3
X5.2Y-4.4
X5.3Y-4.3
X5.3Y-4.4
X5.4Y-4.3
X5.4Y-4.4
X5.5Y-4.3
X5.5Y-4.4
X5.6Y-4.3
X5.6Y-4.4
X5.7Y-4.3
X5.7Y-4.4
X5.1Y-2.7
X5.1Y-2.8
X5.1Y-2.9
X5.1Y-3.
X5.1Y-3.1
X5.1Y-3.2
X5.1Y-3.3
X5.1Y-3.4
X5.1Y-3.5
X5.1Y-3.6
X7.55Y-2.8
X7.55Y-2.9
X7.55Y-3.
X7.55Y-3.1
X7.55Y-3.2
X7.55Y-3.3
X7.55Y-3.4
X7.55Y-3.5
X7.55Y-3.6
X7.55Y-3.7
X7.55Y-3.8
X7.55Y-3.9
X7.55Y-4.
X7.55Y-4.1
X7.55Y-4.2
X7.55Y-4.3
X7.55Y-4.4
X3.5Y-4.8
X3.5Y-4.9
X3.9Y-4.8
X3.9Y-4.9
X4.Y-4.8
X4.Y-4.9
X4.1Y-4.8
X4.1Y-4.9
X4.2Y-4.8
X4.2Y-4.9
X4.3Y-4.8
X4.3Y-4.9
X4.4Y-4.8
X4.4Y-4.9
X4.5Y-4.8
X4.5Y-4.9
X4.6Y-4.8
X4.6Y-4.9
X4.7Y-4.8
X4.7Y-4.9
X4.8Y-4.8
X4.8Y-4.9
X4.9Y-4.8
X4.9Y-4.9
X5.Y-4.8
X5.Y-4.9
X5.1Y-4.8
X5.1Y-4.9
X5.2Y-4.8
X5.2Y-4.9
X5.3Y-4.8
X5.3Y-4.9
X5.4Y-4.8
X5.4Y-4.9
X5.5Y-4.8
X5.5Y-4.9
X3.5Y-2.7
X3.6Y-2.7
X3.7Y-2.7
X3.8Y-2.7
X3.9Y-2.7
X4.Y-2.7
X4.1Y-2.7
X4.2Y-2.7
X4.3Y-2.7
X4.4Y-2.7
X3.5Y-2.4
X3.5Y-2.5
X3.6Y-2.4
X3.6Y-2.5
X3.7Y-2.4
X3.7Y-2.5
X3.8Y-2.4
X3.8Y-2.5
X3.9Y-2.4
X3.9Y-2.5
X4.Y-2.4
X4.Y-2.5
X4.1Y-2.4
X4.1Y-2.5
X4.2Y-2.4
X4.2Y-2.5
X4.3Y-2.4
X4.3Y-2.5
X4.4Y-2.4
X4.4Y-2.5
X4.5Y-2.4
X4.5Y-2.5
X4.6Y-2.4
X4.6Y-2.5
X4.7Y-2.4
X4.7Y-2.5
X4.8Y-2.4
X4.8Y-2.5
X4.9Y-2.4
X4.9Y-2.5
X5.Y-2.4
X5.Y-2.5
X5.1Y-2.4
X5.1Y-2.5
X5.2Y-2.4
X5.2Y-2.5
X5.3Y-2.4
X5.3Y-2.5
X5.4Y-2.4
X5.4Y-2.5
X5.5Y-2.4
X5.5Y-2.5
X5.6Y-2.4
X5.6Y-2.5
X5.7Y-2.4
X5.7Y-2.5
X6.1047Y-2.8044
X6.1047Y-2.9044
X6.1047Y-3.0044
X6.1047Y-3.1044
X6.1047Y-3.2044
X6.1047Y-3.3044
X6.1047Y-3.4044
X6.1047Y-3.5044
X6.1047Y-3.6044
X6.1047Y-3.7044
X6.1047Y-3.8044
X6.1047Y-3.9044
X6.1047Y-4.0044
X6.1047Y-4.1044
X6.1047Y-4.2044
X6.1047Y-4.3044
X6.1047Y-4.4044
X6.2047Y-2.8044
X6.2047Y-2.9044
X6.2047Y-3.0044
X6.2047Y-3.1044
X6.2047Y-3.2044
X6.2047Y-3.3044
X6.2047Y-3.4044
X6.2047Y-3.5044
X6.2047Y-3.6044
X6.2047Y-3.7044
X6.2047Y-3.8044
X6.2047Y-3.9044
X6.2047Y-4.0044
X6.2047Y-4.1044
X6.2047Y-4.2044
X6.2047Y-4.3044
X6.2047Y-4.4044
T5
X7.55Y-4.7
X6.15Y-2.5
X7.55Y-2.5
X6.15Y-4.7
T0
M30
