G04 #@! TF.GenerationSoftware,KiCad,Pcbnew,5.0.0-rc2-dev-unknown-r12463-620c2af3*
G04 #@! TF.CreationDate,2018-03-22T22:12:43+01:00*
G04 #@! TF.ProjectId,bela-cape2,62656C612D63617065322E6B69636164,rev?*
G04 #@! TF.SameCoordinates,Original*
G04 #@! TF.FileFunction,Profile,NP*
%FSLAX46Y46*%
G04 Gerber Fmt 4.6, Leading zero omitted, Abs format (unit mm)*
G04 Created by KiCad (PCBNEW 5.0.0-rc2-dev-unknown-r12463-620c2af3) date Thu Mar 22 22:12:43 2018*
%MOMM*%
%LPD*%
G01*
G04 APERTURE LIST*
%ADD10C,0.150000*%
%ADD11C,0.200000*%
G04 APERTURE END LIST*
D10*
X147320000Y-124460000D02*
G75*
G02X144780000Y-127000000I-2540000J0D01*
G01*
X88265000Y-127000000D02*
G75*
G02X85725000Y-124460000I0J2540000D01*
G01*
X85725000Y-60960000D02*
G75*
G02X88265000Y-58420000I2540000J0D01*
G01*
X144780000Y-58420000D02*
G75*
G02X147320000Y-60960000I0J-2540000D01*
G01*
X151130000Y-63500000D02*
X151130000Y-79375000D01*
X151130000Y-79375000D02*
G75*
G02X147320000Y-79375000I-1905000J0D01*
G01*
X191770000Y-58420000D02*
X156210000Y-58420000D01*
X196850000Y-119380000D02*
X196850000Y-63500000D01*
X151130000Y-103505000D02*
X151130000Y-119380000D01*
X147320000Y-103505000D02*
G75*
G02X151130000Y-103505000I1905000J0D01*
G01*
X147320000Y-103505000D02*
X147320000Y-124460000D01*
X191770000Y-124460000D02*
X156210000Y-124460000D01*
D11*
X156210000Y-124460000D02*
G75*
G02X151130000Y-119380000I0J5080000D01*
G01*
X196850000Y-119380000D02*
G75*
G02X191770000Y-124460000I-5080000J0D01*
G01*
X191770000Y-58420000D02*
G75*
G02X196850000Y-63500000I0J-5080000D01*
G01*
X151130000Y-63500000D02*
G75*
G02X156210000Y-58420000I5080000J0D01*
G01*
D10*
X144780000Y-58420000D02*
X88265000Y-58420000D01*
X147320000Y-79375000D02*
X147320000Y-60960000D01*
X85725000Y-124460000D02*
X85725000Y-60960000D01*
X144780000Y-127000000D02*
X88265000Y-127000000D01*
X147320000Y-124460000D02*
X147320000Y-124460000D01*
M02*
