G04 #@! TF.FileFunction,Legend,Top*
%FSLAX46Y46*%
G04 Gerber Fmt 4.6, Leading zero omitted, Abs format (unit mm)*
G04 Created by KiCad (PCBNEW (2015-05-05 BZR 5645)-product) date ma. 18. mai 2015 kl. 21.53 +0200*
%MOMM*%
G01*
G04 APERTURE LIST*
%ADD10C,0.100000*%
%ADD11C,0.150000*%
%ADD12C,0.381000*%
%ADD13C,0.285750*%
%ADD14C,0.287020*%
G04 APERTURE END LIST*
D10*
D11*
X116018000Y-57588000D02*
X65218000Y-57588000D01*
X67758000Y-62668000D02*
X116018000Y-62668000D01*
X116018000Y-57588000D02*
X116018000Y-62668000D01*
X65218000Y-57588000D02*
X65218000Y-60128000D01*
X64938000Y-61398000D02*
X64938000Y-62948000D01*
X65218000Y-60128000D02*
X67758000Y-60128000D01*
X67758000Y-60128000D02*
X67758000Y-62668000D01*
X64938000Y-62948000D02*
X66488000Y-62948000D01*
X88360000Y-93440000D02*
X88360000Y-92765000D01*
X78010000Y-93440000D02*
X78010000Y-92765000D01*
X78010000Y-83090000D02*
X78010000Y-83765000D01*
X88360000Y-83090000D02*
X88360000Y-83765000D01*
X88360000Y-93440000D02*
X87685000Y-93440000D01*
X88360000Y-83090000D02*
X87685000Y-83090000D01*
X78010000Y-83090000D02*
X78685000Y-83090000D01*
X78010000Y-93440000D02*
X78685000Y-93440000D01*
X88360000Y-92765000D02*
X89635000Y-92765000D01*
X93218000Y-66548000D02*
X98298000Y-66548000D01*
X98298000Y-66548000D02*
X98298000Y-64008000D01*
X98298000Y-64008000D02*
X93218000Y-64008000D01*
X90398000Y-63728000D02*
X91948000Y-63728000D01*
X93218000Y-64008000D02*
X93218000Y-66548000D01*
X91948000Y-66828000D02*
X90398000Y-66828000D01*
X90398000Y-66828000D02*
X90398000Y-63728000D01*
X85690000Y-99345000D02*
X85690000Y-100045000D01*
X84490000Y-100045000D02*
X84490000Y-99345000D01*
X83150000Y-99345000D02*
X83150000Y-100045000D01*
X81950000Y-100045000D02*
X81950000Y-99345000D01*
X80610000Y-99345000D02*
X80610000Y-100045000D01*
X79410000Y-100045000D02*
X79410000Y-99345000D01*
X78070000Y-99345000D02*
X78070000Y-100045000D01*
X76870000Y-100045000D02*
X76870000Y-99345000D01*
X75530000Y-99345000D02*
X75530000Y-100045000D01*
X74330000Y-100045000D02*
X74330000Y-99345000D01*
X72990000Y-99345000D02*
X72990000Y-100045000D01*
X71790000Y-100045000D02*
X71790000Y-99345000D01*
X70450000Y-99345000D02*
X70450000Y-100045000D01*
X69250000Y-100045000D02*
X69250000Y-99345000D01*
X67910000Y-99345000D02*
X67910000Y-100045000D01*
X66710000Y-100045000D02*
X66710000Y-99345000D01*
X91094000Y-88996000D02*
X91094000Y-88296000D01*
X92294000Y-88296000D02*
X92294000Y-88996000D01*
X92294000Y-84486000D02*
X92294000Y-85186000D01*
X91094000Y-85186000D02*
X91094000Y-84486000D01*
X73625000Y-87280000D02*
X73625000Y-87980000D01*
X72425000Y-87980000D02*
X72425000Y-87280000D01*
X70774000Y-85694000D02*
X70774000Y-84994000D01*
X71974000Y-84994000D02*
X71974000Y-85694000D01*
X66040000Y-111760000D02*
X86360000Y-111760000D01*
X83820000Y-106680000D02*
X66040000Y-106680000D01*
X66040000Y-111760000D02*
X66040000Y-106680000D01*
X86360000Y-111760000D02*
X86360000Y-109220000D01*
X86640000Y-107950000D02*
X86640000Y-106400000D01*
X86360000Y-109220000D02*
X83820000Y-109220000D01*
X83820000Y-109220000D02*
X83820000Y-106680000D01*
X86640000Y-106400000D02*
X85090000Y-106400000D01*
X85765000Y-103640000D02*
X85765000Y-104640000D01*
X84415000Y-104640000D02*
X84415000Y-103640000D01*
X80685000Y-103640000D02*
X80685000Y-104640000D01*
X79335000Y-104640000D02*
X79335000Y-103640000D01*
X75605000Y-103640000D02*
X75605000Y-104640000D01*
X74255000Y-104640000D02*
X74255000Y-103640000D01*
X70525000Y-103640000D02*
X70525000Y-104640000D01*
X69175000Y-104640000D02*
X69175000Y-103640000D01*
X83225000Y-103640000D02*
X83225000Y-104640000D01*
X81875000Y-104640000D02*
X81875000Y-103640000D01*
X78145000Y-103640000D02*
X78145000Y-104640000D01*
X76795000Y-104640000D02*
X76795000Y-103640000D01*
X73065000Y-103640000D02*
X73065000Y-104640000D01*
X71715000Y-104640000D02*
X71715000Y-103640000D01*
X67985000Y-103640000D02*
X67985000Y-104640000D01*
X66635000Y-104640000D02*
X66635000Y-103640000D01*
X102195000Y-66540000D02*
X102195000Y-65540000D01*
X103545000Y-65540000D02*
X103545000Y-66540000D01*
X99655000Y-66540000D02*
X99655000Y-65540000D01*
X101005000Y-65540000D02*
X101005000Y-66540000D01*
X82454000Y-71282000D02*
X83154000Y-71282000D01*
X83154000Y-72482000D02*
X82454000Y-72482000D01*
X69646800Y-72111820D02*
X68945760Y-72111820D01*
X68945760Y-72111820D02*
X68945760Y-71862900D01*
X68945760Y-69312840D02*
X68945760Y-69112180D01*
X68945760Y-69112180D02*
X69646800Y-69112180D01*
X64429000Y-69096000D02*
X64429000Y-70096000D01*
X63079000Y-70096000D02*
X63079000Y-69096000D01*
X74081000Y-69858000D02*
X74081000Y-70858000D01*
X72731000Y-70858000D02*
X72731000Y-69858000D01*
X87368000Y-77383000D02*
X86368000Y-77383000D01*
X86368000Y-76033000D02*
X87368000Y-76033000D01*
X75716180Y-72948800D02*
X75716180Y-72247760D01*
X75716180Y-72247760D02*
X75965100Y-72247760D01*
X78515160Y-72247760D02*
X78715820Y-72247760D01*
X78715820Y-72247760D02*
X78715820Y-72948800D01*
X83795820Y-75387200D02*
X83795820Y-76088240D01*
X83795820Y-76088240D02*
X83546900Y-76088240D01*
X80996840Y-76088240D02*
X80796180Y-76088240D01*
X80796180Y-76088240D02*
X80796180Y-75387200D01*
X87368000Y-74589000D02*
X86368000Y-74589000D01*
X86368000Y-73239000D02*
X87368000Y-73239000D01*
X83304000Y-70779000D02*
X82304000Y-70779000D01*
X82304000Y-69429000D02*
X83304000Y-69429000D01*
X113320000Y-91014000D02*
X113320000Y-91414000D01*
X113320000Y-94914000D02*
X113320000Y-94514000D01*
X117820000Y-94914000D02*
X117820000Y-94514000D01*
X117820000Y-91014000D02*
X117820000Y-91414000D01*
X114220000Y-94914000D02*
X114220000Y-94514000D01*
X114220000Y-94514000D02*
X114370000Y-94514000D01*
X114370000Y-94514000D02*
X114370000Y-94914000D01*
X114220000Y-91014000D02*
X114220000Y-91414000D01*
X114220000Y-91414000D02*
X114370000Y-91414000D01*
X114370000Y-91414000D02*
X114370000Y-91014000D01*
X113320000Y-91014000D02*
X117820000Y-91014000D01*
X117820000Y-94914000D02*
X113320000Y-94914000D01*
X119380000Y-90424000D02*
X119380000Y-87884000D01*
X119100000Y-93244000D02*
X119100000Y-91694000D01*
X119380000Y-90424000D02*
X121920000Y-90424000D01*
X122200000Y-91694000D02*
X122200000Y-93244000D01*
X122200000Y-93244000D02*
X119100000Y-93244000D01*
X121920000Y-90424000D02*
X121920000Y-87884000D01*
X121920000Y-87884000D02*
X119380000Y-87884000D01*
X121920000Y-101600000D02*
X121920000Y-96520000D01*
X121920000Y-96520000D02*
X119380000Y-96520000D01*
X119380000Y-96520000D02*
X119380000Y-101600000D01*
X119100000Y-104420000D02*
X119100000Y-102870000D01*
X119380000Y-101600000D02*
X121920000Y-101600000D01*
X122200000Y-102870000D02*
X122200000Y-104420000D01*
X122200000Y-104420000D02*
X119100000Y-104420000D01*
X111735820Y-89357200D02*
X111735820Y-90058240D01*
X111735820Y-90058240D02*
X111486900Y-90058240D01*
X108936840Y-90058240D02*
X108736180Y-90058240D01*
X108736180Y-90058240D02*
X108736180Y-89357200D01*
X105867200Y-83590180D02*
X106568240Y-83590180D01*
X106568240Y-83590180D02*
X106568240Y-83839100D01*
X106568240Y-86389160D02*
X106568240Y-86589820D01*
X106568240Y-86589820D02*
X105867200Y-86589820D01*
X115832000Y-88479000D02*
X116832000Y-88479000D01*
X116832000Y-89829000D02*
X115832000Y-89829000D01*
X99830000Y-85177000D02*
X100830000Y-85177000D01*
X100830000Y-86527000D02*
X99830000Y-86527000D01*
X115832000Y-99401000D02*
X116832000Y-99401000D01*
X116832000Y-100751000D02*
X115832000Y-100751000D01*
X111847000Y-102354000D02*
X111847000Y-101354000D01*
X113197000Y-101354000D02*
X113197000Y-102354000D01*
X105418000Y-87971000D02*
X106418000Y-87971000D01*
X106418000Y-89321000D02*
X105418000Y-89321000D01*
X99830000Y-83399000D02*
X100830000Y-83399000D01*
X100830000Y-84749000D02*
X99830000Y-84749000D01*
X59436000Y-69850000D02*
X59436000Y-74930000D01*
X59436000Y-74930000D02*
X61976000Y-74930000D01*
X61976000Y-74930000D02*
X61976000Y-69850000D01*
X62256000Y-67030000D02*
X62256000Y-68580000D01*
X61976000Y-69850000D02*
X59436000Y-69850000D01*
X59156000Y-68580000D02*
X59156000Y-67030000D01*
X59156000Y-67030000D02*
X62256000Y-67030000D01*
X121810000Y-85450000D02*
X121810000Y-65130000D01*
X116730000Y-67670000D02*
X116730000Y-85450000D01*
X121810000Y-85450000D02*
X116730000Y-85450000D01*
X121810000Y-65130000D02*
X119270000Y-65130000D01*
X118000000Y-64850000D02*
X116450000Y-64850000D01*
X119270000Y-65130000D02*
X119270000Y-67670000D01*
X119270000Y-67670000D02*
X116730000Y-67670000D01*
X116450000Y-64850000D02*
X116450000Y-66400000D01*
X107355000Y-66175000D02*
X107355000Y-67175000D01*
X106005000Y-67175000D02*
X106005000Y-66175000D01*
X111165000Y-66175000D02*
X111165000Y-67175000D01*
X109815000Y-67175000D02*
X109815000Y-66175000D01*
X99957000Y-81367000D02*
X100957000Y-81367000D01*
X100957000Y-82717000D02*
X99957000Y-82717000D01*
X99957000Y-79716000D02*
X100957000Y-79716000D01*
X100957000Y-81066000D02*
X99957000Y-81066000D01*
X113070000Y-66175000D02*
X113070000Y-67175000D01*
X111720000Y-67175000D02*
X111720000Y-66175000D01*
X113800000Y-73620000D02*
X114800000Y-73620000D01*
X114800000Y-74970000D02*
X113800000Y-74970000D01*
X113800000Y-76160000D02*
X114800000Y-76160000D01*
X114800000Y-77510000D02*
X113800000Y-77510000D01*
X109260000Y-66175000D02*
X109260000Y-67175000D01*
X107910000Y-67175000D02*
X107910000Y-66175000D01*
X113800000Y-81240000D02*
X114800000Y-81240000D01*
X114800000Y-82590000D02*
X113800000Y-82590000D01*
X113800000Y-83780000D02*
X114800000Y-83780000D01*
X114800000Y-85130000D02*
X113800000Y-85130000D01*
X99957000Y-78065000D02*
X100957000Y-78065000D01*
X100957000Y-79415000D02*
X99957000Y-79415000D01*
X99957000Y-76414000D02*
X100957000Y-76414000D01*
X100957000Y-77764000D02*
X99957000Y-77764000D01*
X63658000Y-65440000D02*
X64358000Y-65440000D01*
X64358000Y-66640000D02*
X63658000Y-66640000D01*
X67976000Y-65440000D02*
X68676000Y-65440000D01*
X68676000Y-66640000D02*
X67976000Y-66640000D01*
D12*
X107442000Y-92202000D02*
X107442000Y-96774000D01*
X100838000Y-96774000D02*
X100838000Y-92202000D01*
X102870000Y-95758000D02*
X102870000Y-96774000D01*
X105410000Y-95758000D02*
X105410000Y-96774000D01*
X100838000Y-92202000D02*
X107442000Y-92202000D01*
X107442000Y-96774000D02*
X100838000Y-96774000D01*
X102870000Y-95758000D02*
X105410000Y-95758000D01*
D11*
X70164960Y-78049120D02*
X64963040Y-78049120D01*
X64963040Y-80446880D02*
X70164960Y-80446880D01*
X72163940Y-81546700D02*
X72163940Y-80446880D01*
X72763380Y-81046320D02*
X71564500Y-81046320D01*
X71559420Y-80446880D02*
X71559420Y-78049120D01*
X73060000Y-65882000D02*
X73060000Y-65182000D01*
X74260000Y-65182000D02*
X74260000Y-65882000D01*
X115832000Y-102449000D02*
X116832000Y-102449000D01*
X116832000Y-103799000D02*
X115832000Y-103799000D01*
X94249240Y-82169000D02*
X94650560Y-81968340D01*
X94650560Y-81968340D02*
X95250000Y-81866740D01*
X95250000Y-81866740D02*
X95750380Y-81968340D01*
X95750380Y-81968340D02*
X96448880Y-82367120D01*
X96448880Y-82367120D02*
X96850200Y-82969100D01*
X96850200Y-82969100D02*
X97050860Y-83568540D01*
X97050860Y-83568540D02*
X97050860Y-90167460D01*
X97050860Y-90167460D02*
X96850200Y-90868500D01*
X96850200Y-90868500D02*
X96550480Y-91267280D01*
X96550480Y-91267280D02*
X96050100Y-91668600D01*
X96050100Y-91668600D02*
X95450660Y-91869260D01*
X95450660Y-91869260D02*
X94950280Y-91869260D01*
X94950280Y-91869260D02*
X94449900Y-91668600D01*
X94449900Y-91668600D02*
X93850460Y-91168220D01*
X93850460Y-91168220D02*
X93550740Y-90667840D01*
X93550740Y-90667840D02*
X93449140Y-90167460D01*
X93449140Y-90068400D02*
X93449140Y-83466940D01*
X93449140Y-83466940D02*
X93550740Y-83068160D01*
X93550740Y-83068160D02*
X93850460Y-82567780D01*
X93850460Y-82567780D02*
X94350840Y-82067400D01*
X92920820Y-90058240D02*
X92969080Y-90517980D01*
X92969080Y-90517980D02*
X93080840Y-90916760D01*
X93080840Y-90916760D02*
X93299280Y-91348560D01*
X93299280Y-91348560D02*
X93530420Y-91638120D01*
X93530420Y-91638120D02*
X93880940Y-91968320D01*
X93880940Y-91968320D02*
X94419420Y-92257880D01*
X94419420Y-92257880D02*
X95018860Y-92387420D01*
X95018860Y-92387420D02*
X95529400Y-92387420D01*
X95529400Y-92387420D02*
X96230440Y-92217240D01*
X96230440Y-92217240D02*
X96819720Y-91818460D01*
X96819720Y-91818460D02*
X97190560Y-91358720D01*
X97190560Y-91358720D02*
X97398840Y-90937080D01*
X97398840Y-90937080D02*
X97558860Y-90487500D01*
X97558860Y-90487500D02*
X97589340Y-90048080D01*
X97370900Y-82707480D02*
X97149920Y-82329020D01*
X97149920Y-82329020D02*
X96870520Y-82008980D01*
X96870520Y-82008980D02*
X96540320Y-81757520D01*
X96540320Y-81757520D02*
X95989140Y-81457800D01*
X95989140Y-81457800D02*
X95519240Y-81348580D01*
X95519240Y-81348580D02*
X95059500Y-81328260D01*
X95059500Y-81328260D02*
X94599760Y-81417160D01*
X94599760Y-81417160D02*
X94150180Y-81607660D01*
X94150180Y-81607660D02*
X93680280Y-81968340D01*
X93680280Y-81968340D02*
X93360240Y-82318860D01*
X93360240Y-82318860D02*
X93129100Y-82707480D01*
X93129100Y-82707480D02*
X92989400Y-83136740D01*
X92989400Y-83136740D02*
X92920820Y-83578700D01*
X97579180Y-90068400D02*
X97579180Y-83616800D01*
X97579180Y-83616800D02*
X97541080Y-83197700D01*
X97541080Y-83197700D02*
X97370900Y-82707480D01*
X92920820Y-90068400D02*
X92920820Y-83616800D01*
X78406667Y-62952381D02*
X78406667Y-63666667D01*
X78359047Y-63809524D01*
X78263809Y-63904762D01*
X78120952Y-63952381D01*
X78025714Y-63952381D01*
X78835238Y-63047619D02*
X78882857Y-63000000D01*
X78978095Y-62952381D01*
X79216191Y-62952381D01*
X79311429Y-63000000D01*
X79359048Y-63047619D01*
X79406667Y-63142857D01*
X79406667Y-63238095D01*
X79359048Y-63380952D01*
X78787619Y-63952381D01*
X79406667Y-63952381D01*
X82335810Y-96464381D02*
X82335810Y-95464381D01*
X83383429Y-96369143D02*
X83335810Y-96416762D01*
X83192953Y-96464381D01*
X83097715Y-96464381D01*
X82954857Y-96416762D01*
X82859619Y-96321524D01*
X82812000Y-96226286D01*
X82764381Y-96035810D01*
X82764381Y-95892952D01*
X82812000Y-95702476D01*
X82859619Y-95607238D01*
X82954857Y-95512000D01*
X83097715Y-95464381D01*
X83192953Y-95464381D01*
X83335810Y-95512000D01*
X83383429Y-95559619D01*
X84335810Y-96464381D02*
X83764381Y-96464381D01*
X84050095Y-96464381D02*
X84050095Y-95464381D01*
X83954857Y-95607238D01*
X83859619Y-95702476D01*
X83764381Y-95750095D01*
X92646667Y-68476762D02*
X92789524Y-68524381D01*
X93027620Y-68524381D01*
X93122858Y-68476762D01*
X93170477Y-68429143D01*
X93218096Y-68333905D01*
X93218096Y-68238667D01*
X93170477Y-68143429D01*
X93122858Y-68095810D01*
X93027620Y-68048190D01*
X92837143Y-68000571D01*
X92741905Y-67952952D01*
X92694286Y-67905333D01*
X92646667Y-67810095D01*
X92646667Y-67714857D01*
X92694286Y-67619619D01*
X92741905Y-67572000D01*
X92837143Y-67524381D01*
X93075239Y-67524381D01*
X93218096Y-67572000D01*
X93551429Y-67524381D02*
X93789524Y-68524381D01*
X93980001Y-67810095D01*
X94170477Y-68524381D01*
X94408572Y-67524381D01*
X95313334Y-68524381D02*
X94741905Y-68524381D01*
X95027619Y-68524381D02*
X95027619Y-67524381D01*
X94932381Y-67667238D01*
X94837143Y-67762476D01*
X94741905Y-67810095D01*
X97893143Y-100242666D02*
X97940762Y-100290285D01*
X97988381Y-100433142D01*
X97988381Y-100528380D01*
X97940762Y-100671238D01*
X97845524Y-100766476D01*
X97750286Y-100814095D01*
X97559810Y-100861714D01*
X97416952Y-100861714D01*
X97226476Y-100814095D01*
X97131238Y-100766476D01*
X97036000Y-100671238D01*
X96988381Y-100528380D01*
X96988381Y-100433142D01*
X97036000Y-100290285D01*
X97083619Y-100242666D01*
X97988381Y-99766476D02*
X97988381Y-99576000D01*
X97940762Y-99480761D01*
X97893143Y-99433142D01*
X97750286Y-99337904D01*
X97559810Y-99290285D01*
X97178857Y-99290285D01*
X97083619Y-99337904D01*
X97036000Y-99385523D01*
X96988381Y-99480761D01*
X96988381Y-99671238D01*
X97036000Y-99766476D01*
X97083619Y-99814095D01*
X97178857Y-99861714D01*
X97416952Y-99861714D01*
X97512190Y-99814095D01*
X97559810Y-99766476D01*
X97607429Y-99671238D01*
X97607429Y-99480761D01*
X97559810Y-99385523D01*
X97512190Y-99337904D01*
X97416952Y-99290285D01*
X96369143Y-100210857D02*
X96416762Y-100258476D01*
X96464381Y-100401333D01*
X96464381Y-100496571D01*
X96416762Y-100639429D01*
X96321524Y-100734667D01*
X96226286Y-100782286D01*
X96035810Y-100829905D01*
X95892952Y-100829905D01*
X95702476Y-100782286D01*
X95607238Y-100734667D01*
X95512000Y-100639429D01*
X95464381Y-100496571D01*
X95464381Y-100401333D01*
X95512000Y-100258476D01*
X95559619Y-100210857D01*
X96464381Y-99258476D02*
X96464381Y-99829905D01*
X96464381Y-99544191D02*
X95464381Y-99544191D01*
X95607238Y-99639429D01*
X95702476Y-99734667D01*
X95750095Y-99829905D01*
X95464381Y-98639429D02*
X95464381Y-98544190D01*
X95512000Y-98448952D01*
X95559619Y-98401333D01*
X95654857Y-98353714D01*
X95845333Y-98306095D01*
X96083429Y-98306095D01*
X96273905Y-98353714D01*
X96369143Y-98401333D01*
X96416762Y-98448952D01*
X96464381Y-98544190D01*
X96464381Y-98639429D01*
X96416762Y-98734667D01*
X96369143Y-98782286D01*
X96273905Y-98829905D01*
X96083429Y-98877524D01*
X95845333Y-98877524D01*
X95654857Y-98829905D01*
X95559619Y-98782286D01*
X95512000Y-98734667D01*
X95464381Y-98639429D01*
X94845143Y-100210857D02*
X94892762Y-100258476D01*
X94940381Y-100401333D01*
X94940381Y-100496571D01*
X94892762Y-100639429D01*
X94797524Y-100734667D01*
X94702286Y-100782286D01*
X94511810Y-100829905D01*
X94368952Y-100829905D01*
X94178476Y-100782286D01*
X94083238Y-100734667D01*
X93988000Y-100639429D01*
X93940381Y-100496571D01*
X93940381Y-100401333D01*
X93988000Y-100258476D01*
X94035619Y-100210857D01*
X94940381Y-99258476D02*
X94940381Y-99829905D01*
X94940381Y-99544191D02*
X93940381Y-99544191D01*
X94083238Y-99639429D01*
X94178476Y-99734667D01*
X94226095Y-99829905D01*
X94940381Y-98306095D02*
X94940381Y-98877524D01*
X94940381Y-98591810D02*
X93940381Y-98591810D01*
X94083238Y-98687048D01*
X94178476Y-98782286D01*
X94226095Y-98877524D01*
X93321143Y-100210857D02*
X93368762Y-100258476D01*
X93416381Y-100401333D01*
X93416381Y-100496571D01*
X93368762Y-100639429D01*
X93273524Y-100734667D01*
X93178286Y-100782286D01*
X92987810Y-100829905D01*
X92844952Y-100829905D01*
X92654476Y-100782286D01*
X92559238Y-100734667D01*
X92464000Y-100639429D01*
X92416381Y-100496571D01*
X92416381Y-100401333D01*
X92464000Y-100258476D01*
X92511619Y-100210857D01*
X93416381Y-99258476D02*
X93416381Y-99829905D01*
X93416381Y-99544191D02*
X92416381Y-99544191D01*
X92559238Y-99639429D01*
X92654476Y-99734667D01*
X92702095Y-99829905D01*
X92511619Y-98877524D02*
X92464000Y-98829905D01*
X92416381Y-98734667D01*
X92416381Y-98496571D01*
X92464000Y-98401333D01*
X92511619Y-98353714D01*
X92606857Y-98306095D01*
X92702095Y-98306095D01*
X92844952Y-98353714D01*
X93416381Y-98925143D01*
X93416381Y-98306095D01*
X91797143Y-100210857D02*
X91844762Y-100258476D01*
X91892381Y-100401333D01*
X91892381Y-100496571D01*
X91844762Y-100639429D01*
X91749524Y-100734667D01*
X91654286Y-100782286D01*
X91463810Y-100829905D01*
X91320952Y-100829905D01*
X91130476Y-100782286D01*
X91035238Y-100734667D01*
X90940000Y-100639429D01*
X90892381Y-100496571D01*
X90892381Y-100401333D01*
X90940000Y-100258476D01*
X90987619Y-100210857D01*
X91892381Y-99258476D02*
X91892381Y-99829905D01*
X91892381Y-99544191D02*
X90892381Y-99544191D01*
X91035238Y-99639429D01*
X91130476Y-99734667D01*
X91178095Y-99829905D01*
X90892381Y-98925143D02*
X90892381Y-98306095D01*
X91273333Y-98639429D01*
X91273333Y-98496571D01*
X91320952Y-98401333D01*
X91368571Y-98353714D01*
X91463810Y-98306095D01*
X91701905Y-98306095D01*
X91797143Y-98353714D01*
X91844762Y-98401333D01*
X91892381Y-98496571D01*
X91892381Y-98782286D01*
X91844762Y-98877524D01*
X91797143Y-98925143D01*
X90273143Y-100210857D02*
X90320762Y-100258476D01*
X90368381Y-100401333D01*
X90368381Y-100496571D01*
X90320762Y-100639429D01*
X90225524Y-100734667D01*
X90130286Y-100782286D01*
X89939810Y-100829905D01*
X89796952Y-100829905D01*
X89606476Y-100782286D01*
X89511238Y-100734667D01*
X89416000Y-100639429D01*
X89368381Y-100496571D01*
X89368381Y-100401333D01*
X89416000Y-100258476D01*
X89463619Y-100210857D01*
X90368381Y-99258476D02*
X90368381Y-99829905D01*
X90368381Y-99544191D02*
X89368381Y-99544191D01*
X89511238Y-99639429D01*
X89606476Y-99734667D01*
X89654095Y-99829905D01*
X89701714Y-98401333D02*
X90368381Y-98401333D01*
X89320762Y-98639429D02*
X90035048Y-98877524D01*
X90035048Y-98258476D01*
X88749143Y-100210857D02*
X88796762Y-100258476D01*
X88844381Y-100401333D01*
X88844381Y-100496571D01*
X88796762Y-100639429D01*
X88701524Y-100734667D01*
X88606286Y-100782286D01*
X88415810Y-100829905D01*
X88272952Y-100829905D01*
X88082476Y-100782286D01*
X87987238Y-100734667D01*
X87892000Y-100639429D01*
X87844381Y-100496571D01*
X87844381Y-100401333D01*
X87892000Y-100258476D01*
X87939619Y-100210857D01*
X88844381Y-99258476D02*
X88844381Y-99829905D01*
X88844381Y-99544191D02*
X87844381Y-99544191D01*
X87987238Y-99639429D01*
X88082476Y-99734667D01*
X88130095Y-99829905D01*
X87844381Y-98353714D02*
X87844381Y-98829905D01*
X88320571Y-98877524D01*
X88272952Y-98829905D01*
X88225333Y-98734667D01*
X88225333Y-98496571D01*
X88272952Y-98401333D01*
X88320571Y-98353714D01*
X88415810Y-98306095D01*
X88653905Y-98306095D01*
X88749143Y-98353714D01*
X88796762Y-98401333D01*
X88844381Y-98496571D01*
X88844381Y-98734667D01*
X88796762Y-98829905D01*
X88749143Y-98877524D01*
X87225143Y-100210857D02*
X87272762Y-100258476D01*
X87320381Y-100401333D01*
X87320381Y-100496571D01*
X87272762Y-100639429D01*
X87177524Y-100734667D01*
X87082286Y-100782286D01*
X86891810Y-100829905D01*
X86748952Y-100829905D01*
X86558476Y-100782286D01*
X86463238Y-100734667D01*
X86368000Y-100639429D01*
X86320381Y-100496571D01*
X86320381Y-100401333D01*
X86368000Y-100258476D01*
X86415619Y-100210857D01*
X87320381Y-99258476D02*
X87320381Y-99829905D01*
X87320381Y-99544191D02*
X86320381Y-99544191D01*
X86463238Y-99639429D01*
X86558476Y-99734667D01*
X86606095Y-99829905D01*
X86320381Y-98401333D02*
X86320381Y-98591810D01*
X86368000Y-98687048D01*
X86415619Y-98734667D01*
X86558476Y-98829905D01*
X86748952Y-98877524D01*
X87129905Y-98877524D01*
X87225143Y-98829905D01*
X87272762Y-98782286D01*
X87320381Y-98687048D01*
X87320381Y-98496571D01*
X87272762Y-98401333D01*
X87225143Y-98353714D01*
X87129905Y-98306095D01*
X86891810Y-98306095D01*
X86796571Y-98353714D01*
X86748952Y-98401333D01*
X86701333Y-98496571D01*
X86701333Y-98687048D01*
X86748952Y-98782286D01*
X86796571Y-98829905D01*
X86891810Y-98877524D01*
X92051143Y-92654357D02*
X92098762Y-92701976D01*
X92146381Y-92844833D01*
X92146381Y-92940071D01*
X92098762Y-93082929D01*
X92003524Y-93178167D01*
X91908286Y-93225786D01*
X91717810Y-93273405D01*
X91574952Y-93273405D01*
X91384476Y-93225786D01*
X91289238Y-93178167D01*
X91194000Y-93082929D01*
X91146381Y-92940071D01*
X91146381Y-92844833D01*
X91194000Y-92701976D01*
X91241619Y-92654357D01*
X92146381Y-91701976D02*
X92146381Y-92273405D01*
X92146381Y-91987691D02*
X91146381Y-91987691D01*
X91289238Y-92082929D01*
X91384476Y-92178167D01*
X91432095Y-92273405D01*
X91146381Y-91368643D02*
X91146381Y-90701976D01*
X92146381Y-91130548D01*
X92051143Y-82176857D02*
X92098762Y-82224476D01*
X92146381Y-82367333D01*
X92146381Y-82462571D01*
X92098762Y-82605429D01*
X92003524Y-82700667D01*
X91908286Y-82748286D01*
X91717810Y-82795905D01*
X91574952Y-82795905D01*
X91384476Y-82748286D01*
X91289238Y-82700667D01*
X91194000Y-82605429D01*
X91146381Y-82462571D01*
X91146381Y-82367333D01*
X91194000Y-82224476D01*
X91241619Y-82176857D01*
X92146381Y-81224476D02*
X92146381Y-81795905D01*
X92146381Y-81510191D02*
X91146381Y-81510191D01*
X91289238Y-81605429D01*
X91384476Y-81700667D01*
X91432095Y-81795905D01*
X91574952Y-80653048D02*
X91527333Y-80748286D01*
X91479714Y-80795905D01*
X91384476Y-80843524D01*
X91336857Y-80843524D01*
X91241619Y-80795905D01*
X91194000Y-80748286D01*
X91146381Y-80653048D01*
X91146381Y-80462571D01*
X91194000Y-80367333D01*
X91241619Y-80319714D01*
X91336857Y-80272095D01*
X91384476Y-80272095D01*
X91479714Y-80319714D01*
X91527333Y-80367333D01*
X91574952Y-80462571D01*
X91574952Y-80653048D01*
X91622571Y-80748286D01*
X91670190Y-80795905D01*
X91765429Y-80843524D01*
X91955905Y-80843524D01*
X92051143Y-80795905D01*
X92098762Y-80748286D01*
X92146381Y-80653048D01*
X92146381Y-80462571D01*
X92098762Y-80367333D01*
X92051143Y-80319714D01*
X91955905Y-80272095D01*
X91765429Y-80272095D01*
X91670190Y-80319714D01*
X91622571Y-80367333D01*
X91574952Y-80462571D01*
X75282143Y-88272857D02*
X75329762Y-88320476D01*
X75377381Y-88463333D01*
X75377381Y-88558571D01*
X75329762Y-88701429D01*
X75234524Y-88796667D01*
X75139286Y-88844286D01*
X74948810Y-88891905D01*
X74805952Y-88891905D01*
X74615476Y-88844286D01*
X74520238Y-88796667D01*
X74425000Y-88701429D01*
X74377381Y-88558571D01*
X74377381Y-88463333D01*
X74425000Y-88320476D01*
X74472619Y-88272857D01*
X75377381Y-87320476D02*
X75377381Y-87891905D01*
X75377381Y-87606191D02*
X74377381Y-87606191D01*
X74520238Y-87701429D01*
X74615476Y-87796667D01*
X74663095Y-87891905D01*
X75377381Y-86844286D02*
X75377381Y-86653810D01*
X75329762Y-86558571D01*
X75282143Y-86510952D01*
X75139286Y-86415714D01*
X74948810Y-86368095D01*
X74567857Y-86368095D01*
X74472619Y-86415714D01*
X74425000Y-86463333D01*
X74377381Y-86558571D01*
X74377381Y-86749048D01*
X74425000Y-86844286D01*
X74472619Y-86891905D01*
X74567857Y-86939524D01*
X74805952Y-86939524D01*
X74901190Y-86891905D01*
X74948810Y-86844286D01*
X74996429Y-86749048D01*
X74996429Y-86558571D01*
X74948810Y-86463333D01*
X74901190Y-86415714D01*
X74805952Y-86368095D01*
X69831143Y-85986857D02*
X69878762Y-86034476D01*
X69926381Y-86177333D01*
X69926381Y-86272571D01*
X69878762Y-86415429D01*
X69783524Y-86510667D01*
X69688286Y-86558286D01*
X69497810Y-86605905D01*
X69354952Y-86605905D01*
X69164476Y-86558286D01*
X69069238Y-86510667D01*
X68974000Y-86415429D01*
X68926381Y-86272571D01*
X68926381Y-86177333D01*
X68974000Y-86034476D01*
X69021619Y-85986857D01*
X69021619Y-85605905D02*
X68974000Y-85558286D01*
X68926381Y-85463048D01*
X68926381Y-85224952D01*
X68974000Y-85129714D01*
X69021619Y-85082095D01*
X69116857Y-85034476D01*
X69212095Y-85034476D01*
X69354952Y-85082095D01*
X69926381Y-85653524D01*
X69926381Y-85034476D01*
X68926381Y-84415429D02*
X68926381Y-84320190D01*
X68974000Y-84224952D01*
X69021619Y-84177333D01*
X69116857Y-84129714D01*
X69307333Y-84082095D01*
X69545429Y-84082095D01*
X69735905Y-84129714D01*
X69831143Y-84177333D01*
X69878762Y-84224952D01*
X69926381Y-84320190D01*
X69926381Y-84415429D01*
X69878762Y-84510667D01*
X69831143Y-84558286D01*
X69735905Y-84605905D01*
X69545429Y-84653524D01*
X69307333Y-84653524D01*
X69116857Y-84605905D01*
X69021619Y-84558286D01*
X68974000Y-84510667D01*
X68926381Y-84415429D01*
X88082381Y-111863095D02*
X87082381Y-111863095D01*
X87082381Y-111482142D01*
X87130000Y-111386904D01*
X87177619Y-111339285D01*
X87272857Y-111291666D01*
X87415714Y-111291666D01*
X87510952Y-111339285D01*
X87558571Y-111386904D01*
X87606190Y-111482142D01*
X87606190Y-111863095D01*
X87177619Y-110910714D02*
X87130000Y-110863095D01*
X87082381Y-110767857D01*
X87082381Y-110529761D01*
X87130000Y-110434523D01*
X87177619Y-110386904D01*
X87272857Y-110339285D01*
X87368095Y-110339285D01*
X87510952Y-110386904D01*
X88082381Y-110958333D01*
X88082381Y-110339285D01*
X97988381Y-104814666D02*
X97512190Y-105148000D01*
X97988381Y-105386095D02*
X96988381Y-105386095D01*
X96988381Y-105005142D01*
X97036000Y-104909904D01*
X97083619Y-104862285D01*
X97178857Y-104814666D01*
X97321714Y-104814666D01*
X97416952Y-104862285D01*
X97464571Y-104909904D01*
X97512190Y-105005142D01*
X97512190Y-105386095D01*
X96988381Y-104481333D02*
X96988381Y-103814666D01*
X97988381Y-104243238D01*
X94940381Y-104814666D02*
X94464190Y-105148000D01*
X94940381Y-105386095D02*
X93940381Y-105386095D01*
X93940381Y-105005142D01*
X93988000Y-104909904D01*
X94035619Y-104862285D01*
X94130857Y-104814666D01*
X94273714Y-104814666D01*
X94368952Y-104862285D01*
X94416571Y-104909904D01*
X94464190Y-105005142D01*
X94464190Y-105386095D01*
X94368952Y-104243238D02*
X94321333Y-104338476D01*
X94273714Y-104386095D01*
X94178476Y-104433714D01*
X94130857Y-104433714D01*
X94035619Y-104386095D01*
X93988000Y-104338476D01*
X93940381Y-104243238D01*
X93940381Y-104052761D01*
X93988000Y-103957523D01*
X94035619Y-103909904D01*
X94130857Y-103862285D01*
X94178476Y-103862285D01*
X94273714Y-103909904D01*
X94321333Y-103957523D01*
X94368952Y-104052761D01*
X94368952Y-104243238D01*
X94416571Y-104338476D01*
X94464190Y-104386095D01*
X94559429Y-104433714D01*
X94749905Y-104433714D01*
X94845143Y-104386095D01*
X94892762Y-104338476D01*
X94940381Y-104243238D01*
X94940381Y-104052761D01*
X94892762Y-103957523D01*
X94845143Y-103909904D01*
X94749905Y-103862285D01*
X94559429Y-103862285D01*
X94464190Y-103909904D01*
X94416571Y-103957523D01*
X94368952Y-104052761D01*
X91892381Y-104814666D02*
X91416190Y-105148000D01*
X91892381Y-105386095D02*
X90892381Y-105386095D01*
X90892381Y-105005142D01*
X90940000Y-104909904D01*
X90987619Y-104862285D01*
X91082857Y-104814666D01*
X91225714Y-104814666D01*
X91320952Y-104862285D01*
X91368571Y-104909904D01*
X91416190Y-105005142D01*
X91416190Y-105386095D01*
X91892381Y-104338476D02*
X91892381Y-104148000D01*
X91844762Y-104052761D01*
X91797143Y-104005142D01*
X91654286Y-103909904D01*
X91463810Y-103862285D01*
X91082857Y-103862285D01*
X90987619Y-103909904D01*
X90940000Y-103957523D01*
X90892381Y-104052761D01*
X90892381Y-104243238D01*
X90940000Y-104338476D01*
X90987619Y-104386095D01*
X91082857Y-104433714D01*
X91320952Y-104433714D01*
X91416190Y-104386095D01*
X91463810Y-104338476D01*
X91511429Y-104243238D01*
X91511429Y-104052761D01*
X91463810Y-103957523D01*
X91416190Y-103909904D01*
X91320952Y-103862285D01*
X88844381Y-104782857D02*
X88368190Y-105116191D01*
X88844381Y-105354286D02*
X87844381Y-105354286D01*
X87844381Y-104973333D01*
X87892000Y-104878095D01*
X87939619Y-104830476D01*
X88034857Y-104782857D01*
X88177714Y-104782857D01*
X88272952Y-104830476D01*
X88320571Y-104878095D01*
X88368190Y-104973333D01*
X88368190Y-105354286D01*
X88844381Y-103830476D02*
X88844381Y-104401905D01*
X88844381Y-104116191D02*
X87844381Y-104116191D01*
X87987238Y-104211429D01*
X88082476Y-104306667D01*
X88130095Y-104401905D01*
X87844381Y-103211429D02*
X87844381Y-103116190D01*
X87892000Y-103020952D01*
X87939619Y-102973333D01*
X88034857Y-102925714D01*
X88225333Y-102878095D01*
X88463429Y-102878095D01*
X88653905Y-102925714D01*
X88749143Y-102973333D01*
X88796762Y-103020952D01*
X88844381Y-103116190D01*
X88844381Y-103211429D01*
X88796762Y-103306667D01*
X88749143Y-103354286D01*
X88653905Y-103401905D01*
X88463429Y-103449524D01*
X88225333Y-103449524D01*
X88034857Y-103401905D01*
X87939619Y-103354286D01*
X87892000Y-103306667D01*
X87844381Y-103211429D01*
X96464381Y-104782857D02*
X95988190Y-105116191D01*
X96464381Y-105354286D02*
X95464381Y-105354286D01*
X95464381Y-104973333D01*
X95512000Y-104878095D01*
X95559619Y-104830476D01*
X95654857Y-104782857D01*
X95797714Y-104782857D01*
X95892952Y-104830476D01*
X95940571Y-104878095D01*
X95988190Y-104973333D01*
X95988190Y-105354286D01*
X96464381Y-103830476D02*
X96464381Y-104401905D01*
X96464381Y-104116191D02*
X95464381Y-104116191D01*
X95607238Y-104211429D01*
X95702476Y-104306667D01*
X95750095Y-104401905D01*
X96464381Y-102878095D02*
X96464381Y-103449524D01*
X96464381Y-103163810D02*
X95464381Y-103163810D01*
X95607238Y-103259048D01*
X95702476Y-103354286D01*
X95750095Y-103449524D01*
X93416381Y-104782857D02*
X92940190Y-105116191D01*
X93416381Y-105354286D02*
X92416381Y-105354286D01*
X92416381Y-104973333D01*
X92464000Y-104878095D01*
X92511619Y-104830476D01*
X92606857Y-104782857D01*
X92749714Y-104782857D01*
X92844952Y-104830476D01*
X92892571Y-104878095D01*
X92940190Y-104973333D01*
X92940190Y-105354286D01*
X93416381Y-103830476D02*
X93416381Y-104401905D01*
X93416381Y-104116191D02*
X92416381Y-104116191D01*
X92559238Y-104211429D01*
X92654476Y-104306667D01*
X92702095Y-104401905D01*
X92511619Y-103449524D02*
X92464000Y-103401905D01*
X92416381Y-103306667D01*
X92416381Y-103068571D01*
X92464000Y-102973333D01*
X92511619Y-102925714D01*
X92606857Y-102878095D01*
X92702095Y-102878095D01*
X92844952Y-102925714D01*
X93416381Y-103497143D01*
X93416381Y-102878095D01*
X90368381Y-104782857D02*
X89892190Y-105116191D01*
X90368381Y-105354286D02*
X89368381Y-105354286D01*
X89368381Y-104973333D01*
X89416000Y-104878095D01*
X89463619Y-104830476D01*
X89558857Y-104782857D01*
X89701714Y-104782857D01*
X89796952Y-104830476D01*
X89844571Y-104878095D01*
X89892190Y-104973333D01*
X89892190Y-105354286D01*
X90368381Y-103830476D02*
X90368381Y-104401905D01*
X90368381Y-104116191D02*
X89368381Y-104116191D01*
X89511238Y-104211429D01*
X89606476Y-104306667D01*
X89654095Y-104401905D01*
X89368381Y-103497143D02*
X89368381Y-102878095D01*
X89749333Y-103211429D01*
X89749333Y-103068571D01*
X89796952Y-102973333D01*
X89844571Y-102925714D01*
X89939810Y-102878095D01*
X90177905Y-102878095D01*
X90273143Y-102925714D01*
X90320762Y-102973333D01*
X90368381Y-103068571D01*
X90368381Y-103354286D01*
X90320762Y-103449524D01*
X90273143Y-103497143D01*
X87320381Y-104782857D02*
X86844190Y-105116191D01*
X87320381Y-105354286D02*
X86320381Y-105354286D01*
X86320381Y-104973333D01*
X86368000Y-104878095D01*
X86415619Y-104830476D01*
X86510857Y-104782857D01*
X86653714Y-104782857D01*
X86748952Y-104830476D01*
X86796571Y-104878095D01*
X86844190Y-104973333D01*
X86844190Y-105354286D01*
X87320381Y-103830476D02*
X87320381Y-104401905D01*
X87320381Y-104116191D02*
X86320381Y-104116191D01*
X86463238Y-104211429D01*
X86558476Y-104306667D01*
X86606095Y-104401905D01*
X86653714Y-102973333D02*
X87320381Y-102973333D01*
X86272762Y-103211429D02*
X86987048Y-103449524D01*
X86987048Y-102830476D01*
X103322381Y-70238857D02*
X102846190Y-70572191D01*
X103322381Y-70810286D02*
X102322381Y-70810286D01*
X102322381Y-70429333D01*
X102370000Y-70334095D01*
X102417619Y-70286476D01*
X102512857Y-70238857D01*
X102655714Y-70238857D01*
X102750952Y-70286476D01*
X102798571Y-70334095D01*
X102846190Y-70429333D01*
X102846190Y-70810286D01*
X103322381Y-69286476D02*
X103322381Y-69857905D01*
X103322381Y-69572191D02*
X102322381Y-69572191D01*
X102465238Y-69667429D01*
X102560476Y-69762667D01*
X102608095Y-69857905D01*
X102322381Y-68381714D02*
X102322381Y-68857905D01*
X102798571Y-68905524D01*
X102750952Y-68857905D01*
X102703333Y-68762667D01*
X102703333Y-68524571D01*
X102750952Y-68429333D01*
X102798571Y-68381714D01*
X102893810Y-68334095D01*
X103131905Y-68334095D01*
X103227143Y-68381714D01*
X103274762Y-68429333D01*
X103322381Y-68524571D01*
X103322381Y-68762667D01*
X103274762Y-68857905D01*
X103227143Y-68905524D01*
X100782381Y-70238857D02*
X100306190Y-70572191D01*
X100782381Y-70810286D02*
X99782381Y-70810286D01*
X99782381Y-70429333D01*
X99830000Y-70334095D01*
X99877619Y-70286476D01*
X99972857Y-70238857D01*
X100115714Y-70238857D01*
X100210952Y-70286476D01*
X100258571Y-70334095D01*
X100306190Y-70429333D01*
X100306190Y-70810286D01*
X100782381Y-69286476D02*
X100782381Y-69857905D01*
X100782381Y-69572191D02*
X99782381Y-69572191D01*
X99925238Y-69667429D01*
X100020476Y-69762667D01*
X100068095Y-69857905D01*
X99782381Y-68429333D02*
X99782381Y-68619810D01*
X99830000Y-68715048D01*
X99877619Y-68762667D01*
X100020476Y-68857905D01*
X100210952Y-68905524D01*
X100591905Y-68905524D01*
X100687143Y-68857905D01*
X100734762Y-68810286D01*
X100782381Y-68715048D01*
X100782381Y-68524571D01*
X100734762Y-68429333D01*
X100687143Y-68381714D01*
X100591905Y-68334095D01*
X100353810Y-68334095D01*
X100258571Y-68381714D01*
X100210952Y-68429333D01*
X100163333Y-68524571D01*
X100163333Y-68715048D01*
X100210952Y-68810286D01*
X100258571Y-68857905D01*
X100353810Y-68905524D01*
X86225143Y-71985143D02*
X86177524Y-72032762D01*
X86034667Y-72080381D01*
X85939429Y-72080381D01*
X85796571Y-72032762D01*
X85701333Y-71937524D01*
X85653714Y-71842286D01*
X85606095Y-71651810D01*
X85606095Y-71508952D01*
X85653714Y-71318476D01*
X85701333Y-71223238D01*
X85796571Y-71128000D01*
X85939429Y-71080381D01*
X86034667Y-71080381D01*
X86177524Y-71128000D01*
X86225143Y-71175619D01*
X86606095Y-71175619D02*
X86653714Y-71128000D01*
X86748952Y-71080381D01*
X86987048Y-71080381D01*
X87082286Y-71128000D01*
X87129905Y-71175619D01*
X87177524Y-71270857D01*
X87177524Y-71366095D01*
X87129905Y-71508952D01*
X86558476Y-72080381D01*
X87177524Y-72080381D01*
X88129905Y-72080381D02*
X87558476Y-72080381D01*
X87844190Y-72080381D02*
X87844190Y-71080381D01*
X87748952Y-71223238D01*
X87653714Y-71318476D01*
X87558476Y-71366095D01*
X66333619Y-70707238D02*
X66286000Y-70802476D01*
X66190762Y-70897714D01*
X66047905Y-71040571D01*
X66000286Y-71135810D01*
X66000286Y-71231048D01*
X66238381Y-71183429D02*
X66190762Y-71278667D01*
X66095524Y-71373905D01*
X65905048Y-71421524D01*
X65571714Y-71421524D01*
X65381238Y-71373905D01*
X65286000Y-71278667D01*
X65238381Y-71183429D01*
X65238381Y-70992952D01*
X65286000Y-70897714D01*
X65381238Y-70802476D01*
X65571714Y-70754857D01*
X65905048Y-70754857D01*
X66095524Y-70802476D01*
X66190762Y-70897714D01*
X66238381Y-70992952D01*
X66238381Y-71183429D01*
X66238381Y-69802476D02*
X66238381Y-70373905D01*
X66238381Y-70088191D02*
X65238381Y-70088191D01*
X65381238Y-70183429D01*
X65476476Y-70278667D01*
X65524095Y-70373905D01*
X65857381Y-69095857D02*
X65381190Y-69429191D01*
X65857381Y-69667286D02*
X64857381Y-69667286D01*
X64857381Y-69286333D01*
X64905000Y-69191095D01*
X64952619Y-69143476D01*
X65047857Y-69095857D01*
X65190714Y-69095857D01*
X65285952Y-69143476D01*
X65333571Y-69191095D01*
X65381190Y-69286333D01*
X65381190Y-69667286D01*
X65857381Y-68143476D02*
X65857381Y-68714905D01*
X65857381Y-68429191D02*
X64857381Y-68429191D01*
X65000238Y-68524429D01*
X65095476Y-68619667D01*
X65143095Y-68714905D01*
X64857381Y-67810143D02*
X64857381Y-67143476D01*
X65857381Y-67572048D01*
X75763381Y-71000857D02*
X75287190Y-71334191D01*
X75763381Y-71572286D02*
X74763381Y-71572286D01*
X74763381Y-71191333D01*
X74811000Y-71096095D01*
X74858619Y-71048476D01*
X74953857Y-71000857D01*
X75096714Y-71000857D01*
X75191952Y-71048476D01*
X75239571Y-71096095D01*
X75287190Y-71191333D01*
X75287190Y-71572286D01*
X75763381Y-70048476D02*
X75763381Y-70619905D01*
X75763381Y-70334191D02*
X74763381Y-70334191D01*
X74906238Y-70429429D01*
X75001476Y-70524667D01*
X75049095Y-70619905D01*
X75191952Y-69477048D02*
X75144333Y-69572286D01*
X75096714Y-69619905D01*
X75001476Y-69667524D01*
X74953857Y-69667524D01*
X74858619Y-69619905D01*
X74811000Y-69572286D01*
X74763381Y-69477048D01*
X74763381Y-69286571D01*
X74811000Y-69191333D01*
X74858619Y-69143714D01*
X74953857Y-69096095D01*
X75001476Y-69096095D01*
X75096714Y-69143714D01*
X75144333Y-69191333D01*
X75191952Y-69286571D01*
X75191952Y-69477048D01*
X75239571Y-69572286D01*
X75287190Y-69619905D01*
X75382429Y-69667524D01*
X75572905Y-69667524D01*
X75668143Y-69619905D01*
X75715762Y-69572286D01*
X75763381Y-69477048D01*
X75763381Y-69286571D01*
X75715762Y-69191333D01*
X75668143Y-69143714D01*
X75572905Y-69096095D01*
X75382429Y-69096095D01*
X75287190Y-69143714D01*
X75239571Y-69191333D01*
X75191952Y-69286571D01*
X90289143Y-77160381D02*
X89955809Y-76684190D01*
X89717714Y-77160381D02*
X89717714Y-76160381D01*
X90098667Y-76160381D01*
X90193905Y-76208000D01*
X90241524Y-76255619D01*
X90289143Y-76350857D01*
X90289143Y-76493714D01*
X90241524Y-76588952D01*
X90193905Y-76636571D01*
X90098667Y-76684190D01*
X89717714Y-76684190D01*
X91241524Y-77160381D02*
X90670095Y-77160381D01*
X90955809Y-77160381D02*
X90955809Y-76160381D01*
X90860571Y-76303238D01*
X90765333Y-76398476D01*
X90670095Y-76446095D01*
X91717714Y-77160381D02*
X91908190Y-77160381D01*
X92003429Y-77112762D01*
X92051048Y-77065143D01*
X92146286Y-76922286D01*
X92193905Y-76731810D01*
X92193905Y-76350857D01*
X92146286Y-76255619D01*
X92098667Y-76208000D01*
X92003429Y-76160381D01*
X91812952Y-76160381D01*
X91717714Y-76208000D01*
X91670095Y-76255619D01*
X91622476Y-76350857D01*
X91622476Y-76588952D01*
X91670095Y-76684190D01*
X91717714Y-76731810D01*
X91812952Y-76779429D01*
X92003429Y-76779429D01*
X92098667Y-76731810D01*
X92146286Y-76684190D01*
X92193905Y-76588952D01*
X77120762Y-69635619D02*
X77025524Y-69588000D01*
X76930286Y-69492762D01*
X76787429Y-69349905D01*
X76692190Y-69302286D01*
X76596952Y-69302286D01*
X76644571Y-69540381D02*
X76549333Y-69492762D01*
X76454095Y-69397524D01*
X76406476Y-69207048D01*
X76406476Y-68873714D01*
X76454095Y-68683238D01*
X76549333Y-68588000D01*
X76644571Y-68540381D01*
X76835048Y-68540381D01*
X76930286Y-68588000D01*
X77025524Y-68683238D01*
X77073143Y-68873714D01*
X77073143Y-69207048D01*
X77025524Y-69397524D01*
X76930286Y-69492762D01*
X76835048Y-69540381D01*
X76644571Y-69540381D01*
X77454095Y-68635619D02*
X77501714Y-68588000D01*
X77596952Y-68540381D01*
X77835048Y-68540381D01*
X77930286Y-68588000D01*
X77977905Y-68635619D01*
X78025524Y-68730857D01*
X78025524Y-68826095D01*
X77977905Y-68968952D01*
X77406476Y-69540381D01*
X78025524Y-69540381D01*
X82200762Y-79795619D02*
X82105524Y-79748000D01*
X82010286Y-79652762D01*
X81867429Y-79509905D01*
X81772190Y-79462286D01*
X81676952Y-79462286D01*
X81724571Y-79700381D02*
X81629333Y-79652762D01*
X81534095Y-79557524D01*
X81486476Y-79367048D01*
X81486476Y-79033714D01*
X81534095Y-78843238D01*
X81629333Y-78748000D01*
X81724571Y-78700381D01*
X81915048Y-78700381D01*
X82010286Y-78748000D01*
X82105524Y-78843238D01*
X82153143Y-79033714D01*
X82153143Y-79367048D01*
X82105524Y-79557524D01*
X82010286Y-79652762D01*
X81915048Y-79700381D01*
X81724571Y-79700381D01*
X82486476Y-78700381D02*
X83105524Y-78700381D01*
X82772190Y-79081333D01*
X82915048Y-79081333D01*
X83010286Y-79128952D01*
X83057905Y-79176571D01*
X83105524Y-79271810D01*
X83105524Y-79509905D01*
X83057905Y-79605143D01*
X83010286Y-79652762D01*
X82915048Y-79700381D01*
X82629333Y-79700381D01*
X82534095Y-79652762D01*
X82486476Y-79605143D01*
X90289143Y-74620381D02*
X89955809Y-74144190D01*
X89717714Y-74620381D02*
X89717714Y-73620381D01*
X90098667Y-73620381D01*
X90193905Y-73668000D01*
X90241524Y-73715619D01*
X90289143Y-73810857D01*
X90289143Y-73953714D01*
X90241524Y-74048952D01*
X90193905Y-74096571D01*
X90098667Y-74144190D01*
X89717714Y-74144190D01*
X90670095Y-73715619D02*
X90717714Y-73668000D01*
X90812952Y-73620381D01*
X91051048Y-73620381D01*
X91146286Y-73668000D01*
X91193905Y-73715619D01*
X91241524Y-73810857D01*
X91241524Y-73906095D01*
X91193905Y-74048952D01*
X90622476Y-74620381D01*
X91241524Y-74620381D01*
X91860571Y-73620381D02*
X91955810Y-73620381D01*
X92051048Y-73668000D01*
X92098667Y-73715619D01*
X92146286Y-73810857D01*
X92193905Y-74001333D01*
X92193905Y-74239429D01*
X92146286Y-74429905D01*
X92098667Y-74525143D01*
X92051048Y-74572762D01*
X91955810Y-74620381D01*
X91860571Y-74620381D01*
X91765333Y-74572762D01*
X91717714Y-74525143D01*
X91670095Y-74429905D01*
X91622476Y-74239429D01*
X91622476Y-74001333D01*
X91670095Y-73810857D01*
X91717714Y-73715619D01*
X91765333Y-73668000D01*
X91860571Y-73620381D01*
X82669143Y-69032381D02*
X82335809Y-68556190D01*
X82097714Y-69032381D02*
X82097714Y-68032381D01*
X82478667Y-68032381D01*
X82573905Y-68080000D01*
X82621524Y-68127619D01*
X82669143Y-68222857D01*
X82669143Y-68365714D01*
X82621524Y-68460952D01*
X82573905Y-68508571D01*
X82478667Y-68556190D01*
X82097714Y-68556190D01*
X83050095Y-68127619D02*
X83097714Y-68080000D01*
X83192952Y-68032381D01*
X83431048Y-68032381D01*
X83526286Y-68080000D01*
X83573905Y-68127619D01*
X83621524Y-68222857D01*
X83621524Y-68318095D01*
X83573905Y-68460952D01*
X83002476Y-69032381D01*
X83621524Y-69032381D01*
X84573905Y-69032381D02*
X84002476Y-69032381D01*
X84288190Y-69032381D02*
X84288190Y-68032381D01*
X84192952Y-68175238D01*
X84097714Y-68270476D01*
X84002476Y-68318095D01*
X114577905Y-96464381D02*
X114577905Y-95464381D01*
X114816000Y-95464381D01*
X114958858Y-95512000D01*
X115054096Y-95607238D01*
X115101715Y-95702476D01*
X115149334Y-95892952D01*
X115149334Y-96035810D01*
X115101715Y-96226286D01*
X115054096Y-96321524D01*
X114958858Y-96416762D01*
X114816000Y-96464381D01*
X114577905Y-96464381D01*
X115482667Y-95464381D02*
X116101715Y-95464381D01*
X115768381Y-95845333D01*
X115911239Y-95845333D01*
X116006477Y-95892952D01*
X116054096Y-95940571D01*
X116101715Y-96035810D01*
X116101715Y-96273905D01*
X116054096Y-96369143D01*
X116006477Y-96416762D01*
X115911239Y-96464381D01*
X115625524Y-96464381D01*
X115530286Y-96416762D01*
X115482667Y-96369143D01*
X119657905Y-94940381D02*
X119657905Y-93940381D01*
X120038858Y-93940381D01*
X120134096Y-93988000D01*
X120181715Y-94035619D01*
X120229334Y-94130857D01*
X120229334Y-94273714D01*
X120181715Y-94368952D01*
X120134096Y-94416571D01*
X120038858Y-94464190D01*
X119657905Y-94464190D01*
X121086477Y-94273714D02*
X121086477Y-94940381D01*
X120848381Y-93892762D02*
X120610286Y-94607048D01*
X121229334Y-94607048D01*
X121181905Y-106116381D02*
X121181905Y-105116381D01*
X121562858Y-105116381D01*
X121658096Y-105164000D01*
X121705715Y-105211619D01*
X121753334Y-105306857D01*
X121753334Y-105449714D01*
X121705715Y-105544952D01*
X121658096Y-105592571D01*
X121562858Y-105640190D01*
X121181905Y-105640190D01*
X122658096Y-105116381D02*
X122181905Y-105116381D01*
X122134286Y-105592571D01*
X122181905Y-105544952D01*
X122277143Y-105497333D01*
X122515239Y-105497333D01*
X122610477Y-105544952D01*
X122658096Y-105592571D01*
X122705715Y-105687810D01*
X122705715Y-105925905D01*
X122658096Y-106021143D01*
X122610477Y-106068762D01*
X122515239Y-106116381D01*
X122277143Y-106116381D01*
X122181905Y-106068762D01*
X122134286Y-106021143D01*
X112807762Y-89955619D02*
X112712524Y-89908000D01*
X112617286Y-89812762D01*
X112474429Y-89669905D01*
X112379190Y-89622286D01*
X112283952Y-89622286D01*
X112331571Y-89860381D02*
X112236333Y-89812762D01*
X112141095Y-89717524D01*
X112093476Y-89527048D01*
X112093476Y-89193714D01*
X112141095Y-89003238D01*
X112236333Y-88908000D01*
X112331571Y-88860381D01*
X112522048Y-88860381D01*
X112617286Y-88908000D01*
X112712524Y-89003238D01*
X112760143Y-89193714D01*
X112760143Y-89527048D01*
X112712524Y-89717524D01*
X112617286Y-89812762D01*
X112522048Y-89860381D01*
X112331571Y-89860381D01*
X113664905Y-88860381D02*
X113188714Y-88860381D01*
X113141095Y-89336571D01*
X113188714Y-89288952D01*
X113283952Y-89241333D01*
X113522048Y-89241333D01*
X113617286Y-89288952D01*
X113664905Y-89336571D01*
X113712524Y-89431810D01*
X113712524Y-89669905D01*
X113664905Y-89765143D01*
X113617286Y-89812762D01*
X113522048Y-89860381D01*
X113283952Y-89860381D01*
X113188714Y-89812762D01*
X113141095Y-89765143D01*
X106211619Y-82391238D02*
X106164000Y-82486476D01*
X106068762Y-82581714D01*
X105925905Y-82724571D01*
X105878286Y-82819810D01*
X105878286Y-82915048D01*
X106116381Y-82867429D02*
X106068762Y-82962667D01*
X105973524Y-83057905D01*
X105783048Y-83105524D01*
X105449714Y-83105524D01*
X105259238Y-83057905D01*
X105164000Y-82962667D01*
X105116381Y-82867429D01*
X105116381Y-82676952D01*
X105164000Y-82581714D01*
X105259238Y-82486476D01*
X105449714Y-82438857D01*
X105783048Y-82438857D01*
X105973524Y-82486476D01*
X106068762Y-82581714D01*
X106116381Y-82676952D01*
X106116381Y-82867429D01*
X105116381Y-81581714D02*
X105116381Y-81772191D01*
X105164000Y-81867429D01*
X105211619Y-81915048D01*
X105354476Y-82010286D01*
X105544952Y-82057905D01*
X105925905Y-82057905D01*
X106021143Y-82010286D01*
X106068762Y-81962667D01*
X106116381Y-81867429D01*
X106116381Y-81676952D01*
X106068762Y-81581714D01*
X106021143Y-81534095D01*
X105925905Y-81486476D01*
X105687810Y-81486476D01*
X105592571Y-81534095D01*
X105544952Y-81581714D01*
X105497333Y-81676952D01*
X105497333Y-81867429D01*
X105544952Y-81962667D01*
X105592571Y-82010286D01*
X105687810Y-82057905D01*
X115689143Y-87828381D02*
X115355809Y-87352190D01*
X115117714Y-87828381D02*
X115117714Y-86828381D01*
X115498667Y-86828381D01*
X115593905Y-86876000D01*
X115641524Y-86923619D01*
X115689143Y-87018857D01*
X115689143Y-87161714D01*
X115641524Y-87256952D01*
X115593905Y-87304571D01*
X115498667Y-87352190D01*
X115117714Y-87352190D01*
X116070095Y-86923619D02*
X116117714Y-86876000D01*
X116212952Y-86828381D01*
X116451048Y-86828381D01*
X116546286Y-86876000D01*
X116593905Y-86923619D01*
X116641524Y-87018857D01*
X116641524Y-87114095D01*
X116593905Y-87256952D01*
X116022476Y-87828381D01*
X116641524Y-87828381D01*
X117022476Y-86923619D02*
X117070095Y-86876000D01*
X117165333Y-86828381D01*
X117403429Y-86828381D01*
X117498667Y-86876000D01*
X117546286Y-86923619D01*
X117593905Y-87018857D01*
X117593905Y-87114095D01*
X117546286Y-87256952D01*
X116974857Y-87828381D01*
X117593905Y-87828381D01*
X99687143Y-89161881D02*
X99353809Y-88685690D01*
X99115714Y-89161881D02*
X99115714Y-88161881D01*
X99496667Y-88161881D01*
X99591905Y-88209500D01*
X99639524Y-88257119D01*
X99687143Y-88352357D01*
X99687143Y-88495214D01*
X99639524Y-88590452D01*
X99591905Y-88638071D01*
X99496667Y-88685690D01*
X99115714Y-88685690D01*
X100068095Y-88257119D02*
X100115714Y-88209500D01*
X100210952Y-88161881D01*
X100449048Y-88161881D01*
X100544286Y-88209500D01*
X100591905Y-88257119D01*
X100639524Y-88352357D01*
X100639524Y-88447595D01*
X100591905Y-88590452D01*
X100020476Y-89161881D01*
X100639524Y-89161881D01*
X100972857Y-88161881D02*
X101591905Y-88161881D01*
X101258571Y-88542833D01*
X101401429Y-88542833D01*
X101496667Y-88590452D01*
X101544286Y-88638071D01*
X101591905Y-88733310D01*
X101591905Y-88971405D01*
X101544286Y-89066643D01*
X101496667Y-89114262D01*
X101401429Y-89161881D01*
X101115714Y-89161881D01*
X101020476Y-89114262D01*
X100972857Y-89066643D01*
X115689143Y-99004381D02*
X115355809Y-98528190D01*
X115117714Y-99004381D02*
X115117714Y-98004381D01*
X115498667Y-98004381D01*
X115593905Y-98052000D01*
X115641524Y-98099619D01*
X115689143Y-98194857D01*
X115689143Y-98337714D01*
X115641524Y-98432952D01*
X115593905Y-98480571D01*
X115498667Y-98528190D01*
X115117714Y-98528190D01*
X116070095Y-98099619D02*
X116117714Y-98052000D01*
X116212952Y-98004381D01*
X116451048Y-98004381D01*
X116546286Y-98052000D01*
X116593905Y-98099619D01*
X116641524Y-98194857D01*
X116641524Y-98290095D01*
X116593905Y-98432952D01*
X116022476Y-99004381D01*
X116641524Y-99004381D01*
X117498667Y-98337714D02*
X117498667Y-99004381D01*
X117260571Y-97956762D02*
X117022476Y-98671048D01*
X117641524Y-98671048D01*
X111196381Y-102242857D02*
X110720190Y-102576191D01*
X111196381Y-102814286D02*
X110196381Y-102814286D01*
X110196381Y-102433333D01*
X110244000Y-102338095D01*
X110291619Y-102290476D01*
X110386857Y-102242857D01*
X110529714Y-102242857D01*
X110624952Y-102290476D01*
X110672571Y-102338095D01*
X110720190Y-102433333D01*
X110720190Y-102814286D01*
X110291619Y-101861905D02*
X110244000Y-101814286D01*
X110196381Y-101719048D01*
X110196381Y-101480952D01*
X110244000Y-101385714D01*
X110291619Y-101338095D01*
X110386857Y-101290476D01*
X110482095Y-101290476D01*
X110624952Y-101338095D01*
X111196381Y-101909524D01*
X111196381Y-101290476D01*
X110196381Y-100385714D02*
X110196381Y-100861905D01*
X110672571Y-100909524D01*
X110624952Y-100861905D01*
X110577333Y-100766667D01*
X110577333Y-100528571D01*
X110624952Y-100433333D01*
X110672571Y-100385714D01*
X110767810Y-100338095D01*
X111005905Y-100338095D01*
X111101143Y-100385714D01*
X111148762Y-100433333D01*
X111196381Y-100528571D01*
X111196381Y-100766667D01*
X111148762Y-100861905D01*
X111101143Y-100909524D01*
X105275143Y-90998381D02*
X104941809Y-90522190D01*
X104703714Y-90998381D02*
X104703714Y-89998381D01*
X105084667Y-89998381D01*
X105179905Y-90046000D01*
X105227524Y-90093619D01*
X105275143Y-90188857D01*
X105275143Y-90331714D01*
X105227524Y-90426952D01*
X105179905Y-90474571D01*
X105084667Y-90522190D01*
X104703714Y-90522190D01*
X105656095Y-90093619D02*
X105703714Y-90046000D01*
X105798952Y-89998381D01*
X106037048Y-89998381D01*
X106132286Y-90046000D01*
X106179905Y-90093619D01*
X106227524Y-90188857D01*
X106227524Y-90284095D01*
X106179905Y-90426952D01*
X105608476Y-90998381D01*
X106227524Y-90998381D01*
X107084667Y-89998381D02*
X106894190Y-89998381D01*
X106798952Y-90046000D01*
X106751333Y-90093619D01*
X106656095Y-90236476D01*
X106608476Y-90426952D01*
X106608476Y-90807905D01*
X106656095Y-90903143D01*
X106703714Y-90950762D01*
X106798952Y-90998381D01*
X106989429Y-90998381D01*
X107084667Y-90950762D01*
X107132286Y-90903143D01*
X107179905Y-90807905D01*
X107179905Y-90569810D01*
X107132286Y-90474571D01*
X107084667Y-90426952D01*
X106989429Y-90379333D01*
X106798952Y-90379333D01*
X106703714Y-90426952D01*
X106656095Y-90474571D01*
X106608476Y-90569810D01*
X99750643Y-87828381D02*
X99417309Y-87352190D01*
X99179214Y-87828381D02*
X99179214Y-86828381D01*
X99560167Y-86828381D01*
X99655405Y-86876000D01*
X99703024Y-86923619D01*
X99750643Y-87018857D01*
X99750643Y-87161714D01*
X99703024Y-87256952D01*
X99655405Y-87304571D01*
X99560167Y-87352190D01*
X99179214Y-87352190D01*
X100131595Y-86923619D02*
X100179214Y-86876000D01*
X100274452Y-86828381D01*
X100512548Y-86828381D01*
X100607786Y-86876000D01*
X100655405Y-86923619D01*
X100703024Y-87018857D01*
X100703024Y-87114095D01*
X100655405Y-87256952D01*
X100083976Y-87828381D01*
X100703024Y-87828381D01*
X101036357Y-86828381D02*
X101703024Y-86828381D01*
X101274452Y-87828381D01*
X59713905Y-65730381D02*
X59713905Y-64730381D01*
X60094858Y-64730381D01*
X60190096Y-64778000D01*
X60237715Y-64825619D01*
X60285334Y-64920857D01*
X60285334Y-65063714D01*
X60237715Y-65158952D01*
X60190096Y-65206571D01*
X60094858Y-65254190D01*
X59713905Y-65254190D01*
X61142477Y-64730381D02*
X60952000Y-64730381D01*
X60856762Y-64778000D01*
X60809143Y-64825619D01*
X60713905Y-64968476D01*
X60666286Y-65158952D01*
X60666286Y-65539905D01*
X60713905Y-65635143D01*
X60761524Y-65682762D01*
X60856762Y-65730381D01*
X61047239Y-65730381D01*
X61142477Y-65682762D01*
X61190096Y-65635143D01*
X61237715Y-65539905D01*
X61237715Y-65301810D01*
X61190096Y-65206571D01*
X61142477Y-65158952D01*
X61047239Y-65111333D01*
X60856762Y-65111333D01*
X60761524Y-65158952D01*
X60713905Y-65206571D01*
X60666286Y-65301810D01*
X117261905Y-61752381D02*
X117261905Y-60752381D01*
X117642858Y-60752381D01*
X117738096Y-60800000D01*
X117785715Y-60847619D01*
X117833334Y-60942857D01*
X117833334Y-61085714D01*
X117785715Y-61180952D01*
X117738096Y-61228571D01*
X117642858Y-61276190D01*
X117261905Y-61276190D01*
X118166667Y-60752381D02*
X118785715Y-60752381D01*
X118452381Y-61133333D01*
X118595239Y-61133333D01*
X118690477Y-61180952D01*
X118738096Y-61228571D01*
X118785715Y-61323810D01*
X118785715Y-61561905D01*
X118738096Y-61657143D01*
X118690477Y-61704762D01*
X118595239Y-61752381D01*
X118309524Y-61752381D01*
X118214286Y-61704762D01*
X118166667Y-61657143D01*
X107132381Y-70270666D02*
X106656190Y-70604000D01*
X107132381Y-70842095D02*
X106132381Y-70842095D01*
X106132381Y-70461142D01*
X106180000Y-70365904D01*
X106227619Y-70318285D01*
X106322857Y-70270666D01*
X106465714Y-70270666D01*
X106560952Y-70318285D01*
X106608571Y-70365904D01*
X106656190Y-70461142D01*
X106656190Y-70842095D01*
X107132381Y-69318285D02*
X107132381Y-69889714D01*
X107132381Y-69604000D02*
X106132381Y-69604000D01*
X106275238Y-69699238D01*
X106370476Y-69794476D01*
X106418095Y-69889714D01*
X111196381Y-70270666D02*
X110720190Y-70604000D01*
X111196381Y-70842095D02*
X110196381Y-70842095D01*
X110196381Y-70461142D01*
X110244000Y-70365904D01*
X110291619Y-70318285D01*
X110386857Y-70270666D01*
X110529714Y-70270666D01*
X110624952Y-70318285D01*
X110672571Y-70365904D01*
X110720190Y-70461142D01*
X110720190Y-70842095D01*
X110291619Y-69889714D02*
X110244000Y-69842095D01*
X110196381Y-69746857D01*
X110196381Y-69508761D01*
X110244000Y-69413523D01*
X110291619Y-69365904D01*
X110386857Y-69318285D01*
X110482095Y-69318285D01*
X110624952Y-69365904D01*
X111196381Y-69937333D01*
X111196381Y-69318285D01*
X103465334Y-82494381D02*
X103132000Y-82018190D01*
X102893905Y-82494381D02*
X102893905Y-81494381D01*
X103274858Y-81494381D01*
X103370096Y-81542000D01*
X103417715Y-81589619D01*
X103465334Y-81684857D01*
X103465334Y-81827714D01*
X103417715Y-81922952D01*
X103370096Y-81970571D01*
X103274858Y-82018190D01*
X102893905Y-82018190D01*
X103798667Y-81494381D02*
X104417715Y-81494381D01*
X104084381Y-81875333D01*
X104227239Y-81875333D01*
X104322477Y-81922952D01*
X104370096Y-81970571D01*
X104417715Y-82065810D01*
X104417715Y-82303905D01*
X104370096Y-82399143D01*
X104322477Y-82446762D01*
X104227239Y-82494381D01*
X103941524Y-82494381D01*
X103846286Y-82446762D01*
X103798667Y-82399143D01*
X103465334Y-80970381D02*
X103132000Y-80494190D01*
X102893905Y-80970381D02*
X102893905Y-79970381D01*
X103274858Y-79970381D01*
X103370096Y-80018000D01*
X103417715Y-80065619D01*
X103465334Y-80160857D01*
X103465334Y-80303714D01*
X103417715Y-80398952D01*
X103370096Y-80446571D01*
X103274858Y-80494190D01*
X102893905Y-80494190D01*
X104322477Y-80303714D02*
X104322477Y-80970381D01*
X104084381Y-79922762D02*
X103846286Y-80637048D01*
X104465334Y-80637048D01*
X112720381Y-70270666D02*
X112244190Y-70604000D01*
X112720381Y-70842095D02*
X111720381Y-70842095D01*
X111720381Y-70461142D01*
X111768000Y-70365904D01*
X111815619Y-70318285D01*
X111910857Y-70270666D01*
X112053714Y-70270666D01*
X112148952Y-70318285D01*
X112196571Y-70365904D01*
X112244190Y-70461142D01*
X112244190Y-70842095D01*
X111720381Y-69365904D02*
X111720381Y-69842095D01*
X112196571Y-69889714D01*
X112148952Y-69842095D01*
X112101333Y-69746857D01*
X112101333Y-69508761D01*
X112148952Y-69413523D01*
X112196571Y-69365904D01*
X112291810Y-69318285D01*
X112529905Y-69318285D01*
X112625143Y-69365904D01*
X112672762Y-69413523D01*
X112720381Y-69508761D01*
X112720381Y-69746857D01*
X112672762Y-69842095D01*
X112625143Y-69889714D01*
X110577334Y-74620381D02*
X110244000Y-74144190D01*
X110005905Y-74620381D02*
X110005905Y-73620381D01*
X110386858Y-73620381D01*
X110482096Y-73668000D01*
X110529715Y-73715619D01*
X110577334Y-73810857D01*
X110577334Y-73953714D01*
X110529715Y-74048952D01*
X110482096Y-74096571D01*
X110386858Y-74144190D01*
X110005905Y-74144190D01*
X111434477Y-73620381D02*
X111244000Y-73620381D01*
X111148762Y-73668000D01*
X111101143Y-73715619D01*
X111005905Y-73858476D01*
X110958286Y-74048952D01*
X110958286Y-74429905D01*
X111005905Y-74525143D01*
X111053524Y-74572762D01*
X111148762Y-74620381D01*
X111339239Y-74620381D01*
X111434477Y-74572762D01*
X111482096Y-74525143D01*
X111529715Y-74429905D01*
X111529715Y-74191810D01*
X111482096Y-74096571D01*
X111434477Y-74048952D01*
X111339239Y-74001333D01*
X111148762Y-74001333D01*
X111053524Y-74048952D01*
X111005905Y-74096571D01*
X110958286Y-74191810D01*
X109593143Y-77160381D02*
X109259809Y-76684190D01*
X109021714Y-77160381D02*
X109021714Y-76160381D01*
X109402667Y-76160381D01*
X109497905Y-76208000D01*
X109545524Y-76255619D01*
X109593143Y-76350857D01*
X109593143Y-76493714D01*
X109545524Y-76588952D01*
X109497905Y-76636571D01*
X109402667Y-76684190D01*
X109021714Y-76684190D01*
X109974095Y-76255619D02*
X110021714Y-76208000D01*
X110116952Y-76160381D01*
X110355048Y-76160381D01*
X110450286Y-76208000D01*
X110497905Y-76255619D01*
X110545524Y-76350857D01*
X110545524Y-76446095D01*
X110497905Y-76588952D01*
X109926476Y-77160381D01*
X110545524Y-77160381D01*
X111116952Y-76588952D02*
X111021714Y-76541333D01*
X110974095Y-76493714D01*
X110926476Y-76398476D01*
X110926476Y-76350857D01*
X110974095Y-76255619D01*
X111021714Y-76208000D01*
X111116952Y-76160381D01*
X111307429Y-76160381D01*
X111402667Y-76208000D01*
X111450286Y-76255619D01*
X111497905Y-76350857D01*
X111497905Y-76398476D01*
X111450286Y-76493714D01*
X111402667Y-76541333D01*
X111307429Y-76588952D01*
X111116952Y-76588952D01*
X111021714Y-76636571D01*
X110974095Y-76684190D01*
X110926476Y-76779429D01*
X110926476Y-76969905D01*
X110974095Y-77065143D01*
X111021714Y-77112762D01*
X111116952Y-77160381D01*
X111307429Y-77160381D01*
X111402667Y-77112762D01*
X111450286Y-77065143D01*
X111497905Y-76969905D01*
X111497905Y-76779429D01*
X111450286Y-76684190D01*
X111402667Y-76636571D01*
X111307429Y-76588952D01*
X109164381Y-71254857D02*
X108688190Y-71588191D01*
X109164381Y-71826286D02*
X108164381Y-71826286D01*
X108164381Y-71445333D01*
X108212000Y-71350095D01*
X108259619Y-71302476D01*
X108354857Y-71254857D01*
X108497714Y-71254857D01*
X108592952Y-71302476D01*
X108640571Y-71350095D01*
X108688190Y-71445333D01*
X108688190Y-71826286D01*
X108259619Y-70873905D02*
X108212000Y-70826286D01*
X108164381Y-70731048D01*
X108164381Y-70492952D01*
X108212000Y-70397714D01*
X108259619Y-70350095D01*
X108354857Y-70302476D01*
X108450095Y-70302476D01*
X108592952Y-70350095D01*
X109164381Y-70921524D01*
X109164381Y-70302476D01*
X109164381Y-69826286D02*
X109164381Y-69635810D01*
X109116762Y-69540571D01*
X109069143Y-69492952D01*
X108926286Y-69397714D01*
X108735810Y-69350095D01*
X108354857Y-69350095D01*
X108259619Y-69397714D01*
X108212000Y-69445333D01*
X108164381Y-69540571D01*
X108164381Y-69731048D01*
X108212000Y-69826286D01*
X108259619Y-69873905D01*
X108354857Y-69921524D01*
X108592952Y-69921524D01*
X108688190Y-69873905D01*
X108735810Y-69826286D01*
X108783429Y-69731048D01*
X108783429Y-69540571D01*
X108735810Y-69445333D01*
X108688190Y-69397714D01*
X108592952Y-69350095D01*
X109593143Y-82240381D02*
X109259809Y-81764190D01*
X109021714Y-82240381D02*
X109021714Y-81240381D01*
X109402667Y-81240381D01*
X109497905Y-81288000D01*
X109545524Y-81335619D01*
X109593143Y-81430857D01*
X109593143Y-81573714D01*
X109545524Y-81668952D01*
X109497905Y-81716571D01*
X109402667Y-81764190D01*
X109021714Y-81764190D01*
X109926476Y-81240381D02*
X110545524Y-81240381D01*
X110212190Y-81621333D01*
X110355048Y-81621333D01*
X110450286Y-81668952D01*
X110497905Y-81716571D01*
X110545524Y-81811810D01*
X110545524Y-82049905D01*
X110497905Y-82145143D01*
X110450286Y-82192762D01*
X110355048Y-82240381D01*
X110069333Y-82240381D01*
X109974095Y-82192762D01*
X109926476Y-82145143D01*
X111164571Y-81240381D02*
X111259810Y-81240381D01*
X111355048Y-81288000D01*
X111402667Y-81335619D01*
X111450286Y-81430857D01*
X111497905Y-81621333D01*
X111497905Y-81859429D01*
X111450286Y-82049905D01*
X111402667Y-82145143D01*
X111355048Y-82192762D01*
X111259810Y-82240381D01*
X111164571Y-82240381D01*
X111069333Y-82192762D01*
X111021714Y-82145143D01*
X110974095Y-82049905D01*
X110926476Y-81859429D01*
X110926476Y-81621333D01*
X110974095Y-81430857D01*
X111021714Y-81335619D01*
X111069333Y-81288000D01*
X111164571Y-81240381D01*
X110101143Y-84780381D02*
X109767809Y-84304190D01*
X109529714Y-84780381D02*
X109529714Y-83780381D01*
X109910667Y-83780381D01*
X110005905Y-83828000D01*
X110053524Y-83875619D01*
X110101143Y-83970857D01*
X110101143Y-84113714D01*
X110053524Y-84208952D01*
X110005905Y-84256571D01*
X109910667Y-84304190D01*
X109529714Y-84304190D01*
X110434476Y-83780381D02*
X111053524Y-83780381D01*
X110720190Y-84161333D01*
X110863048Y-84161333D01*
X110958286Y-84208952D01*
X111005905Y-84256571D01*
X111053524Y-84351810D01*
X111053524Y-84589905D01*
X111005905Y-84685143D01*
X110958286Y-84732762D01*
X110863048Y-84780381D01*
X110577333Y-84780381D01*
X110482095Y-84732762D01*
X110434476Y-84685143D01*
X112005905Y-84780381D02*
X111434476Y-84780381D01*
X111720190Y-84780381D02*
X111720190Y-83780381D01*
X111624952Y-83923238D01*
X111529714Y-84018476D01*
X111434476Y-84066095D01*
X103497143Y-79192381D02*
X103163809Y-78716190D01*
X102925714Y-79192381D02*
X102925714Y-78192381D01*
X103306667Y-78192381D01*
X103401905Y-78240000D01*
X103449524Y-78287619D01*
X103497143Y-78382857D01*
X103497143Y-78525714D01*
X103449524Y-78620952D01*
X103401905Y-78668571D01*
X103306667Y-78716190D01*
X102925714Y-78716190D01*
X103830476Y-78192381D02*
X104449524Y-78192381D01*
X104116190Y-78573333D01*
X104259048Y-78573333D01*
X104354286Y-78620952D01*
X104401905Y-78668571D01*
X104449524Y-78763810D01*
X104449524Y-79001905D01*
X104401905Y-79097143D01*
X104354286Y-79144762D01*
X104259048Y-79192381D01*
X103973333Y-79192381D01*
X103878095Y-79144762D01*
X103830476Y-79097143D01*
X104830476Y-78287619D02*
X104878095Y-78240000D01*
X104973333Y-78192381D01*
X105211429Y-78192381D01*
X105306667Y-78240000D01*
X105354286Y-78287619D01*
X105401905Y-78382857D01*
X105401905Y-78478095D01*
X105354286Y-78620952D01*
X104782857Y-79192381D01*
X105401905Y-79192381D01*
X103497143Y-77668381D02*
X103163809Y-77192190D01*
X102925714Y-77668381D02*
X102925714Y-76668381D01*
X103306667Y-76668381D01*
X103401905Y-76716000D01*
X103449524Y-76763619D01*
X103497143Y-76858857D01*
X103497143Y-77001714D01*
X103449524Y-77096952D01*
X103401905Y-77144571D01*
X103306667Y-77192190D01*
X102925714Y-77192190D01*
X103830476Y-76668381D02*
X104449524Y-76668381D01*
X104116190Y-77049333D01*
X104259048Y-77049333D01*
X104354286Y-77096952D01*
X104401905Y-77144571D01*
X104449524Y-77239810D01*
X104449524Y-77477905D01*
X104401905Y-77573143D01*
X104354286Y-77620762D01*
X104259048Y-77668381D01*
X103973333Y-77668381D01*
X103878095Y-77620762D01*
X103830476Y-77573143D01*
X104782857Y-76668381D02*
X105401905Y-76668381D01*
X105068571Y-77049333D01*
X105211429Y-77049333D01*
X105306667Y-77096952D01*
X105354286Y-77144571D01*
X105401905Y-77239810D01*
X105401905Y-77477905D01*
X105354286Y-77573143D01*
X105306667Y-77620762D01*
X105211429Y-77668381D01*
X104925714Y-77668381D01*
X104830476Y-77620762D01*
X104782857Y-77573143D01*
X63841334Y-64497143D02*
X63793715Y-64544762D01*
X63650858Y-64592381D01*
X63555620Y-64592381D01*
X63412762Y-64544762D01*
X63317524Y-64449524D01*
X63269905Y-64354286D01*
X63222286Y-64163810D01*
X63222286Y-64020952D01*
X63269905Y-63830476D01*
X63317524Y-63735238D01*
X63412762Y-63640000D01*
X63555620Y-63592381D01*
X63650858Y-63592381D01*
X63793715Y-63640000D01*
X63841334Y-63687619D01*
X64793715Y-64592381D02*
X64222286Y-64592381D01*
X64508000Y-64592381D02*
X64508000Y-63592381D01*
X64412762Y-63735238D01*
X64317524Y-63830476D01*
X64222286Y-63878095D01*
X68159334Y-64497143D02*
X68111715Y-64544762D01*
X67968858Y-64592381D01*
X67873620Y-64592381D01*
X67730762Y-64544762D01*
X67635524Y-64449524D01*
X67587905Y-64354286D01*
X67540286Y-64163810D01*
X67540286Y-64020952D01*
X67587905Y-63830476D01*
X67635524Y-63735238D01*
X67730762Y-63640000D01*
X67873620Y-63592381D01*
X67968858Y-63592381D01*
X68111715Y-63640000D01*
X68159334Y-63687619D01*
X68540286Y-63687619D02*
X68587905Y-63640000D01*
X68683143Y-63592381D01*
X68921239Y-63592381D01*
X69016477Y-63640000D01*
X69064096Y-63687619D01*
X69111715Y-63782857D01*
X69111715Y-63878095D01*
X69064096Y-64020952D01*
X68492667Y-64592381D01*
X69111715Y-64592381D01*
D13*
X103269143Y-97844429D02*
X103269143Y-99078143D01*
X103323571Y-99223286D01*
X103378000Y-99295857D01*
X103486857Y-99368429D01*
X103704571Y-99368429D01*
X103813429Y-99295857D01*
X103867857Y-99223286D01*
X103922286Y-99078143D01*
X103922286Y-97844429D01*
X104412143Y-97989571D02*
X104466572Y-97917000D01*
X104575429Y-97844429D01*
X104847572Y-97844429D01*
X104956429Y-97917000D01*
X105010858Y-97989571D01*
X105065286Y-98134714D01*
X105065286Y-98279857D01*
X105010858Y-98497571D01*
X104357715Y-99368429D01*
X105065286Y-99368429D01*
D14*
D11*
X67597994Y-82703943D02*
X67550375Y-82751562D01*
X67407518Y-82799181D01*
X67312280Y-82799181D01*
X67169422Y-82751562D01*
X67074184Y-82656324D01*
X67026565Y-82561086D01*
X66978946Y-82370610D01*
X66978946Y-82227752D01*
X67026565Y-82037276D01*
X67074184Y-81942038D01*
X67169422Y-81846800D01*
X67312280Y-81799181D01*
X67407518Y-81799181D01*
X67550375Y-81846800D01*
X67597994Y-81894419D01*
X67931327Y-81799181D02*
X68550375Y-81799181D01*
X68217041Y-82180133D01*
X68359899Y-82180133D01*
X68455137Y-82227752D01*
X68502756Y-82275371D01*
X68550375Y-82370610D01*
X68550375Y-82608705D01*
X68502756Y-82703943D01*
X68455137Y-82751562D01*
X68359899Y-82799181D01*
X68074184Y-82799181D01*
X67978946Y-82751562D01*
X67931327Y-82703943D01*
X71782988Y-81120289D02*
X72544893Y-81120289D01*
X72163941Y-81501241D02*
X72163941Y-80739336D01*
X75541143Y-65698666D02*
X75588762Y-65746285D01*
X75636381Y-65889142D01*
X75636381Y-65984380D01*
X75588762Y-66127238D01*
X75493524Y-66222476D01*
X75398286Y-66270095D01*
X75207810Y-66317714D01*
X75064952Y-66317714D01*
X74874476Y-66270095D01*
X74779238Y-66222476D01*
X74684000Y-66127238D01*
X74636381Y-65984380D01*
X74636381Y-65889142D01*
X74684000Y-65746285D01*
X74731619Y-65698666D01*
X74969714Y-64841523D02*
X75636381Y-64841523D01*
X74588762Y-65079619D02*
X75303048Y-65317714D01*
X75303048Y-64698666D01*
X115181143Y-105608381D02*
X114847809Y-105132190D01*
X114609714Y-105608381D02*
X114609714Y-104608381D01*
X114990667Y-104608381D01*
X115085905Y-104656000D01*
X115133524Y-104703619D01*
X115181143Y-104798857D01*
X115181143Y-104941714D01*
X115133524Y-105036952D01*
X115085905Y-105084571D01*
X114990667Y-105132190D01*
X114609714Y-105132190D01*
X115514476Y-104608381D02*
X116133524Y-104608381D01*
X115800190Y-104989333D01*
X115943048Y-104989333D01*
X116038286Y-105036952D01*
X116085905Y-105084571D01*
X116133524Y-105179810D01*
X116133524Y-105417905D01*
X116085905Y-105513143D01*
X116038286Y-105560762D01*
X115943048Y-105608381D01*
X115657333Y-105608381D01*
X115562095Y-105560762D01*
X115514476Y-105513143D01*
X116990667Y-104941714D02*
X116990667Y-105608381D01*
X116752571Y-104560762D02*
X116514476Y-105275048D01*
X117133524Y-105275048D01*
X95027809Y-93448190D02*
X95027809Y-93924381D01*
X94694476Y-92924381D02*
X95027809Y-93448190D01*
X95361143Y-92924381D01*
X96218286Y-93924381D02*
X95646857Y-93924381D01*
X95932571Y-93924381D02*
X95932571Y-92924381D01*
X95837333Y-93067238D01*
X95742095Y-93162476D01*
X95646857Y-93210095D01*
M02*
