G04 #@! TF.FileFunction,Soldermask,Bot*
%FSLAX46Y46*%
G04 Gerber Fmt 4.6, Leading zero omitted, Abs format (unit mm)*
G04 Created by KiCad (PCBNEW 4.0.4-1.fc25-product) date Thu Nov  3 21:21:28 2016*
%MOMM*%
%LPD*%
G01*
G04 APERTURE LIST*
%ADD10C,0.100000*%
%ADD11C,2.899360*%
%ADD12R,1.700000X1.700000*%
%ADD13C,1.700000*%
%ADD14R,2.432000X2.432000*%
%ADD15O,2.432000X2.432000*%
%ADD16R,2.432000X2.127200*%
%ADD17O,2.432000X2.127200*%
%ADD18C,2.398980*%
%ADD19R,2.127200X2.432000*%
%ADD20O,2.127200X2.432000*%
G04 APERTURE END LIST*
D10*
D11*
X25400000Y-86360000D03*
X20398740Y-86360000D03*
X30401260Y-86360000D03*
D12*
X21590000Y-78740000D03*
D13*
X21590000Y-76240000D03*
D14*
X165100000Y-86360000D03*
D15*
X165100000Y-83820000D03*
D16*
X165100000Y-66040000D03*
D17*
X165100000Y-68580000D03*
X165100000Y-71120000D03*
X165100000Y-73660000D03*
D14*
X30480000Y-66040000D03*
D15*
X27940000Y-66040000D03*
D14*
X45720000Y-66040000D03*
D15*
X43180000Y-66040000D03*
D14*
X60960000Y-66040000D03*
D15*
X58420000Y-66040000D03*
D14*
X76200000Y-66040000D03*
D15*
X73660000Y-66040000D03*
D14*
X22860000Y-66040000D03*
D15*
X20320000Y-66040000D03*
D11*
X86360000Y-86360000D03*
X81358740Y-86360000D03*
X91361260Y-86360000D03*
D14*
X91440000Y-66040000D03*
D15*
X88900000Y-66040000D03*
D14*
X38100000Y-66040000D03*
D15*
X35560000Y-66040000D03*
D11*
X40640000Y-86360000D03*
X35638740Y-86360000D03*
X45641260Y-86360000D03*
X101600000Y-86360000D03*
X96598740Y-86360000D03*
X106601260Y-86360000D03*
D14*
X106680000Y-66040000D03*
D15*
X104140000Y-66040000D03*
D14*
X53340000Y-66040000D03*
D15*
X50800000Y-66040000D03*
D11*
X55880000Y-86360000D03*
X50878740Y-86360000D03*
X60881260Y-86360000D03*
X116840000Y-86360000D03*
X111838740Y-86360000D03*
X121841260Y-86360000D03*
D14*
X121920000Y-66040000D03*
D15*
X119380000Y-66040000D03*
D14*
X68580000Y-66040000D03*
D15*
X66040000Y-66040000D03*
D14*
X137160000Y-66040000D03*
D15*
X134620000Y-66040000D03*
D14*
X83820000Y-66040000D03*
D15*
X81280000Y-66040000D03*
D11*
X71120000Y-86360000D03*
X66118740Y-86360000D03*
X76121260Y-86360000D03*
X132080000Y-86360000D03*
X127078740Y-86360000D03*
X137081260Y-86360000D03*
D14*
X99060000Y-66040000D03*
D15*
X96520000Y-66040000D03*
D14*
X114300000Y-66040000D03*
D15*
X111760000Y-66040000D03*
D14*
X129540000Y-66040000D03*
D15*
X127000000Y-66040000D03*
D18*
X20320000Y-69850000D03*
X30480000Y-69850000D03*
X35560000Y-69850000D03*
X45720000Y-69850000D03*
X50800000Y-69850000D03*
X60960000Y-69850000D03*
X66040000Y-69850000D03*
X76200000Y-69850000D03*
X81280000Y-69850000D03*
X91440000Y-69850000D03*
X96520000Y-69850000D03*
X106680000Y-69850000D03*
X111760000Y-69850000D03*
X121920000Y-69850000D03*
X127000000Y-69850000D03*
X137160000Y-69850000D03*
D19*
X143510000Y-86360000D03*
D20*
X146050000Y-86360000D03*
X148590000Y-86360000D03*
X151130000Y-86360000D03*
X153670000Y-86360000D03*
M02*
