G04 #@! TF.FileFunction,Copper,L2,Bot,Signal*
%FSLAX46Y46*%
G04 Gerber Fmt 4.6, Leading zero omitted, Abs format (unit mm)*
G04 Created by KiCad (PCBNEW (2015-05-05 BZR 5645)-product) date ma. 18. mai 2015 kl. 21.53 +0200*
%MOMM*%
G01*
G04 APERTURE LIST*
%ADD10C,0.100000*%
%ADD11R,1.727200X1.727200*%
%ADD12O,1.727200X1.727200*%
%ADD13R,1.727200X2.032000*%
%ADD14O,1.727200X2.032000*%
%ADD15R,2.032000X2.032000*%
%ADD16O,2.032000X2.032000*%
%ADD17R,2.032000X1.727200*%
%ADD18O,2.032000X1.727200*%
%ADD19O,2.197100X1.498600*%
%ADD20O,2.194560X1.496060*%
%ADD21C,1.501140*%
%ADD22C,0.600000*%
%ADD23C,0.400000*%
%ADD24C,0.200000*%
%ADD25C,0.250000*%
%ADD26C,0.152400*%
G04 APERTURE END LIST*
D10*
D11*
X66488000Y-61398000D03*
D12*
X66488000Y-58858000D03*
X69028000Y-61398000D03*
X69028000Y-58858000D03*
X71568000Y-61398000D03*
X71568000Y-58858000D03*
X74108000Y-61398000D03*
X74108000Y-58858000D03*
X76648000Y-61398000D03*
X76648000Y-58858000D03*
X79188000Y-61398000D03*
X79188000Y-58858000D03*
X81728000Y-61398000D03*
X81728000Y-58858000D03*
X84268000Y-61398000D03*
X84268000Y-58858000D03*
X86808000Y-61398000D03*
X86808000Y-58858000D03*
X89348000Y-61398000D03*
X89348000Y-58858000D03*
X91888000Y-61398000D03*
X91888000Y-58858000D03*
X94428000Y-61398000D03*
X94428000Y-58858000D03*
X96968000Y-61398000D03*
X96968000Y-58858000D03*
X99508000Y-61398000D03*
X99508000Y-58858000D03*
X102048000Y-61398000D03*
X102048000Y-58858000D03*
X104588000Y-61398000D03*
X104588000Y-58858000D03*
X107128000Y-61398000D03*
X107128000Y-58858000D03*
X109668000Y-61398000D03*
X109668000Y-58858000D03*
X112208000Y-61398000D03*
X112208000Y-58858000D03*
X114748000Y-61398000D03*
X114748000Y-58858000D03*
D13*
X91948000Y-65278000D03*
D14*
X94488000Y-65278000D03*
X97028000Y-65278000D03*
D11*
X85090000Y-107950000D03*
D12*
X85090000Y-110490000D03*
X82550000Y-107950000D03*
X82550000Y-110490000D03*
X80010000Y-107950000D03*
X80010000Y-110490000D03*
X77470000Y-107950000D03*
X77470000Y-110490000D03*
X74930000Y-107950000D03*
X74930000Y-110490000D03*
X72390000Y-107950000D03*
X72390000Y-110490000D03*
X69850000Y-107950000D03*
X69850000Y-110490000D03*
X67310000Y-107950000D03*
X67310000Y-110490000D03*
D15*
X120650000Y-91694000D03*
D16*
X120650000Y-89154000D03*
D17*
X120650000Y-102870000D03*
D18*
X120650000Y-100330000D03*
X120650000Y-97790000D03*
D17*
X60706000Y-68580000D03*
D18*
X60706000Y-71120000D03*
X60706000Y-73660000D03*
D11*
X118000000Y-66400000D03*
D12*
X120540000Y-66400000D03*
X118000000Y-68940000D03*
X120540000Y-68940000D03*
X118000000Y-71480000D03*
X120540000Y-71480000D03*
X118000000Y-74020000D03*
X120540000Y-74020000D03*
X118000000Y-76560000D03*
X120540000Y-76560000D03*
X118000000Y-79100000D03*
X120540000Y-79100000D03*
X118000000Y-81640000D03*
X120540000Y-81640000D03*
X118000000Y-84180000D03*
X120540000Y-84180000D03*
D19*
X107950000Y-95758000D03*
X107950000Y-93218000D03*
D20*
X100330000Y-93218000D03*
X100330000Y-95758000D03*
D21*
X95250000Y-89308940D03*
X95250000Y-84427060D03*
D22*
X90678000Y-86868000D03*
X110363000Y-62865000D03*
X87757000Y-68453000D03*
X64262000Y-97790000D03*
X104140000Y-64262000D03*
X104140000Y-66040000D03*
X81788000Y-80264000D03*
X95250000Y-70612000D03*
X93218000Y-70231000D03*
X91821000Y-69977000D03*
X87376000Y-88138000D03*
X67310000Y-97790000D03*
X69850000Y-97790000D03*
X72390000Y-97790000D03*
X74930000Y-97790000D03*
X77470000Y-97790000D03*
X80010000Y-97790000D03*
X82550000Y-97790000D03*
X85090000Y-97790000D03*
X65151000Y-63246000D03*
X82753200Y-81229200D03*
X88011000Y-82042000D03*
X71374000Y-64516000D03*
X76200000Y-88392000D03*
X77470000Y-93980000D03*
X83185000Y-95504000D03*
X89154000Y-94234000D03*
X100711000Y-88646000D03*
X89789000Y-92329000D03*
X93345000Y-71755000D03*
X89535000Y-69723000D03*
X92456000Y-70612000D03*
X89535000Y-67945000D03*
X89535000Y-65786000D03*
X90678000Y-91440000D03*
X96774000Y-87376000D03*
X90424000Y-89662000D03*
X87757000Y-93980000D03*
X101092000Y-65532000D03*
X101092000Y-70612000D03*
X73152000Y-68326000D03*
X112268000Y-107188000D03*
X113030000Y-94488000D03*
X89916000Y-85090000D03*
X80518000Y-73660000D03*
X84074000Y-95250000D03*
X95504000Y-75438000D03*
X68072000Y-71374000D03*
X109728000Y-74295000D03*
X108077000Y-81915000D03*
X112268000Y-76835000D03*
X110998000Y-84455000D03*
X114427000Y-80518000D03*
X115443000Y-68961000D03*
X115443000Y-79756000D03*
X116205000Y-67818000D03*
X116586000Y-78232000D03*
X106807000Y-79629000D03*
X106807000Y-69977000D03*
D23*
X89408000Y-88138000D02*
X87376000Y-88138000D01*
X90678000Y-86868000D02*
X89408000Y-88138000D01*
X110363000Y-62865000D02*
X110363000Y-64071500D01*
X89348000Y-58858000D02*
X89348000Y-57150000D01*
X89408000Y-57340500D02*
X89408000Y-57150000D01*
X89408000Y-57210000D02*
X89408000Y-57340500D01*
X89348000Y-57150000D02*
X89408000Y-57210000D01*
X81728000Y-58858000D02*
X81728000Y-57150000D01*
X81728000Y-57150000D02*
X81724500Y-57150000D01*
X76648000Y-61398000D02*
X76574500Y-61398000D01*
X76574500Y-61398000D02*
X75374500Y-60198000D01*
X75374500Y-60198000D02*
X75374500Y-57150000D01*
X96968000Y-61398000D02*
X96968000Y-61281000D01*
X96968000Y-61281000D02*
X95694500Y-60007500D01*
X95694500Y-60007500D02*
X95694500Y-57150000D01*
X88074500Y-62547500D02*
X87757000Y-62865000D01*
X88074500Y-60134500D02*
X88074500Y-62547500D01*
X89348000Y-58861000D02*
X88074500Y-60134500D01*
X87757000Y-62865000D02*
X87757000Y-68453000D01*
X89348000Y-58858000D02*
X89348000Y-58861000D01*
X85090000Y-110490000D02*
X107950000Y-110490000D01*
X107950000Y-110490000D02*
X120650000Y-97790000D01*
D24*
X87376000Y-88138000D02*
X87376000Y-89027000D01*
X87376000Y-89027000D02*
X90678000Y-92329000D01*
X90678000Y-92329000D02*
X92964000Y-92329000D01*
X92964000Y-92329000D02*
X93218000Y-92075000D01*
X93218000Y-92075000D02*
X93980000Y-92075000D01*
X82804000Y-81280000D02*
X81788000Y-80264000D01*
X82804000Y-81303091D02*
X82804000Y-81280000D01*
X104140000Y-66040000D02*
X104140000Y-64262000D01*
X102048000Y-58858000D02*
X102048000Y-58868000D01*
X102048000Y-58868000D02*
X103251000Y-60071000D01*
X103251000Y-60071000D02*
X103251000Y-63373000D01*
X103251000Y-63373000D02*
X104140000Y-64262000D01*
D23*
X91821000Y-69977000D02*
X92075000Y-69723000D01*
X96968000Y-61398000D02*
X96968000Y-62417000D01*
X95250000Y-67056000D02*
X95250000Y-70612000D01*
X95758000Y-66548000D02*
X95250000Y-67056000D01*
X95758000Y-63627000D02*
X95758000Y-66548000D01*
X96968000Y-62417000D02*
X95758000Y-63627000D01*
X92075000Y-69723000D02*
X92964000Y-69723000D01*
X92964000Y-69723000D02*
X93218000Y-69977000D01*
X93218000Y-69977000D02*
X93218000Y-70231000D01*
X88011000Y-82042000D02*
X84328000Y-82042000D01*
X84328000Y-82042000D02*
X82296000Y-84074000D01*
X88011000Y-82042000D02*
X83312000Y-82042000D01*
X83312000Y-82042000D02*
X82804000Y-81303091D01*
X82804000Y-81303091D02*
X82753200Y-81229200D01*
X67310000Y-110490000D02*
X67310000Y-110744000D01*
X60706000Y-73660000D02*
X62738000Y-73660000D01*
X62738000Y-73660000D02*
X66040000Y-76962000D01*
X66040000Y-76962000D02*
X66040000Y-109220000D01*
X66040000Y-109220000D02*
X67310000Y-110490000D01*
X82296000Y-84074000D02*
X83312000Y-84074000D01*
X83312000Y-84074000D02*
X87376000Y-88138000D01*
X78740000Y-88138000D02*
X78994000Y-88138000D01*
X78994000Y-88138000D02*
X83312000Y-92456000D01*
X78740000Y-88138000D02*
X87376000Y-88138000D01*
X78740000Y-88138000D02*
X78740000Y-87630000D01*
X78740000Y-87630000D02*
X82296000Y-84074000D01*
X83312000Y-92456000D02*
X83312000Y-92202000D01*
X83312000Y-92202000D02*
X85153500Y-90360500D01*
X85153500Y-90360500D02*
X87376000Y-88138000D01*
X78994000Y-92456000D02*
X78994000Y-88392000D01*
X78994000Y-88392000D02*
X78740000Y-88138000D01*
X78994000Y-92456000D02*
X78994000Y-88392000D01*
X78867000Y-88265000D02*
X78740000Y-88138000D01*
X78994000Y-88392000D02*
X78867000Y-88265000D01*
X78994000Y-92456000D02*
X83312000Y-92456000D01*
X83185000Y-95504000D02*
X83185000Y-92583000D01*
X83185000Y-97790000D02*
X83185000Y-95504000D01*
X83185000Y-92583000D02*
X83312000Y-92456000D01*
X68580000Y-97790000D02*
X67310000Y-97790000D01*
X69850000Y-97790000D02*
X68580000Y-97790000D01*
X71120000Y-97790000D02*
X72390000Y-97790000D01*
X69850000Y-97790000D02*
X71120000Y-97790000D01*
X73660000Y-97790000D02*
X72390000Y-97790000D01*
X74930000Y-97790000D02*
X73660000Y-97790000D01*
X76200000Y-97790000D02*
X77470000Y-97790000D01*
X74930000Y-97790000D02*
X76200000Y-97790000D01*
X78740000Y-97790000D02*
X77470000Y-97790000D01*
X80010000Y-97790000D02*
X78740000Y-97790000D01*
X81280000Y-97790000D02*
X82550000Y-97790000D01*
X80010000Y-97790000D02*
X81280000Y-97790000D01*
X83820000Y-97790000D02*
X83185000Y-97790000D01*
X85090000Y-97790000D02*
X83820000Y-97790000D01*
X83185000Y-97790000D02*
X82550000Y-97790000D01*
X73276000Y-57150000D02*
X71568000Y-58858000D01*
X74803000Y-57150000D02*
X73276000Y-57150000D01*
X76648000Y-61398000D02*
X76511000Y-61398000D01*
X74803000Y-57150000D02*
X75374500Y-57150000D01*
X75374500Y-57150000D02*
X80010000Y-57150000D01*
X80010000Y-57150000D02*
X81724500Y-57150000D01*
X81724500Y-57150000D02*
X87640000Y-57150000D01*
X87640000Y-57150000D02*
X89408000Y-57150000D01*
X100340000Y-57150000D02*
X102048000Y-58858000D01*
X100330000Y-57150000D02*
X100340000Y-57150000D01*
X95631000Y-57150000D02*
X95694500Y-57150000D01*
X89408000Y-57150000D02*
X95631000Y-57150000D01*
X95694500Y-57150000D02*
X100330000Y-57150000D01*
X105420000Y-57150000D02*
X107128000Y-58858000D01*
X105410000Y-57150000D02*
X105420000Y-57150000D01*
X100330000Y-57150000D02*
X105410000Y-57150000D01*
X115443000Y-57150000D02*
X116205000Y-57912000D01*
X116205000Y-57912000D02*
X116205000Y-59941000D01*
X116205000Y-59941000D02*
X114748000Y-61398000D01*
X105410000Y-57150000D02*
X115443000Y-57150000D01*
X96968000Y-61398000D02*
X96831000Y-61398000D01*
X72644000Y-63246000D02*
X65151000Y-63246000D01*
X74549000Y-63246000D02*
X72644000Y-63246000D01*
X76397000Y-61398000D02*
X74549000Y-63246000D01*
X76648000Y-61398000D02*
X76397000Y-61398000D01*
X89348000Y-58858000D02*
X89348000Y-59242000D01*
X102048000Y-58858000D02*
X102048000Y-58988000D01*
X116135000Y-61398000D02*
X114748000Y-61398000D01*
X120540000Y-65803000D02*
X116135000Y-61398000D01*
X120540000Y-66400000D02*
X120540000Y-65803000D01*
X120540000Y-81640000D02*
X120540000Y-84180000D01*
X120540000Y-79100000D02*
X120540000Y-81640000D01*
X120540000Y-76560000D02*
X120540000Y-79100000D01*
X120540000Y-74020000D02*
X120540000Y-76560000D01*
X120540000Y-71480000D02*
X120540000Y-74020000D01*
X120540000Y-68940000D02*
X120540000Y-71480000D01*
X120540000Y-66400000D02*
X120540000Y-68940000D01*
X82296000Y-81534000D02*
X82753200Y-81229200D01*
X82296000Y-84074000D02*
X82296000Y-81534000D01*
X88011000Y-83439000D02*
X88011000Y-82042000D01*
X87376000Y-88138000D02*
X87376000Y-84074000D01*
X87376000Y-84074000D02*
X88011000Y-83439000D01*
X68580000Y-110490000D02*
X67310000Y-110490000D01*
X69850000Y-110490000D02*
X68580000Y-110490000D01*
X71120000Y-110490000D02*
X69850000Y-110490000D01*
X72390000Y-110490000D02*
X71120000Y-110490000D01*
X73660000Y-110490000D02*
X72390000Y-110490000D01*
X74930000Y-110490000D02*
X73660000Y-110490000D01*
X76200000Y-110490000D02*
X74930000Y-110490000D01*
X77470000Y-110490000D02*
X76200000Y-110490000D01*
X78740000Y-110490000D02*
X77470000Y-110490000D01*
X80010000Y-110490000D02*
X78740000Y-110490000D01*
X81280000Y-110490000D02*
X80010000Y-110490000D01*
X82550000Y-110490000D02*
X81280000Y-110490000D01*
X83820000Y-110490000D02*
X82550000Y-110490000D01*
X85090000Y-110490000D02*
X83820000Y-110490000D01*
X83820000Y-110490000D02*
X83820000Y-97790000D01*
X81280000Y-110490000D02*
X81280000Y-97790000D01*
X78740000Y-110490000D02*
X78740000Y-97790000D01*
X76200000Y-110490000D02*
X76200000Y-97790000D01*
X73660000Y-110490000D02*
X73660000Y-97790000D01*
X71120000Y-110490000D02*
X71120000Y-97790000D01*
X68580000Y-110490000D02*
X68580000Y-97790000D01*
X71374000Y-64516000D02*
X72644000Y-63246000D01*
X76327000Y-88265000D02*
X76200000Y-88392000D01*
X78867000Y-88265000D02*
X76327000Y-88265000D01*
X77470000Y-93980000D02*
X78994000Y-92456000D01*
X83312000Y-95504000D02*
X83185000Y-95504000D01*
X83185000Y-95504000D02*
X83312000Y-95504000D01*
X100330000Y-89662000D02*
X100711000Y-89281000D01*
X89154000Y-94234000D02*
X89408000Y-94488000D01*
X89408000Y-94488000D02*
X95504000Y-94488000D01*
X95504000Y-94488000D02*
X100330000Y-89662000D01*
X100711000Y-89281000D02*
X100711000Y-88646000D01*
D25*
X90424000Y-92837000D02*
X89789000Y-92329000D01*
X93218000Y-92837000D02*
X90424000Y-92837000D01*
X93472000Y-92583000D02*
X93218000Y-92837000D01*
X95250000Y-92583000D02*
X93472000Y-92583000D01*
X98679000Y-89154000D02*
X95250000Y-92583000D01*
X98679000Y-83185000D02*
X98679000Y-89154000D01*
X93218000Y-77724000D02*
X98679000Y-83185000D01*
X93218000Y-71882000D02*
X93218000Y-77724000D01*
X93345000Y-71755000D02*
X93218000Y-71882000D01*
X88773000Y-68961000D02*
X89535000Y-69723000D01*
X88773000Y-62738000D02*
X88773000Y-68961000D01*
X89348000Y-62163000D02*
X88773000Y-62738000D01*
X89348000Y-61398000D02*
X89348000Y-62163000D01*
X97663000Y-88866044D02*
X94962044Y-91567000D01*
X97663000Y-83566000D02*
X97663000Y-88866044D01*
X92202000Y-78105000D02*
X97663000Y-83566000D01*
X92202000Y-70866000D02*
X92202000Y-78105000D01*
X92456000Y-70612000D02*
X92202000Y-70866000D01*
X89535000Y-65786000D02*
X89535000Y-67945000D01*
X91059000Y-91948000D02*
X90678000Y-91440000D01*
X92329000Y-91948000D02*
X91059000Y-91948000D01*
X92710000Y-91567000D02*
X92329000Y-91948000D01*
X94962044Y-91567000D02*
X92710000Y-91567000D01*
D26*
X96774000Y-83820000D02*
X96647000Y-83820000D01*
X96774000Y-87376000D02*
X96774000Y-83820000D01*
X96647000Y-83820000D02*
X96520000Y-83820000D01*
X96520000Y-83820000D02*
X96520000Y-83693000D01*
D25*
X91186000Y-78359000D02*
X96520000Y-83693000D01*
X96520000Y-83693000D02*
X96647000Y-83820000D01*
X94428000Y-61398000D02*
X94428000Y-62925000D01*
X94428000Y-62925000D02*
X93218000Y-64135000D01*
X93218000Y-64135000D02*
X93218000Y-67691000D01*
X93218000Y-67691000D02*
X91186000Y-69469000D01*
X91186000Y-69469000D02*
X91186000Y-78359000D01*
X93091000Y-60195000D02*
X94428000Y-58858000D01*
X93091000Y-62357000D02*
X93091000Y-60195000D01*
X91948000Y-63500000D02*
X93091000Y-62357000D01*
X91948000Y-65278000D02*
X91948000Y-63500000D01*
X98171000Y-60061000D02*
X96968000Y-58858000D01*
X98171000Y-62230000D02*
X98171000Y-60061000D01*
X97028000Y-63373000D02*
X98171000Y-62230000D01*
X97028000Y-65278000D02*
X97028000Y-63373000D01*
D24*
X90424000Y-89662000D02*
X92202000Y-89662000D01*
D25*
X90170000Y-68199000D02*
X90170000Y-78867000D01*
X90170000Y-64135000D02*
X90170000Y-68199000D01*
X90678000Y-63627000D02*
X90170000Y-64135000D01*
X90678000Y-60071000D02*
X90678000Y-63627000D01*
X90678000Y-60071000D02*
X91888000Y-58861000D01*
D24*
X92456000Y-81153000D02*
X90170000Y-78867000D01*
X92456000Y-89408000D02*
X92456000Y-81153000D01*
X92202000Y-89662000D02*
X92456000Y-89408000D01*
X90551000Y-89789000D02*
X90678000Y-89662000D01*
X90424000Y-89662000D02*
X90551000Y-89789000D01*
D25*
X91888000Y-58858000D02*
X91888000Y-58861000D01*
X94488000Y-72390000D02*
X94488000Y-65278000D01*
X94234000Y-72771000D02*
X94488000Y-72390000D01*
X94234000Y-77216000D02*
X94234000Y-72771000D01*
X99695000Y-82677000D02*
X94234000Y-77216000D01*
X99695000Y-89408000D02*
X99695000Y-82677000D01*
X95504000Y-93599000D02*
X99695000Y-89408000D01*
X93897002Y-93599000D02*
X95504000Y-93599000D01*
X93643002Y-93853000D02*
X93897002Y-93599000D01*
X89916000Y-93853000D02*
X93643002Y-93853000D01*
X89662000Y-93599000D02*
X89916000Y-93853000D01*
X88138000Y-93599000D02*
X89662000Y-93599000D01*
X87757000Y-93980000D02*
X88138000Y-93599000D01*
D24*
X101092000Y-70612000D02*
X101092000Y-65532000D01*
D23*
X60706000Y-68580000D02*
X60452000Y-68580000D01*
X73152000Y-68326000D02*
X71628000Y-69850000D01*
X71628000Y-69850000D02*
X61976000Y-69850000D01*
X61976000Y-69850000D02*
X60706000Y-68580000D01*
X64262000Y-62738000D02*
X64262000Y-65024000D01*
X64262000Y-65024000D02*
X60706000Y-68580000D01*
X66488000Y-58858000D02*
X66110000Y-58858000D01*
X66110000Y-58858000D02*
X65024000Y-59944000D01*
X65024000Y-59944000D02*
X65024000Y-61976000D01*
X65024000Y-61976000D02*
X64262000Y-62738000D01*
X108204000Y-111252000D02*
X112268000Y-107188000D01*
X62738000Y-75438000D02*
X63500000Y-75438000D01*
X58928000Y-70358000D02*
X58928000Y-74676000D01*
X58928000Y-74676000D02*
X59690000Y-75438000D01*
X59690000Y-75438000D02*
X62738000Y-75438000D01*
X60706000Y-68580000D02*
X58928000Y-70358000D01*
X65278000Y-77216000D02*
X65278000Y-110998000D01*
X63500000Y-75438000D02*
X65278000Y-77216000D01*
X66338402Y-112058402D02*
X66294000Y-112014000D01*
X65278000Y-110998000D02*
X66338402Y-112058402D01*
X66294000Y-112014000D02*
X86614000Y-112014000D01*
X86614000Y-112014000D02*
X87376000Y-111252000D01*
X87376000Y-111252000D02*
X108204000Y-111252000D01*
D25*
X119126000Y-93218000D02*
X120650000Y-91694000D01*
X107950000Y-93218000D02*
X119126000Y-93218000D01*
X111760000Y-95758000D02*
X113030000Y-94488000D01*
X107950000Y-95758000D02*
X111760000Y-95758000D01*
X89916000Y-85090000D02*
X89916000Y-82296000D01*
X89916000Y-82296000D02*
X81280000Y-73660000D01*
X81280000Y-73660000D02*
X80518000Y-73660000D01*
X101600000Y-89154000D02*
X101600000Y-86614000D01*
X95504000Y-95250000D02*
X101600000Y-89154000D01*
X93980000Y-95250000D02*
X95504000Y-95250000D01*
X84074000Y-95250000D02*
X93980000Y-95250000D01*
X95504000Y-76962000D02*
X95504000Y-75438000D01*
X101600000Y-83058000D02*
X95504000Y-76962000D01*
X101600000Y-86614000D02*
X101600000Y-83058000D01*
X68072000Y-71374000D02*
X67818000Y-71120000D01*
X67818000Y-71120000D02*
X60706000Y-71120000D01*
X109668000Y-74235000D02*
X109728000Y-74295000D01*
X109668000Y-61398000D02*
X109668000Y-74235000D01*
X108077000Y-73660000D02*
X108077000Y-81915000D01*
X108458000Y-73279000D02*
X108077000Y-73660000D01*
X108458000Y-60071000D02*
X108458000Y-73279000D01*
X109668000Y-58861000D02*
X108458000Y-60071000D01*
X109668000Y-58858000D02*
X109668000Y-58861000D01*
X112208000Y-76775000D02*
X112268000Y-76835000D01*
X112208000Y-61398000D02*
X112208000Y-76775000D01*
X110998000Y-60071000D02*
X110998000Y-84455000D01*
X112208000Y-58861000D02*
X110998000Y-60071000D01*
X112208000Y-58858000D02*
X112208000Y-58861000D01*
X117725000Y-66675000D02*
X118000000Y-66400000D01*
X115951000Y-66675000D02*
X117725000Y-66675000D01*
X114427000Y-68199000D02*
X115951000Y-66675000D01*
X114427000Y-80518000D02*
X114427000Y-68199000D01*
X115443000Y-79756000D02*
X115443000Y-68961000D01*
X116819000Y-71480000D02*
X118000000Y-71480000D01*
X116205000Y-70866000D02*
X116819000Y-71480000D01*
X116205000Y-67818000D02*
X116205000Y-70866000D01*
X116988000Y-71480000D02*
X118000000Y-71480000D01*
X116586000Y-71882000D02*
X116988000Y-71480000D01*
X116586000Y-78232000D02*
X116586000Y-71882000D01*
X106807000Y-79629000D02*
X106807000Y-69977000D01*
D26*
G36*
X66023268Y-112349400D02*
X64794750Y-112349400D01*
X64794750Y-108498987D01*
X64312221Y-107331178D01*
X63419522Y-106436919D01*
X62252557Y-105952353D01*
X60988987Y-105951250D01*
X59821178Y-106433779D01*
X58926919Y-107326478D01*
X58442353Y-108493443D01*
X58441250Y-109757013D01*
X58923779Y-110924822D01*
X59816478Y-111819081D01*
X60983443Y-112303647D01*
X62247013Y-112304750D01*
X63414822Y-111822221D01*
X64309081Y-110929522D01*
X64793647Y-109762557D01*
X64794750Y-108498987D01*
X64794750Y-112349400D01*
X61145441Y-112349400D01*
X60078655Y-112137203D01*
X59197539Y-111548460D01*
X58608796Y-110667346D01*
X58396600Y-109600559D01*
X58396600Y-94155440D01*
X58456555Y-93854020D01*
X58611752Y-93621752D01*
X58844021Y-93466555D01*
X59145440Y-93406600D01*
X62118000Y-93406600D01*
X62144911Y-93401247D01*
X62172352Y-93401247D01*
X62555035Y-93325127D01*
X62655465Y-93283528D01*
X62655465Y-93283527D01*
X62655468Y-93283524D01*
X62979889Y-93066755D01*
X63056754Y-92989889D01*
X63056755Y-92989889D01*
X63056756Y-92989885D01*
X63273524Y-92665468D01*
X63273527Y-92665465D01*
X63273528Y-92665465D01*
X63315127Y-92565035D01*
X63391247Y-92182352D01*
X63391247Y-92154911D01*
X63396600Y-92128000D01*
X63396600Y-77128000D01*
X63391247Y-77101088D01*
X63391247Y-77073648D01*
X63315127Y-76690965D01*
X63273528Y-76590535D01*
X63273524Y-76590531D01*
X63056756Y-76266114D01*
X63056755Y-76266111D01*
X62979889Y-76189245D01*
X62655468Y-75972475D01*
X62655465Y-75972473D01*
X62655465Y-75972472D01*
X62555035Y-75930873D01*
X62231911Y-75866600D01*
X62738000Y-75866600D01*
X63322467Y-75866600D01*
X64849400Y-77393532D01*
X64849400Y-110998000D01*
X64882025Y-111162018D01*
X64974934Y-111301066D01*
X65990934Y-112317066D01*
X66023268Y-112349400D01*
X66023268Y-112349400D01*
G37*
X66023268Y-112349400D02*
X64794750Y-112349400D01*
X64794750Y-108498987D01*
X64312221Y-107331178D01*
X63419522Y-106436919D01*
X62252557Y-105952353D01*
X60988987Y-105951250D01*
X59821178Y-106433779D01*
X58926919Y-107326478D01*
X58442353Y-108493443D01*
X58441250Y-109757013D01*
X58923779Y-110924822D01*
X59816478Y-111819081D01*
X60983443Y-112303647D01*
X62247013Y-112304750D01*
X63414822Y-111822221D01*
X64309081Y-110929522D01*
X64793647Y-109762557D01*
X64794750Y-108498987D01*
X64794750Y-112349400D01*
X61145441Y-112349400D01*
X60078655Y-112137203D01*
X59197539Y-111548460D01*
X58608796Y-110667346D01*
X58396600Y-109600559D01*
X58396600Y-94155440D01*
X58456555Y-93854020D01*
X58611752Y-93621752D01*
X58844021Y-93466555D01*
X59145440Y-93406600D01*
X62118000Y-93406600D01*
X62144911Y-93401247D01*
X62172352Y-93401247D01*
X62555035Y-93325127D01*
X62655465Y-93283528D01*
X62655465Y-93283527D01*
X62655468Y-93283524D01*
X62979889Y-93066755D01*
X63056754Y-92989889D01*
X63056755Y-92989889D01*
X63056756Y-92989885D01*
X63273524Y-92665468D01*
X63273527Y-92665465D01*
X63273528Y-92665465D01*
X63315127Y-92565035D01*
X63391247Y-92182352D01*
X63391247Y-92154911D01*
X63396600Y-92128000D01*
X63396600Y-77128000D01*
X63391247Y-77101088D01*
X63391247Y-77073648D01*
X63315127Y-76690965D01*
X63273528Y-76590535D01*
X63273524Y-76590531D01*
X63056756Y-76266114D01*
X63056755Y-76266111D01*
X62979889Y-76189245D01*
X62655468Y-75972475D01*
X62655465Y-75972473D01*
X62655465Y-75972472D01*
X62555035Y-75930873D01*
X62231911Y-75866600D01*
X62738000Y-75866600D01*
X63322467Y-75866600D01*
X64849400Y-77393532D01*
X64849400Y-110998000D01*
X64882025Y-111162018D01*
X64974934Y-111301066D01*
X65990934Y-112317066D01*
X66023268Y-112349400D01*
G36*
X122840280Y-109596134D02*
X122794750Y-109825028D01*
X122794750Y-108498987D01*
X122794750Y-59498987D01*
X122312221Y-58331178D01*
X121419522Y-57436919D01*
X120252557Y-56952353D01*
X118988987Y-56951250D01*
X117821178Y-57433779D01*
X116926919Y-58326478D01*
X116442353Y-59493443D01*
X116441250Y-60757013D01*
X116923779Y-61924822D01*
X117816478Y-62819081D01*
X118983443Y-63303647D01*
X120247013Y-63304750D01*
X121414822Y-62822221D01*
X122309081Y-61929522D01*
X122793647Y-60762557D01*
X122794750Y-59498987D01*
X122794750Y-108498987D01*
X122312221Y-107331178D01*
X121968929Y-106987286D01*
X121968929Y-98024168D01*
X121968929Y-97555832D01*
X121920306Y-97379768D01*
X121918983Y-97377600D01*
X121918983Y-89154000D01*
X121824243Y-88677712D01*
X121706529Y-88501540D01*
X121706529Y-84414168D01*
X121706529Y-83945832D01*
X121706529Y-81874168D01*
X121706529Y-81405832D01*
X121706529Y-79334168D01*
X121706529Y-78865832D01*
X121706529Y-76794168D01*
X121706529Y-76325832D01*
X121706529Y-74254168D01*
X121706529Y-73785832D01*
X121706529Y-71714168D01*
X121706529Y-71245832D01*
X121706529Y-69174168D01*
X121706529Y-68705832D01*
X121706529Y-66634168D01*
X121706529Y-66165832D01*
X121530446Y-65740720D01*
X121202757Y-65411877D01*
X120774169Y-65233467D01*
X120588800Y-65292747D01*
X120588800Y-66351200D01*
X121647175Y-66351200D01*
X121706529Y-66165832D01*
X121706529Y-66634168D01*
X121647175Y-66448800D01*
X120588800Y-66448800D01*
X120588800Y-67507253D01*
X120774169Y-67566533D01*
X121202757Y-67388123D01*
X121530446Y-67059280D01*
X121706529Y-66634168D01*
X121706529Y-68705832D01*
X121530446Y-68280720D01*
X121202757Y-67951877D01*
X120774169Y-67773467D01*
X120588800Y-67832747D01*
X120588800Y-68891200D01*
X121647175Y-68891200D01*
X121706529Y-68705832D01*
X121706529Y-69174168D01*
X121647175Y-68988800D01*
X120588800Y-68988800D01*
X120588800Y-70047253D01*
X120774169Y-70106533D01*
X121202757Y-69928123D01*
X121530446Y-69599280D01*
X121706529Y-69174168D01*
X121706529Y-71245832D01*
X121530446Y-70820720D01*
X121202757Y-70491877D01*
X120774169Y-70313467D01*
X120588800Y-70372747D01*
X120588800Y-71431200D01*
X121647175Y-71431200D01*
X121706529Y-71245832D01*
X121706529Y-71714168D01*
X121647175Y-71528800D01*
X120588800Y-71528800D01*
X120588800Y-72587253D01*
X120774169Y-72646533D01*
X121202757Y-72468123D01*
X121530446Y-72139280D01*
X121706529Y-71714168D01*
X121706529Y-73785832D01*
X121530446Y-73360720D01*
X121202757Y-73031877D01*
X120774169Y-72853467D01*
X120588800Y-72912747D01*
X120588800Y-73971200D01*
X121647175Y-73971200D01*
X121706529Y-73785832D01*
X121706529Y-74254168D01*
X121647175Y-74068800D01*
X120588800Y-74068800D01*
X120588800Y-75127253D01*
X120774169Y-75186533D01*
X121202757Y-75008123D01*
X121530446Y-74679280D01*
X121706529Y-74254168D01*
X121706529Y-76325832D01*
X121530446Y-75900720D01*
X121202757Y-75571877D01*
X120774169Y-75393467D01*
X120588800Y-75452747D01*
X120588800Y-76511200D01*
X121647175Y-76511200D01*
X121706529Y-76325832D01*
X121706529Y-76794168D01*
X121647175Y-76608800D01*
X120588800Y-76608800D01*
X120588800Y-77667253D01*
X120774169Y-77726533D01*
X121202757Y-77548123D01*
X121530446Y-77219280D01*
X121706529Y-76794168D01*
X121706529Y-78865832D01*
X121530446Y-78440720D01*
X121202757Y-78111877D01*
X120774169Y-77933467D01*
X120588800Y-77992747D01*
X120588800Y-79051200D01*
X121647175Y-79051200D01*
X121706529Y-78865832D01*
X121706529Y-79334168D01*
X121647175Y-79148800D01*
X120588800Y-79148800D01*
X120588800Y-80207253D01*
X120774169Y-80266533D01*
X121202757Y-80088123D01*
X121530446Y-79759280D01*
X121706529Y-79334168D01*
X121706529Y-81405832D01*
X121530446Y-80980720D01*
X121202757Y-80651877D01*
X120774169Y-80473467D01*
X120588800Y-80532747D01*
X120588800Y-81591200D01*
X121647175Y-81591200D01*
X121706529Y-81405832D01*
X121706529Y-81874168D01*
X121647175Y-81688800D01*
X120588800Y-81688800D01*
X120588800Y-82747253D01*
X120774169Y-82806533D01*
X121202757Y-82628123D01*
X121530446Y-82299280D01*
X121706529Y-81874168D01*
X121706529Y-83945832D01*
X121530446Y-83520720D01*
X121202757Y-83191877D01*
X120774169Y-83013467D01*
X120588800Y-83072747D01*
X120588800Y-84131200D01*
X121647175Y-84131200D01*
X121706529Y-83945832D01*
X121706529Y-84414168D01*
X121647175Y-84228800D01*
X120588800Y-84228800D01*
X120588800Y-85287253D01*
X120774169Y-85346533D01*
X121202757Y-85168123D01*
X121530446Y-84839280D01*
X121706529Y-84414168D01*
X121706529Y-88501540D01*
X121554448Y-88273935D01*
X121150671Y-88004140D01*
X120674383Y-87909400D01*
X120625617Y-87909400D01*
X120491200Y-87936137D01*
X120491200Y-85287253D01*
X120491200Y-84228800D01*
X120491200Y-84131200D01*
X120491200Y-83072747D01*
X120491200Y-82747253D01*
X120491200Y-81688800D01*
X120491200Y-81591200D01*
X120491200Y-80532747D01*
X120491200Y-80207253D01*
X120491200Y-79148800D01*
X120491200Y-79051200D01*
X120491200Y-77992747D01*
X120491200Y-77667253D01*
X120491200Y-76608800D01*
X120491200Y-76511200D01*
X120491200Y-75452747D01*
X120491200Y-75127253D01*
X120491200Y-74068800D01*
X120491200Y-73971200D01*
X120491200Y-72912747D01*
X120491200Y-72587253D01*
X120491200Y-71528800D01*
X120491200Y-71431200D01*
X120491200Y-70372747D01*
X120491200Y-70047253D01*
X120491200Y-68988800D01*
X120491200Y-68891200D01*
X120491200Y-67832747D01*
X120491200Y-67507253D01*
X120491200Y-66448800D01*
X120491200Y-66351200D01*
X120491200Y-65292747D01*
X120305831Y-65233467D01*
X119877243Y-65411877D01*
X119549554Y-65740720D01*
X119373471Y-66165832D01*
X119432825Y-66351200D01*
X120491200Y-66351200D01*
X120491200Y-66448800D01*
X119432825Y-66448800D01*
X119373471Y-66634168D01*
X119549554Y-67059280D01*
X119877243Y-67388123D01*
X120305831Y-67566533D01*
X120491200Y-67507253D01*
X120491200Y-67832747D01*
X120305831Y-67773467D01*
X119877243Y-67951877D01*
X119549554Y-68280720D01*
X119373471Y-68705832D01*
X119432825Y-68891200D01*
X120491200Y-68891200D01*
X120491200Y-68988800D01*
X119432825Y-68988800D01*
X119373471Y-69174168D01*
X119549554Y-69599280D01*
X119877243Y-69928123D01*
X120305831Y-70106533D01*
X120491200Y-70047253D01*
X120491200Y-70372747D01*
X120305831Y-70313467D01*
X119877243Y-70491877D01*
X119549554Y-70820720D01*
X119373471Y-71245832D01*
X119432825Y-71431200D01*
X120491200Y-71431200D01*
X120491200Y-71528800D01*
X119432825Y-71528800D01*
X119373471Y-71714168D01*
X119549554Y-72139280D01*
X119877243Y-72468123D01*
X120305831Y-72646533D01*
X120491200Y-72587253D01*
X120491200Y-72912747D01*
X120305831Y-72853467D01*
X119877243Y-73031877D01*
X119549554Y-73360720D01*
X119373471Y-73785832D01*
X119432825Y-73971200D01*
X120491200Y-73971200D01*
X120491200Y-74068800D01*
X119432825Y-74068800D01*
X119373471Y-74254168D01*
X119549554Y-74679280D01*
X119877243Y-75008123D01*
X120305831Y-75186533D01*
X120491200Y-75127253D01*
X120491200Y-75452747D01*
X120305831Y-75393467D01*
X119877243Y-75571877D01*
X119549554Y-75900720D01*
X119373471Y-76325832D01*
X119432825Y-76511200D01*
X120491200Y-76511200D01*
X120491200Y-76608800D01*
X119432825Y-76608800D01*
X119373471Y-76794168D01*
X119549554Y-77219280D01*
X119877243Y-77548123D01*
X120305831Y-77726533D01*
X120491200Y-77667253D01*
X120491200Y-77992747D01*
X120305831Y-77933467D01*
X119877243Y-78111877D01*
X119549554Y-78440720D01*
X119373471Y-78865832D01*
X119432825Y-79051200D01*
X120491200Y-79051200D01*
X120491200Y-79148800D01*
X119432825Y-79148800D01*
X119373471Y-79334168D01*
X119549554Y-79759280D01*
X119877243Y-80088123D01*
X120305831Y-80266533D01*
X120491200Y-80207253D01*
X120491200Y-80532747D01*
X120305831Y-80473467D01*
X119877243Y-80651877D01*
X119549554Y-80980720D01*
X119373471Y-81405832D01*
X119432825Y-81591200D01*
X120491200Y-81591200D01*
X120491200Y-81688800D01*
X119432825Y-81688800D01*
X119373471Y-81874168D01*
X119549554Y-82299280D01*
X119877243Y-82628123D01*
X120305831Y-82806533D01*
X120491200Y-82747253D01*
X120491200Y-83072747D01*
X120305831Y-83013467D01*
X119877243Y-83191877D01*
X119549554Y-83520720D01*
X119373471Y-83945832D01*
X119432825Y-84131200D01*
X120491200Y-84131200D01*
X120491200Y-84228800D01*
X119432825Y-84228800D01*
X119373471Y-84414168D01*
X119549554Y-84839280D01*
X119877243Y-85168123D01*
X120305831Y-85346533D01*
X120491200Y-85287253D01*
X120491200Y-87936137D01*
X120149329Y-88004140D01*
X119745552Y-88273935D01*
X119475757Y-88677712D01*
X119381017Y-89154000D01*
X119475757Y-89630288D01*
X119745552Y-90034065D01*
X120149329Y-90303860D01*
X120625617Y-90398600D01*
X120674383Y-90398600D01*
X121150671Y-90303860D01*
X121554448Y-90034065D01*
X121824243Y-89630288D01*
X121918983Y-89154000D01*
X121918983Y-97377600D01*
X121899079Y-97344994D01*
X121899079Y-92710000D01*
X121899079Y-90678000D01*
X121882167Y-90590836D01*
X121831842Y-90514226D01*
X121755871Y-90462944D01*
X121666000Y-90444921D01*
X119634000Y-90444921D01*
X119546836Y-90461833D01*
X119470226Y-90512158D01*
X119418944Y-90588129D01*
X119400921Y-90678000D01*
X119400921Y-92443013D01*
X119113597Y-92730337D01*
X119113597Y-84180000D01*
X119113597Y-81640000D01*
X119113597Y-79100000D01*
X119113597Y-76560000D01*
X119030458Y-76142033D01*
X118793699Y-75787698D01*
X118439364Y-75550939D01*
X118021397Y-75467800D01*
X117978603Y-75467800D01*
X117560636Y-75550939D01*
X117206301Y-75787698D01*
X116969542Y-76142033D01*
X116939600Y-76292561D01*
X116939600Y-74287438D01*
X116969542Y-74437967D01*
X117206301Y-74792302D01*
X117560636Y-75029061D01*
X117978603Y-75112200D01*
X118021397Y-75112200D01*
X118439364Y-75029061D01*
X118793699Y-74792302D01*
X119030458Y-74437967D01*
X119113597Y-74020000D01*
X119030458Y-73602033D01*
X118793699Y-73247698D01*
X118439364Y-73010939D01*
X118021397Y-72927800D01*
X117978603Y-72927800D01*
X117560636Y-73010939D01*
X117206301Y-73247698D01*
X116969542Y-73602033D01*
X116939600Y-73752561D01*
X116939600Y-72028466D01*
X117009819Y-71958246D01*
X117206301Y-72252302D01*
X117560636Y-72489061D01*
X117978603Y-72572200D01*
X118021397Y-72572200D01*
X118439364Y-72489061D01*
X118793699Y-72252302D01*
X119030458Y-71897967D01*
X119113597Y-71480000D01*
X119113597Y-68940000D01*
X119096679Y-68854947D01*
X119096679Y-67263600D01*
X119096679Y-65536400D01*
X119079767Y-65449236D01*
X119029442Y-65372626D01*
X118953471Y-65321344D01*
X118863600Y-65303321D01*
X117136400Y-65303321D01*
X117049236Y-65320233D01*
X116972626Y-65370558D01*
X116921344Y-65446529D01*
X116903321Y-65536400D01*
X116903321Y-66321400D01*
X115951000Y-66321400D01*
X115914533Y-66328653D01*
X115914533Y-61632169D01*
X115914533Y-61163831D01*
X115840200Y-60985263D01*
X115840200Y-58879397D01*
X115840200Y-58836603D01*
X115757061Y-58418636D01*
X115520302Y-58064301D01*
X115165967Y-57827542D01*
X114748000Y-57744403D01*
X114330033Y-57827542D01*
X113975698Y-58064301D01*
X113738939Y-58418636D01*
X113655800Y-58836603D01*
X113655800Y-58879397D01*
X113738939Y-59297364D01*
X113975698Y-59651699D01*
X114330033Y-59888458D01*
X114748000Y-59971597D01*
X115165967Y-59888458D01*
X115520302Y-59651699D01*
X115757061Y-59297364D01*
X115840200Y-58879397D01*
X115840200Y-60985263D01*
X115736123Y-60735243D01*
X115407280Y-60407554D01*
X114982168Y-60231471D01*
X114796800Y-60290825D01*
X114796800Y-61349200D01*
X115855253Y-61349200D01*
X115914533Y-61163831D01*
X115914533Y-61632169D01*
X115855253Y-61446800D01*
X114796800Y-61446800D01*
X114796800Y-62505175D01*
X114982168Y-62564529D01*
X115407280Y-62388446D01*
X115736123Y-62060757D01*
X115914533Y-61632169D01*
X115914533Y-66328653D01*
X115815683Y-66348316D01*
X115700967Y-66424967D01*
X114699200Y-67426734D01*
X114699200Y-62505175D01*
X114699200Y-61446800D01*
X114699200Y-61349200D01*
X114699200Y-60290825D01*
X114513832Y-60231471D01*
X114088720Y-60407554D01*
X113759877Y-60735243D01*
X113581467Y-61163831D01*
X113640747Y-61349200D01*
X114699200Y-61349200D01*
X114699200Y-61446800D01*
X113640747Y-61446800D01*
X113581467Y-61632169D01*
X113759877Y-62060757D01*
X114088720Y-62388446D01*
X114513832Y-62564529D01*
X114699200Y-62505175D01*
X114699200Y-67426734D01*
X114176967Y-67948967D01*
X114100316Y-68063683D01*
X114073400Y-68199000D01*
X114073400Y-80124081D01*
X113979136Y-80218181D01*
X113898492Y-80412394D01*
X113898308Y-80622684D01*
X113978613Y-80817037D01*
X114127181Y-80965864D01*
X114321394Y-81046508D01*
X114531684Y-81046692D01*
X114726037Y-80966387D01*
X114874864Y-80817819D01*
X114955508Y-80623606D01*
X114955692Y-80413316D01*
X114875387Y-80218963D01*
X114780600Y-80124010D01*
X114780600Y-68345466D01*
X116097466Y-67028600D01*
X116903321Y-67028600D01*
X116903321Y-67263600D01*
X116920233Y-67350764D01*
X116970558Y-67427374D01*
X117046529Y-67478656D01*
X117136400Y-67496679D01*
X118863600Y-67496679D01*
X118950764Y-67479767D01*
X119027374Y-67429442D01*
X119078656Y-67353471D01*
X119096679Y-67263600D01*
X119096679Y-68854947D01*
X119030458Y-68522033D01*
X118793699Y-68167698D01*
X118439364Y-67930939D01*
X118021397Y-67847800D01*
X117978603Y-67847800D01*
X117560636Y-67930939D01*
X117206301Y-68167698D01*
X116969542Y-68522033D01*
X116886403Y-68940000D01*
X116969542Y-69357967D01*
X117206301Y-69712302D01*
X117560636Y-69949061D01*
X117978603Y-70032200D01*
X118021397Y-70032200D01*
X118439364Y-69949061D01*
X118793699Y-69712302D01*
X119030458Y-69357967D01*
X119113597Y-68940000D01*
X119113597Y-71480000D01*
X119030458Y-71062033D01*
X118793699Y-70707698D01*
X118439364Y-70470939D01*
X118021397Y-70387800D01*
X117978603Y-70387800D01*
X117560636Y-70470939D01*
X117206301Y-70707698D01*
X116969542Y-71062033D01*
X116958186Y-71119120D01*
X116558600Y-70719534D01*
X116558600Y-68211918D01*
X116652864Y-68117819D01*
X116733508Y-67923606D01*
X116733692Y-67713316D01*
X116653387Y-67518963D01*
X116504819Y-67370136D01*
X116310606Y-67289492D01*
X116100316Y-67289308D01*
X115905963Y-67369613D01*
X115757136Y-67518181D01*
X115676492Y-67712394D01*
X115676308Y-67922684D01*
X115756613Y-68117037D01*
X115851400Y-68211989D01*
X115851400Y-68621906D01*
X115742819Y-68513136D01*
X115548606Y-68432492D01*
X115338316Y-68432308D01*
X115143963Y-68512613D01*
X114995136Y-68661181D01*
X114914492Y-68855394D01*
X114914308Y-69065684D01*
X114994613Y-69260037D01*
X115089400Y-69354989D01*
X115089400Y-79362081D01*
X114995136Y-79456181D01*
X114914492Y-79650394D01*
X114914308Y-79860684D01*
X114994613Y-80055037D01*
X115143181Y-80203864D01*
X115337394Y-80284508D01*
X115547684Y-80284692D01*
X115742037Y-80204387D01*
X115890864Y-80055819D01*
X115971508Y-79861606D01*
X115971692Y-79651316D01*
X115891387Y-79456963D01*
X115796600Y-79362010D01*
X115796600Y-69354918D01*
X115851400Y-69300214D01*
X115851400Y-70866000D01*
X115878316Y-71001317D01*
X115954967Y-71116033D01*
X116403434Y-71564500D01*
X116335967Y-71631967D01*
X116259316Y-71746683D01*
X116232400Y-71882000D01*
X116232400Y-77838081D01*
X116138136Y-77932181D01*
X116057492Y-78126394D01*
X116057308Y-78336684D01*
X116137613Y-78531037D01*
X116286181Y-78679864D01*
X116480394Y-78760508D01*
X116690684Y-78760692D01*
X116885037Y-78680387D01*
X117033864Y-78531819D01*
X117114508Y-78337606D01*
X117114692Y-78127316D01*
X117034387Y-77932963D01*
X116939600Y-77838010D01*
X116939600Y-76827438D01*
X116969542Y-76977967D01*
X117206301Y-77332302D01*
X117560636Y-77569061D01*
X117978603Y-77652200D01*
X118021397Y-77652200D01*
X118439364Y-77569061D01*
X118793699Y-77332302D01*
X119030458Y-76977967D01*
X119113597Y-76560000D01*
X119113597Y-79100000D01*
X119030458Y-78682033D01*
X118793699Y-78327698D01*
X118439364Y-78090939D01*
X118021397Y-78007800D01*
X117978603Y-78007800D01*
X117560636Y-78090939D01*
X117206301Y-78327698D01*
X116969542Y-78682033D01*
X116886403Y-79100000D01*
X116969542Y-79517967D01*
X117206301Y-79872302D01*
X117560636Y-80109061D01*
X117978603Y-80192200D01*
X118021397Y-80192200D01*
X118439364Y-80109061D01*
X118793699Y-79872302D01*
X119030458Y-79517967D01*
X119113597Y-79100000D01*
X119113597Y-81640000D01*
X119030458Y-81222033D01*
X118793699Y-80867698D01*
X118439364Y-80630939D01*
X118021397Y-80547800D01*
X117978603Y-80547800D01*
X117560636Y-80630939D01*
X117206301Y-80867698D01*
X116969542Y-81222033D01*
X116886403Y-81640000D01*
X116969542Y-82057967D01*
X117206301Y-82412302D01*
X117560636Y-82649061D01*
X117978603Y-82732200D01*
X118021397Y-82732200D01*
X118439364Y-82649061D01*
X118793699Y-82412302D01*
X119030458Y-82057967D01*
X119113597Y-81640000D01*
X119113597Y-84180000D01*
X119030458Y-83762033D01*
X118793699Y-83407698D01*
X118439364Y-83170939D01*
X118021397Y-83087800D01*
X117978603Y-83087800D01*
X117560636Y-83170939D01*
X117206301Y-83407698D01*
X116969542Y-83762033D01*
X116886403Y-84180000D01*
X116969542Y-84597967D01*
X117206301Y-84952302D01*
X117560636Y-85189061D01*
X117978603Y-85272200D01*
X118021397Y-85272200D01*
X118439364Y-85189061D01*
X118793699Y-84952302D01*
X119030458Y-84597967D01*
X119113597Y-84180000D01*
X119113597Y-92730337D01*
X118979534Y-92864400D01*
X113300200Y-92864400D01*
X113300200Y-61419397D01*
X113300200Y-61376603D01*
X113217061Y-60958636D01*
X112980302Y-60604301D01*
X112625967Y-60367542D01*
X112208000Y-60284403D01*
X111790033Y-60367542D01*
X111435698Y-60604301D01*
X111351600Y-60730162D01*
X111351600Y-60217466D01*
X111724437Y-59844628D01*
X111790033Y-59888458D01*
X112208000Y-59971597D01*
X112625967Y-59888458D01*
X112980302Y-59651699D01*
X113217061Y-59297364D01*
X113300200Y-58879397D01*
X113300200Y-58836603D01*
X113217061Y-58418636D01*
X112980302Y-58064301D01*
X112625967Y-57827542D01*
X112208000Y-57744403D01*
X111790033Y-57827542D01*
X111435698Y-58064301D01*
X111198939Y-58418636D01*
X111115800Y-58836603D01*
X111115800Y-58879397D01*
X111198939Y-59297364D01*
X111228030Y-59340903D01*
X110747967Y-59820967D01*
X110671316Y-59935683D01*
X110644400Y-60071000D01*
X110644400Y-60909755D01*
X110440302Y-60604301D01*
X110085967Y-60367542D01*
X109668000Y-60284403D01*
X109250033Y-60367542D01*
X108895698Y-60604301D01*
X108811600Y-60730162D01*
X108811600Y-60217466D01*
X109184437Y-59844628D01*
X109250033Y-59888458D01*
X109668000Y-59971597D01*
X110085967Y-59888458D01*
X110440302Y-59651699D01*
X110677061Y-59297364D01*
X110760200Y-58879397D01*
X110760200Y-58836603D01*
X110677061Y-58418636D01*
X110440302Y-58064301D01*
X110085967Y-57827542D01*
X109668000Y-57744403D01*
X109250033Y-57827542D01*
X108895698Y-58064301D01*
X108658939Y-58418636D01*
X108575800Y-58836603D01*
X108575800Y-58879397D01*
X108658939Y-59297364D01*
X108688030Y-59340903D01*
X108294533Y-59734400D01*
X108294533Y-59092169D01*
X108294533Y-58623831D01*
X108116123Y-58195243D01*
X107787280Y-57867554D01*
X107362168Y-57691471D01*
X107176800Y-57750825D01*
X107176800Y-58809200D01*
X108235253Y-58809200D01*
X108294533Y-58623831D01*
X108294533Y-59092169D01*
X108235253Y-58906800D01*
X107176800Y-58906800D01*
X107176800Y-59965175D01*
X107362168Y-60024529D01*
X107787280Y-59848446D01*
X108116123Y-59520757D01*
X108294533Y-59092169D01*
X108294533Y-59734400D01*
X108207967Y-59820967D01*
X108131316Y-59935683D01*
X108104400Y-60071000D01*
X108104400Y-60909755D01*
X107900302Y-60604301D01*
X107545967Y-60367542D01*
X107128000Y-60284403D01*
X107079200Y-60294109D01*
X107079200Y-59965175D01*
X107079200Y-58906800D01*
X107079200Y-58809200D01*
X107079200Y-57750825D01*
X106893832Y-57691471D01*
X106468720Y-57867554D01*
X106139877Y-58195243D01*
X105961467Y-58623831D01*
X106020747Y-58809200D01*
X107079200Y-58809200D01*
X107079200Y-58906800D01*
X106020747Y-58906800D01*
X105961467Y-59092169D01*
X106139877Y-59520757D01*
X106468720Y-59848446D01*
X106893832Y-60024529D01*
X107079200Y-59965175D01*
X107079200Y-60294109D01*
X106710033Y-60367542D01*
X106355698Y-60604301D01*
X106118939Y-60958636D01*
X106035800Y-61376603D01*
X106035800Y-61419397D01*
X106118939Y-61837364D01*
X106355698Y-62191699D01*
X106710033Y-62428458D01*
X107128000Y-62511597D01*
X107545967Y-62428458D01*
X107900302Y-62191699D01*
X108104400Y-61886244D01*
X108104400Y-73132534D01*
X107826967Y-73409967D01*
X107750316Y-73524683D01*
X107723400Y-73660000D01*
X107723400Y-81521081D01*
X107629136Y-81615181D01*
X107548492Y-81809394D01*
X107548308Y-82019684D01*
X107628613Y-82214037D01*
X107777181Y-82362864D01*
X107971394Y-82443508D01*
X108181684Y-82443692D01*
X108376037Y-82363387D01*
X108524864Y-82214819D01*
X108605508Y-82020606D01*
X108605692Y-81810316D01*
X108525387Y-81615963D01*
X108430600Y-81521010D01*
X108430600Y-73806466D01*
X108708033Y-73529033D01*
X108784684Y-73414317D01*
X108811600Y-73279000D01*
X108811600Y-62065837D01*
X108895698Y-62191699D01*
X109250033Y-62428458D01*
X109314400Y-62441261D01*
X109314400Y-73960976D01*
X109280136Y-73995181D01*
X109199492Y-74189394D01*
X109199308Y-74399684D01*
X109279613Y-74594037D01*
X109428181Y-74742864D01*
X109622394Y-74823508D01*
X109832684Y-74823692D01*
X110027037Y-74743387D01*
X110175864Y-74594819D01*
X110256508Y-74400606D01*
X110256692Y-74190316D01*
X110176387Y-73995963D01*
X110027819Y-73847136D01*
X110021600Y-73844553D01*
X110021600Y-62441261D01*
X110085967Y-62428458D01*
X110440302Y-62191699D01*
X110644400Y-61886244D01*
X110644400Y-84061081D01*
X110550136Y-84155181D01*
X110469492Y-84349394D01*
X110469308Y-84559684D01*
X110549613Y-84754037D01*
X110698181Y-84902864D01*
X110892394Y-84983508D01*
X111102684Y-84983692D01*
X111297037Y-84903387D01*
X111445864Y-84754819D01*
X111526508Y-84560606D01*
X111526692Y-84350316D01*
X111446387Y-84155963D01*
X111351600Y-84061010D01*
X111351600Y-62065837D01*
X111435698Y-62191699D01*
X111790033Y-62428458D01*
X111854400Y-62441261D01*
X111854400Y-76500976D01*
X111820136Y-76535181D01*
X111739492Y-76729394D01*
X111739308Y-76939684D01*
X111819613Y-77134037D01*
X111968181Y-77282864D01*
X112162394Y-77363508D01*
X112372684Y-77363692D01*
X112567037Y-77283387D01*
X112715864Y-77134819D01*
X112796508Y-76940606D01*
X112796692Y-76730316D01*
X112716387Y-76535963D01*
X112567819Y-76387136D01*
X112561600Y-76384553D01*
X112561600Y-62441261D01*
X112625967Y-62428458D01*
X112980302Y-62191699D01*
X113217061Y-61837364D01*
X113300200Y-61419397D01*
X113300200Y-92864400D01*
X109232814Y-92864400D01*
X109228712Y-92843774D01*
X109016730Y-92526520D01*
X108699476Y-92314538D01*
X108325250Y-92240100D01*
X107574750Y-92240100D01*
X107335692Y-92287651D01*
X107335692Y-79524316D01*
X107255387Y-79329963D01*
X107160600Y-79235010D01*
X107160600Y-70370918D01*
X107254864Y-70276819D01*
X107335508Y-70082606D01*
X107335692Y-69872316D01*
X107255387Y-69677963D01*
X107106819Y-69529136D01*
X106912606Y-69448492D01*
X106702316Y-69448308D01*
X106507963Y-69528613D01*
X106359136Y-69677181D01*
X106278492Y-69871394D01*
X106278308Y-70081684D01*
X106358613Y-70276037D01*
X106453400Y-70370989D01*
X106453400Y-79235081D01*
X106359136Y-79329181D01*
X106278492Y-79523394D01*
X106278308Y-79733684D01*
X106358613Y-79928037D01*
X106507181Y-80076864D01*
X106701394Y-80157508D01*
X106911684Y-80157692D01*
X107106037Y-80077387D01*
X107254864Y-79928819D01*
X107335508Y-79734606D01*
X107335692Y-79524316D01*
X107335692Y-92287651D01*
X107200524Y-92314538D01*
X106883270Y-92526520D01*
X106671288Y-92843774D01*
X106596850Y-93218000D01*
X106671288Y-93592226D01*
X106883270Y-93909480D01*
X107200524Y-94121462D01*
X107574750Y-94195900D01*
X108325250Y-94195900D01*
X108699476Y-94121462D01*
X109016730Y-93909480D01*
X109228712Y-93592226D01*
X109232814Y-93571600D01*
X119126000Y-93571600D01*
X119261317Y-93544684D01*
X119376033Y-93468033D01*
X119900987Y-92943079D01*
X121666000Y-92943079D01*
X121753164Y-92926167D01*
X121829774Y-92875842D01*
X121881056Y-92799871D01*
X121899079Y-92710000D01*
X121899079Y-97344994D01*
X121678222Y-96983191D01*
X121302802Y-96709443D01*
X120851200Y-96600200D01*
X120698800Y-96600200D01*
X120698800Y-97741200D01*
X121909575Y-97741200D01*
X121968929Y-97555832D01*
X121968929Y-98024168D01*
X121909575Y-97838800D01*
X120698800Y-97838800D01*
X120698800Y-98979800D01*
X120851200Y-98979800D01*
X121302802Y-98870557D01*
X121678222Y-98596809D01*
X121920306Y-98200232D01*
X121968929Y-98024168D01*
X121968929Y-106987286D01*
X121918983Y-106937252D01*
X121918983Y-100330000D01*
X121835844Y-99912033D01*
X121599085Y-99557698D01*
X121244750Y-99320939D01*
X120826783Y-99237800D01*
X120601200Y-99237800D01*
X120601200Y-98979800D01*
X120601200Y-97838800D01*
X120601200Y-97741200D01*
X120601200Y-96600200D01*
X120448800Y-96600200D01*
X119997198Y-96709443D01*
X119621778Y-96983191D01*
X119379694Y-97379768D01*
X119331071Y-97555832D01*
X119390425Y-97741200D01*
X120601200Y-97741200D01*
X120601200Y-97838800D01*
X119390425Y-97838800D01*
X119331071Y-98024168D01*
X119379694Y-98200232D01*
X119621778Y-98596809D01*
X119997198Y-98870557D01*
X120448800Y-98979800D01*
X120601200Y-98979800D01*
X120601200Y-99237800D01*
X120473217Y-99237800D01*
X120055250Y-99320939D01*
X119700915Y-99557698D01*
X119464156Y-99912033D01*
X119381017Y-100330000D01*
X119464156Y-100747967D01*
X119700915Y-101102302D01*
X120055250Y-101339061D01*
X120473217Y-101422200D01*
X120826783Y-101422200D01*
X121244750Y-101339061D01*
X121599085Y-101102302D01*
X121835844Y-100747967D01*
X121918983Y-100330000D01*
X121918983Y-106937252D01*
X121899079Y-106917314D01*
X121899079Y-103733600D01*
X121899079Y-102006400D01*
X121882167Y-101919236D01*
X121831842Y-101842626D01*
X121755871Y-101791344D01*
X121666000Y-101773321D01*
X119634000Y-101773321D01*
X119546836Y-101790233D01*
X119470226Y-101840558D01*
X119418944Y-101916529D01*
X119400921Y-102006400D01*
X119400921Y-103733600D01*
X119417833Y-103820764D01*
X119468158Y-103897374D01*
X119544129Y-103948656D01*
X119634000Y-103966679D01*
X121666000Y-103966679D01*
X121753164Y-103949767D01*
X121829774Y-103899442D01*
X121881056Y-103823471D01*
X121899079Y-103733600D01*
X121899079Y-106917314D01*
X121419522Y-106436919D01*
X120252557Y-105952353D01*
X118988987Y-105951250D01*
X117821178Y-106433779D01*
X116926919Y-107326478D01*
X116442353Y-108493443D01*
X116441250Y-109757013D01*
X116923779Y-110924822D01*
X117816478Y-111819081D01*
X118983443Y-112303647D01*
X120247013Y-112304750D01*
X121414822Y-111822221D01*
X122309081Y-110929522D01*
X122793647Y-109762557D01*
X122794750Y-108498987D01*
X122794750Y-109825028D01*
X122627203Y-110667344D01*
X122038460Y-111548460D01*
X121157346Y-112137203D01*
X120090559Y-112349400D01*
X113558692Y-112349400D01*
X113558692Y-94383316D01*
X113478387Y-94188963D01*
X113329819Y-94040136D01*
X113135606Y-93959492D01*
X112925316Y-93959308D01*
X112730963Y-94039613D01*
X112582136Y-94188181D01*
X112501492Y-94382394D01*
X112501374Y-94516559D01*
X111613534Y-95404400D01*
X109232814Y-95404400D01*
X109228712Y-95383774D01*
X109016730Y-95066520D01*
X108699476Y-94854538D01*
X108325250Y-94780100D01*
X107574750Y-94780100D01*
X107200524Y-94854538D01*
X106883270Y-95066520D01*
X106671288Y-95383774D01*
X106596850Y-95758000D01*
X106671288Y-96132226D01*
X106883270Y-96449480D01*
X107200524Y-96661462D01*
X107574750Y-96735900D01*
X108325250Y-96735900D01*
X108699476Y-96661462D01*
X109016730Y-96449480D01*
X109228712Y-96132226D01*
X109232814Y-96111600D01*
X111760000Y-96111600D01*
X111895317Y-96084684D01*
X112010033Y-96008033D01*
X113001490Y-95016575D01*
X113134684Y-95016692D01*
X113329037Y-94936387D01*
X113477864Y-94787819D01*
X113558508Y-94593606D01*
X113558692Y-94383316D01*
X113558692Y-112349400D01*
X86868674Y-112349400D01*
X86917066Y-112317066D01*
X87553532Y-111680600D01*
X108204000Y-111680600D01*
X108368018Y-111647975D01*
X108507066Y-111555066D01*
X112345463Y-107716668D01*
X112372684Y-107716692D01*
X112567037Y-107636387D01*
X112715864Y-107487819D01*
X112796508Y-107293606D01*
X112796692Y-107083316D01*
X112716387Y-106888963D01*
X112567819Y-106740136D01*
X112373606Y-106659492D01*
X112163316Y-106659308D01*
X111968963Y-106739613D01*
X111820136Y-106888181D01*
X111739492Y-107082394D01*
X111739467Y-107110400D01*
X108026468Y-110823400D01*
X105680200Y-110823400D01*
X105680200Y-61419397D01*
X105680200Y-61376603D01*
X105680200Y-58879397D01*
X105680200Y-58836603D01*
X105597061Y-58418636D01*
X105360302Y-58064301D01*
X105005967Y-57827542D01*
X104588000Y-57744403D01*
X104170033Y-57827542D01*
X103815698Y-58064301D01*
X103578939Y-58418636D01*
X103495800Y-58836603D01*
X103495800Y-58879397D01*
X103578939Y-59297364D01*
X103815698Y-59651699D01*
X104170033Y-59888458D01*
X104588000Y-59971597D01*
X105005967Y-59888458D01*
X105360302Y-59651699D01*
X105597061Y-59297364D01*
X105680200Y-58879397D01*
X105680200Y-61376603D01*
X105597061Y-60958636D01*
X105360302Y-60604301D01*
X105005967Y-60367542D01*
X104588000Y-60284403D01*
X104170033Y-60367542D01*
X103815698Y-60604301D01*
X103578939Y-60958636D01*
X103495800Y-61376603D01*
X103495800Y-61419397D01*
X103578939Y-61837364D01*
X103815698Y-62191699D01*
X104170033Y-62428458D01*
X104588000Y-62511597D01*
X105005967Y-62428458D01*
X105360302Y-62191699D01*
X105597061Y-61837364D01*
X105680200Y-61419397D01*
X105680200Y-110823400D01*
X103214533Y-110823400D01*
X103214533Y-59092169D01*
X103214533Y-58623831D01*
X103036123Y-58195243D01*
X102707280Y-57867554D01*
X102282168Y-57691471D01*
X102096800Y-57750825D01*
X102096800Y-58809200D01*
X103155253Y-58809200D01*
X103214533Y-58623831D01*
X103214533Y-59092169D01*
X103155253Y-58906800D01*
X102096800Y-58906800D01*
X102096800Y-59965175D01*
X102282168Y-60024529D01*
X102707280Y-59848446D01*
X103036123Y-59520757D01*
X103214533Y-59092169D01*
X103214533Y-110823400D01*
X103140200Y-110823400D01*
X103140200Y-61419397D01*
X103140200Y-61376603D01*
X103057061Y-60958636D01*
X102820302Y-60604301D01*
X102465967Y-60367542D01*
X102048000Y-60284403D01*
X101999200Y-60294109D01*
X101999200Y-59965175D01*
X101999200Y-58906800D01*
X101999200Y-58809200D01*
X101999200Y-57750825D01*
X101813832Y-57691471D01*
X101388720Y-57867554D01*
X101059877Y-58195243D01*
X100881467Y-58623831D01*
X100940747Y-58809200D01*
X101999200Y-58809200D01*
X101999200Y-58906800D01*
X100940747Y-58906800D01*
X100881467Y-59092169D01*
X101059877Y-59520757D01*
X101388720Y-59848446D01*
X101813832Y-60024529D01*
X101999200Y-59965175D01*
X101999200Y-60294109D01*
X101630033Y-60367542D01*
X101275698Y-60604301D01*
X101038939Y-60958636D01*
X100955800Y-61376603D01*
X100955800Y-61419397D01*
X101038939Y-61837364D01*
X101275698Y-62191699D01*
X101630033Y-62428458D01*
X102048000Y-62511597D01*
X102465967Y-62428458D01*
X102820302Y-62191699D01*
X103057061Y-61837364D01*
X103140200Y-61419397D01*
X103140200Y-110823400D01*
X101953600Y-110823400D01*
X101953600Y-89154000D01*
X101953600Y-86614000D01*
X101953600Y-83058000D01*
X101926684Y-82922683D01*
X101850033Y-82807967D01*
X101620692Y-82578626D01*
X101620692Y-70507316D01*
X101540387Y-70312963D01*
X101420600Y-70192967D01*
X101420600Y-65950875D01*
X101539864Y-65831819D01*
X101620508Y-65637606D01*
X101620692Y-65427316D01*
X101540387Y-65232963D01*
X101391819Y-65084136D01*
X101197606Y-65003492D01*
X100987316Y-65003308D01*
X100792963Y-65083613D01*
X100644136Y-65232181D01*
X100600200Y-65337991D01*
X100600200Y-61419397D01*
X100600200Y-61376603D01*
X100600200Y-58879397D01*
X100600200Y-58836603D01*
X100517061Y-58418636D01*
X100280302Y-58064301D01*
X99925967Y-57827542D01*
X99508000Y-57744403D01*
X99090033Y-57827542D01*
X98735698Y-58064301D01*
X98498939Y-58418636D01*
X98415800Y-58836603D01*
X98415800Y-58879397D01*
X98498939Y-59297364D01*
X98735698Y-59651699D01*
X99090033Y-59888458D01*
X99508000Y-59971597D01*
X99925967Y-59888458D01*
X100280302Y-59651699D01*
X100517061Y-59297364D01*
X100600200Y-58879397D01*
X100600200Y-61376603D01*
X100517061Y-60958636D01*
X100280302Y-60604301D01*
X99925967Y-60367542D01*
X99508000Y-60284403D01*
X99090033Y-60367542D01*
X98735698Y-60604301D01*
X98524600Y-60920231D01*
X98524600Y-60061000D01*
X98497684Y-59925683D01*
X98421033Y-59810967D01*
X97949170Y-59339104D01*
X97977061Y-59297364D01*
X98060200Y-58879397D01*
X98060200Y-58836603D01*
X97977061Y-58418636D01*
X97740302Y-58064301D01*
X97385967Y-57827542D01*
X96968000Y-57744403D01*
X96550033Y-57827542D01*
X96195698Y-58064301D01*
X95958939Y-58418636D01*
X95875800Y-58836603D01*
X95875800Y-58879397D01*
X95958939Y-59297364D01*
X96195698Y-59651699D01*
X96550033Y-59888458D01*
X96968000Y-59971597D01*
X97385967Y-59888458D01*
X97453360Y-59843426D01*
X97817400Y-60207466D01*
X97817400Y-60597006D01*
X97627280Y-60407554D01*
X97202168Y-60231471D01*
X97016800Y-60290825D01*
X97016800Y-61349200D01*
X97036800Y-61349200D01*
X97036800Y-61446800D01*
X97016800Y-61446800D01*
X97016800Y-62505175D01*
X97202168Y-62564529D01*
X97431321Y-62469612D01*
X96919200Y-62981733D01*
X96919200Y-62505175D01*
X96919200Y-61446800D01*
X96919200Y-61349200D01*
X96919200Y-60290825D01*
X96733832Y-60231471D01*
X96308720Y-60407554D01*
X95979877Y-60735243D01*
X95801467Y-61163831D01*
X95860747Y-61349200D01*
X96919200Y-61349200D01*
X96919200Y-61446800D01*
X95860747Y-61446800D01*
X95801467Y-61632169D01*
X95979877Y-62060757D01*
X96308720Y-62388446D01*
X96733832Y-62564529D01*
X96919200Y-62505175D01*
X96919200Y-62981733D01*
X96777967Y-63122967D01*
X96701316Y-63237683D01*
X96674400Y-63373000D01*
X96674400Y-64079352D01*
X96610033Y-64092156D01*
X96255698Y-64328915D01*
X96018939Y-64683250D01*
X95935800Y-65101217D01*
X95935800Y-65454783D01*
X96018939Y-65872750D01*
X96255698Y-66227085D01*
X96610033Y-66463844D01*
X97028000Y-66546983D01*
X97445967Y-66463844D01*
X97800302Y-66227085D01*
X98037061Y-65872750D01*
X98120200Y-65454783D01*
X98120200Y-65101217D01*
X98037061Y-64683250D01*
X97800302Y-64328915D01*
X97445967Y-64092156D01*
X97381600Y-64079352D01*
X97381600Y-63519466D01*
X98421033Y-62480033D01*
X98497684Y-62365317D01*
X98524600Y-62230000D01*
X98524600Y-61875768D01*
X98735698Y-62191699D01*
X99090033Y-62428458D01*
X99508000Y-62511597D01*
X99925967Y-62428458D01*
X100280302Y-62191699D01*
X100517061Y-61837364D01*
X100600200Y-61419397D01*
X100600200Y-65337991D01*
X100563492Y-65426394D01*
X100563308Y-65636684D01*
X100643613Y-65831037D01*
X100763400Y-65951032D01*
X100763400Y-70193124D01*
X100644136Y-70312181D01*
X100563492Y-70506394D01*
X100563308Y-70716684D01*
X100643613Y-70911037D01*
X100792181Y-71059864D01*
X100986394Y-71140508D01*
X101196684Y-71140692D01*
X101391037Y-71060387D01*
X101539864Y-70911819D01*
X101620508Y-70717606D01*
X101620692Y-70507316D01*
X101620692Y-82578626D01*
X95857600Y-76815534D01*
X95857600Y-75831918D01*
X95951864Y-75737819D01*
X96032508Y-75543606D01*
X96032692Y-75333316D01*
X95952387Y-75138963D01*
X95803819Y-74990136D01*
X95609606Y-74909492D01*
X95399316Y-74909308D01*
X95204963Y-74989613D01*
X95056136Y-75138181D01*
X94975492Y-75332394D01*
X94975308Y-75542684D01*
X95055613Y-75737037D01*
X95150400Y-75831989D01*
X95150400Y-76962000D01*
X95177316Y-77097317D01*
X95253967Y-77212033D01*
X101246400Y-83204466D01*
X101246400Y-86614000D01*
X101246400Y-89007534D01*
X101139600Y-89114334D01*
X101139600Y-88965049D01*
X101158864Y-88945819D01*
X101239508Y-88751606D01*
X101239692Y-88541316D01*
X101159387Y-88346963D01*
X101010819Y-88198136D01*
X100816606Y-88117492D01*
X100606316Y-88117308D01*
X100411963Y-88197613D01*
X100263136Y-88346181D01*
X100182492Y-88540394D01*
X100182308Y-88750684D01*
X100262613Y-88945037D01*
X100282400Y-88964858D01*
X100282400Y-89103468D01*
X100048600Y-89337268D01*
X100048600Y-82677000D01*
X100021684Y-82541683D01*
X99945033Y-82426967D01*
X94587600Y-77069534D01*
X94587600Y-72878061D01*
X94782213Y-72586142D01*
X94795436Y-72554122D01*
X94814684Y-72525317D01*
X94821513Y-72490980D01*
X94834878Y-72458621D01*
X94834841Y-72423977D01*
X94841600Y-72390000D01*
X94841600Y-66476647D01*
X94905967Y-66463844D01*
X95260302Y-66227085D01*
X95497061Y-65872750D01*
X95580200Y-65454783D01*
X95580200Y-65101217D01*
X95497061Y-64683250D01*
X95260302Y-64328915D01*
X94905967Y-64092156D01*
X94488000Y-64009017D01*
X94070033Y-64092156D01*
X93715698Y-64328915D01*
X93571600Y-64544572D01*
X93571600Y-64281466D01*
X94678033Y-63175033D01*
X94754684Y-63060317D01*
X94781600Y-62925000D01*
X94781600Y-62441261D01*
X94845967Y-62428458D01*
X95200302Y-62191699D01*
X95437061Y-61837364D01*
X95520200Y-61419397D01*
X95520200Y-61376603D01*
X95437061Y-60958636D01*
X95200302Y-60604301D01*
X94845967Y-60367542D01*
X94428000Y-60284403D01*
X94010033Y-60367542D01*
X93655698Y-60604301D01*
X93444600Y-60920231D01*
X93444600Y-60341466D01*
X93942639Y-59843426D01*
X94010033Y-59888458D01*
X94428000Y-59971597D01*
X94845967Y-59888458D01*
X95200302Y-59651699D01*
X95437061Y-59297364D01*
X95520200Y-58879397D01*
X95520200Y-58836603D01*
X95437061Y-58418636D01*
X95200302Y-58064301D01*
X94845967Y-57827542D01*
X94428000Y-57744403D01*
X94010033Y-57827542D01*
X93655698Y-58064301D01*
X93418939Y-58418636D01*
X93335800Y-58836603D01*
X93335800Y-58879397D01*
X93418939Y-59297364D01*
X93446829Y-59339104D01*
X92840967Y-59944967D01*
X92764316Y-60059683D01*
X92737400Y-60195000D01*
X92737400Y-60719686D01*
X92660302Y-60604301D01*
X92305967Y-60367542D01*
X91888000Y-60284403D01*
X91470033Y-60367542D01*
X91115698Y-60604301D01*
X91031600Y-60730162D01*
X91031600Y-60217466D01*
X91404437Y-59844628D01*
X91470033Y-59888458D01*
X91888000Y-59971597D01*
X92305967Y-59888458D01*
X92660302Y-59651699D01*
X92897061Y-59297364D01*
X92980200Y-58879397D01*
X92980200Y-58836603D01*
X92897061Y-58418636D01*
X92660302Y-58064301D01*
X92305967Y-57827542D01*
X91888000Y-57744403D01*
X91470033Y-57827542D01*
X91115698Y-58064301D01*
X90878939Y-58418636D01*
X90795800Y-58836603D01*
X90795800Y-58879397D01*
X90878939Y-59297364D01*
X90908030Y-59340903D01*
X90514533Y-59734400D01*
X90514533Y-59092169D01*
X90514533Y-58623831D01*
X90336123Y-58195243D01*
X90007280Y-57867554D01*
X89582168Y-57691471D01*
X89396800Y-57750825D01*
X89396800Y-58809200D01*
X90455253Y-58809200D01*
X90514533Y-58623831D01*
X90514533Y-59092169D01*
X90455253Y-58906800D01*
X89396800Y-58906800D01*
X89396800Y-59965175D01*
X89582168Y-60024529D01*
X90007280Y-59848446D01*
X90336123Y-59520757D01*
X90514533Y-59092169D01*
X90514533Y-59734400D01*
X90427967Y-59820967D01*
X90351316Y-59935683D01*
X90324400Y-60071000D01*
X90324400Y-60909755D01*
X90120302Y-60604301D01*
X89765967Y-60367542D01*
X89348000Y-60284403D01*
X89299200Y-60294109D01*
X89299200Y-59965175D01*
X89299200Y-58906800D01*
X89299200Y-58809200D01*
X89299200Y-57750825D01*
X89113832Y-57691471D01*
X88688720Y-57867554D01*
X88359877Y-58195243D01*
X88181467Y-58623831D01*
X88240747Y-58809200D01*
X89299200Y-58809200D01*
X89299200Y-58906800D01*
X88240747Y-58906800D01*
X88181467Y-59092169D01*
X88359877Y-59520757D01*
X88688720Y-59848446D01*
X89113832Y-60024529D01*
X89299200Y-59965175D01*
X89299200Y-60294109D01*
X88930033Y-60367542D01*
X88575698Y-60604301D01*
X88338939Y-60958636D01*
X88255800Y-61376603D01*
X88255800Y-61419397D01*
X88338939Y-61837364D01*
X88575698Y-62191699D01*
X88721687Y-62289246D01*
X88522967Y-62487967D01*
X88446316Y-62602683D01*
X88419400Y-62738000D01*
X88419400Y-68961000D01*
X88446316Y-69096317D01*
X88522967Y-69211033D01*
X89006424Y-69694490D01*
X89006308Y-69827684D01*
X89086613Y-70022037D01*
X89235181Y-70170864D01*
X89429394Y-70251508D01*
X89639684Y-70251692D01*
X89816400Y-70178674D01*
X89816400Y-78867000D01*
X89843316Y-79002317D01*
X89919967Y-79117033D01*
X90026518Y-79188228D01*
X92127400Y-81289110D01*
X92127400Y-89271890D01*
X92065890Y-89333400D01*
X90842875Y-89333400D01*
X90723819Y-89214136D01*
X90529606Y-89133492D01*
X90444692Y-89133417D01*
X90444692Y-84985316D01*
X90364387Y-84790963D01*
X90269600Y-84696010D01*
X90269600Y-82296000D01*
X90242684Y-82160683D01*
X90166033Y-82045967D01*
X87900200Y-79780134D01*
X87900200Y-61419397D01*
X87900200Y-61376603D01*
X87900200Y-58879397D01*
X87900200Y-58836603D01*
X87817061Y-58418636D01*
X87580302Y-58064301D01*
X87225967Y-57827542D01*
X86808000Y-57744403D01*
X86390033Y-57827542D01*
X86035698Y-58064301D01*
X85798939Y-58418636D01*
X85715800Y-58836603D01*
X85715800Y-58879397D01*
X85798939Y-59297364D01*
X86035698Y-59651699D01*
X86390033Y-59888458D01*
X86808000Y-59971597D01*
X87225967Y-59888458D01*
X87580302Y-59651699D01*
X87817061Y-59297364D01*
X87900200Y-58879397D01*
X87900200Y-61376603D01*
X87817061Y-60958636D01*
X87580302Y-60604301D01*
X87225967Y-60367542D01*
X86808000Y-60284403D01*
X86390033Y-60367542D01*
X86035698Y-60604301D01*
X85798939Y-60958636D01*
X85715800Y-61376603D01*
X85715800Y-61419397D01*
X85798939Y-61837364D01*
X86035698Y-62191699D01*
X86390033Y-62428458D01*
X86808000Y-62511597D01*
X87225967Y-62428458D01*
X87580302Y-62191699D01*
X87817061Y-61837364D01*
X87900200Y-61419397D01*
X87900200Y-79780134D01*
X85360200Y-77240134D01*
X85360200Y-61419397D01*
X85360200Y-61376603D01*
X85360200Y-58879397D01*
X85360200Y-58836603D01*
X85277061Y-58418636D01*
X85040302Y-58064301D01*
X84685967Y-57827542D01*
X84268000Y-57744403D01*
X83850033Y-57827542D01*
X83495698Y-58064301D01*
X83258939Y-58418636D01*
X83175800Y-58836603D01*
X83175800Y-58879397D01*
X83258939Y-59297364D01*
X83495698Y-59651699D01*
X83850033Y-59888458D01*
X84268000Y-59971597D01*
X84685967Y-59888458D01*
X85040302Y-59651699D01*
X85277061Y-59297364D01*
X85360200Y-58879397D01*
X85360200Y-61376603D01*
X85277061Y-60958636D01*
X85040302Y-60604301D01*
X84685967Y-60367542D01*
X84268000Y-60284403D01*
X83850033Y-60367542D01*
X83495698Y-60604301D01*
X83258939Y-60958636D01*
X83175800Y-61376603D01*
X83175800Y-61419397D01*
X83258939Y-61837364D01*
X83495698Y-62191699D01*
X83850033Y-62428458D01*
X84268000Y-62511597D01*
X84685967Y-62428458D01*
X85040302Y-62191699D01*
X85277061Y-61837364D01*
X85360200Y-61419397D01*
X85360200Y-77240134D01*
X82894533Y-74774467D01*
X82894533Y-59092169D01*
X82894533Y-58623831D01*
X82716123Y-58195243D01*
X82387280Y-57867554D01*
X81962168Y-57691471D01*
X81776800Y-57750825D01*
X81776800Y-58809200D01*
X82835253Y-58809200D01*
X82894533Y-58623831D01*
X82894533Y-59092169D01*
X82835253Y-58906800D01*
X81776800Y-58906800D01*
X81776800Y-59965175D01*
X81962168Y-60024529D01*
X82387280Y-59848446D01*
X82716123Y-59520757D01*
X82894533Y-59092169D01*
X82894533Y-74774467D01*
X82820200Y-74700134D01*
X82820200Y-61419397D01*
X82820200Y-61376603D01*
X82737061Y-60958636D01*
X82500302Y-60604301D01*
X82145967Y-60367542D01*
X81728000Y-60284403D01*
X81679200Y-60294109D01*
X81679200Y-59965175D01*
X81679200Y-58906800D01*
X81679200Y-58809200D01*
X81679200Y-57750825D01*
X81493832Y-57691471D01*
X81068720Y-57867554D01*
X80739877Y-58195243D01*
X80561467Y-58623831D01*
X80620747Y-58809200D01*
X81679200Y-58809200D01*
X81679200Y-58906800D01*
X80620747Y-58906800D01*
X80561467Y-59092169D01*
X80739877Y-59520757D01*
X81068720Y-59848446D01*
X81493832Y-60024529D01*
X81679200Y-59965175D01*
X81679200Y-60294109D01*
X81310033Y-60367542D01*
X80955698Y-60604301D01*
X80718939Y-60958636D01*
X80635800Y-61376603D01*
X80635800Y-61419397D01*
X80718939Y-61837364D01*
X80955698Y-62191699D01*
X81310033Y-62428458D01*
X81728000Y-62511597D01*
X82145967Y-62428458D01*
X82500302Y-62191699D01*
X82737061Y-61837364D01*
X82820200Y-61419397D01*
X82820200Y-74700134D01*
X81530033Y-73409967D01*
X81415317Y-73333316D01*
X81280000Y-73306400D01*
X80911918Y-73306400D01*
X80817819Y-73212136D01*
X80623606Y-73131492D01*
X80413316Y-73131308D01*
X80280200Y-73186310D01*
X80280200Y-61419397D01*
X80280200Y-61376603D01*
X80280200Y-58879397D01*
X80280200Y-58836603D01*
X80197061Y-58418636D01*
X79960302Y-58064301D01*
X79605967Y-57827542D01*
X79188000Y-57744403D01*
X78770033Y-57827542D01*
X78415698Y-58064301D01*
X78178939Y-58418636D01*
X78095800Y-58836603D01*
X78095800Y-58879397D01*
X78178939Y-59297364D01*
X78415698Y-59651699D01*
X78770033Y-59888458D01*
X79188000Y-59971597D01*
X79605967Y-59888458D01*
X79960302Y-59651699D01*
X80197061Y-59297364D01*
X80280200Y-58879397D01*
X80280200Y-61376603D01*
X80197061Y-60958636D01*
X79960302Y-60604301D01*
X79605967Y-60367542D01*
X79188000Y-60284403D01*
X78770033Y-60367542D01*
X78415698Y-60604301D01*
X78178939Y-60958636D01*
X78095800Y-61376603D01*
X78095800Y-61419397D01*
X78178939Y-61837364D01*
X78415698Y-62191699D01*
X78770033Y-62428458D01*
X79188000Y-62511597D01*
X79605967Y-62428458D01*
X79960302Y-62191699D01*
X80197061Y-61837364D01*
X80280200Y-61419397D01*
X80280200Y-73186310D01*
X80218963Y-73211613D01*
X80070136Y-73360181D01*
X79989492Y-73554394D01*
X79989308Y-73764684D01*
X80069613Y-73959037D01*
X80218181Y-74107864D01*
X80412394Y-74188508D01*
X80622684Y-74188692D01*
X80817037Y-74108387D01*
X80911989Y-74013600D01*
X81133534Y-74013600D01*
X89562400Y-82442466D01*
X89562400Y-84696081D01*
X89468136Y-84790181D01*
X89387492Y-84984394D01*
X89387308Y-85194684D01*
X89467613Y-85389037D01*
X89616181Y-85537864D01*
X89810394Y-85618508D01*
X90020684Y-85618692D01*
X90215037Y-85538387D01*
X90363864Y-85389819D01*
X90444508Y-85195606D01*
X90444692Y-84985316D01*
X90444692Y-89133417D01*
X90319316Y-89133308D01*
X90124963Y-89213613D01*
X89976136Y-89362181D01*
X89895492Y-89556394D01*
X89895308Y-89766684D01*
X89975613Y-89961037D01*
X90124181Y-90109864D01*
X90318394Y-90190508D01*
X90528684Y-90190692D01*
X90723037Y-90110387D01*
X90843032Y-89990600D01*
X92202000Y-89990600D01*
X92327750Y-89965587D01*
X92434355Y-89894355D01*
X92688355Y-89640355D01*
X92759587Y-89533750D01*
X92784599Y-89408000D01*
X92784600Y-89408000D01*
X92784600Y-81153000D01*
X92759587Y-81027250D01*
X92688355Y-80920645D01*
X90523600Y-78755890D01*
X90523600Y-68199000D01*
X90523600Y-64281466D01*
X90928033Y-63877033D01*
X91004684Y-63762317D01*
X91031600Y-63627000D01*
X91031600Y-62065837D01*
X91115698Y-62191699D01*
X91470033Y-62428458D01*
X91888000Y-62511597D01*
X92305967Y-62428458D01*
X92660302Y-62191699D01*
X92737400Y-62076313D01*
X92737400Y-62210534D01*
X91697967Y-63249967D01*
X91621316Y-63364683D01*
X91594400Y-63500000D01*
X91594400Y-64028921D01*
X91084400Y-64028921D01*
X90997236Y-64045833D01*
X90920626Y-64096158D01*
X90869344Y-64172129D01*
X90851321Y-64262000D01*
X90851321Y-66294000D01*
X90868233Y-66381164D01*
X90918558Y-66457774D01*
X90994529Y-66509056D01*
X91084400Y-66527079D01*
X92811600Y-66527079D01*
X92864400Y-66516834D01*
X92864400Y-67530547D01*
X90953153Y-69202889D01*
X90945883Y-69212341D01*
X90935967Y-69218967D01*
X90904054Y-69266726D01*
X90869041Y-69312252D01*
X90865941Y-69323766D01*
X90859316Y-69333683D01*
X90848110Y-69390017D01*
X90833183Y-69445479D01*
X90834726Y-69457304D01*
X90832400Y-69469000D01*
X90832400Y-78359000D01*
X90859316Y-78494317D01*
X90935967Y-78609033D01*
X96232151Y-83905217D01*
X96238402Y-83936642D01*
X96304474Y-84035526D01*
X96403358Y-84101598D01*
X96461522Y-84113167D01*
X96469200Y-84118297D01*
X96469200Y-86933365D01*
X96326136Y-87076181D01*
X96245492Y-87270394D01*
X96245308Y-87480684D01*
X96325613Y-87675037D01*
X96474181Y-87823864D01*
X96668394Y-87904508D01*
X96878684Y-87904692D01*
X97073037Y-87824387D01*
X97221864Y-87675819D01*
X97302508Y-87481606D01*
X97302692Y-87271316D01*
X97222387Y-87076963D01*
X97078800Y-86933125D01*
X97078800Y-83820000D01*
X97055598Y-83703358D01*
X96989526Y-83604474D01*
X96890642Y-83538402D01*
X96859217Y-83532151D01*
X96770033Y-83442967D01*
X91539600Y-78212534D01*
X91539600Y-69629452D01*
X93450847Y-67957111D01*
X93458116Y-67947658D01*
X93468033Y-67941033D01*
X93499945Y-67893273D01*
X93534959Y-67847748D01*
X93538058Y-67836233D01*
X93544684Y-67826317D01*
X93555889Y-67769982D01*
X93570817Y-67714521D01*
X93569273Y-67702695D01*
X93571600Y-67691000D01*
X93571600Y-66011427D01*
X93715698Y-66227085D01*
X94070033Y-66463844D01*
X94134400Y-66476647D01*
X94134400Y-72282938D01*
X93939787Y-72574858D01*
X93926563Y-72606877D01*
X93907316Y-72635683D01*
X93900486Y-72670019D01*
X93887122Y-72702379D01*
X93887158Y-72737022D01*
X93880400Y-72771000D01*
X93880400Y-77216000D01*
X93907316Y-77351317D01*
X93983967Y-77466033D01*
X99341400Y-82823466D01*
X99341400Y-89261534D01*
X99032600Y-89570333D01*
X99032600Y-89154000D01*
X99032600Y-83185000D01*
X99005684Y-83049683D01*
X98929033Y-82934967D01*
X93571600Y-77577534D01*
X93571600Y-72233317D01*
X93644037Y-72203387D01*
X93792864Y-72054819D01*
X93873508Y-71860606D01*
X93873692Y-71650316D01*
X93793387Y-71455963D01*
X93644819Y-71307136D01*
X93450606Y-71226492D01*
X93240316Y-71226308D01*
X93045963Y-71306613D01*
X92897136Y-71455181D01*
X92816492Y-71649394D01*
X92816308Y-71859684D01*
X92864400Y-71976075D01*
X92864400Y-77724000D01*
X92891316Y-77859317D01*
X92967967Y-77974033D01*
X98325400Y-83331466D01*
X98325400Y-89007534D01*
X98016600Y-89316334D01*
X98016600Y-88866044D01*
X98016600Y-83566000D01*
X97989684Y-83430683D01*
X97913033Y-83315967D01*
X92555600Y-77958534D01*
X92555600Y-71140687D01*
X92560684Y-71140692D01*
X92755037Y-71060387D01*
X92903864Y-70911819D01*
X92984508Y-70717606D01*
X92984692Y-70507316D01*
X92904387Y-70312963D01*
X92755819Y-70164136D01*
X92561606Y-70083492D01*
X92351316Y-70083308D01*
X92156963Y-70163613D01*
X92008136Y-70312181D01*
X91927492Y-70506394D01*
X91927363Y-70652788D01*
X91875316Y-70730683D01*
X91848400Y-70866000D01*
X91848400Y-78105000D01*
X91875316Y-78240317D01*
X91951967Y-78355033D01*
X97309400Y-83712466D01*
X97309400Y-88719578D01*
X96229340Y-89799638D01*
X96229340Y-89115026D01*
X96229340Y-84233146D01*
X96080584Y-83873129D01*
X95805379Y-83597444D01*
X95445623Y-83448060D01*
X95056086Y-83447720D01*
X94696069Y-83596476D01*
X94420384Y-83871681D01*
X94271000Y-84231437D01*
X94270660Y-84620974D01*
X94419416Y-84980991D01*
X94694621Y-85256676D01*
X95054377Y-85406060D01*
X95443914Y-85406400D01*
X95803931Y-85257644D01*
X96079616Y-84982439D01*
X96229000Y-84622683D01*
X96229340Y-84233146D01*
X96229340Y-89115026D01*
X96080584Y-88755009D01*
X95805379Y-88479324D01*
X95445623Y-88329940D01*
X95056086Y-88329600D01*
X94696069Y-88478356D01*
X94420384Y-88753561D01*
X94271000Y-89113317D01*
X94270660Y-89502854D01*
X94419416Y-89862871D01*
X94694621Y-90138556D01*
X95054377Y-90287940D01*
X95443914Y-90288280D01*
X95803931Y-90139524D01*
X96079616Y-89864319D01*
X96229000Y-89504563D01*
X96229340Y-89115026D01*
X96229340Y-89799638D01*
X94815578Y-91213400D01*
X92710000Y-91213400D01*
X92574683Y-91240316D01*
X92459967Y-91316967D01*
X92182533Y-91594400D01*
X91235800Y-91594400D01*
X91203905Y-91551873D01*
X91206508Y-91545606D01*
X91206692Y-91335316D01*
X91126387Y-91140963D01*
X90977819Y-90992136D01*
X90783606Y-90911492D01*
X90573316Y-90911308D01*
X90378963Y-90991613D01*
X90230136Y-91140181D01*
X90149492Y-91334394D01*
X90149308Y-91544684D01*
X90229613Y-91739037D01*
X90378181Y-91887864D01*
X90572394Y-91968508D01*
X90632420Y-91968560D01*
X90776120Y-92160160D01*
X90794930Y-92177025D01*
X90808967Y-92198033D01*
X90845831Y-92222665D01*
X90878843Y-92252264D01*
X90902676Y-92260647D01*
X90923683Y-92274684D01*
X90967168Y-92283333D01*
X91008993Y-92298046D01*
X91034219Y-92296670D01*
X91059000Y-92301600D01*
X92329000Y-92301600D01*
X92464317Y-92274684D01*
X92579033Y-92198033D01*
X92856466Y-91920600D01*
X94962044Y-91920600D01*
X95097361Y-91893684D01*
X95212077Y-91817033D01*
X97913033Y-89116077D01*
X97989684Y-89001361D01*
X98016600Y-88866044D01*
X98016600Y-89316334D01*
X95103534Y-92229400D01*
X93472000Y-92229400D01*
X93336683Y-92256316D01*
X93221967Y-92332967D01*
X93071533Y-92483400D01*
X90548035Y-92483400D01*
X90317626Y-92299072D01*
X90317692Y-92224316D01*
X90237387Y-92029963D01*
X90088819Y-91881136D01*
X89894606Y-91800492D01*
X89684316Y-91800308D01*
X89489963Y-91880613D01*
X89341136Y-92029181D01*
X89260492Y-92223394D01*
X89260308Y-92433684D01*
X89340613Y-92628037D01*
X89489181Y-92776864D01*
X89683394Y-92857508D01*
X89883818Y-92857683D01*
X90203108Y-93113115D01*
X90247293Y-93136028D01*
X90288683Y-93163684D01*
X90308054Y-93167537D01*
X90325587Y-93176629D01*
X90375178Y-93180888D01*
X90424000Y-93190600D01*
X93218000Y-93190600D01*
X93353317Y-93163684D01*
X93468033Y-93087033D01*
X93618466Y-92936600D01*
X95250000Y-92936600D01*
X95385317Y-92909684D01*
X95500033Y-92833033D01*
X98929033Y-89404033D01*
X99005684Y-89289317D01*
X99032600Y-89154000D01*
X99032600Y-89570333D01*
X95357533Y-93245400D01*
X93897002Y-93245400D01*
X93761685Y-93272316D01*
X93646969Y-93348967D01*
X93496536Y-93499400D01*
X90062466Y-93499400D01*
X89912033Y-93348967D01*
X89797317Y-93272316D01*
X89662000Y-93245400D01*
X88138000Y-93245400D01*
X88002683Y-93272316D01*
X87887967Y-93348967D01*
X87785509Y-93451424D01*
X87652316Y-93451308D01*
X87457963Y-93531613D01*
X87309136Y-93680181D01*
X87228492Y-93874394D01*
X87228308Y-94084684D01*
X87308613Y-94279037D01*
X87457181Y-94427864D01*
X87651394Y-94508508D01*
X87861684Y-94508692D01*
X88056037Y-94428387D01*
X88204864Y-94279819D01*
X88285508Y-94085606D01*
X88285624Y-93952600D01*
X88698487Y-93952600D01*
X88625492Y-94128394D01*
X88625308Y-94338684D01*
X88705613Y-94533037D01*
X88854181Y-94681864D01*
X89048394Y-94762508D01*
X89076400Y-94762532D01*
X89104934Y-94791066D01*
X89243981Y-94883975D01*
X89243982Y-94883975D01*
X89306446Y-94896400D01*
X84467918Y-94896400D01*
X84373819Y-94802136D01*
X84179606Y-94721492D01*
X83969316Y-94721308D01*
X83774963Y-94801613D01*
X83626136Y-94950181D01*
X83545492Y-95144394D01*
X83545308Y-95354684D01*
X83625613Y-95549037D01*
X83774181Y-95697864D01*
X83968394Y-95778508D01*
X84178684Y-95778692D01*
X84373037Y-95698387D01*
X84467989Y-95603600D01*
X93980000Y-95603600D01*
X95504000Y-95603600D01*
X95639317Y-95576684D01*
X95754033Y-95500033D01*
X101850033Y-89404033D01*
X101926684Y-89289317D01*
X101953600Y-89154000D01*
X101953600Y-110823400D01*
X101731525Y-110823400D01*
X101731525Y-93434072D01*
X101731525Y-93001928D01*
X101690384Y-92851996D01*
X101473352Y-92492912D01*
X101135425Y-92244216D01*
X100728050Y-92143770D01*
X100378800Y-92143770D01*
X100378800Y-93169200D01*
X101670730Y-93169200D01*
X101731525Y-93001928D01*
X101731525Y-93434072D01*
X101670730Y-93266800D01*
X100378800Y-93266800D01*
X100378800Y-94292230D01*
X100728050Y-94292230D01*
X101135425Y-94191784D01*
X101473352Y-93943088D01*
X101690384Y-93584004D01*
X101731525Y-93434072D01*
X101731525Y-110823400D01*
X101681856Y-110823400D01*
X101681856Y-95758000D01*
X101607514Y-95384260D01*
X101395808Y-95067418D01*
X101078966Y-94855712D01*
X100705226Y-94781370D01*
X100281200Y-94781370D01*
X100281200Y-94292230D01*
X100281200Y-93266800D01*
X100281200Y-93169200D01*
X100281200Y-92143770D01*
X99931950Y-92143770D01*
X99524575Y-92244216D01*
X99186648Y-92492912D01*
X98969616Y-92851996D01*
X98928475Y-93001928D01*
X98989270Y-93169200D01*
X100281200Y-93169200D01*
X100281200Y-93266800D01*
X98989270Y-93266800D01*
X98928475Y-93434072D01*
X98969616Y-93584004D01*
X99186648Y-93943088D01*
X99524575Y-94191784D01*
X99931950Y-94292230D01*
X100281200Y-94292230D01*
X100281200Y-94781370D01*
X99954774Y-94781370D01*
X99581034Y-94855712D01*
X99264192Y-95067418D01*
X99052486Y-95384260D01*
X98978144Y-95758000D01*
X99052486Y-96131740D01*
X99264192Y-96448582D01*
X99581034Y-96660288D01*
X99954774Y-96734630D01*
X100705226Y-96734630D01*
X101078966Y-96660288D01*
X101395808Y-96448582D01*
X101607514Y-96131740D01*
X101681856Y-95758000D01*
X101681856Y-110823400D01*
X87376000Y-110823400D01*
X87211982Y-110856025D01*
X87072934Y-110948934D01*
X86436467Y-111585400D01*
X85495892Y-111585400D01*
X85749280Y-111480446D01*
X86078123Y-111152757D01*
X86256533Y-110724169D01*
X86256533Y-110255831D01*
X86186679Y-110088023D01*
X86186679Y-108813600D01*
X86186679Y-107086400D01*
X86169767Y-106999236D01*
X86119442Y-106922626D01*
X86043471Y-106871344D01*
X85953600Y-106853321D01*
X84226400Y-106853321D01*
X84139236Y-106870233D01*
X84062626Y-106920558D01*
X84011344Y-106996529D01*
X83993321Y-107086400D01*
X83993321Y-108813600D01*
X84010233Y-108900764D01*
X84060558Y-108977374D01*
X84136529Y-109028656D01*
X84226400Y-109046679D01*
X85953600Y-109046679D01*
X86040764Y-109029767D01*
X86117374Y-108979442D01*
X86168656Y-108903471D01*
X86186679Y-108813600D01*
X86186679Y-110088023D01*
X86078123Y-109827243D01*
X85749280Y-109499554D01*
X85324168Y-109323471D01*
X85138800Y-109382825D01*
X85138800Y-110441200D01*
X86197253Y-110441200D01*
X86256533Y-110255831D01*
X86256533Y-110724169D01*
X86197253Y-110538800D01*
X85138800Y-110538800D01*
X85138800Y-110558800D01*
X85041200Y-110558800D01*
X85041200Y-110538800D01*
X85041200Y-110441200D01*
X85041200Y-109382825D01*
X84855832Y-109323471D01*
X84430720Y-109499554D01*
X84101877Y-109827243D01*
X83923467Y-110255831D01*
X83982747Y-110441200D01*
X85041200Y-110441200D01*
X85041200Y-110538800D01*
X83982747Y-110538800D01*
X83923467Y-110724169D01*
X84101877Y-111152757D01*
X84430720Y-111480446D01*
X84684107Y-111585400D01*
X82955892Y-111585400D01*
X83209280Y-111480446D01*
X83538123Y-111152757D01*
X83716533Y-110724169D01*
X83716533Y-110255831D01*
X83642200Y-110077263D01*
X83642200Y-107971397D01*
X83642200Y-107928603D01*
X83559061Y-107510636D01*
X83322302Y-107156301D01*
X82967967Y-106919542D01*
X82550000Y-106836403D01*
X82132033Y-106919542D01*
X81777698Y-107156301D01*
X81540939Y-107510636D01*
X81457800Y-107928603D01*
X81457800Y-107971397D01*
X81540939Y-108389364D01*
X81777698Y-108743699D01*
X82132033Y-108980458D01*
X82550000Y-109063597D01*
X82967967Y-108980458D01*
X83322302Y-108743699D01*
X83559061Y-108389364D01*
X83642200Y-107971397D01*
X83642200Y-110077263D01*
X83538123Y-109827243D01*
X83209280Y-109499554D01*
X82784168Y-109323471D01*
X82598800Y-109382825D01*
X82598800Y-110441200D01*
X83657253Y-110441200D01*
X83716533Y-110255831D01*
X83716533Y-110724169D01*
X83657253Y-110538800D01*
X82598800Y-110538800D01*
X82598800Y-110558800D01*
X82501200Y-110558800D01*
X82501200Y-110538800D01*
X82501200Y-110441200D01*
X82501200Y-109382825D01*
X82315832Y-109323471D01*
X81890720Y-109499554D01*
X81561877Y-109827243D01*
X81383467Y-110255831D01*
X81442747Y-110441200D01*
X82501200Y-110441200D01*
X82501200Y-110538800D01*
X81442747Y-110538800D01*
X81383467Y-110724169D01*
X81561877Y-111152757D01*
X81890720Y-111480446D01*
X82144107Y-111585400D01*
X80415892Y-111585400D01*
X80669280Y-111480446D01*
X80998123Y-111152757D01*
X81176533Y-110724169D01*
X81176533Y-110255831D01*
X81102200Y-110077263D01*
X81102200Y-107971397D01*
X81102200Y-107928603D01*
X81019061Y-107510636D01*
X80782302Y-107156301D01*
X80427967Y-106919542D01*
X80010000Y-106836403D01*
X79592033Y-106919542D01*
X79237698Y-107156301D01*
X79000939Y-107510636D01*
X78917800Y-107928603D01*
X78917800Y-107971397D01*
X79000939Y-108389364D01*
X79237698Y-108743699D01*
X79592033Y-108980458D01*
X80010000Y-109063597D01*
X80427967Y-108980458D01*
X80782302Y-108743699D01*
X81019061Y-108389364D01*
X81102200Y-107971397D01*
X81102200Y-110077263D01*
X80998123Y-109827243D01*
X80669280Y-109499554D01*
X80244168Y-109323471D01*
X80058800Y-109382825D01*
X80058800Y-110441200D01*
X81117253Y-110441200D01*
X81176533Y-110255831D01*
X81176533Y-110724169D01*
X81117253Y-110538800D01*
X80058800Y-110538800D01*
X80058800Y-110558800D01*
X79961200Y-110558800D01*
X79961200Y-110538800D01*
X79961200Y-110441200D01*
X79961200Y-109382825D01*
X79775832Y-109323471D01*
X79350720Y-109499554D01*
X79021877Y-109827243D01*
X78843467Y-110255831D01*
X78902747Y-110441200D01*
X79961200Y-110441200D01*
X79961200Y-110538800D01*
X78902747Y-110538800D01*
X78843467Y-110724169D01*
X79021877Y-111152757D01*
X79350720Y-111480446D01*
X79604107Y-111585400D01*
X77875892Y-111585400D01*
X78129280Y-111480446D01*
X78458123Y-111152757D01*
X78636533Y-110724169D01*
X78636533Y-110255831D01*
X78562200Y-110077263D01*
X78562200Y-107971397D01*
X78562200Y-107928603D01*
X78479061Y-107510636D01*
X78242302Y-107156301D01*
X77887967Y-106919542D01*
X77814533Y-106904935D01*
X77814533Y-61632169D01*
X77814533Y-61163831D01*
X77740200Y-60985263D01*
X77740200Y-58879397D01*
X77740200Y-58836603D01*
X77657061Y-58418636D01*
X77420302Y-58064301D01*
X77065967Y-57827542D01*
X76648000Y-57744403D01*
X76230033Y-57827542D01*
X75875698Y-58064301D01*
X75638939Y-58418636D01*
X75555800Y-58836603D01*
X75555800Y-58879397D01*
X75638939Y-59297364D01*
X75875698Y-59651699D01*
X76230033Y-59888458D01*
X76648000Y-59971597D01*
X77065967Y-59888458D01*
X77420302Y-59651699D01*
X77657061Y-59297364D01*
X77740200Y-58879397D01*
X77740200Y-60985263D01*
X77636123Y-60735243D01*
X77307280Y-60407554D01*
X76882168Y-60231471D01*
X76696800Y-60290825D01*
X76696800Y-61349200D01*
X77755253Y-61349200D01*
X77814533Y-61163831D01*
X77814533Y-61632169D01*
X77755253Y-61446800D01*
X76696800Y-61446800D01*
X76696800Y-62505175D01*
X76882168Y-62564529D01*
X77307280Y-62388446D01*
X77636123Y-62060757D01*
X77814533Y-61632169D01*
X77814533Y-106904935D01*
X77470000Y-106836403D01*
X77052033Y-106919542D01*
X76697698Y-107156301D01*
X76599200Y-107303713D01*
X76599200Y-62505175D01*
X76599200Y-61446800D01*
X76599200Y-61349200D01*
X76599200Y-60290825D01*
X76413832Y-60231471D01*
X75988720Y-60407554D01*
X75659877Y-60735243D01*
X75481467Y-61163831D01*
X75540747Y-61349200D01*
X76599200Y-61349200D01*
X76599200Y-61446800D01*
X75540747Y-61446800D01*
X75481467Y-61632169D01*
X75659877Y-62060757D01*
X75988720Y-62388446D01*
X76413832Y-62564529D01*
X76599200Y-62505175D01*
X76599200Y-107303713D01*
X76460939Y-107510636D01*
X76377800Y-107928603D01*
X76377800Y-107971397D01*
X76460939Y-108389364D01*
X76697698Y-108743699D01*
X77052033Y-108980458D01*
X77470000Y-109063597D01*
X77887967Y-108980458D01*
X78242302Y-108743699D01*
X78479061Y-108389364D01*
X78562200Y-107971397D01*
X78562200Y-110077263D01*
X78458123Y-109827243D01*
X78129280Y-109499554D01*
X77704168Y-109323471D01*
X77518800Y-109382825D01*
X77518800Y-110441200D01*
X78577253Y-110441200D01*
X78636533Y-110255831D01*
X78636533Y-110724169D01*
X78577253Y-110538800D01*
X77518800Y-110538800D01*
X77518800Y-110558800D01*
X77421200Y-110558800D01*
X77421200Y-110538800D01*
X77421200Y-110441200D01*
X77421200Y-109382825D01*
X77235832Y-109323471D01*
X76810720Y-109499554D01*
X76481877Y-109827243D01*
X76303467Y-110255831D01*
X76362747Y-110441200D01*
X77421200Y-110441200D01*
X77421200Y-110538800D01*
X76362747Y-110538800D01*
X76303467Y-110724169D01*
X76481877Y-111152757D01*
X76810720Y-111480446D01*
X77064107Y-111585400D01*
X75335892Y-111585400D01*
X75589280Y-111480446D01*
X75918123Y-111152757D01*
X76096533Y-110724169D01*
X76096533Y-110255831D01*
X76022200Y-110077263D01*
X76022200Y-107971397D01*
X76022200Y-107928603D01*
X75939061Y-107510636D01*
X75702302Y-107156301D01*
X75347967Y-106919542D01*
X75200200Y-106890149D01*
X75200200Y-61419397D01*
X75200200Y-61376603D01*
X75200200Y-58879397D01*
X75200200Y-58836603D01*
X75117061Y-58418636D01*
X74880302Y-58064301D01*
X74525967Y-57827542D01*
X74108000Y-57744403D01*
X73690033Y-57827542D01*
X73335698Y-58064301D01*
X73098939Y-58418636D01*
X73015800Y-58836603D01*
X73015800Y-58879397D01*
X73098939Y-59297364D01*
X73335698Y-59651699D01*
X73690033Y-59888458D01*
X74108000Y-59971597D01*
X74525967Y-59888458D01*
X74880302Y-59651699D01*
X75117061Y-59297364D01*
X75200200Y-58879397D01*
X75200200Y-61376603D01*
X75117061Y-60958636D01*
X74880302Y-60604301D01*
X74525967Y-60367542D01*
X74108000Y-60284403D01*
X73690033Y-60367542D01*
X73335698Y-60604301D01*
X73098939Y-60958636D01*
X73015800Y-61376603D01*
X73015800Y-61419397D01*
X73098939Y-61837364D01*
X73335698Y-62191699D01*
X73690033Y-62428458D01*
X74108000Y-62511597D01*
X74525967Y-62428458D01*
X74880302Y-62191699D01*
X75117061Y-61837364D01*
X75200200Y-61419397D01*
X75200200Y-106890149D01*
X74930000Y-106836403D01*
X74512033Y-106919542D01*
X74157698Y-107156301D01*
X73920939Y-107510636D01*
X73837800Y-107928603D01*
X73837800Y-107971397D01*
X73920939Y-108389364D01*
X74157698Y-108743699D01*
X74512033Y-108980458D01*
X74930000Y-109063597D01*
X75347967Y-108980458D01*
X75702302Y-108743699D01*
X75939061Y-108389364D01*
X76022200Y-107971397D01*
X76022200Y-110077263D01*
X75918123Y-109827243D01*
X75589280Y-109499554D01*
X75164168Y-109323471D01*
X74978800Y-109382825D01*
X74978800Y-110441200D01*
X76037253Y-110441200D01*
X76096533Y-110255831D01*
X76096533Y-110724169D01*
X76037253Y-110538800D01*
X74978800Y-110538800D01*
X74978800Y-110558800D01*
X74881200Y-110558800D01*
X74881200Y-110538800D01*
X74881200Y-110441200D01*
X74881200Y-109382825D01*
X74695832Y-109323471D01*
X74270720Y-109499554D01*
X73941877Y-109827243D01*
X73763467Y-110255831D01*
X73822747Y-110441200D01*
X74881200Y-110441200D01*
X74881200Y-110538800D01*
X73822747Y-110538800D01*
X73763467Y-110724169D01*
X73941877Y-111152757D01*
X74270720Y-111480446D01*
X74524107Y-111585400D01*
X72795892Y-111585400D01*
X73049280Y-111480446D01*
X73378123Y-111152757D01*
X73556533Y-110724169D01*
X73556533Y-110255831D01*
X73482200Y-110077263D01*
X73482200Y-107971397D01*
X73482200Y-107928603D01*
X73399061Y-107510636D01*
X73162302Y-107156301D01*
X72807967Y-106919542D01*
X72390000Y-106836403D01*
X71972033Y-106919542D01*
X71617698Y-107156301D01*
X71380939Y-107510636D01*
X71297800Y-107928603D01*
X71297800Y-107971397D01*
X71380939Y-108389364D01*
X71617698Y-108743699D01*
X71972033Y-108980458D01*
X72390000Y-109063597D01*
X72807967Y-108980458D01*
X73162302Y-108743699D01*
X73399061Y-108389364D01*
X73482200Y-107971397D01*
X73482200Y-110077263D01*
X73378123Y-109827243D01*
X73049280Y-109499554D01*
X72624168Y-109323471D01*
X72438800Y-109382825D01*
X72438800Y-110441200D01*
X73497253Y-110441200D01*
X73556533Y-110255831D01*
X73556533Y-110724169D01*
X73497253Y-110538800D01*
X72438800Y-110538800D01*
X72438800Y-110558800D01*
X72341200Y-110558800D01*
X72341200Y-110538800D01*
X72341200Y-110441200D01*
X72341200Y-109382825D01*
X72155832Y-109323471D01*
X71730720Y-109499554D01*
X71401877Y-109827243D01*
X71223467Y-110255831D01*
X71282747Y-110441200D01*
X72341200Y-110441200D01*
X72341200Y-110538800D01*
X71282747Y-110538800D01*
X71223467Y-110724169D01*
X71401877Y-111152757D01*
X71730720Y-111480446D01*
X71984107Y-111585400D01*
X70255892Y-111585400D01*
X70509280Y-111480446D01*
X70838123Y-111152757D01*
X71016533Y-110724169D01*
X71016533Y-110255831D01*
X70942200Y-110077263D01*
X70942200Y-107971397D01*
X70942200Y-107928603D01*
X70859061Y-107510636D01*
X70622302Y-107156301D01*
X70267967Y-106919542D01*
X69850000Y-106836403D01*
X69432033Y-106919542D01*
X69077698Y-107156301D01*
X68840939Y-107510636D01*
X68757800Y-107928603D01*
X68757800Y-107971397D01*
X68840939Y-108389364D01*
X69077698Y-108743699D01*
X69432033Y-108980458D01*
X69850000Y-109063597D01*
X70267967Y-108980458D01*
X70622302Y-108743699D01*
X70859061Y-108389364D01*
X70942200Y-107971397D01*
X70942200Y-110077263D01*
X70838123Y-109827243D01*
X70509280Y-109499554D01*
X70084168Y-109323471D01*
X69898800Y-109382825D01*
X69898800Y-110441200D01*
X70957253Y-110441200D01*
X71016533Y-110255831D01*
X71016533Y-110724169D01*
X70957253Y-110538800D01*
X69898800Y-110538800D01*
X69898800Y-110558800D01*
X69801200Y-110558800D01*
X69801200Y-110538800D01*
X69801200Y-110441200D01*
X69801200Y-109382825D01*
X69615832Y-109323471D01*
X69190720Y-109499554D01*
X68861877Y-109827243D01*
X68683467Y-110255831D01*
X68742747Y-110441200D01*
X69801200Y-110441200D01*
X69801200Y-110538800D01*
X68742747Y-110538800D01*
X68683467Y-110724169D01*
X68861877Y-111152757D01*
X69190720Y-111480446D01*
X69444107Y-111585400D01*
X68600692Y-111585400D01*
X68600692Y-71269316D01*
X68520387Y-71074963D01*
X68371819Y-70926136D01*
X68177606Y-70845492D01*
X68031211Y-70845363D01*
X67953317Y-70793316D01*
X67818000Y-70766400D01*
X61904647Y-70766400D01*
X61891844Y-70702033D01*
X61655085Y-70347698D01*
X61300750Y-70110939D01*
X60882783Y-70027800D01*
X60529217Y-70027800D01*
X60111250Y-70110939D01*
X59756915Y-70347698D01*
X59520156Y-70702033D01*
X59437017Y-71120000D01*
X59520156Y-71537967D01*
X59756915Y-71892302D01*
X60111250Y-72129061D01*
X60529217Y-72212200D01*
X60882783Y-72212200D01*
X61300750Y-72129061D01*
X61655085Y-71892302D01*
X61891844Y-71537967D01*
X61904647Y-71473600D01*
X67543312Y-71473600D01*
X67543308Y-71478684D01*
X67623613Y-71673037D01*
X67772181Y-71821864D01*
X67966394Y-71902508D01*
X68176684Y-71902692D01*
X68371037Y-71822387D01*
X68519864Y-71673819D01*
X68600508Y-71479606D01*
X68600692Y-71269316D01*
X68600692Y-111585400D01*
X67715892Y-111585400D01*
X67969280Y-111480446D01*
X68298123Y-111152757D01*
X68476533Y-110724169D01*
X68476533Y-110255831D01*
X68402200Y-110077263D01*
X68402200Y-107971397D01*
X68402200Y-107928603D01*
X68319061Y-107510636D01*
X68082302Y-107156301D01*
X67727967Y-106919542D01*
X67310000Y-106836403D01*
X66892033Y-106919542D01*
X66537698Y-107156301D01*
X66300939Y-107510636D01*
X66217800Y-107928603D01*
X66217800Y-107971397D01*
X66300939Y-108389364D01*
X66537698Y-108743699D01*
X66892033Y-108980458D01*
X67310000Y-109063597D01*
X67727967Y-108980458D01*
X68082302Y-108743699D01*
X68319061Y-108389364D01*
X68402200Y-107971397D01*
X68402200Y-110077263D01*
X68298123Y-109827243D01*
X67969280Y-109499554D01*
X67544168Y-109323471D01*
X67358800Y-109382825D01*
X67358800Y-110441200D01*
X68417253Y-110441200D01*
X68476533Y-110255831D01*
X68476533Y-110724169D01*
X68417253Y-110538800D01*
X67358800Y-110538800D01*
X67358800Y-110558800D01*
X67261200Y-110558800D01*
X67261200Y-110538800D01*
X67261200Y-110441200D01*
X67261200Y-109382825D01*
X67075832Y-109323471D01*
X66650720Y-109499554D01*
X66321877Y-109827243D01*
X66143467Y-110255831D01*
X66202747Y-110441200D01*
X67261200Y-110441200D01*
X67261200Y-110538800D01*
X66202747Y-110538800D01*
X66143467Y-110724169D01*
X66321877Y-111152757D01*
X66650720Y-111480446D01*
X66904107Y-111585400D01*
X66471532Y-111585400D01*
X65706600Y-110820468D01*
X65706600Y-77216000D01*
X65673975Y-77051982D01*
X65581066Y-76912934D01*
X63803066Y-75134934D01*
X63664018Y-75042025D01*
X63500000Y-75009400D01*
X62738000Y-75009400D01*
X62024929Y-75009400D01*
X62024929Y-73894168D01*
X62024929Y-73425832D01*
X61976306Y-73249768D01*
X61734222Y-72853191D01*
X61358802Y-72579443D01*
X60907200Y-72470200D01*
X60754800Y-72470200D01*
X60754800Y-73611200D01*
X61965575Y-73611200D01*
X62024929Y-73425832D01*
X62024929Y-73894168D01*
X61965575Y-73708800D01*
X60754800Y-73708800D01*
X60754800Y-74849800D01*
X60907200Y-74849800D01*
X61358802Y-74740557D01*
X61734222Y-74466809D01*
X61976306Y-74070232D01*
X62024929Y-73894168D01*
X62024929Y-75009400D01*
X60657200Y-75009400D01*
X60657200Y-74849800D01*
X60657200Y-73708800D01*
X60657200Y-73611200D01*
X60657200Y-72470200D01*
X60504800Y-72470200D01*
X60053198Y-72579443D01*
X59677778Y-72853191D01*
X59435694Y-73249768D01*
X59387071Y-73425832D01*
X59446425Y-73611200D01*
X60657200Y-73611200D01*
X60657200Y-73708800D01*
X59446425Y-73708800D01*
X59387071Y-73894168D01*
X59435694Y-74070232D01*
X59677778Y-74466809D01*
X60053198Y-74740557D01*
X60504800Y-74849800D01*
X60657200Y-74849800D01*
X60657200Y-75009400D01*
X59867532Y-75009400D01*
X59356600Y-74498468D01*
X59356600Y-70535532D01*
X60215452Y-69676679D01*
X61196547Y-69676679D01*
X61672934Y-70153066D01*
X61811981Y-70245975D01*
X61811982Y-70245975D01*
X61976000Y-70278600D01*
X71628000Y-70278600D01*
X71792018Y-70245975D01*
X71931066Y-70153066D01*
X73229463Y-68854668D01*
X73256684Y-68854692D01*
X73451037Y-68774387D01*
X73599864Y-68625819D01*
X73680508Y-68431606D01*
X73680692Y-68221316D01*
X73600387Y-68026963D01*
X73451819Y-67878136D01*
X73257606Y-67797492D01*
X73047316Y-67797308D01*
X72852963Y-67877613D01*
X72734533Y-67995836D01*
X72734533Y-59092169D01*
X72734533Y-58623831D01*
X72556123Y-58195243D01*
X72227280Y-57867554D01*
X71802168Y-57691471D01*
X71616800Y-57750825D01*
X71616800Y-58809200D01*
X72675253Y-58809200D01*
X72734533Y-58623831D01*
X72734533Y-59092169D01*
X72675253Y-58906800D01*
X71616800Y-58906800D01*
X71616800Y-59965175D01*
X71802168Y-60024529D01*
X72227280Y-59848446D01*
X72556123Y-59520757D01*
X72734533Y-59092169D01*
X72734533Y-67995836D01*
X72704136Y-68026181D01*
X72660200Y-68131991D01*
X72660200Y-61419397D01*
X72660200Y-61376603D01*
X72577061Y-60958636D01*
X72340302Y-60604301D01*
X71985967Y-60367542D01*
X71568000Y-60284403D01*
X71519200Y-60294109D01*
X71519200Y-59965175D01*
X71519200Y-58906800D01*
X71519200Y-58809200D01*
X71519200Y-57750825D01*
X71333832Y-57691471D01*
X70908720Y-57867554D01*
X70579877Y-58195243D01*
X70401467Y-58623831D01*
X70460747Y-58809200D01*
X71519200Y-58809200D01*
X71519200Y-58906800D01*
X70460747Y-58906800D01*
X70401467Y-59092169D01*
X70579877Y-59520757D01*
X70908720Y-59848446D01*
X71333832Y-60024529D01*
X71519200Y-59965175D01*
X71519200Y-60294109D01*
X71150033Y-60367542D01*
X70795698Y-60604301D01*
X70558939Y-60958636D01*
X70475800Y-61376603D01*
X70475800Y-61419397D01*
X70558939Y-61837364D01*
X70795698Y-62191699D01*
X71150033Y-62428458D01*
X71568000Y-62511597D01*
X71985967Y-62428458D01*
X72340302Y-62191699D01*
X72577061Y-61837364D01*
X72660200Y-61419397D01*
X72660200Y-68131991D01*
X72623492Y-68220394D01*
X72623467Y-68248400D01*
X71450467Y-69421400D01*
X70120200Y-69421400D01*
X70120200Y-61419397D01*
X70120200Y-61376603D01*
X70120200Y-58879397D01*
X70120200Y-58836603D01*
X70037061Y-58418636D01*
X69800302Y-58064301D01*
X69445967Y-57827542D01*
X69028000Y-57744403D01*
X68610033Y-57827542D01*
X68255698Y-58064301D01*
X68018939Y-58418636D01*
X67935800Y-58836603D01*
X67935800Y-58879397D01*
X68018939Y-59297364D01*
X68255698Y-59651699D01*
X68610033Y-59888458D01*
X69028000Y-59971597D01*
X69445967Y-59888458D01*
X69800302Y-59651699D01*
X70037061Y-59297364D01*
X70120200Y-58879397D01*
X70120200Y-61376603D01*
X70037061Y-60958636D01*
X69800302Y-60604301D01*
X69445967Y-60367542D01*
X69028000Y-60284403D01*
X68610033Y-60367542D01*
X68255698Y-60604301D01*
X68018939Y-60958636D01*
X67935800Y-61376603D01*
X67935800Y-61419397D01*
X68018939Y-61837364D01*
X68255698Y-62191699D01*
X68610033Y-62428458D01*
X69028000Y-62511597D01*
X69445967Y-62428458D01*
X69800302Y-62191699D01*
X70037061Y-61837364D01*
X70120200Y-61419397D01*
X70120200Y-69421400D01*
X62153531Y-69421400D01*
X61955079Y-69222947D01*
X61955079Y-67937053D01*
X64565066Y-65327066D01*
X64657975Y-65188019D01*
X64657975Y-65188018D01*
X64690600Y-65024000D01*
X64690600Y-62915532D01*
X65327066Y-62279066D01*
X65391321Y-62182901D01*
X65391321Y-62261600D01*
X65408233Y-62348764D01*
X65458558Y-62425374D01*
X65534529Y-62476656D01*
X65624400Y-62494679D01*
X67351600Y-62494679D01*
X67438764Y-62477767D01*
X67515374Y-62427442D01*
X67566656Y-62351471D01*
X67584679Y-62261600D01*
X67584679Y-60534400D01*
X67567767Y-60447236D01*
X67517442Y-60370626D01*
X67441471Y-60319344D01*
X67351600Y-60301321D01*
X65624400Y-60301321D01*
X65537236Y-60318233D01*
X65460626Y-60368558D01*
X65452600Y-60380448D01*
X65452600Y-60121532D01*
X65839626Y-59734505D01*
X66070033Y-59888458D01*
X66488000Y-59971597D01*
X66905967Y-59888458D01*
X67260302Y-59651699D01*
X67497061Y-59297364D01*
X67580200Y-58879397D01*
X67580200Y-58836603D01*
X67497061Y-58418636D01*
X67260302Y-58064301D01*
X66905967Y-57827542D01*
X66488000Y-57744403D01*
X66070033Y-57827542D01*
X65715698Y-58064301D01*
X65478939Y-58418636D01*
X65395800Y-58836603D01*
X65395800Y-58879397D01*
X65410179Y-58951688D01*
X64794690Y-59567177D01*
X64794750Y-59498987D01*
X64312221Y-58331178D01*
X63419522Y-57436919D01*
X62252557Y-56952353D01*
X60988987Y-56951250D01*
X59821178Y-57433779D01*
X58926919Y-58326478D01*
X58442353Y-59493443D01*
X58441250Y-60757013D01*
X58923779Y-61924822D01*
X59816478Y-62819081D01*
X60983443Y-63303647D01*
X62247013Y-63304750D01*
X63414822Y-62822221D01*
X64309081Y-61929522D01*
X64595400Y-61239988D01*
X64595400Y-61798468D01*
X63958934Y-62434934D01*
X63866025Y-62573982D01*
X63833400Y-62738000D01*
X63833400Y-64846468D01*
X61196547Y-67483321D01*
X59690000Y-67483321D01*
X59602836Y-67500233D01*
X59526226Y-67550558D01*
X59474944Y-67626529D01*
X59456921Y-67716400D01*
X59456921Y-69222947D01*
X58624934Y-70054934D01*
X58532025Y-70193982D01*
X58499400Y-70358000D01*
X58499400Y-74676000D01*
X58532025Y-74840018D01*
X58624934Y-74979066D01*
X59386934Y-75741066D01*
X59525982Y-75833975D01*
X59603529Y-75849400D01*
X59145440Y-75849400D01*
X58844021Y-75789444D01*
X58611752Y-75634247D01*
X58456555Y-75401979D01*
X58402530Y-75130375D01*
X58403600Y-75125000D01*
X58403600Y-59625000D01*
X58403127Y-59622624D01*
X58608796Y-58588653D01*
X59197539Y-57707539D01*
X60078655Y-57118796D01*
X61145441Y-56906600D01*
X120090559Y-56906600D01*
X121157346Y-57118796D01*
X122038460Y-57707539D01*
X122627203Y-58588655D01*
X122840280Y-59659865D01*
X122840280Y-109596134D01*
X122840280Y-109596134D01*
G37*
X122840280Y-109596134D02*
X122794750Y-109825028D01*
X122794750Y-108498987D01*
X122794750Y-59498987D01*
X122312221Y-58331178D01*
X121419522Y-57436919D01*
X120252557Y-56952353D01*
X118988987Y-56951250D01*
X117821178Y-57433779D01*
X116926919Y-58326478D01*
X116442353Y-59493443D01*
X116441250Y-60757013D01*
X116923779Y-61924822D01*
X117816478Y-62819081D01*
X118983443Y-63303647D01*
X120247013Y-63304750D01*
X121414822Y-62822221D01*
X122309081Y-61929522D01*
X122793647Y-60762557D01*
X122794750Y-59498987D01*
X122794750Y-108498987D01*
X122312221Y-107331178D01*
X121968929Y-106987286D01*
X121968929Y-98024168D01*
X121968929Y-97555832D01*
X121920306Y-97379768D01*
X121918983Y-97377600D01*
X121918983Y-89154000D01*
X121824243Y-88677712D01*
X121706529Y-88501540D01*
X121706529Y-84414168D01*
X121706529Y-83945832D01*
X121706529Y-81874168D01*
X121706529Y-81405832D01*
X121706529Y-79334168D01*
X121706529Y-78865832D01*
X121706529Y-76794168D01*
X121706529Y-76325832D01*
X121706529Y-74254168D01*
X121706529Y-73785832D01*
X121706529Y-71714168D01*
X121706529Y-71245832D01*
X121706529Y-69174168D01*
X121706529Y-68705832D01*
X121706529Y-66634168D01*
X121706529Y-66165832D01*
X121530446Y-65740720D01*
X121202757Y-65411877D01*
X120774169Y-65233467D01*
X120588800Y-65292747D01*
X120588800Y-66351200D01*
X121647175Y-66351200D01*
X121706529Y-66165832D01*
X121706529Y-66634168D01*
X121647175Y-66448800D01*
X120588800Y-66448800D01*
X120588800Y-67507253D01*
X120774169Y-67566533D01*
X121202757Y-67388123D01*
X121530446Y-67059280D01*
X121706529Y-66634168D01*
X121706529Y-68705832D01*
X121530446Y-68280720D01*
X121202757Y-67951877D01*
X120774169Y-67773467D01*
X120588800Y-67832747D01*
X120588800Y-68891200D01*
X121647175Y-68891200D01*
X121706529Y-68705832D01*
X121706529Y-69174168D01*
X121647175Y-68988800D01*
X120588800Y-68988800D01*
X120588800Y-70047253D01*
X120774169Y-70106533D01*
X121202757Y-69928123D01*
X121530446Y-69599280D01*
X121706529Y-69174168D01*
X121706529Y-71245832D01*
X121530446Y-70820720D01*
X121202757Y-70491877D01*
X120774169Y-70313467D01*
X120588800Y-70372747D01*
X120588800Y-71431200D01*
X121647175Y-71431200D01*
X121706529Y-71245832D01*
X121706529Y-71714168D01*
X121647175Y-71528800D01*
X120588800Y-71528800D01*
X120588800Y-72587253D01*
X120774169Y-72646533D01*
X121202757Y-72468123D01*
X121530446Y-72139280D01*
X121706529Y-71714168D01*
X121706529Y-73785832D01*
X121530446Y-73360720D01*
X121202757Y-73031877D01*
X120774169Y-72853467D01*
X120588800Y-72912747D01*
X120588800Y-73971200D01*
X121647175Y-73971200D01*
X121706529Y-73785832D01*
X121706529Y-74254168D01*
X121647175Y-74068800D01*
X120588800Y-74068800D01*
X120588800Y-75127253D01*
X120774169Y-75186533D01*
X121202757Y-75008123D01*
X121530446Y-74679280D01*
X121706529Y-74254168D01*
X121706529Y-76325832D01*
X121530446Y-75900720D01*
X121202757Y-75571877D01*
X120774169Y-75393467D01*
X120588800Y-75452747D01*
X120588800Y-76511200D01*
X121647175Y-76511200D01*
X121706529Y-76325832D01*
X121706529Y-76794168D01*
X121647175Y-76608800D01*
X120588800Y-76608800D01*
X120588800Y-77667253D01*
X120774169Y-77726533D01*
X121202757Y-77548123D01*
X121530446Y-77219280D01*
X121706529Y-76794168D01*
X121706529Y-78865832D01*
X121530446Y-78440720D01*
X121202757Y-78111877D01*
X120774169Y-77933467D01*
X120588800Y-77992747D01*
X120588800Y-79051200D01*
X121647175Y-79051200D01*
X121706529Y-78865832D01*
X121706529Y-79334168D01*
X121647175Y-79148800D01*
X120588800Y-79148800D01*
X120588800Y-80207253D01*
X120774169Y-80266533D01*
X121202757Y-80088123D01*
X121530446Y-79759280D01*
X121706529Y-79334168D01*
X121706529Y-81405832D01*
X121530446Y-80980720D01*
X121202757Y-80651877D01*
X120774169Y-80473467D01*
X120588800Y-80532747D01*
X120588800Y-81591200D01*
X121647175Y-81591200D01*
X121706529Y-81405832D01*
X121706529Y-81874168D01*
X121647175Y-81688800D01*
X120588800Y-81688800D01*
X120588800Y-82747253D01*
X120774169Y-82806533D01*
X121202757Y-82628123D01*
X121530446Y-82299280D01*
X121706529Y-81874168D01*
X121706529Y-83945832D01*
X121530446Y-83520720D01*
X121202757Y-83191877D01*
X120774169Y-83013467D01*
X120588800Y-83072747D01*
X120588800Y-84131200D01*
X121647175Y-84131200D01*
X121706529Y-83945832D01*
X121706529Y-84414168D01*
X121647175Y-84228800D01*
X120588800Y-84228800D01*
X120588800Y-85287253D01*
X120774169Y-85346533D01*
X121202757Y-85168123D01*
X121530446Y-84839280D01*
X121706529Y-84414168D01*
X121706529Y-88501540D01*
X121554448Y-88273935D01*
X121150671Y-88004140D01*
X120674383Y-87909400D01*
X120625617Y-87909400D01*
X120491200Y-87936137D01*
X120491200Y-85287253D01*
X120491200Y-84228800D01*
X120491200Y-84131200D01*
X120491200Y-83072747D01*
X120491200Y-82747253D01*
X120491200Y-81688800D01*
X120491200Y-81591200D01*
X120491200Y-80532747D01*
X120491200Y-80207253D01*
X120491200Y-79148800D01*
X120491200Y-79051200D01*
X120491200Y-77992747D01*
X120491200Y-77667253D01*
X120491200Y-76608800D01*
X120491200Y-76511200D01*
X120491200Y-75452747D01*
X120491200Y-75127253D01*
X120491200Y-74068800D01*
X120491200Y-73971200D01*
X120491200Y-72912747D01*
X120491200Y-72587253D01*
X120491200Y-71528800D01*
X120491200Y-71431200D01*
X120491200Y-70372747D01*
X120491200Y-70047253D01*
X120491200Y-68988800D01*
X120491200Y-68891200D01*
X120491200Y-67832747D01*
X120491200Y-67507253D01*
X120491200Y-66448800D01*
X120491200Y-66351200D01*
X120491200Y-65292747D01*
X120305831Y-65233467D01*
X119877243Y-65411877D01*
X119549554Y-65740720D01*
X119373471Y-66165832D01*
X119432825Y-66351200D01*
X120491200Y-66351200D01*
X120491200Y-66448800D01*
X119432825Y-66448800D01*
X119373471Y-66634168D01*
X119549554Y-67059280D01*
X119877243Y-67388123D01*
X120305831Y-67566533D01*
X120491200Y-67507253D01*
X120491200Y-67832747D01*
X120305831Y-67773467D01*
X119877243Y-67951877D01*
X119549554Y-68280720D01*
X119373471Y-68705832D01*
X119432825Y-68891200D01*
X120491200Y-68891200D01*
X120491200Y-68988800D01*
X119432825Y-68988800D01*
X119373471Y-69174168D01*
X119549554Y-69599280D01*
X119877243Y-69928123D01*
X120305831Y-70106533D01*
X120491200Y-70047253D01*
X120491200Y-70372747D01*
X120305831Y-70313467D01*
X119877243Y-70491877D01*
X119549554Y-70820720D01*
X119373471Y-71245832D01*
X119432825Y-71431200D01*
X120491200Y-71431200D01*
X120491200Y-71528800D01*
X119432825Y-71528800D01*
X119373471Y-71714168D01*
X119549554Y-72139280D01*
X119877243Y-72468123D01*
X120305831Y-72646533D01*
X120491200Y-72587253D01*
X120491200Y-72912747D01*
X120305831Y-72853467D01*
X119877243Y-73031877D01*
X119549554Y-73360720D01*
X119373471Y-73785832D01*
X119432825Y-73971200D01*
X120491200Y-73971200D01*
X120491200Y-74068800D01*
X119432825Y-74068800D01*
X119373471Y-74254168D01*
X119549554Y-74679280D01*
X119877243Y-75008123D01*
X120305831Y-75186533D01*
X120491200Y-75127253D01*
X120491200Y-75452747D01*
X120305831Y-75393467D01*
X119877243Y-75571877D01*
X119549554Y-75900720D01*
X119373471Y-76325832D01*
X119432825Y-76511200D01*
X120491200Y-76511200D01*
X120491200Y-76608800D01*
X119432825Y-76608800D01*
X119373471Y-76794168D01*
X119549554Y-77219280D01*
X119877243Y-77548123D01*
X120305831Y-77726533D01*
X120491200Y-77667253D01*
X120491200Y-77992747D01*
X120305831Y-77933467D01*
X119877243Y-78111877D01*
X119549554Y-78440720D01*
X119373471Y-78865832D01*
X119432825Y-79051200D01*
X120491200Y-79051200D01*
X120491200Y-79148800D01*
X119432825Y-79148800D01*
X119373471Y-79334168D01*
X119549554Y-79759280D01*
X119877243Y-80088123D01*
X120305831Y-80266533D01*
X120491200Y-80207253D01*
X120491200Y-80532747D01*
X120305831Y-80473467D01*
X119877243Y-80651877D01*
X119549554Y-80980720D01*
X119373471Y-81405832D01*
X119432825Y-81591200D01*
X120491200Y-81591200D01*
X120491200Y-81688800D01*
X119432825Y-81688800D01*
X119373471Y-81874168D01*
X119549554Y-82299280D01*
X119877243Y-82628123D01*
X120305831Y-82806533D01*
X120491200Y-82747253D01*
X120491200Y-83072747D01*
X120305831Y-83013467D01*
X119877243Y-83191877D01*
X119549554Y-83520720D01*
X119373471Y-83945832D01*
X119432825Y-84131200D01*
X120491200Y-84131200D01*
X120491200Y-84228800D01*
X119432825Y-84228800D01*
X119373471Y-84414168D01*
X119549554Y-84839280D01*
X119877243Y-85168123D01*
X120305831Y-85346533D01*
X120491200Y-85287253D01*
X120491200Y-87936137D01*
X120149329Y-88004140D01*
X119745552Y-88273935D01*
X119475757Y-88677712D01*
X119381017Y-89154000D01*
X119475757Y-89630288D01*
X119745552Y-90034065D01*
X120149329Y-90303860D01*
X120625617Y-90398600D01*
X120674383Y-90398600D01*
X121150671Y-90303860D01*
X121554448Y-90034065D01*
X121824243Y-89630288D01*
X121918983Y-89154000D01*
X121918983Y-97377600D01*
X121899079Y-97344994D01*
X121899079Y-92710000D01*
X121899079Y-90678000D01*
X121882167Y-90590836D01*
X121831842Y-90514226D01*
X121755871Y-90462944D01*
X121666000Y-90444921D01*
X119634000Y-90444921D01*
X119546836Y-90461833D01*
X119470226Y-90512158D01*
X119418944Y-90588129D01*
X119400921Y-90678000D01*
X119400921Y-92443013D01*
X119113597Y-92730337D01*
X119113597Y-84180000D01*
X119113597Y-81640000D01*
X119113597Y-79100000D01*
X119113597Y-76560000D01*
X119030458Y-76142033D01*
X118793699Y-75787698D01*
X118439364Y-75550939D01*
X118021397Y-75467800D01*
X117978603Y-75467800D01*
X117560636Y-75550939D01*
X117206301Y-75787698D01*
X116969542Y-76142033D01*
X116939600Y-76292561D01*
X116939600Y-74287438D01*
X116969542Y-74437967D01*
X117206301Y-74792302D01*
X117560636Y-75029061D01*
X117978603Y-75112200D01*
X118021397Y-75112200D01*
X118439364Y-75029061D01*
X118793699Y-74792302D01*
X119030458Y-74437967D01*
X119113597Y-74020000D01*
X119030458Y-73602033D01*
X118793699Y-73247698D01*
X118439364Y-73010939D01*
X118021397Y-72927800D01*
X117978603Y-72927800D01*
X117560636Y-73010939D01*
X117206301Y-73247698D01*
X116969542Y-73602033D01*
X116939600Y-73752561D01*
X116939600Y-72028466D01*
X117009819Y-71958246D01*
X117206301Y-72252302D01*
X117560636Y-72489061D01*
X117978603Y-72572200D01*
X118021397Y-72572200D01*
X118439364Y-72489061D01*
X118793699Y-72252302D01*
X119030458Y-71897967D01*
X119113597Y-71480000D01*
X119113597Y-68940000D01*
X119096679Y-68854947D01*
X119096679Y-67263600D01*
X119096679Y-65536400D01*
X119079767Y-65449236D01*
X119029442Y-65372626D01*
X118953471Y-65321344D01*
X118863600Y-65303321D01*
X117136400Y-65303321D01*
X117049236Y-65320233D01*
X116972626Y-65370558D01*
X116921344Y-65446529D01*
X116903321Y-65536400D01*
X116903321Y-66321400D01*
X115951000Y-66321400D01*
X115914533Y-66328653D01*
X115914533Y-61632169D01*
X115914533Y-61163831D01*
X115840200Y-60985263D01*
X115840200Y-58879397D01*
X115840200Y-58836603D01*
X115757061Y-58418636D01*
X115520302Y-58064301D01*
X115165967Y-57827542D01*
X114748000Y-57744403D01*
X114330033Y-57827542D01*
X113975698Y-58064301D01*
X113738939Y-58418636D01*
X113655800Y-58836603D01*
X113655800Y-58879397D01*
X113738939Y-59297364D01*
X113975698Y-59651699D01*
X114330033Y-59888458D01*
X114748000Y-59971597D01*
X115165967Y-59888458D01*
X115520302Y-59651699D01*
X115757061Y-59297364D01*
X115840200Y-58879397D01*
X115840200Y-60985263D01*
X115736123Y-60735243D01*
X115407280Y-60407554D01*
X114982168Y-60231471D01*
X114796800Y-60290825D01*
X114796800Y-61349200D01*
X115855253Y-61349200D01*
X115914533Y-61163831D01*
X115914533Y-61632169D01*
X115855253Y-61446800D01*
X114796800Y-61446800D01*
X114796800Y-62505175D01*
X114982168Y-62564529D01*
X115407280Y-62388446D01*
X115736123Y-62060757D01*
X115914533Y-61632169D01*
X115914533Y-66328653D01*
X115815683Y-66348316D01*
X115700967Y-66424967D01*
X114699200Y-67426734D01*
X114699200Y-62505175D01*
X114699200Y-61446800D01*
X114699200Y-61349200D01*
X114699200Y-60290825D01*
X114513832Y-60231471D01*
X114088720Y-60407554D01*
X113759877Y-60735243D01*
X113581467Y-61163831D01*
X113640747Y-61349200D01*
X114699200Y-61349200D01*
X114699200Y-61446800D01*
X113640747Y-61446800D01*
X113581467Y-61632169D01*
X113759877Y-62060757D01*
X114088720Y-62388446D01*
X114513832Y-62564529D01*
X114699200Y-62505175D01*
X114699200Y-67426734D01*
X114176967Y-67948967D01*
X114100316Y-68063683D01*
X114073400Y-68199000D01*
X114073400Y-80124081D01*
X113979136Y-80218181D01*
X113898492Y-80412394D01*
X113898308Y-80622684D01*
X113978613Y-80817037D01*
X114127181Y-80965864D01*
X114321394Y-81046508D01*
X114531684Y-81046692D01*
X114726037Y-80966387D01*
X114874864Y-80817819D01*
X114955508Y-80623606D01*
X114955692Y-80413316D01*
X114875387Y-80218963D01*
X114780600Y-80124010D01*
X114780600Y-68345466D01*
X116097466Y-67028600D01*
X116903321Y-67028600D01*
X116903321Y-67263600D01*
X116920233Y-67350764D01*
X116970558Y-67427374D01*
X117046529Y-67478656D01*
X117136400Y-67496679D01*
X118863600Y-67496679D01*
X118950764Y-67479767D01*
X119027374Y-67429442D01*
X119078656Y-67353471D01*
X119096679Y-67263600D01*
X119096679Y-68854947D01*
X119030458Y-68522033D01*
X118793699Y-68167698D01*
X118439364Y-67930939D01*
X118021397Y-67847800D01*
X117978603Y-67847800D01*
X117560636Y-67930939D01*
X117206301Y-68167698D01*
X116969542Y-68522033D01*
X116886403Y-68940000D01*
X116969542Y-69357967D01*
X117206301Y-69712302D01*
X117560636Y-69949061D01*
X117978603Y-70032200D01*
X118021397Y-70032200D01*
X118439364Y-69949061D01*
X118793699Y-69712302D01*
X119030458Y-69357967D01*
X119113597Y-68940000D01*
X119113597Y-71480000D01*
X119030458Y-71062033D01*
X118793699Y-70707698D01*
X118439364Y-70470939D01*
X118021397Y-70387800D01*
X117978603Y-70387800D01*
X117560636Y-70470939D01*
X117206301Y-70707698D01*
X116969542Y-71062033D01*
X116958186Y-71119120D01*
X116558600Y-70719534D01*
X116558600Y-68211918D01*
X116652864Y-68117819D01*
X116733508Y-67923606D01*
X116733692Y-67713316D01*
X116653387Y-67518963D01*
X116504819Y-67370136D01*
X116310606Y-67289492D01*
X116100316Y-67289308D01*
X115905963Y-67369613D01*
X115757136Y-67518181D01*
X115676492Y-67712394D01*
X115676308Y-67922684D01*
X115756613Y-68117037D01*
X115851400Y-68211989D01*
X115851400Y-68621906D01*
X115742819Y-68513136D01*
X115548606Y-68432492D01*
X115338316Y-68432308D01*
X115143963Y-68512613D01*
X114995136Y-68661181D01*
X114914492Y-68855394D01*
X114914308Y-69065684D01*
X114994613Y-69260037D01*
X115089400Y-69354989D01*
X115089400Y-79362081D01*
X114995136Y-79456181D01*
X114914492Y-79650394D01*
X114914308Y-79860684D01*
X114994613Y-80055037D01*
X115143181Y-80203864D01*
X115337394Y-80284508D01*
X115547684Y-80284692D01*
X115742037Y-80204387D01*
X115890864Y-80055819D01*
X115971508Y-79861606D01*
X115971692Y-79651316D01*
X115891387Y-79456963D01*
X115796600Y-79362010D01*
X115796600Y-69354918D01*
X115851400Y-69300214D01*
X115851400Y-70866000D01*
X115878316Y-71001317D01*
X115954967Y-71116033D01*
X116403434Y-71564500D01*
X116335967Y-71631967D01*
X116259316Y-71746683D01*
X116232400Y-71882000D01*
X116232400Y-77838081D01*
X116138136Y-77932181D01*
X116057492Y-78126394D01*
X116057308Y-78336684D01*
X116137613Y-78531037D01*
X116286181Y-78679864D01*
X116480394Y-78760508D01*
X116690684Y-78760692D01*
X116885037Y-78680387D01*
X117033864Y-78531819D01*
X117114508Y-78337606D01*
X117114692Y-78127316D01*
X117034387Y-77932963D01*
X116939600Y-77838010D01*
X116939600Y-76827438D01*
X116969542Y-76977967D01*
X117206301Y-77332302D01*
X117560636Y-77569061D01*
X117978603Y-77652200D01*
X118021397Y-77652200D01*
X118439364Y-77569061D01*
X118793699Y-77332302D01*
X119030458Y-76977967D01*
X119113597Y-76560000D01*
X119113597Y-79100000D01*
X119030458Y-78682033D01*
X118793699Y-78327698D01*
X118439364Y-78090939D01*
X118021397Y-78007800D01*
X117978603Y-78007800D01*
X117560636Y-78090939D01*
X117206301Y-78327698D01*
X116969542Y-78682033D01*
X116886403Y-79100000D01*
X116969542Y-79517967D01*
X117206301Y-79872302D01*
X117560636Y-80109061D01*
X117978603Y-80192200D01*
X118021397Y-80192200D01*
X118439364Y-80109061D01*
X118793699Y-79872302D01*
X119030458Y-79517967D01*
X119113597Y-79100000D01*
X119113597Y-81640000D01*
X119030458Y-81222033D01*
X118793699Y-80867698D01*
X118439364Y-80630939D01*
X118021397Y-80547800D01*
X117978603Y-80547800D01*
X117560636Y-80630939D01*
X117206301Y-80867698D01*
X116969542Y-81222033D01*
X116886403Y-81640000D01*
X116969542Y-82057967D01*
X117206301Y-82412302D01*
X117560636Y-82649061D01*
X117978603Y-82732200D01*
X118021397Y-82732200D01*
X118439364Y-82649061D01*
X118793699Y-82412302D01*
X119030458Y-82057967D01*
X119113597Y-81640000D01*
X119113597Y-84180000D01*
X119030458Y-83762033D01*
X118793699Y-83407698D01*
X118439364Y-83170939D01*
X118021397Y-83087800D01*
X117978603Y-83087800D01*
X117560636Y-83170939D01*
X117206301Y-83407698D01*
X116969542Y-83762033D01*
X116886403Y-84180000D01*
X116969542Y-84597967D01*
X117206301Y-84952302D01*
X117560636Y-85189061D01*
X117978603Y-85272200D01*
X118021397Y-85272200D01*
X118439364Y-85189061D01*
X118793699Y-84952302D01*
X119030458Y-84597967D01*
X119113597Y-84180000D01*
X119113597Y-92730337D01*
X118979534Y-92864400D01*
X113300200Y-92864400D01*
X113300200Y-61419397D01*
X113300200Y-61376603D01*
X113217061Y-60958636D01*
X112980302Y-60604301D01*
X112625967Y-60367542D01*
X112208000Y-60284403D01*
X111790033Y-60367542D01*
X111435698Y-60604301D01*
X111351600Y-60730162D01*
X111351600Y-60217466D01*
X111724437Y-59844628D01*
X111790033Y-59888458D01*
X112208000Y-59971597D01*
X112625967Y-59888458D01*
X112980302Y-59651699D01*
X113217061Y-59297364D01*
X113300200Y-58879397D01*
X113300200Y-58836603D01*
X113217061Y-58418636D01*
X112980302Y-58064301D01*
X112625967Y-57827542D01*
X112208000Y-57744403D01*
X111790033Y-57827542D01*
X111435698Y-58064301D01*
X111198939Y-58418636D01*
X111115800Y-58836603D01*
X111115800Y-58879397D01*
X111198939Y-59297364D01*
X111228030Y-59340903D01*
X110747967Y-59820967D01*
X110671316Y-59935683D01*
X110644400Y-60071000D01*
X110644400Y-60909755D01*
X110440302Y-60604301D01*
X110085967Y-60367542D01*
X109668000Y-60284403D01*
X109250033Y-60367542D01*
X108895698Y-60604301D01*
X108811600Y-60730162D01*
X108811600Y-60217466D01*
X109184437Y-59844628D01*
X109250033Y-59888458D01*
X109668000Y-59971597D01*
X110085967Y-59888458D01*
X110440302Y-59651699D01*
X110677061Y-59297364D01*
X110760200Y-58879397D01*
X110760200Y-58836603D01*
X110677061Y-58418636D01*
X110440302Y-58064301D01*
X110085967Y-57827542D01*
X109668000Y-57744403D01*
X109250033Y-57827542D01*
X108895698Y-58064301D01*
X108658939Y-58418636D01*
X108575800Y-58836603D01*
X108575800Y-58879397D01*
X108658939Y-59297364D01*
X108688030Y-59340903D01*
X108294533Y-59734400D01*
X108294533Y-59092169D01*
X108294533Y-58623831D01*
X108116123Y-58195243D01*
X107787280Y-57867554D01*
X107362168Y-57691471D01*
X107176800Y-57750825D01*
X107176800Y-58809200D01*
X108235253Y-58809200D01*
X108294533Y-58623831D01*
X108294533Y-59092169D01*
X108235253Y-58906800D01*
X107176800Y-58906800D01*
X107176800Y-59965175D01*
X107362168Y-60024529D01*
X107787280Y-59848446D01*
X108116123Y-59520757D01*
X108294533Y-59092169D01*
X108294533Y-59734400D01*
X108207967Y-59820967D01*
X108131316Y-59935683D01*
X108104400Y-60071000D01*
X108104400Y-60909755D01*
X107900302Y-60604301D01*
X107545967Y-60367542D01*
X107128000Y-60284403D01*
X107079200Y-60294109D01*
X107079200Y-59965175D01*
X107079200Y-58906800D01*
X107079200Y-58809200D01*
X107079200Y-57750825D01*
X106893832Y-57691471D01*
X106468720Y-57867554D01*
X106139877Y-58195243D01*
X105961467Y-58623831D01*
X106020747Y-58809200D01*
X107079200Y-58809200D01*
X107079200Y-58906800D01*
X106020747Y-58906800D01*
X105961467Y-59092169D01*
X106139877Y-59520757D01*
X106468720Y-59848446D01*
X106893832Y-60024529D01*
X107079200Y-59965175D01*
X107079200Y-60294109D01*
X106710033Y-60367542D01*
X106355698Y-60604301D01*
X106118939Y-60958636D01*
X106035800Y-61376603D01*
X106035800Y-61419397D01*
X106118939Y-61837364D01*
X106355698Y-62191699D01*
X106710033Y-62428458D01*
X107128000Y-62511597D01*
X107545967Y-62428458D01*
X107900302Y-62191699D01*
X108104400Y-61886244D01*
X108104400Y-73132534D01*
X107826967Y-73409967D01*
X107750316Y-73524683D01*
X107723400Y-73660000D01*
X107723400Y-81521081D01*
X107629136Y-81615181D01*
X107548492Y-81809394D01*
X107548308Y-82019684D01*
X107628613Y-82214037D01*
X107777181Y-82362864D01*
X107971394Y-82443508D01*
X108181684Y-82443692D01*
X108376037Y-82363387D01*
X108524864Y-82214819D01*
X108605508Y-82020606D01*
X108605692Y-81810316D01*
X108525387Y-81615963D01*
X108430600Y-81521010D01*
X108430600Y-73806466D01*
X108708033Y-73529033D01*
X108784684Y-73414317D01*
X108811600Y-73279000D01*
X108811600Y-62065837D01*
X108895698Y-62191699D01*
X109250033Y-62428458D01*
X109314400Y-62441261D01*
X109314400Y-73960976D01*
X109280136Y-73995181D01*
X109199492Y-74189394D01*
X109199308Y-74399684D01*
X109279613Y-74594037D01*
X109428181Y-74742864D01*
X109622394Y-74823508D01*
X109832684Y-74823692D01*
X110027037Y-74743387D01*
X110175864Y-74594819D01*
X110256508Y-74400606D01*
X110256692Y-74190316D01*
X110176387Y-73995963D01*
X110027819Y-73847136D01*
X110021600Y-73844553D01*
X110021600Y-62441261D01*
X110085967Y-62428458D01*
X110440302Y-62191699D01*
X110644400Y-61886244D01*
X110644400Y-84061081D01*
X110550136Y-84155181D01*
X110469492Y-84349394D01*
X110469308Y-84559684D01*
X110549613Y-84754037D01*
X110698181Y-84902864D01*
X110892394Y-84983508D01*
X111102684Y-84983692D01*
X111297037Y-84903387D01*
X111445864Y-84754819D01*
X111526508Y-84560606D01*
X111526692Y-84350316D01*
X111446387Y-84155963D01*
X111351600Y-84061010D01*
X111351600Y-62065837D01*
X111435698Y-62191699D01*
X111790033Y-62428458D01*
X111854400Y-62441261D01*
X111854400Y-76500976D01*
X111820136Y-76535181D01*
X111739492Y-76729394D01*
X111739308Y-76939684D01*
X111819613Y-77134037D01*
X111968181Y-77282864D01*
X112162394Y-77363508D01*
X112372684Y-77363692D01*
X112567037Y-77283387D01*
X112715864Y-77134819D01*
X112796508Y-76940606D01*
X112796692Y-76730316D01*
X112716387Y-76535963D01*
X112567819Y-76387136D01*
X112561600Y-76384553D01*
X112561600Y-62441261D01*
X112625967Y-62428458D01*
X112980302Y-62191699D01*
X113217061Y-61837364D01*
X113300200Y-61419397D01*
X113300200Y-92864400D01*
X109232814Y-92864400D01*
X109228712Y-92843774D01*
X109016730Y-92526520D01*
X108699476Y-92314538D01*
X108325250Y-92240100D01*
X107574750Y-92240100D01*
X107335692Y-92287651D01*
X107335692Y-79524316D01*
X107255387Y-79329963D01*
X107160600Y-79235010D01*
X107160600Y-70370918D01*
X107254864Y-70276819D01*
X107335508Y-70082606D01*
X107335692Y-69872316D01*
X107255387Y-69677963D01*
X107106819Y-69529136D01*
X106912606Y-69448492D01*
X106702316Y-69448308D01*
X106507963Y-69528613D01*
X106359136Y-69677181D01*
X106278492Y-69871394D01*
X106278308Y-70081684D01*
X106358613Y-70276037D01*
X106453400Y-70370989D01*
X106453400Y-79235081D01*
X106359136Y-79329181D01*
X106278492Y-79523394D01*
X106278308Y-79733684D01*
X106358613Y-79928037D01*
X106507181Y-80076864D01*
X106701394Y-80157508D01*
X106911684Y-80157692D01*
X107106037Y-80077387D01*
X107254864Y-79928819D01*
X107335508Y-79734606D01*
X107335692Y-79524316D01*
X107335692Y-92287651D01*
X107200524Y-92314538D01*
X106883270Y-92526520D01*
X106671288Y-92843774D01*
X106596850Y-93218000D01*
X106671288Y-93592226D01*
X106883270Y-93909480D01*
X107200524Y-94121462D01*
X107574750Y-94195900D01*
X108325250Y-94195900D01*
X108699476Y-94121462D01*
X109016730Y-93909480D01*
X109228712Y-93592226D01*
X109232814Y-93571600D01*
X119126000Y-93571600D01*
X119261317Y-93544684D01*
X119376033Y-93468033D01*
X119900987Y-92943079D01*
X121666000Y-92943079D01*
X121753164Y-92926167D01*
X121829774Y-92875842D01*
X121881056Y-92799871D01*
X121899079Y-92710000D01*
X121899079Y-97344994D01*
X121678222Y-96983191D01*
X121302802Y-96709443D01*
X120851200Y-96600200D01*
X120698800Y-96600200D01*
X120698800Y-97741200D01*
X121909575Y-97741200D01*
X121968929Y-97555832D01*
X121968929Y-98024168D01*
X121909575Y-97838800D01*
X120698800Y-97838800D01*
X120698800Y-98979800D01*
X120851200Y-98979800D01*
X121302802Y-98870557D01*
X121678222Y-98596809D01*
X121920306Y-98200232D01*
X121968929Y-98024168D01*
X121968929Y-106987286D01*
X121918983Y-106937252D01*
X121918983Y-100330000D01*
X121835844Y-99912033D01*
X121599085Y-99557698D01*
X121244750Y-99320939D01*
X120826783Y-99237800D01*
X120601200Y-99237800D01*
X120601200Y-98979800D01*
X120601200Y-97838800D01*
X120601200Y-97741200D01*
X120601200Y-96600200D01*
X120448800Y-96600200D01*
X119997198Y-96709443D01*
X119621778Y-96983191D01*
X119379694Y-97379768D01*
X119331071Y-97555832D01*
X119390425Y-97741200D01*
X120601200Y-97741200D01*
X120601200Y-97838800D01*
X119390425Y-97838800D01*
X119331071Y-98024168D01*
X119379694Y-98200232D01*
X119621778Y-98596809D01*
X119997198Y-98870557D01*
X120448800Y-98979800D01*
X120601200Y-98979800D01*
X120601200Y-99237800D01*
X120473217Y-99237800D01*
X120055250Y-99320939D01*
X119700915Y-99557698D01*
X119464156Y-99912033D01*
X119381017Y-100330000D01*
X119464156Y-100747967D01*
X119700915Y-101102302D01*
X120055250Y-101339061D01*
X120473217Y-101422200D01*
X120826783Y-101422200D01*
X121244750Y-101339061D01*
X121599085Y-101102302D01*
X121835844Y-100747967D01*
X121918983Y-100330000D01*
X121918983Y-106937252D01*
X121899079Y-106917314D01*
X121899079Y-103733600D01*
X121899079Y-102006400D01*
X121882167Y-101919236D01*
X121831842Y-101842626D01*
X121755871Y-101791344D01*
X121666000Y-101773321D01*
X119634000Y-101773321D01*
X119546836Y-101790233D01*
X119470226Y-101840558D01*
X119418944Y-101916529D01*
X119400921Y-102006400D01*
X119400921Y-103733600D01*
X119417833Y-103820764D01*
X119468158Y-103897374D01*
X119544129Y-103948656D01*
X119634000Y-103966679D01*
X121666000Y-103966679D01*
X121753164Y-103949767D01*
X121829774Y-103899442D01*
X121881056Y-103823471D01*
X121899079Y-103733600D01*
X121899079Y-106917314D01*
X121419522Y-106436919D01*
X120252557Y-105952353D01*
X118988987Y-105951250D01*
X117821178Y-106433779D01*
X116926919Y-107326478D01*
X116442353Y-108493443D01*
X116441250Y-109757013D01*
X116923779Y-110924822D01*
X117816478Y-111819081D01*
X118983443Y-112303647D01*
X120247013Y-112304750D01*
X121414822Y-111822221D01*
X122309081Y-110929522D01*
X122793647Y-109762557D01*
X122794750Y-108498987D01*
X122794750Y-109825028D01*
X122627203Y-110667344D01*
X122038460Y-111548460D01*
X121157346Y-112137203D01*
X120090559Y-112349400D01*
X113558692Y-112349400D01*
X113558692Y-94383316D01*
X113478387Y-94188963D01*
X113329819Y-94040136D01*
X113135606Y-93959492D01*
X112925316Y-93959308D01*
X112730963Y-94039613D01*
X112582136Y-94188181D01*
X112501492Y-94382394D01*
X112501374Y-94516559D01*
X111613534Y-95404400D01*
X109232814Y-95404400D01*
X109228712Y-95383774D01*
X109016730Y-95066520D01*
X108699476Y-94854538D01*
X108325250Y-94780100D01*
X107574750Y-94780100D01*
X107200524Y-94854538D01*
X106883270Y-95066520D01*
X106671288Y-95383774D01*
X106596850Y-95758000D01*
X106671288Y-96132226D01*
X106883270Y-96449480D01*
X107200524Y-96661462D01*
X107574750Y-96735900D01*
X108325250Y-96735900D01*
X108699476Y-96661462D01*
X109016730Y-96449480D01*
X109228712Y-96132226D01*
X109232814Y-96111600D01*
X111760000Y-96111600D01*
X111895317Y-96084684D01*
X112010033Y-96008033D01*
X113001490Y-95016575D01*
X113134684Y-95016692D01*
X113329037Y-94936387D01*
X113477864Y-94787819D01*
X113558508Y-94593606D01*
X113558692Y-94383316D01*
X113558692Y-112349400D01*
X86868674Y-112349400D01*
X86917066Y-112317066D01*
X87553532Y-111680600D01*
X108204000Y-111680600D01*
X108368018Y-111647975D01*
X108507066Y-111555066D01*
X112345463Y-107716668D01*
X112372684Y-107716692D01*
X112567037Y-107636387D01*
X112715864Y-107487819D01*
X112796508Y-107293606D01*
X112796692Y-107083316D01*
X112716387Y-106888963D01*
X112567819Y-106740136D01*
X112373606Y-106659492D01*
X112163316Y-106659308D01*
X111968963Y-106739613D01*
X111820136Y-106888181D01*
X111739492Y-107082394D01*
X111739467Y-107110400D01*
X108026468Y-110823400D01*
X105680200Y-110823400D01*
X105680200Y-61419397D01*
X105680200Y-61376603D01*
X105680200Y-58879397D01*
X105680200Y-58836603D01*
X105597061Y-58418636D01*
X105360302Y-58064301D01*
X105005967Y-57827542D01*
X104588000Y-57744403D01*
X104170033Y-57827542D01*
X103815698Y-58064301D01*
X103578939Y-58418636D01*
X103495800Y-58836603D01*
X103495800Y-58879397D01*
X103578939Y-59297364D01*
X103815698Y-59651699D01*
X104170033Y-59888458D01*
X104588000Y-59971597D01*
X105005967Y-59888458D01*
X105360302Y-59651699D01*
X105597061Y-59297364D01*
X105680200Y-58879397D01*
X105680200Y-61376603D01*
X105597061Y-60958636D01*
X105360302Y-60604301D01*
X105005967Y-60367542D01*
X104588000Y-60284403D01*
X104170033Y-60367542D01*
X103815698Y-60604301D01*
X103578939Y-60958636D01*
X103495800Y-61376603D01*
X103495800Y-61419397D01*
X103578939Y-61837364D01*
X103815698Y-62191699D01*
X104170033Y-62428458D01*
X104588000Y-62511597D01*
X105005967Y-62428458D01*
X105360302Y-62191699D01*
X105597061Y-61837364D01*
X105680200Y-61419397D01*
X105680200Y-110823400D01*
X103214533Y-110823400D01*
X103214533Y-59092169D01*
X103214533Y-58623831D01*
X103036123Y-58195243D01*
X102707280Y-57867554D01*
X102282168Y-57691471D01*
X102096800Y-57750825D01*
X102096800Y-58809200D01*
X103155253Y-58809200D01*
X103214533Y-58623831D01*
X103214533Y-59092169D01*
X103155253Y-58906800D01*
X102096800Y-58906800D01*
X102096800Y-59965175D01*
X102282168Y-60024529D01*
X102707280Y-59848446D01*
X103036123Y-59520757D01*
X103214533Y-59092169D01*
X103214533Y-110823400D01*
X103140200Y-110823400D01*
X103140200Y-61419397D01*
X103140200Y-61376603D01*
X103057061Y-60958636D01*
X102820302Y-60604301D01*
X102465967Y-60367542D01*
X102048000Y-60284403D01*
X101999200Y-60294109D01*
X101999200Y-59965175D01*
X101999200Y-58906800D01*
X101999200Y-58809200D01*
X101999200Y-57750825D01*
X101813832Y-57691471D01*
X101388720Y-57867554D01*
X101059877Y-58195243D01*
X100881467Y-58623831D01*
X100940747Y-58809200D01*
X101999200Y-58809200D01*
X101999200Y-58906800D01*
X100940747Y-58906800D01*
X100881467Y-59092169D01*
X101059877Y-59520757D01*
X101388720Y-59848446D01*
X101813832Y-60024529D01*
X101999200Y-59965175D01*
X101999200Y-60294109D01*
X101630033Y-60367542D01*
X101275698Y-60604301D01*
X101038939Y-60958636D01*
X100955800Y-61376603D01*
X100955800Y-61419397D01*
X101038939Y-61837364D01*
X101275698Y-62191699D01*
X101630033Y-62428458D01*
X102048000Y-62511597D01*
X102465967Y-62428458D01*
X102820302Y-62191699D01*
X103057061Y-61837364D01*
X103140200Y-61419397D01*
X103140200Y-110823400D01*
X101953600Y-110823400D01*
X101953600Y-89154000D01*
X101953600Y-86614000D01*
X101953600Y-83058000D01*
X101926684Y-82922683D01*
X101850033Y-82807967D01*
X101620692Y-82578626D01*
X101620692Y-70507316D01*
X101540387Y-70312963D01*
X101420600Y-70192967D01*
X101420600Y-65950875D01*
X101539864Y-65831819D01*
X101620508Y-65637606D01*
X101620692Y-65427316D01*
X101540387Y-65232963D01*
X101391819Y-65084136D01*
X101197606Y-65003492D01*
X100987316Y-65003308D01*
X100792963Y-65083613D01*
X100644136Y-65232181D01*
X100600200Y-65337991D01*
X100600200Y-61419397D01*
X100600200Y-61376603D01*
X100600200Y-58879397D01*
X100600200Y-58836603D01*
X100517061Y-58418636D01*
X100280302Y-58064301D01*
X99925967Y-57827542D01*
X99508000Y-57744403D01*
X99090033Y-57827542D01*
X98735698Y-58064301D01*
X98498939Y-58418636D01*
X98415800Y-58836603D01*
X98415800Y-58879397D01*
X98498939Y-59297364D01*
X98735698Y-59651699D01*
X99090033Y-59888458D01*
X99508000Y-59971597D01*
X99925967Y-59888458D01*
X100280302Y-59651699D01*
X100517061Y-59297364D01*
X100600200Y-58879397D01*
X100600200Y-61376603D01*
X100517061Y-60958636D01*
X100280302Y-60604301D01*
X99925967Y-60367542D01*
X99508000Y-60284403D01*
X99090033Y-60367542D01*
X98735698Y-60604301D01*
X98524600Y-60920231D01*
X98524600Y-60061000D01*
X98497684Y-59925683D01*
X98421033Y-59810967D01*
X97949170Y-59339104D01*
X97977061Y-59297364D01*
X98060200Y-58879397D01*
X98060200Y-58836603D01*
X97977061Y-58418636D01*
X97740302Y-58064301D01*
X97385967Y-57827542D01*
X96968000Y-57744403D01*
X96550033Y-57827542D01*
X96195698Y-58064301D01*
X95958939Y-58418636D01*
X95875800Y-58836603D01*
X95875800Y-58879397D01*
X95958939Y-59297364D01*
X96195698Y-59651699D01*
X96550033Y-59888458D01*
X96968000Y-59971597D01*
X97385967Y-59888458D01*
X97453360Y-59843426D01*
X97817400Y-60207466D01*
X97817400Y-60597006D01*
X97627280Y-60407554D01*
X97202168Y-60231471D01*
X97016800Y-60290825D01*
X97016800Y-61349200D01*
X97036800Y-61349200D01*
X97036800Y-61446800D01*
X97016800Y-61446800D01*
X97016800Y-62505175D01*
X97202168Y-62564529D01*
X97431321Y-62469612D01*
X96919200Y-62981733D01*
X96919200Y-62505175D01*
X96919200Y-61446800D01*
X96919200Y-61349200D01*
X96919200Y-60290825D01*
X96733832Y-60231471D01*
X96308720Y-60407554D01*
X95979877Y-60735243D01*
X95801467Y-61163831D01*
X95860747Y-61349200D01*
X96919200Y-61349200D01*
X96919200Y-61446800D01*
X95860747Y-61446800D01*
X95801467Y-61632169D01*
X95979877Y-62060757D01*
X96308720Y-62388446D01*
X96733832Y-62564529D01*
X96919200Y-62505175D01*
X96919200Y-62981733D01*
X96777967Y-63122967D01*
X96701316Y-63237683D01*
X96674400Y-63373000D01*
X96674400Y-64079352D01*
X96610033Y-64092156D01*
X96255698Y-64328915D01*
X96018939Y-64683250D01*
X95935800Y-65101217D01*
X95935800Y-65454783D01*
X96018939Y-65872750D01*
X96255698Y-66227085D01*
X96610033Y-66463844D01*
X97028000Y-66546983D01*
X97445967Y-66463844D01*
X97800302Y-66227085D01*
X98037061Y-65872750D01*
X98120200Y-65454783D01*
X98120200Y-65101217D01*
X98037061Y-64683250D01*
X97800302Y-64328915D01*
X97445967Y-64092156D01*
X97381600Y-64079352D01*
X97381600Y-63519466D01*
X98421033Y-62480033D01*
X98497684Y-62365317D01*
X98524600Y-62230000D01*
X98524600Y-61875768D01*
X98735698Y-62191699D01*
X99090033Y-62428458D01*
X99508000Y-62511597D01*
X99925967Y-62428458D01*
X100280302Y-62191699D01*
X100517061Y-61837364D01*
X100600200Y-61419397D01*
X100600200Y-65337991D01*
X100563492Y-65426394D01*
X100563308Y-65636684D01*
X100643613Y-65831037D01*
X100763400Y-65951032D01*
X100763400Y-70193124D01*
X100644136Y-70312181D01*
X100563492Y-70506394D01*
X100563308Y-70716684D01*
X100643613Y-70911037D01*
X100792181Y-71059864D01*
X100986394Y-71140508D01*
X101196684Y-71140692D01*
X101391037Y-71060387D01*
X101539864Y-70911819D01*
X101620508Y-70717606D01*
X101620692Y-70507316D01*
X101620692Y-82578626D01*
X95857600Y-76815534D01*
X95857600Y-75831918D01*
X95951864Y-75737819D01*
X96032508Y-75543606D01*
X96032692Y-75333316D01*
X95952387Y-75138963D01*
X95803819Y-74990136D01*
X95609606Y-74909492D01*
X95399316Y-74909308D01*
X95204963Y-74989613D01*
X95056136Y-75138181D01*
X94975492Y-75332394D01*
X94975308Y-75542684D01*
X95055613Y-75737037D01*
X95150400Y-75831989D01*
X95150400Y-76962000D01*
X95177316Y-77097317D01*
X95253967Y-77212033D01*
X101246400Y-83204466D01*
X101246400Y-86614000D01*
X101246400Y-89007534D01*
X101139600Y-89114334D01*
X101139600Y-88965049D01*
X101158864Y-88945819D01*
X101239508Y-88751606D01*
X101239692Y-88541316D01*
X101159387Y-88346963D01*
X101010819Y-88198136D01*
X100816606Y-88117492D01*
X100606316Y-88117308D01*
X100411963Y-88197613D01*
X100263136Y-88346181D01*
X100182492Y-88540394D01*
X100182308Y-88750684D01*
X100262613Y-88945037D01*
X100282400Y-88964858D01*
X100282400Y-89103468D01*
X100048600Y-89337268D01*
X100048600Y-82677000D01*
X100021684Y-82541683D01*
X99945033Y-82426967D01*
X94587600Y-77069534D01*
X94587600Y-72878061D01*
X94782213Y-72586142D01*
X94795436Y-72554122D01*
X94814684Y-72525317D01*
X94821513Y-72490980D01*
X94834878Y-72458621D01*
X94834841Y-72423977D01*
X94841600Y-72390000D01*
X94841600Y-66476647D01*
X94905967Y-66463844D01*
X95260302Y-66227085D01*
X95497061Y-65872750D01*
X95580200Y-65454783D01*
X95580200Y-65101217D01*
X95497061Y-64683250D01*
X95260302Y-64328915D01*
X94905967Y-64092156D01*
X94488000Y-64009017D01*
X94070033Y-64092156D01*
X93715698Y-64328915D01*
X93571600Y-64544572D01*
X93571600Y-64281466D01*
X94678033Y-63175033D01*
X94754684Y-63060317D01*
X94781600Y-62925000D01*
X94781600Y-62441261D01*
X94845967Y-62428458D01*
X95200302Y-62191699D01*
X95437061Y-61837364D01*
X95520200Y-61419397D01*
X95520200Y-61376603D01*
X95437061Y-60958636D01*
X95200302Y-60604301D01*
X94845967Y-60367542D01*
X94428000Y-60284403D01*
X94010033Y-60367542D01*
X93655698Y-60604301D01*
X93444600Y-60920231D01*
X93444600Y-60341466D01*
X93942639Y-59843426D01*
X94010033Y-59888458D01*
X94428000Y-59971597D01*
X94845967Y-59888458D01*
X95200302Y-59651699D01*
X95437061Y-59297364D01*
X95520200Y-58879397D01*
X95520200Y-58836603D01*
X95437061Y-58418636D01*
X95200302Y-58064301D01*
X94845967Y-57827542D01*
X94428000Y-57744403D01*
X94010033Y-57827542D01*
X93655698Y-58064301D01*
X93418939Y-58418636D01*
X93335800Y-58836603D01*
X93335800Y-58879397D01*
X93418939Y-59297364D01*
X93446829Y-59339104D01*
X92840967Y-59944967D01*
X92764316Y-60059683D01*
X92737400Y-60195000D01*
X92737400Y-60719686D01*
X92660302Y-60604301D01*
X92305967Y-60367542D01*
X91888000Y-60284403D01*
X91470033Y-60367542D01*
X91115698Y-60604301D01*
X91031600Y-60730162D01*
X91031600Y-60217466D01*
X91404437Y-59844628D01*
X91470033Y-59888458D01*
X91888000Y-59971597D01*
X92305967Y-59888458D01*
X92660302Y-59651699D01*
X92897061Y-59297364D01*
X92980200Y-58879397D01*
X92980200Y-58836603D01*
X92897061Y-58418636D01*
X92660302Y-58064301D01*
X92305967Y-57827542D01*
X91888000Y-57744403D01*
X91470033Y-57827542D01*
X91115698Y-58064301D01*
X90878939Y-58418636D01*
X90795800Y-58836603D01*
X90795800Y-58879397D01*
X90878939Y-59297364D01*
X90908030Y-59340903D01*
X90514533Y-59734400D01*
X90514533Y-59092169D01*
X90514533Y-58623831D01*
X90336123Y-58195243D01*
X90007280Y-57867554D01*
X89582168Y-57691471D01*
X89396800Y-57750825D01*
X89396800Y-58809200D01*
X90455253Y-58809200D01*
X90514533Y-58623831D01*
X90514533Y-59092169D01*
X90455253Y-58906800D01*
X89396800Y-58906800D01*
X89396800Y-59965175D01*
X89582168Y-60024529D01*
X90007280Y-59848446D01*
X90336123Y-59520757D01*
X90514533Y-59092169D01*
X90514533Y-59734400D01*
X90427967Y-59820967D01*
X90351316Y-59935683D01*
X90324400Y-60071000D01*
X90324400Y-60909755D01*
X90120302Y-60604301D01*
X89765967Y-60367542D01*
X89348000Y-60284403D01*
X89299200Y-60294109D01*
X89299200Y-59965175D01*
X89299200Y-58906800D01*
X89299200Y-58809200D01*
X89299200Y-57750825D01*
X89113832Y-57691471D01*
X88688720Y-57867554D01*
X88359877Y-58195243D01*
X88181467Y-58623831D01*
X88240747Y-58809200D01*
X89299200Y-58809200D01*
X89299200Y-58906800D01*
X88240747Y-58906800D01*
X88181467Y-59092169D01*
X88359877Y-59520757D01*
X88688720Y-59848446D01*
X89113832Y-60024529D01*
X89299200Y-59965175D01*
X89299200Y-60294109D01*
X88930033Y-60367542D01*
X88575698Y-60604301D01*
X88338939Y-60958636D01*
X88255800Y-61376603D01*
X88255800Y-61419397D01*
X88338939Y-61837364D01*
X88575698Y-62191699D01*
X88721687Y-62289246D01*
X88522967Y-62487967D01*
X88446316Y-62602683D01*
X88419400Y-62738000D01*
X88419400Y-68961000D01*
X88446316Y-69096317D01*
X88522967Y-69211033D01*
X89006424Y-69694490D01*
X89006308Y-69827684D01*
X89086613Y-70022037D01*
X89235181Y-70170864D01*
X89429394Y-70251508D01*
X89639684Y-70251692D01*
X89816400Y-70178674D01*
X89816400Y-78867000D01*
X89843316Y-79002317D01*
X89919967Y-79117033D01*
X90026518Y-79188228D01*
X92127400Y-81289110D01*
X92127400Y-89271890D01*
X92065890Y-89333400D01*
X90842875Y-89333400D01*
X90723819Y-89214136D01*
X90529606Y-89133492D01*
X90444692Y-89133417D01*
X90444692Y-84985316D01*
X90364387Y-84790963D01*
X90269600Y-84696010D01*
X90269600Y-82296000D01*
X90242684Y-82160683D01*
X90166033Y-82045967D01*
X87900200Y-79780134D01*
X87900200Y-61419397D01*
X87900200Y-61376603D01*
X87900200Y-58879397D01*
X87900200Y-58836603D01*
X87817061Y-58418636D01*
X87580302Y-58064301D01*
X87225967Y-57827542D01*
X86808000Y-57744403D01*
X86390033Y-57827542D01*
X86035698Y-58064301D01*
X85798939Y-58418636D01*
X85715800Y-58836603D01*
X85715800Y-58879397D01*
X85798939Y-59297364D01*
X86035698Y-59651699D01*
X86390033Y-59888458D01*
X86808000Y-59971597D01*
X87225967Y-59888458D01*
X87580302Y-59651699D01*
X87817061Y-59297364D01*
X87900200Y-58879397D01*
X87900200Y-61376603D01*
X87817061Y-60958636D01*
X87580302Y-60604301D01*
X87225967Y-60367542D01*
X86808000Y-60284403D01*
X86390033Y-60367542D01*
X86035698Y-60604301D01*
X85798939Y-60958636D01*
X85715800Y-61376603D01*
X85715800Y-61419397D01*
X85798939Y-61837364D01*
X86035698Y-62191699D01*
X86390033Y-62428458D01*
X86808000Y-62511597D01*
X87225967Y-62428458D01*
X87580302Y-62191699D01*
X87817061Y-61837364D01*
X87900200Y-61419397D01*
X87900200Y-79780134D01*
X85360200Y-77240134D01*
X85360200Y-61419397D01*
X85360200Y-61376603D01*
X85360200Y-58879397D01*
X85360200Y-58836603D01*
X85277061Y-58418636D01*
X85040302Y-58064301D01*
X84685967Y-57827542D01*
X84268000Y-57744403D01*
X83850033Y-57827542D01*
X83495698Y-58064301D01*
X83258939Y-58418636D01*
X83175800Y-58836603D01*
X83175800Y-58879397D01*
X83258939Y-59297364D01*
X83495698Y-59651699D01*
X83850033Y-59888458D01*
X84268000Y-59971597D01*
X84685967Y-59888458D01*
X85040302Y-59651699D01*
X85277061Y-59297364D01*
X85360200Y-58879397D01*
X85360200Y-61376603D01*
X85277061Y-60958636D01*
X85040302Y-60604301D01*
X84685967Y-60367542D01*
X84268000Y-60284403D01*
X83850033Y-60367542D01*
X83495698Y-60604301D01*
X83258939Y-60958636D01*
X83175800Y-61376603D01*
X83175800Y-61419397D01*
X83258939Y-61837364D01*
X83495698Y-62191699D01*
X83850033Y-62428458D01*
X84268000Y-62511597D01*
X84685967Y-62428458D01*
X85040302Y-62191699D01*
X85277061Y-61837364D01*
X85360200Y-61419397D01*
X85360200Y-77240134D01*
X82894533Y-74774467D01*
X82894533Y-59092169D01*
X82894533Y-58623831D01*
X82716123Y-58195243D01*
X82387280Y-57867554D01*
X81962168Y-57691471D01*
X81776800Y-57750825D01*
X81776800Y-58809200D01*
X82835253Y-58809200D01*
X82894533Y-58623831D01*
X82894533Y-59092169D01*
X82835253Y-58906800D01*
X81776800Y-58906800D01*
X81776800Y-59965175D01*
X81962168Y-60024529D01*
X82387280Y-59848446D01*
X82716123Y-59520757D01*
X82894533Y-59092169D01*
X82894533Y-74774467D01*
X82820200Y-74700134D01*
X82820200Y-61419397D01*
X82820200Y-61376603D01*
X82737061Y-60958636D01*
X82500302Y-60604301D01*
X82145967Y-60367542D01*
X81728000Y-60284403D01*
X81679200Y-60294109D01*
X81679200Y-59965175D01*
X81679200Y-58906800D01*
X81679200Y-58809200D01*
X81679200Y-57750825D01*
X81493832Y-57691471D01*
X81068720Y-57867554D01*
X80739877Y-58195243D01*
X80561467Y-58623831D01*
X80620747Y-58809200D01*
X81679200Y-58809200D01*
X81679200Y-58906800D01*
X80620747Y-58906800D01*
X80561467Y-59092169D01*
X80739877Y-59520757D01*
X81068720Y-59848446D01*
X81493832Y-60024529D01*
X81679200Y-59965175D01*
X81679200Y-60294109D01*
X81310033Y-60367542D01*
X80955698Y-60604301D01*
X80718939Y-60958636D01*
X80635800Y-61376603D01*
X80635800Y-61419397D01*
X80718939Y-61837364D01*
X80955698Y-62191699D01*
X81310033Y-62428458D01*
X81728000Y-62511597D01*
X82145967Y-62428458D01*
X82500302Y-62191699D01*
X82737061Y-61837364D01*
X82820200Y-61419397D01*
X82820200Y-74700134D01*
X81530033Y-73409967D01*
X81415317Y-73333316D01*
X81280000Y-73306400D01*
X80911918Y-73306400D01*
X80817819Y-73212136D01*
X80623606Y-73131492D01*
X80413316Y-73131308D01*
X80280200Y-73186310D01*
X80280200Y-61419397D01*
X80280200Y-61376603D01*
X80280200Y-58879397D01*
X80280200Y-58836603D01*
X80197061Y-58418636D01*
X79960302Y-58064301D01*
X79605967Y-57827542D01*
X79188000Y-57744403D01*
X78770033Y-57827542D01*
X78415698Y-58064301D01*
X78178939Y-58418636D01*
X78095800Y-58836603D01*
X78095800Y-58879397D01*
X78178939Y-59297364D01*
X78415698Y-59651699D01*
X78770033Y-59888458D01*
X79188000Y-59971597D01*
X79605967Y-59888458D01*
X79960302Y-59651699D01*
X80197061Y-59297364D01*
X80280200Y-58879397D01*
X80280200Y-61376603D01*
X80197061Y-60958636D01*
X79960302Y-60604301D01*
X79605967Y-60367542D01*
X79188000Y-60284403D01*
X78770033Y-60367542D01*
X78415698Y-60604301D01*
X78178939Y-60958636D01*
X78095800Y-61376603D01*
X78095800Y-61419397D01*
X78178939Y-61837364D01*
X78415698Y-62191699D01*
X78770033Y-62428458D01*
X79188000Y-62511597D01*
X79605967Y-62428458D01*
X79960302Y-62191699D01*
X80197061Y-61837364D01*
X80280200Y-61419397D01*
X80280200Y-73186310D01*
X80218963Y-73211613D01*
X80070136Y-73360181D01*
X79989492Y-73554394D01*
X79989308Y-73764684D01*
X80069613Y-73959037D01*
X80218181Y-74107864D01*
X80412394Y-74188508D01*
X80622684Y-74188692D01*
X80817037Y-74108387D01*
X80911989Y-74013600D01*
X81133534Y-74013600D01*
X89562400Y-82442466D01*
X89562400Y-84696081D01*
X89468136Y-84790181D01*
X89387492Y-84984394D01*
X89387308Y-85194684D01*
X89467613Y-85389037D01*
X89616181Y-85537864D01*
X89810394Y-85618508D01*
X90020684Y-85618692D01*
X90215037Y-85538387D01*
X90363864Y-85389819D01*
X90444508Y-85195606D01*
X90444692Y-84985316D01*
X90444692Y-89133417D01*
X90319316Y-89133308D01*
X90124963Y-89213613D01*
X89976136Y-89362181D01*
X89895492Y-89556394D01*
X89895308Y-89766684D01*
X89975613Y-89961037D01*
X90124181Y-90109864D01*
X90318394Y-90190508D01*
X90528684Y-90190692D01*
X90723037Y-90110387D01*
X90843032Y-89990600D01*
X92202000Y-89990600D01*
X92327750Y-89965587D01*
X92434355Y-89894355D01*
X92688355Y-89640355D01*
X92759587Y-89533750D01*
X92784599Y-89408000D01*
X92784600Y-89408000D01*
X92784600Y-81153000D01*
X92759587Y-81027250D01*
X92688355Y-80920645D01*
X90523600Y-78755890D01*
X90523600Y-68199000D01*
X90523600Y-64281466D01*
X90928033Y-63877033D01*
X91004684Y-63762317D01*
X91031600Y-63627000D01*
X91031600Y-62065837D01*
X91115698Y-62191699D01*
X91470033Y-62428458D01*
X91888000Y-62511597D01*
X92305967Y-62428458D01*
X92660302Y-62191699D01*
X92737400Y-62076313D01*
X92737400Y-62210534D01*
X91697967Y-63249967D01*
X91621316Y-63364683D01*
X91594400Y-63500000D01*
X91594400Y-64028921D01*
X91084400Y-64028921D01*
X90997236Y-64045833D01*
X90920626Y-64096158D01*
X90869344Y-64172129D01*
X90851321Y-64262000D01*
X90851321Y-66294000D01*
X90868233Y-66381164D01*
X90918558Y-66457774D01*
X90994529Y-66509056D01*
X91084400Y-66527079D01*
X92811600Y-66527079D01*
X92864400Y-66516834D01*
X92864400Y-67530547D01*
X90953153Y-69202889D01*
X90945883Y-69212341D01*
X90935967Y-69218967D01*
X90904054Y-69266726D01*
X90869041Y-69312252D01*
X90865941Y-69323766D01*
X90859316Y-69333683D01*
X90848110Y-69390017D01*
X90833183Y-69445479D01*
X90834726Y-69457304D01*
X90832400Y-69469000D01*
X90832400Y-78359000D01*
X90859316Y-78494317D01*
X90935967Y-78609033D01*
X96232151Y-83905217D01*
X96238402Y-83936642D01*
X96304474Y-84035526D01*
X96403358Y-84101598D01*
X96461522Y-84113167D01*
X96469200Y-84118297D01*
X96469200Y-86933365D01*
X96326136Y-87076181D01*
X96245492Y-87270394D01*
X96245308Y-87480684D01*
X96325613Y-87675037D01*
X96474181Y-87823864D01*
X96668394Y-87904508D01*
X96878684Y-87904692D01*
X97073037Y-87824387D01*
X97221864Y-87675819D01*
X97302508Y-87481606D01*
X97302692Y-87271316D01*
X97222387Y-87076963D01*
X97078800Y-86933125D01*
X97078800Y-83820000D01*
X97055598Y-83703358D01*
X96989526Y-83604474D01*
X96890642Y-83538402D01*
X96859217Y-83532151D01*
X96770033Y-83442967D01*
X91539600Y-78212534D01*
X91539600Y-69629452D01*
X93450847Y-67957111D01*
X93458116Y-67947658D01*
X93468033Y-67941033D01*
X93499945Y-67893273D01*
X93534959Y-67847748D01*
X93538058Y-67836233D01*
X93544684Y-67826317D01*
X93555889Y-67769982D01*
X93570817Y-67714521D01*
X93569273Y-67702695D01*
X93571600Y-67691000D01*
X93571600Y-66011427D01*
X93715698Y-66227085D01*
X94070033Y-66463844D01*
X94134400Y-66476647D01*
X94134400Y-72282938D01*
X93939787Y-72574858D01*
X93926563Y-72606877D01*
X93907316Y-72635683D01*
X93900486Y-72670019D01*
X93887122Y-72702379D01*
X93887158Y-72737022D01*
X93880400Y-72771000D01*
X93880400Y-77216000D01*
X93907316Y-77351317D01*
X93983967Y-77466033D01*
X99341400Y-82823466D01*
X99341400Y-89261534D01*
X99032600Y-89570333D01*
X99032600Y-89154000D01*
X99032600Y-83185000D01*
X99005684Y-83049683D01*
X98929033Y-82934967D01*
X93571600Y-77577534D01*
X93571600Y-72233317D01*
X93644037Y-72203387D01*
X93792864Y-72054819D01*
X93873508Y-71860606D01*
X93873692Y-71650316D01*
X93793387Y-71455963D01*
X93644819Y-71307136D01*
X93450606Y-71226492D01*
X93240316Y-71226308D01*
X93045963Y-71306613D01*
X92897136Y-71455181D01*
X92816492Y-71649394D01*
X92816308Y-71859684D01*
X92864400Y-71976075D01*
X92864400Y-77724000D01*
X92891316Y-77859317D01*
X92967967Y-77974033D01*
X98325400Y-83331466D01*
X98325400Y-89007534D01*
X98016600Y-89316334D01*
X98016600Y-88866044D01*
X98016600Y-83566000D01*
X97989684Y-83430683D01*
X97913033Y-83315967D01*
X92555600Y-77958534D01*
X92555600Y-71140687D01*
X92560684Y-71140692D01*
X92755037Y-71060387D01*
X92903864Y-70911819D01*
X92984508Y-70717606D01*
X92984692Y-70507316D01*
X92904387Y-70312963D01*
X92755819Y-70164136D01*
X92561606Y-70083492D01*
X92351316Y-70083308D01*
X92156963Y-70163613D01*
X92008136Y-70312181D01*
X91927492Y-70506394D01*
X91927363Y-70652788D01*
X91875316Y-70730683D01*
X91848400Y-70866000D01*
X91848400Y-78105000D01*
X91875316Y-78240317D01*
X91951967Y-78355033D01*
X97309400Y-83712466D01*
X97309400Y-88719578D01*
X96229340Y-89799638D01*
X96229340Y-89115026D01*
X96229340Y-84233146D01*
X96080584Y-83873129D01*
X95805379Y-83597444D01*
X95445623Y-83448060D01*
X95056086Y-83447720D01*
X94696069Y-83596476D01*
X94420384Y-83871681D01*
X94271000Y-84231437D01*
X94270660Y-84620974D01*
X94419416Y-84980991D01*
X94694621Y-85256676D01*
X95054377Y-85406060D01*
X95443914Y-85406400D01*
X95803931Y-85257644D01*
X96079616Y-84982439D01*
X96229000Y-84622683D01*
X96229340Y-84233146D01*
X96229340Y-89115026D01*
X96080584Y-88755009D01*
X95805379Y-88479324D01*
X95445623Y-88329940D01*
X95056086Y-88329600D01*
X94696069Y-88478356D01*
X94420384Y-88753561D01*
X94271000Y-89113317D01*
X94270660Y-89502854D01*
X94419416Y-89862871D01*
X94694621Y-90138556D01*
X95054377Y-90287940D01*
X95443914Y-90288280D01*
X95803931Y-90139524D01*
X96079616Y-89864319D01*
X96229000Y-89504563D01*
X96229340Y-89115026D01*
X96229340Y-89799638D01*
X94815578Y-91213400D01*
X92710000Y-91213400D01*
X92574683Y-91240316D01*
X92459967Y-91316967D01*
X92182533Y-91594400D01*
X91235800Y-91594400D01*
X91203905Y-91551873D01*
X91206508Y-91545606D01*
X91206692Y-91335316D01*
X91126387Y-91140963D01*
X90977819Y-90992136D01*
X90783606Y-90911492D01*
X90573316Y-90911308D01*
X90378963Y-90991613D01*
X90230136Y-91140181D01*
X90149492Y-91334394D01*
X90149308Y-91544684D01*
X90229613Y-91739037D01*
X90378181Y-91887864D01*
X90572394Y-91968508D01*
X90632420Y-91968560D01*
X90776120Y-92160160D01*
X90794930Y-92177025D01*
X90808967Y-92198033D01*
X90845831Y-92222665D01*
X90878843Y-92252264D01*
X90902676Y-92260647D01*
X90923683Y-92274684D01*
X90967168Y-92283333D01*
X91008993Y-92298046D01*
X91034219Y-92296670D01*
X91059000Y-92301600D01*
X92329000Y-92301600D01*
X92464317Y-92274684D01*
X92579033Y-92198033D01*
X92856466Y-91920600D01*
X94962044Y-91920600D01*
X95097361Y-91893684D01*
X95212077Y-91817033D01*
X97913033Y-89116077D01*
X97989684Y-89001361D01*
X98016600Y-88866044D01*
X98016600Y-89316334D01*
X95103534Y-92229400D01*
X93472000Y-92229400D01*
X93336683Y-92256316D01*
X93221967Y-92332967D01*
X93071533Y-92483400D01*
X90548035Y-92483400D01*
X90317626Y-92299072D01*
X90317692Y-92224316D01*
X90237387Y-92029963D01*
X90088819Y-91881136D01*
X89894606Y-91800492D01*
X89684316Y-91800308D01*
X89489963Y-91880613D01*
X89341136Y-92029181D01*
X89260492Y-92223394D01*
X89260308Y-92433684D01*
X89340613Y-92628037D01*
X89489181Y-92776864D01*
X89683394Y-92857508D01*
X89883818Y-92857683D01*
X90203108Y-93113115D01*
X90247293Y-93136028D01*
X90288683Y-93163684D01*
X90308054Y-93167537D01*
X90325587Y-93176629D01*
X90375178Y-93180888D01*
X90424000Y-93190600D01*
X93218000Y-93190600D01*
X93353317Y-93163684D01*
X93468033Y-93087033D01*
X93618466Y-92936600D01*
X95250000Y-92936600D01*
X95385317Y-92909684D01*
X95500033Y-92833033D01*
X98929033Y-89404033D01*
X99005684Y-89289317D01*
X99032600Y-89154000D01*
X99032600Y-89570333D01*
X95357533Y-93245400D01*
X93897002Y-93245400D01*
X93761685Y-93272316D01*
X93646969Y-93348967D01*
X93496536Y-93499400D01*
X90062466Y-93499400D01*
X89912033Y-93348967D01*
X89797317Y-93272316D01*
X89662000Y-93245400D01*
X88138000Y-93245400D01*
X88002683Y-93272316D01*
X87887967Y-93348967D01*
X87785509Y-93451424D01*
X87652316Y-93451308D01*
X87457963Y-93531613D01*
X87309136Y-93680181D01*
X87228492Y-93874394D01*
X87228308Y-94084684D01*
X87308613Y-94279037D01*
X87457181Y-94427864D01*
X87651394Y-94508508D01*
X87861684Y-94508692D01*
X88056037Y-94428387D01*
X88204864Y-94279819D01*
X88285508Y-94085606D01*
X88285624Y-93952600D01*
X88698487Y-93952600D01*
X88625492Y-94128394D01*
X88625308Y-94338684D01*
X88705613Y-94533037D01*
X88854181Y-94681864D01*
X89048394Y-94762508D01*
X89076400Y-94762532D01*
X89104934Y-94791066D01*
X89243981Y-94883975D01*
X89243982Y-94883975D01*
X89306446Y-94896400D01*
X84467918Y-94896400D01*
X84373819Y-94802136D01*
X84179606Y-94721492D01*
X83969316Y-94721308D01*
X83774963Y-94801613D01*
X83626136Y-94950181D01*
X83545492Y-95144394D01*
X83545308Y-95354684D01*
X83625613Y-95549037D01*
X83774181Y-95697864D01*
X83968394Y-95778508D01*
X84178684Y-95778692D01*
X84373037Y-95698387D01*
X84467989Y-95603600D01*
X93980000Y-95603600D01*
X95504000Y-95603600D01*
X95639317Y-95576684D01*
X95754033Y-95500033D01*
X101850033Y-89404033D01*
X101926684Y-89289317D01*
X101953600Y-89154000D01*
X101953600Y-110823400D01*
X101731525Y-110823400D01*
X101731525Y-93434072D01*
X101731525Y-93001928D01*
X101690384Y-92851996D01*
X101473352Y-92492912D01*
X101135425Y-92244216D01*
X100728050Y-92143770D01*
X100378800Y-92143770D01*
X100378800Y-93169200D01*
X101670730Y-93169200D01*
X101731525Y-93001928D01*
X101731525Y-93434072D01*
X101670730Y-93266800D01*
X100378800Y-93266800D01*
X100378800Y-94292230D01*
X100728050Y-94292230D01*
X101135425Y-94191784D01*
X101473352Y-93943088D01*
X101690384Y-93584004D01*
X101731525Y-93434072D01*
X101731525Y-110823400D01*
X101681856Y-110823400D01*
X101681856Y-95758000D01*
X101607514Y-95384260D01*
X101395808Y-95067418D01*
X101078966Y-94855712D01*
X100705226Y-94781370D01*
X100281200Y-94781370D01*
X100281200Y-94292230D01*
X100281200Y-93266800D01*
X100281200Y-93169200D01*
X100281200Y-92143770D01*
X99931950Y-92143770D01*
X99524575Y-92244216D01*
X99186648Y-92492912D01*
X98969616Y-92851996D01*
X98928475Y-93001928D01*
X98989270Y-93169200D01*
X100281200Y-93169200D01*
X100281200Y-93266800D01*
X98989270Y-93266800D01*
X98928475Y-93434072D01*
X98969616Y-93584004D01*
X99186648Y-93943088D01*
X99524575Y-94191784D01*
X99931950Y-94292230D01*
X100281200Y-94292230D01*
X100281200Y-94781370D01*
X99954774Y-94781370D01*
X99581034Y-94855712D01*
X99264192Y-95067418D01*
X99052486Y-95384260D01*
X98978144Y-95758000D01*
X99052486Y-96131740D01*
X99264192Y-96448582D01*
X99581034Y-96660288D01*
X99954774Y-96734630D01*
X100705226Y-96734630D01*
X101078966Y-96660288D01*
X101395808Y-96448582D01*
X101607514Y-96131740D01*
X101681856Y-95758000D01*
X101681856Y-110823400D01*
X87376000Y-110823400D01*
X87211982Y-110856025D01*
X87072934Y-110948934D01*
X86436467Y-111585400D01*
X85495892Y-111585400D01*
X85749280Y-111480446D01*
X86078123Y-111152757D01*
X86256533Y-110724169D01*
X86256533Y-110255831D01*
X86186679Y-110088023D01*
X86186679Y-108813600D01*
X86186679Y-107086400D01*
X86169767Y-106999236D01*
X86119442Y-106922626D01*
X86043471Y-106871344D01*
X85953600Y-106853321D01*
X84226400Y-106853321D01*
X84139236Y-106870233D01*
X84062626Y-106920558D01*
X84011344Y-106996529D01*
X83993321Y-107086400D01*
X83993321Y-108813600D01*
X84010233Y-108900764D01*
X84060558Y-108977374D01*
X84136529Y-109028656D01*
X84226400Y-109046679D01*
X85953600Y-109046679D01*
X86040764Y-109029767D01*
X86117374Y-108979442D01*
X86168656Y-108903471D01*
X86186679Y-108813600D01*
X86186679Y-110088023D01*
X86078123Y-109827243D01*
X85749280Y-109499554D01*
X85324168Y-109323471D01*
X85138800Y-109382825D01*
X85138800Y-110441200D01*
X86197253Y-110441200D01*
X86256533Y-110255831D01*
X86256533Y-110724169D01*
X86197253Y-110538800D01*
X85138800Y-110538800D01*
X85138800Y-110558800D01*
X85041200Y-110558800D01*
X85041200Y-110538800D01*
X85041200Y-110441200D01*
X85041200Y-109382825D01*
X84855832Y-109323471D01*
X84430720Y-109499554D01*
X84101877Y-109827243D01*
X83923467Y-110255831D01*
X83982747Y-110441200D01*
X85041200Y-110441200D01*
X85041200Y-110538800D01*
X83982747Y-110538800D01*
X83923467Y-110724169D01*
X84101877Y-111152757D01*
X84430720Y-111480446D01*
X84684107Y-111585400D01*
X82955892Y-111585400D01*
X83209280Y-111480446D01*
X83538123Y-111152757D01*
X83716533Y-110724169D01*
X83716533Y-110255831D01*
X83642200Y-110077263D01*
X83642200Y-107971397D01*
X83642200Y-107928603D01*
X83559061Y-107510636D01*
X83322302Y-107156301D01*
X82967967Y-106919542D01*
X82550000Y-106836403D01*
X82132033Y-106919542D01*
X81777698Y-107156301D01*
X81540939Y-107510636D01*
X81457800Y-107928603D01*
X81457800Y-107971397D01*
X81540939Y-108389364D01*
X81777698Y-108743699D01*
X82132033Y-108980458D01*
X82550000Y-109063597D01*
X82967967Y-108980458D01*
X83322302Y-108743699D01*
X83559061Y-108389364D01*
X83642200Y-107971397D01*
X83642200Y-110077263D01*
X83538123Y-109827243D01*
X83209280Y-109499554D01*
X82784168Y-109323471D01*
X82598800Y-109382825D01*
X82598800Y-110441200D01*
X83657253Y-110441200D01*
X83716533Y-110255831D01*
X83716533Y-110724169D01*
X83657253Y-110538800D01*
X82598800Y-110538800D01*
X82598800Y-110558800D01*
X82501200Y-110558800D01*
X82501200Y-110538800D01*
X82501200Y-110441200D01*
X82501200Y-109382825D01*
X82315832Y-109323471D01*
X81890720Y-109499554D01*
X81561877Y-109827243D01*
X81383467Y-110255831D01*
X81442747Y-110441200D01*
X82501200Y-110441200D01*
X82501200Y-110538800D01*
X81442747Y-110538800D01*
X81383467Y-110724169D01*
X81561877Y-111152757D01*
X81890720Y-111480446D01*
X82144107Y-111585400D01*
X80415892Y-111585400D01*
X80669280Y-111480446D01*
X80998123Y-111152757D01*
X81176533Y-110724169D01*
X81176533Y-110255831D01*
X81102200Y-110077263D01*
X81102200Y-107971397D01*
X81102200Y-107928603D01*
X81019061Y-107510636D01*
X80782302Y-107156301D01*
X80427967Y-106919542D01*
X80010000Y-106836403D01*
X79592033Y-106919542D01*
X79237698Y-107156301D01*
X79000939Y-107510636D01*
X78917800Y-107928603D01*
X78917800Y-107971397D01*
X79000939Y-108389364D01*
X79237698Y-108743699D01*
X79592033Y-108980458D01*
X80010000Y-109063597D01*
X80427967Y-108980458D01*
X80782302Y-108743699D01*
X81019061Y-108389364D01*
X81102200Y-107971397D01*
X81102200Y-110077263D01*
X80998123Y-109827243D01*
X80669280Y-109499554D01*
X80244168Y-109323471D01*
X80058800Y-109382825D01*
X80058800Y-110441200D01*
X81117253Y-110441200D01*
X81176533Y-110255831D01*
X81176533Y-110724169D01*
X81117253Y-110538800D01*
X80058800Y-110538800D01*
X80058800Y-110558800D01*
X79961200Y-110558800D01*
X79961200Y-110538800D01*
X79961200Y-110441200D01*
X79961200Y-109382825D01*
X79775832Y-109323471D01*
X79350720Y-109499554D01*
X79021877Y-109827243D01*
X78843467Y-110255831D01*
X78902747Y-110441200D01*
X79961200Y-110441200D01*
X79961200Y-110538800D01*
X78902747Y-110538800D01*
X78843467Y-110724169D01*
X79021877Y-111152757D01*
X79350720Y-111480446D01*
X79604107Y-111585400D01*
X77875892Y-111585400D01*
X78129280Y-111480446D01*
X78458123Y-111152757D01*
X78636533Y-110724169D01*
X78636533Y-110255831D01*
X78562200Y-110077263D01*
X78562200Y-107971397D01*
X78562200Y-107928603D01*
X78479061Y-107510636D01*
X78242302Y-107156301D01*
X77887967Y-106919542D01*
X77814533Y-106904935D01*
X77814533Y-61632169D01*
X77814533Y-61163831D01*
X77740200Y-60985263D01*
X77740200Y-58879397D01*
X77740200Y-58836603D01*
X77657061Y-58418636D01*
X77420302Y-58064301D01*
X77065967Y-57827542D01*
X76648000Y-57744403D01*
X76230033Y-57827542D01*
X75875698Y-58064301D01*
X75638939Y-58418636D01*
X75555800Y-58836603D01*
X75555800Y-58879397D01*
X75638939Y-59297364D01*
X75875698Y-59651699D01*
X76230033Y-59888458D01*
X76648000Y-59971597D01*
X77065967Y-59888458D01*
X77420302Y-59651699D01*
X77657061Y-59297364D01*
X77740200Y-58879397D01*
X77740200Y-60985263D01*
X77636123Y-60735243D01*
X77307280Y-60407554D01*
X76882168Y-60231471D01*
X76696800Y-60290825D01*
X76696800Y-61349200D01*
X77755253Y-61349200D01*
X77814533Y-61163831D01*
X77814533Y-61632169D01*
X77755253Y-61446800D01*
X76696800Y-61446800D01*
X76696800Y-62505175D01*
X76882168Y-62564529D01*
X77307280Y-62388446D01*
X77636123Y-62060757D01*
X77814533Y-61632169D01*
X77814533Y-106904935D01*
X77470000Y-106836403D01*
X77052033Y-106919542D01*
X76697698Y-107156301D01*
X76599200Y-107303713D01*
X76599200Y-62505175D01*
X76599200Y-61446800D01*
X76599200Y-61349200D01*
X76599200Y-60290825D01*
X76413832Y-60231471D01*
X75988720Y-60407554D01*
X75659877Y-60735243D01*
X75481467Y-61163831D01*
X75540747Y-61349200D01*
X76599200Y-61349200D01*
X76599200Y-61446800D01*
X75540747Y-61446800D01*
X75481467Y-61632169D01*
X75659877Y-62060757D01*
X75988720Y-62388446D01*
X76413832Y-62564529D01*
X76599200Y-62505175D01*
X76599200Y-107303713D01*
X76460939Y-107510636D01*
X76377800Y-107928603D01*
X76377800Y-107971397D01*
X76460939Y-108389364D01*
X76697698Y-108743699D01*
X77052033Y-108980458D01*
X77470000Y-109063597D01*
X77887967Y-108980458D01*
X78242302Y-108743699D01*
X78479061Y-108389364D01*
X78562200Y-107971397D01*
X78562200Y-110077263D01*
X78458123Y-109827243D01*
X78129280Y-109499554D01*
X77704168Y-109323471D01*
X77518800Y-109382825D01*
X77518800Y-110441200D01*
X78577253Y-110441200D01*
X78636533Y-110255831D01*
X78636533Y-110724169D01*
X78577253Y-110538800D01*
X77518800Y-110538800D01*
X77518800Y-110558800D01*
X77421200Y-110558800D01*
X77421200Y-110538800D01*
X77421200Y-110441200D01*
X77421200Y-109382825D01*
X77235832Y-109323471D01*
X76810720Y-109499554D01*
X76481877Y-109827243D01*
X76303467Y-110255831D01*
X76362747Y-110441200D01*
X77421200Y-110441200D01*
X77421200Y-110538800D01*
X76362747Y-110538800D01*
X76303467Y-110724169D01*
X76481877Y-111152757D01*
X76810720Y-111480446D01*
X77064107Y-111585400D01*
X75335892Y-111585400D01*
X75589280Y-111480446D01*
X75918123Y-111152757D01*
X76096533Y-110724169D01*
X76096533Y-110255831D01*
X76022200Y-110077263D01*
X76022200Y-107971397D01*
X76022200Y-107928603D01*
X75939061Y-107510636D01*
X75702302Y-107156301D01*
X75347967Y-106919542D01*
X75200200Y-106890149D01*
X75200200Y-61419397D01*
X75200200Y-61376603D01*
X75200200Y-58879397D01*
X75200200Y-58836603D01*
X75117061Y-58418636D01*
X74880302Y-58064301D01*
X74525967Y-57827542D01*
X74108000Y-57744403D01*
X73690033Y-57827542D01*
X73335698Y-58064301D01*
X73098939Y-58418636D01*
X73015800Y-58836603D01*
X73015800Y-58879397D01*
X73098939Y-59297364D01*
X73335698Y-59651699D01*
X73690033Y-59888458D01*
X74108000Y-59971597D01*
X74525967Y-59888458D01*
X74880302Y-59651699D01*
X75117061Y-59297364D01*
X75200200Y-58879397D01*
X75200200Y-61376603D01*
X75117061Y-60958636D01*
X74880302Y-60604301D01*
X74525967Y-60367542D01*
X74108000Y-60284403D01*
X73690033Y-60367542D01*
X73335698Y-60604301D01*
X73098939Y-60958636D01*
X73015800Y-61376603D01*
X73015800Y-61419397D01*
X73098939Y-61837364D01*
X73335698Y-62191699D01*
X73690033Y-62428458D01*
X74108000Y-62511597D01*
X74525967Y-62428458D01*
X74880302Y-62191699D01*
X75117061Y-61837364D01*
X75200200Y-61419397D01*
X75200200Y-106890149D01*
X74930000Y-106836403D01*
X74512033Y-106919542D01*
X74157698Y-107156301D01*
X73920939Y-107510636D01*
X73837800Y-107928603D01*
X73837800Y-107971397D01*
X73920939Y-108389364D01*
X74157698Y-108743699D01*
X74512033Y-108980458D01*
X74930000Y-109063597D01*
X75347967Y-108980458D01*
X75702302Y-108743699D01*
X75939061Y-108389364D01*
X76022200Y-107971397D01*
X76022200Y-110077263D01*
X75918123Y-109827243D01*
X75589280Y-109499554D01*
X75164168Y-109323471D01*
X74978800Y-109382825D01*
X74978800Y-110441200D01*
X76037253Y-110441200D01*
X76096533Y-110255831D01*
X76096533Y-110724169D01*
X76037253Y-110538800D01*
X74978800Y-110538800D01*
X74978800Y-110558800D01*
X74881200Y-110558800D01*
X74881200Y-110538800D01*
X74881200Y-110441200D01*
X74881200Y-109382825D01*
X74695832Y-109323471D01*
X74270720Y-109499554D01*
X73941877Y-109827243D01*
X73763467Y-110255831D01*
X73822747Y-110441200D01*
X74881200Y-110441200D01*
X74881200Y-110538800D01*
X73822747Y-110538800D01*
X73763467Y-110724169D01*
X73941877Y-111152757D01*
X74270720Y-111480446D01*
X74524107Y-111585400D01*
X72795892Y-111585400D01*
X73049280Y-111480446D01*
X73378123Y-111152757D01*
X73556533Y-110724169D01*
X73556533Y-110255831D01*
X73482200Y-110077263D01*
X73482200Y-107971397D01*
X73482200Y-107928603D01*
X73399061Y-107510636D01*
X73162302Y-107156301D01*
X72807967Y-106919542D01*
X72390000Y-106836403D01*
X71972033Y-106919542D01*
X71617698Y-107156301D01*
X71380939Y-107510636D01*
X71297800Y-107928603D01*
X71297800Y-107971397D01*
X71380939Y-108389364D01*
X71617698Y-108743699D01*
X71972033Y-108980458D01*
X72390000Y-109063597D01*
X72807967Y-108980458D01*
X73162302Y-108743699D01*
X73399061Y-108389364D01*
X73482200Y-107971397D01*
X73482200Y-110077263D01*
X73378123Y-109827243D01*
X73049280Y-109499554D01*
X72624168Y-109323471D01*
X72438800Y-109382825D01*
X72438800Y-110441200D01*
X73497253Y-110441200D01*
X73556533Y-110255831D01*
X73556533Y-110724169D01*
X73497253Y-110538800D01*
X72438800Y-110538800D01*
X72438800Y-110558800D01*
X72341200Y-110558800D01*
X72341200Y-110538800D01*
X72341200Y-110441200D01*
X72341200Y-109382825D01*
X72155832Y-109323471D01*
X71730720Y-109499554D01*
X71401877Y-109827243D01*
X71223467Y-110255831D01*
X71282747Y-110441200D01*
X72341200Y-110441200D01*
X72341200Y-110538800D01*
X71282747Y-110538800D01*
X71223467Y-110724169D01*
X71401877Y-111152757D01*
X71730720Y-111480446D01*
X71984107Y-111585400D01*
X70255892Y-111585400D01*
X70509280Y-111480446D01*
X70838123Y-111152757D01*
X71016533Y-110724169D01*
X71016533Y-110255831D01*
X70942200Y-110077263D01*
X70942200Y-107971397D01*
X70942200Y-107928603D01*
X70859061Y-107510636D01*
X70622302Y-107156301D01*
X70267967Y-106919542D01*
X69850000Y-106836403D01*
X69432033Y-106919542D01*
X69077698Y-107156301D01*
X68840939Y-107510636D01*
X68757800Y-107928603D01*
X68757800Y-107971397D01*
X68840939Y-108389364D01*
X69077698Y-108743699D01*
X69432033Y-108980458D01*
X69850000Y-109063597D01*
X70267967Y-108980458D01*
X70622302Y-108743699D01*
X70859061Y-108389364D01*
X70942200Y-107971397D01*
X70942200Y-110077263D01*
X70838123Y-109827243D01*
X70509280Y-109499554D01*
X70084168Y-109323471D01*
X69898800Y-109382825D01*
X69898800Y-110441200D01*
X70957253Y-110441200D01*
X71016533Y-110255831D01*
X71016533Y-110724169D01*
X70957253Y-110538800D01*
X69898800Y-110538800D01*
X69898800Y-110558800D01*
X69801200Y-110558800D01*
X69801200Y-110538800D01*
X69801200Y-110441200D01*
X69801200Y-109382825D01*
X69615832Y-109323471D01*
X69190720Y-109499554D01*
X68861877Y-109827243D01*
X68683467Y-110255831D01*
X68742747Y-110441200D01*
X69801200Y-110441200D01*
X69801200Y-110538800D01*
X68742747Y-110538800D01*
X68683467Y-110724169D01*
X68861877Y-111152757D01*
X69190720Y-111480446D01*
X69444107Y-111585400D01*
X68600692Y-111585400D01*
X68600692Y-71269316D01*
X68520387Y-71074963D01*
X68371819Y-70926136D01*
X68177606Y-70845492D01*
X68031211Y-70845363D01*
X67953317Y-70793316D01*
X67818000Y-70766400D01*
X61904647Y-70766400D01*
X61891844Y-70702033D01*
X61655085Y-70347698D01*
X61300750Y-70110939D01*
X60882783Y-70027800D01*
X60529217Y-70027800D01*
X60111250Y-70110939D01*
X59756915Y-70347698D01*
X59520156Y-70702033D01*
X59437017Y-71120000D01*
X59520156Y-71537967D01*
X59756915Y-71892302D01*
X60111250Y-72129061D01*
X60529217Y-72212200D01*
X60882783Y-72212200D01*
X61300750Y-72129061D01*
X61655085Y-71892302D01*
X61891844Y-71537967D01*
X61904647Y-71473600D01*
X67543312Y-71473600D01*
X67543308Y-71478684D01*
X67623613Y-71673037D01*
X67772181Y-71821864D01*
X67966394Y-71902508D01*
X68176684Y-71902692D01*
X68371037Y-71822387D01*
X68519864Y-71673819D01*
X68600508Y-71479606D01*
X68600692Y-71269316D01*
X68600692Y-111585400D01*
X67715892Y-111585400D01*
X67969280Y-111480446D01*
X68298123Y-111152757D01*
X68476533Y-110724169D01*
X68476533Y-110255831D01*
X68402200Y-110077263D01*
X68402200Y-107971397D01*
X68402200Y-107928603D01*
X68319061Y-107510636D01*
X68082302Y-107156301D01*
X67727967Y-106919542D01*
X67310000Y-106836403D01*
X66892033Y-106919542D01*
X66537698Y-107156301D01*
X66300939Y-107510636D01*
X66217800Y-107928603D01*
X66217800Y-107971397D01*
X66300939Y-108389364D01*
X66537698Y-108743699D01*
X66892033Y-108980458D01*
X67310000Y-109063597D01*
X67727967Y-108980458D01*
X68082302Y-108743699D01*
X68319061Y-108389364D01*
X68402200Y-107971397D01*
X68402200Y-110077263D01*
X68298123Y-109827243D01*
X67969280Y-109499554D01*
X67544168Y-109323471D01*
X67358800Y-109382825D01*
X67358800Y-110441200D01*
X68417253Y-110441200D01*
X68476533Y-110255831D01*
X68476533Y-110724169D01*
X68417253Y-110538800D01*
X67358800Y-110538800D01*
X67358800Y-110558800D01*
X67261200Y-110558800D01*
X67261200Y-110538800D01*
X67261200Y-110441200D01*
X67261200Y-109382825D01*
X67075832Y-109323471D01*
X66650720Y-109499554D01*
X66321877Y-109827243D01*
X66143467Y-110255831D01*
X66202747Y-110441200D01*
X67261200Y-110441200D01*
X67261200Y-110538800D01*
X66202747Y-110538800D01*
X66143467Y-110724169D01*
X66321877Y-111152757D01*
X66650720Y-111480446D01*
X66904107Y-111585400D01*
X66471532Y-111585400D01*
X65706600Y-110820468D01*
X65706600Y-77216000D01*
X65673975Y-77051982D01*
X65581066Y-76912934D01*
X63803066Y-75134934D01*
X63664018Y-75042025D01*
X63500000Y-75009400D01*
X62738000Y-75009400D01*
X62024929Y-75009400D01*
X62024929Y-73894168D01*
X62024929Y-73425832D01*
X61976306Y-73249768D01*
X61734222Y-72853191D01*
X61358802Y-72579443D01*
X60907200Y-72470200D01*
X60754800Y-72470200D01*
X60754800Y-73611200D01*
X61965575Y-73611200D01*
X62024929Y-73425832D01*
X62024929Y-73894168D01*
X61965575Y-73708800D01*
X60754800Y-73708800D01*
X60754800Y-74849800D01*
X60907200Y-74849800D01*
X61358802Y-74740557D01*
X61734222Y-74466809D01*
X61976306Y-74070232D01*
X62024929Y-73894168D01*
X62024929Y-75009400D01*
X60657200Y-75009400D01*
X60657200Y-74849800D01*
X60657200Y-73708800D01*
X60657200Y-73611200D01*
X60657200Y-72470200D01*
X60504800Y-72470200D01*
X60053198Y-72579443D01*
X59677778Y-72853191D01*
X59435694Y-73249768D01*
X59387071Y-73425832D01*
X59446425Y-73611200D01*
X60657200Y-73611200D01*
X60657200Y-73708800D01*
X59446425Y-73708800D01*
X59387071Y-73894168D01*
X59435694Y-74070232D01*
X59677778Y-74466809D01*
X60053198Y-74740557D01*
X60504800Y-74849800D01*
X60657200Y-74849800D01*
X60657200Y-75009400D01*
X59867532Y-75009400D01*
X59356600Y-74498468D01*
X59356600Y-70535532D01*
X60215452Y-69676679D01*
X61196547Y-69676679D01*
X61672934Y-70153066D01*
X61811981Y-70245975D01*
X61811982Y-70245975D01*
X61976000Y-70278600D01*
X71628000Y-70278600D01*
X71792018Y-70245975D01*
X71931066Y-70153066D01*
X73229463Y-68854668D01*
X73256684Y-68854692D01*
X73451037Y-68774387D01*
X73599864Y-68625819D01*
X73680508Y-68431606D01*
X73680692Y-68221316D01*
X73600387Y-68026963D01*
X73451819Y-67878136D01*
X73257606Y-67797492D01*
X73047316Y-67797308D01*
X72852963Y-67877613D01*
X72734533Y-67995836D01*
X72734533Y-59092169D01*
X72734533Y-58623831D01*
X72556123Y-58195243D01*
X72227280Y-57867554D01*
X71802168Y-57691471D01*
X71616800Y-57750825D01*
X71616800Y-58809200D01*
X72675253Y-58809200D01*
X72734533Y-58623831D01*
X72734533Y-59092169D01*
X72675253Y-58906800D01*
X71616800Y-58906800D01*
X71616800Y-59965175D01*
X71802168Y-60024529D01*
X72227280Y-59848446D01*
X72556123Y-59520757D01*
X72734533Y-59092169D01*
X72734533Y-67995836D01*
X72704136Y-68026181D01*
X72660200Y-68131991D01*
X72660200Y-61419397D01*
X72660200Y-61376603D01*
X72577061Y-60958636D01*
X72340302Y-60604301D01*
X71985967Y-60367542D01*
X71568000Y-60284403D01*
X71519200Y-60294109D01*
X71519200Y-59965175D01*
X71519200Y-58906800D01*
X71519200Y-58809200D01*
X71519200Y-57750825D01*
X71333832Y-57691471D01*
X70908720Y-57867554D01*
X70579877Y-58195243D01*
X70401467Y-58623831D01*
X70460747Y-58809200D01*
X71519200Y-58809200D01*
X71519200Y-58906800D01*
X70460747Y-58906800D01*
X70401467Y-59092169D01*
X70579877Y-59520757D01*
X70908720Y-59848446D01*
X71333832Y-60024529D01*
X71519200Y-59965175D01*
X71519200Y-60294109D01*
X71150033Y-60367542D01*
X70795698Y-60604301D01*
X70558939Y-60958636D01*
X70475800Y-61376603D01*
X70475800Y-61419397D01*
X70558939Y-61837364D01*
X70795698Y-62191699D01*
X71150033Y-62428458D01*
X71568000Y-62511597D01*
X71985967Y-62428458D01*
X72340302Y-62191699D01*
X72577061Y-61837364D01*
X72660200Y-61419397D01*
X72660200Y-68131991D01*
X72623492Y-68220394D01*
X72623467Y-68248400D01*
X71450467Y-69421400D01*
X70120200Y-69421400D01*
X70120200Y-61419397D01*
X70120200Y-61376603D01*
X70120200Y-58879397D01*
X70120200Y-58836603D01*
X70037061Y-58418636D01*
X69800302Y-58064301D01*
X69445967Y-57827542D01*
X69028000Y-57744403D01*
X68610033Y-57827542D01*
X68255698Y-58064301D01*
X68018939Y-58418636D01*
X67935800Y-58836603D01*
X67935800Y-58879397D01*
X68018939Y-59297364D01*
X68255698Y-59651699D01*
X68610033Y-59888458D01*
X69028000Y-59971597D01*
X69445967Y-59888458D01*
X69800302Y-59651699D01*
X70037061Y-59297364D01*
X70120200Y-58879397D01*
X70120200Y-61376603D01*
X70037061Y-60958636D01*
X69800302Y-60604301D01*
X69445967Y-60367542D01*
X69028000Y-60284403D01*
X68610033Y-60367542D01*
X68255698Y-60604301D01*
X68018939Y-60958636D01*
X67935800Y-61376603D01*
X67935800Y-61419397D01*
X68018939Y-61837364D01*
X68255698Y-62191699D01*
X68610033Y-62428458D01*
X69028000Y-62511597D01*
X69445967Y-62428458D01*
X69800302Y-62191699D01*
X70037061Y-61837364D01*
X70120200Y-61419397D01*
X70120200Y-69421400D01*
X62153531Y-69421400D01*
X61955079Y-69222947D01*
X61955079Y-67937053D01*
X64565066Y-65327066D01*
X64657975Y-65188019D01*
X64657975Y-65188018D01*
X64690600Y-65024000D01*
X64690600Y-62915532D01*
X65327066Y-62279066D01*
X65391321Y-62182901D01*
X65391321Y-62261600D01*
X65408233Y-62348764D01*
X65458558Y-62425374D01*
X65534529Y-62476656D01*
X65624400Y-62494679D01*
X67351600Y-62494679D01*
X67438764Y-62477767D01*
X67515374Y-62427442D01*
X67566656Y-62351471D01*
X67584679Y-62261600D01*
X67584679Y-60534400D01*
X67567767Y-60447236D01*
X67517442Y-60370626D01*
X67441471Y-60319344D01*
X67351600Y-60301321D01*
X65624400Y-60301321D01*
X65537236Y-60318233D01*
X65460626Y-60368558D01*
X65452600Y-60380448D01*
X65452600Y-60121532D01*
X65839626Y-59734505D01*
X66070033Y-59888458D01*
X66488000Y-59971597D01*
X66905967Y-59888458D01*
X67260302Y-59651699D01*
X67497061Y-59297364D01*
X67580200Y-58879397D01*
X67580200Y-58836603D01*
X67497061Y-58418636D01*
X67260302Y-58064301D01*
X66905967Y-57827542D01*
X66488000Y-57744403D01*
X66070033Y-57827542D01*
X65715698Y-58064301D01*
X65478939Y-58418636D01*
X65395800Y-58836603D01*
X65395800Y-58879397D01*
X65410179Y-58951688D01*
X64794690Y-59567177D01*
X64794750Y-59498987D01*
X64312221Y-58331178D01*
X63419522Y-57436919D01*
X62252557Y-56952353D01*
X60988987Y-56951250D01*
X59821178Y-57433779D01*
X58926919Y-58326478D01*
X58442353Y-59493443D01*
X58441250Y-60757013D01*
X58923779Y-61924822D01*
X59816478Y-62819081D01*
X60983443Y-63303647D01*
X62247013Y-63304750D01*
X63414822Y-62822221D01*
X64309081Y-61929522D01*
X64595400Y-61239988D01*
X64595400Y-61798468D01*
X63958934Y-62434934D01*
X63866025Y-62573982D01*
X63833400Y-62738000D01*
X63833400Y-64846468D01*
X61196547Y-67483321D01*
X59690000Y-67483321D01*
X59602836Y-67500233D01*
X59526226Y-67550558D01*
X59474944Y-67626529D01*
X59456921Y-67716400D01*
X59456921Y-69222947D01*
X58624934Y-70054934D01*
X58532025Y-70193982D01*
X58499400Y-70358000D01*
X58499400Y-74676000D01*
X58532025Y-74840018D01*
X58624934Y-74979066D01*
X59386934Y-75741066D01*
X59525982Y-75833975D01*
X59603529Y-75849400D01*
X59145440Y-75849400D01*
X58844021Y-75789444D01*
X58611752Y-75634247D01*
X58456555Y-75401979D01*
X58402530Y-75130375D01*
X58403600Y-75125000D01*
X58403600Y-59625000D01*
X58403127Y-59622624D01*
X58608796Y-58588653D01*
X59197539Y-57707539D01*
X60078655Y-57118796D01*
X61145441Y-56906600D01*
X120090559Y-56906600D01*
X121157346Y-57118796D01*
X122038460Y-57707539D01*
X122627203Y-58588655D01*
X122840280Y-59659865D01*
X122840280Y-109596134D01*
M02*
