G04 #@! TF.FileFunction,Soldermask,Bot*
%FSLAX46Y46*%
G04 Gerber Fmt 4.6, Leading zero omitted, Abs format (unit mm)*
G04 Created by KiCad (PCBNEW (2015-05-05 BZR 5645)-product) date ma. 18. mai 2015 kl. 21.53 +0200*
%MOMM*%
G01*
G04 APERTURE LIST*
%ADD10C,0.100000*%
%ADD11R,1.727200X1.727200*%
%ADD12O,1.727200X1.727200*%
%ADD13C,6.200000*%
%ADD14R,1.727200X2.032000*%
%ADD15O,1.727200X2.032000*%
%ADD16R,2.032000X2.032000*%
%ADD17O,2.032000X2.032000*%
%ADD18R,2.032000X1.727200*%
%ADD19O,2.032000X1.727200*%
%ADD20O,2.197100X1.498600*%
%ADD21O,2.194560X1.496060*%
%ADD22C,1.501140*%
G04 APERTURE END LIST*
D10*
D11*
X66488000Y-61398000D03*
D12*
X66488000Y-58858000D03*
X69028000Y-61398000D03*
X69028000Y-58858000D03*
X71568000Y-61398000D03*
X71568000Y-58858000D03*
X74108000Y-61398000D03*
X74108000Y-58858000D03*
X76648000Y-61398000D03*
X76648000Y-58858000D03*
X79188000Y-61398000D03*
X79188000Y-58858000D03*
X81728000Y-61398000D03*
X81728000Y-58858000D03*
X84268000Y-61398000D03*
X84268000Y-58858000D03*
X86808000Y-61398000D03*
X86808000Y-58858000D03*
X89348000Y-61398000D03*
X89348000Y-58858000D03*
X91888000Y-61398000D03*
X91888000Y-58858000D03*
X94428000Y-61398000D03*
X94428000Y-58858000D03*
X96968000Y-61398000D03*
X96968000Y-58858000D03*
X99508000Y-61398000D03*
X99508000Y-58858000D03*
X102048000Y-61398000D03*
X102048000Y-58858000D03*
X104588000Y-61398000D03*
X104588000Y-58858000D03*
X107128000Y-61398000D03*
X107128000Y-58858000D03*
X109668000Y-61398000D03*
X109668000Y-58858000D03*
X112208000Y-61398000D03*
X112208000Y-58858000D03*
X114748000Y-61398000D03*
X114748000Y-58858000D03*
D13*
X119618000Y-60128000D03*
X119618000Y-109128000D03*
X61618000Y-109128000D03*
X61618000Y-60128000D03*
D14*
X91948000Y-65278000D03*
D15*
X94488000Y-65278000D03*
X97028000Y-65278000D03*
D11*
X85090000Y-107950000D03*
D12*
X85090000Y-110490000D03*
X82550000Y-107950000D03*
X82550000Y-110490000D03*
X80010000Y-107950000D03*
X80010000Y-110490000D03*
X77470000Y-107950000D03*
X77470000Y-110490000D03*
X74930000Y-107950000D03*
X74930000Y-110490000D03*
X72390000Y-107950000D03*
X72390000Y-110490000D03*
X69850000Y-107950000D03*
X69850000Y-110490000D03*
X67310000Y-107950000D03*
X67310000Y-110490000D03*
D16*
X120650000Y-91694000D03*
D17*
X120650000Y-89154000D03*
D18*
X120650000Y-102870000D03*
D19*
X120650000Y-100330000D03*
X120650000Y-97790000D03*
D18*
X60706000Y-68580000D03*
D19*
X60706000Y-71120000D03*
X60706000Y-73660000D03*
D11*
X118000000Y-66400000D03*
D12*
X120540000Y-66400000D03*
X118000000Y-68940000D03*
X120540000Y-68940000D03*
X118000000Y-71480000D03*
X120540000Y-71480000D03*
X118000000Y-74020000D03*
X120540000Y-74020000D03*
X118000000Y-76560000D03*
X120540000Y-76560000D03*
X118000000Y-79100000D03*
X120540000Y-79100000D03*
X118000000Y-81640000D03*
X120540000Y-81640000D03*
X118000000Y-84180000D03*
X120540000Y-84180000D03*
D20*
X107950000Y-95758000D03*
X107950000Y-93218000D03*
D21*
X100330000Y-93218000D03*
X100330000Y-95758000D03*
D22*
X95250000Y-89308940D03*
X95250000Y-84427060D03*
M02*
