M48
;DRILL file {KiCad 4.0.4-1.fc25-product} date Sun Oct 23 22:01:54 2016
;FORMAT={-:-/ absolute / metric / decimal}
FMAT,2
METRIC,TZ
T1C0.400
T2C0.800
T3C1.001
T4C1.016
T5C1.199
%
G90
G05
M71
T1
X19.685Y-84.455
X22.225Y-83.185
X22.86Y-85.09
X23.495Y-86.36
X25.146Y-82.804
X26.67Y-69.596
X26.67Y-73.66
X26.924Y-83.82
X29.464Y-78.232
X31.115Y-83.82
X33.528Y-77.724
X36.322Y-77.47
X37.084Y-83.82
X38.1Y-86.868
X38.608Y-76.708
X41.855Y-69.796
X42.164Y-83.82
X44.704Y-79.111
X47.498Y-76.708
X50.292Y-76.2
X52.07Y-83.566
X52.578Y-75.692
X53.34Y-84.836
X53.594Y-87.122
X56.134Y-75.692
X56.771Y-69.471
X57.404Y-83.82
X59.856Y-79.111
X61.976Y-75.692
X64.516Y-75.184
X66.802Y-74.676
X67.056Y-83.82
X68.326Y-85.09
X68.834Y-86.868
X71.374Y-74.676
X72.011Y-69.471
X73.281Y-84.16
X75.088Y-79.111
X76.2Y-74.676
X78.74Y-74.168
X81.28Y-73.66
X82.55Y-83.82
X83.82Y-85.09
X84.455Y-86.995
X87.251Y-69.471
X88.138Y-73.66
X88.24Y-84.16
X90.743Y-79.111
X92.202Y-73.152
X95.758Y-72.644
X97.79Y-83.82
X99.06Y-85.09
X99.06Y-86.995
X102.491Y-69.471
X103.632Y-72.644
X104.458Y-84.16
X105.664Y-79.111
X110.49Y-72.39
X113.03Y-83.82
X114.3Y-86.995
X114.935Y-84.455
X117.856Y-69.85
X118.364Y-83.82
X118.618Y-72.39
X120.734Y-79.111
X121.158Y-71.882
X124.714Y-71.374
X127.Y-84.455
X129.54Y-85.725
X131.33Y-78.74
X133.295Y-69.796
X133.604Y-83.82
X134.366Y-71.374
X135.382Y-77.47
X135.89Y-79.365
X136.249Y-76.395
X137.414Y-80.83
X137.53Y-76.445
X138.43Y-80.264
X138.625Y-72.507
X139.7Y-64.77
X139.712Y-73.272
X141.598Y-80.634
X141.92Y-78.298
X141.929Y-72.235
X142.763Y-71.458
X143.764Y-78.994
X143.84Y-72.189
X144.145Y-86.36
X144.272Y-80.772
X144.48Y-73.339
X144.526Y-74.422
X144.78Y-70.104
X144.78Y-71.374
X145.01Y-68.846
X145.034Y-72.136
X145.034Y-79.502
X147.32Y-70.612
X147.32Y-73.914
X147.32Y-76.2
X147.32Y-81.613
X147.978Y-81.158
X148.082Y-82.999
X148.844Y-82.671
X150.495Y-66.04
X150.876Y-85.852
X151.65Y-81.296
X153.035Y-66.04
X153.035Y-76.835
X153.045Y-74.737
X153.162Y-79.756
X153.162Y-81.534
X153.67Y-70.485
X153.67Y-73.025
X154.078Y-83.449
X154.94Y-76.2
X155.194Y-84.328
X155.74Y-74.93
X159.385Y-66.675
X159.385Y-67.945
X159.385Y-74.93
X160.02Y-85.09
X160.655Y-84.455
T2
X21.59Y-76.24
X21.59Y-78.74
T3
X20.32Y-69.85
X30.48Y-69.85
X35.56Y-69.85
X45.72Y-69.85
X50.8Y-69.85
X60.96Y-69.85
X66.04Y-69.85
X76.2Y-69.85
X81.28Y-69.85
X91.44Y-69.85
X96.52Y-69.85
X106.68Y-69.85
X111.76Y-69.85
X121.92Y-69.85
X127.Y-69.85
X137.16Y-69.85
T4
X20.32Y-66.04
X22.86Y-66.04
X27.94Y-66.04
X30.48Y-66.04
X35.56Y-66.04
X38.1Y-66.04
X43.18Y-66.04
X45.72Y-66.04
X50.8Y-66.04
X53.34Y-66.04
X58.42Y-66.04
X60.96Y-66.04
X66.04Y-66.04
X68.58Y-66.04
X73.66Y-66.04
X76.2Y-66.04
X81.28Y-66.04
X83.82Y-66.04
X88.9Y-66.04
X91.44Y-66.04
X96.52Y-66.04
X99.06Y-66.04
X104.14Y-66.04
X106.68Y-66.04
X111.76Y-66.04
X114.3Y-66.04
X119.38Y-66.04
X121.92Y-66.04
X127.Y-66.04
X129.54Y-66.04
X134.62Y-66.04
X137.16Y-66.04
X165.1Y-66.04
X165.1Y-68.58
X165.1Y-71.12
X165.1Y-73.66
X165.1Y-83.82
X165.1Y-86.36
T5
X20.399Y-86.36
X25.4Y-86.36
X30.401Y-86.36
X35.639Y-86.36
X40.64Y-86.36
X45.641Y-86.36
X50.879Y-86.36
X55.88Y-86.36
X60.881Y-86.36
X66.119Y-86.36
X71.12Y-86.36
X76.121Y-86.36
X81.359Y-86.36
X86.36Y-86.36
X91.361Y-86.36
X96.599Y-86.36
X101.6Y-86.36
X106.601Y-86.36
X111.839Y-86.36
X116.84Y-86.36
X121.841Y-86.36
X127.079Y-86.36
X132.08Y-86.36
X137.081Y-86.36
T0
M30
