G04 #@! TF.FileFunction,Legend,Top*
%FSLAX46Y46*%
G04 Gerber Fmt 4.6, Leading zero omitted, Abs format (unit mm)*
G04 Created by KiCad (PCBNEW 4.0.4-1.fc25-product) date Mon Oct 24 00:38:01 2016*
%MOMM*%
%LPD*%
G01*
G04 APERTURE LIST*
%ADD10C,0.100000*%
%ADD11C,0.250000*%
%ADD12C,0.150000*%
%ADD13C,0.125000*%
G04 APERTURE END LIST*
D10*
D11*
X141558095Y-67159143D02*
X141510476Y-67206762D01*
X141367619Y-67254381D01*
X141272381Y-67254381D01*
X141129523Y-67206762D01*
X141034285Y-67111524D01*
X140986666Y-67016286D01*
X140939047Y-66825810D01*
X140939047Y-66682952D01*
X140986666Y-66492476D01*
X141034285Y-66397238D01*
X141129523Y-66302000D01*
X141272381Y-66254381D01*
X141367619Y-66254381D01*
X141510476Y-66302000D01*
X141558095Y-66349619D01*
X142177142Y-66254381D02*
X142367619Y-66254381D01*
X142462857Y-66302000D01*
X142558095Y-66397238D01*
X142605714Y-66587714D01*
X142605714Y-66921048D01*
X142558095Y-67111524D01*
X142462857Y-67206762D01*
X142367619Y-67254381D01*
X142177142Y-67254381D01*
X142081904Y-67206762D01*
X141986666Y-67111524D01*
X141939047Y-66921048D01*
X141939047Y-66587714D01*
X141986666Y-66397238D01*
X142081904Y-66302000D01*
X142177142Y-66254381D01*
X142986666Y-67206762D02*
X143129523Y-67254381D01*
X143367619Y-67254381D01*
X143462857Y-67206762D01*
X143510476Y-67159143D01*
X143558095Y-67063905D01*
X143558095Y-66968667D01*
X143510476Y-66873429D01*
X143462857Y-66825810D01*
X143367619Y-66778190D01*
X143177142Y-66730571D01*
X143081904Y-66682952D01*
X143034285Y-66635333D01*
X142986666Y-66540095D01*
X142986666Y-66444857D01*
X143034285Y-66349619D01*
X143081904Y-66302000D01*
X143177142Y-66254381D01*
X143415238Y-66254381D01*
X143558095Y-66302000D01*
X143986666Y-67254381D02*
X143986666Y-66254381D01*
X144320000Y-66968667D01*
X144653333Y-66254381D01*
X144653333Y-67254381D01*
X145319999Y-66254381D02*
X145510476Y-66254381D01*
X145605714Y-66302000D01*
X145700952Y-66397238D01*
X145748571Y-66587714D01*
X145748571Y-66921048D01*
X145700952Y-67111524D01*
X145605714Y-67206762D01*
X145510476Y-67254381D01*
X145319999Y-67254381D01*
X145224761Y-67206762D01*
X145129523Y-67111524D01*
X145081904Y-66921048D01*
X145081904Y-66587714D01*
X145129523Y-66397238D01*
X145224761Y-66302000D01*
X145319999Y-66254381D01*
X146939047Y-66587714D02*
X146939047Y-67587714D01*
X146939047Y-66635333D02*
X147034285Y-66587714D01*
X147224762Y-66587714D01*
X147320000Y-66635333D01*
X147367619Y-66682952D01*
X147415238Y-66778190D01*
X147415238Y-67063905D01*
X147367619Y-67159143D01*
X147320000Y-67206762D01*
X147224762Y-67254381D01*
X147034285Y-67254381D01*
X146939047Y-67206762D01*
X147986666Y-67254381D02*
X147891428Y-67206762D01*
X147843809Y-67111524D01*
X147843809Y-66254381D01*
X148796191Y-67254381D02*
X148796191Y-66730571D01*
X148748572Y-66635333D01*
X148653334Y-66587714D01*
X148462857Y-66587714D01*
X148367619Y-66635333D01*
X148796191Y-67206762D02*
X148700953Y-67254381D01*
X148462857Y-67254381D01*
X148367619Y-67206762D01*
X148320000Y-67111524D01*
X148320000Y-67016286D01*
X148367619Y-66921048D01*
X148462857Y-66873429D01*
X148700953Y-66873429D01*
X148796191Y-66825810D01*
X149272381Y-66587714D02*
X149272381Y-67254381D01*
X149272381Y-66682952D02*
X149320000Y-66635333D01*
X149415238Y-66587714D01*
X149558096Y-66587714D01*
X149653334Y-66635333D01*
X149700953Y-66730571D01*
X149700953Y-67254381D01*
X150177143Y-67254381D02*
X150177143Y-66254381D01*
X150272381Y-66873429D02*
X150558096Y-67254381D01*
X150558096Y-66587714D02*
X150177143Y-66968667D01*
X152272382Y-67254381D02*
X151700953Y-67254381D01*
X151986667Y-67254381D02*
X151986667Y-66254381D01*
X151891429Y-66397238D01*
X151796191Y-66492476D01*
X151700953Y-66540095D01*
X152700953Y-67159143D02*
X152748572Y-67206762D01*
X152700953Y-67254381D01*
X152653334Y-67206762D01*
X152700953Y-67159143D01*
X152700953Y-67254381D01*
X153367619Y-66254381D02*
X153462858Y-66254381D01*
X153558096Y-66302000D01*
X153605715Y-66349619D01*
X153653334Y-66444857D01*
X153700953Y-66635333D01*
X153700953Y-66873429D01*
X153653334Y-67063905D01*
X153605715Y-67159143D01*
X153558096Y-67206762D01*
X153462858Y-67254381D01*
X153367619Y-67254381D01*
X153272381Y-67206762D01*
X153224762Y-67159143D01*
X153177143Y-67063905D01*
X153129524Y-66873429D01*
X153129524Y-66635333D01*
X153177143Y-66444857D01*
X153224762Y-66349619D01*
X153272381Y-66302000D01*
X153367619Y-66254381D01*
D12*
X116340000Y-70445000D02*
X117340000Y-70445000D01*
X117340000Y-71795000D02*
X116340000Y-71795000D01*
X89300000Y-83220000D02*
X90000000Y-83220000D01*
X90000000Y-84420000D02*
X89300000Y-84420000D01*
X85860000Y-83145000D02*
X86860000Y-83145000D01*
X86860000Y-84495000D02*
X85860000Y-84495000D01*
X104540000Y-83220000D02*
X105240000Y-83220000D01*
X105240000Y-84420000D02*
X104540000Y-84420000D01*
X101100000Y-83145000D02*
X102100000Y-83145000D01*
X102100000Y-84495000D02*
X101100000Y-84495000D01*
X143160000Y-77632000D02*
X143860000Y-77632000D01*
X143860000Y-78832000D02*
X143160000Y-78832000D01*
X157064000Y-75596000D02*
X157064000Y-76296000D01*
X155864000Y-76296000D02*
X155864000Y-75596000D01*
X156810000Y-82212000D02*
X156810000Y-82912000D01*
X155610000Y-82912000D02*
X155610000Y-82212000D01*
X131730000Y-72425000D02*
X132430000Y-72425000D01*
X132430000Y-73625000D02*
X131730000Y-73625000D01*
X116490000Y-72425000D02*
X117190000Y-72425000D01*
X117190000Y-73625000D02*
X116490000Y-73625000D01*
X101250000Y-72425000D02*
X101950000Y-72425000D01*
X101950000Y-73625000D02*
X101250000Y-73625000D01*
X86010000Y-72425000D02*
X86710000Y-72425000D01*
X86710000Y-73625000D02*
X86010000Y-73625000D01*
X70770000Y-72425000D02*
X71470000Y-72425000D01*
X71470000Y-73625000D02*
X70770000Y-73625000D01*
X55530000Y-72425000D02*
X56230000Y-72425000D01*
X56230000Y-73625000D02*
X55530000Y-73625000D01*
X40290000Y-72425000D02*
X40990000Y-72425000D01*
X40990000Y-73625000D02*
X40290000Y-73625000D01*
X25050000Y-72425000D02*
X25750000Y-72425000D01*
X25750000Y-73625000D02*
X25050000Y-73625000D01*
X19091000Y-77415000D02*
X24089000Y-77415000D01*
X19099000Y-77275000D02*
X24081000Y-77275000D01*
X19115000Y-77135000D02*
X21495000Y-77135000D01*
X21685000Y-77135000D02*
X24065000Y-77135000D01*
X19139000Y-76995000D02*
X21100000Y-76995000D01*
X22080000Y-76995000D02*
X24041000Y-76995000D01*
X19172000Y-76855000D02*
X20933000Y-76855000D01*
X22247000Y-76855000D02*
X24008000Y-76855000D01*
X19213000Y-76715000D02*
X20826000Y-76715000D01*
X22354000Y-76715000D02*
X23967000Y-76715000D01*
X19263000Y-76575000D02*
X20755000Y-76575000D01*
X22425000Y-76575000D02*
X23917000Y-76575000D01*
X19324000Y-76435000D02*
X20711000Y-76435000D01*
X22469000Y-76435000D02*
X23856000Y-76435000D01*
X19394000Y-76295000D02*
X20692000Y-76295000D01*
X22488000Y-76295000D02*
X23786000Y-76295000D01*
X19476000Y-76155000D02*
X20694000Y-76155000D01*
X22486000Y-76155000D02*
X23704000Y-76155000D01*
X19571000Y-76015000D02*
X20719000Y-76015000D01*
X22461000Y-76015000D02*
X23609000Y-76015000D01*
X19682000Y-75875000D02*
X20767000Y-75875000D01*
X22413000Y-75875000D02*
X23498000Y-75875000D01*
X19810000Y-75735000D02*
X20845000Y-75735000D01*
X22335000Y-75735000D02*
X23370000Y-75735000D01*
X19959000Y-75595000D02*
X20962000Y-75595000D01*
X22218000Y-75595000D02*
X23221000Y-75595000D01*
X20138000Y-75455000D02*
X21150000Y-75455000D01*
X22030000Y-75455000D02*
X23042000Y-75455000D01*
X20357000Y-75315000D02*
X22823000Y-75315000D01*
X20646000Y-75175000D02*
X22534000Y-75175000D01*
X21118000Y-75035000D02*
X22062000Y-75035000D01*
X22490000Y-76240000D02*
G75*
G03X22490000Y-76240000I-900000J0D01*
G01*
X24127500Y-77490000D02*
G75*
G03X24127500Y-77490000I-2537500J0D01*
G01*
X28340000Y-83220000D02*
X29040000Y-83220000D01*
X29040000Y-84420000D02*
X28340000Y-84420000D01*
X43580000Y-83220000D02*
X44280000Y-83220000D01*
X44280000Y-84420000D02*
X43580000Y-84420000D01*
X58820000Y-83220000D02*
X59520000Y-83220000D01*
X59520000Y-84420000D02*
X58820000Y-84420000D01*
X119780000Y-83220000D02*
X120480000Y-83220000D01*
X120480000Y-84420000D02*
X119780000Y-84420000D01*
X74060000Y-83220000D02*
X74760000Y-83220000D01*
X74760000Y-84420000D02*
X74060000Y-84420000D01*
X135020000Y-83220000D02*
X135720000Y-83220000D01*
X135720000Y-84420000D02*
X135020000Y-84420000D01*
X162525000Y-86760000D02*
X162525000Y-85210000D01*
X161325000Y-86760000D02*
X161325000Y-85210000D01*
X161690000Y-66710000D02*
X160140000Y-66710000D01*
X161690000Y-67910000D02*
X160140000Y-67910000D01*
X160570000Y-83650000D02*
X160570000Y-81750000D01*
X159470000Y-83650000D02*
X159470000Y-81750000D01*
X160020000Y-82750000D02*
X160020000Y-82300000D01*
X159770000Y-82800000D02*
X160270000Y-82800000D01*
X160020000Y-82800000D02*
X159770000Y-82550000D01*
X159770000Y-82550000D02*
X160270000Y-82550000D01*
X160270000Y-82550000D02*
X160020000Y-82800000D01*
X161690000Y-68615000D02*
X160140000Y-68615000D01*
X161690000Y-69815000D02*
X160140000Y-69815000D01*
X161755000Y-72425000D02*
X160205000Y-72425000D01*
X161755000Y-73625000D02*
X160205000Y-73625000D01*
X156930000Y-85260000D02*
X156930000Y-87160000D01*
X158030000Y-85260000D02*
X158030000Y-87160000D01*
X157480000Y-86160000D02*
X157480000Y-86610000D01*
X157730000Y-86110000D02*
X157230000Y-86110000D01*
X157480000Y-86110000D02*
X157730000Y-86360000D01*
X157730000Y-86360000D02*
X157230000Y-86360000D01*
X157230000Y-86360000D02*
X157480000Y-86110000D01*
X27540000Y-69180000D02*
X29090000Y-69180000D01*
X27540000Y-67980000D02*
X29090000Y-67980000D01*
X42780000Y-69180000D02*
X44330000Y-69180000D01*
X42780000Y-67980000D02*
X44330000Y-67980000D01*
X58020000Y-69180000D02*
X59570000Y-69180000D01*
X58020000Y-67980000D02*
X59570000Y-67980000D01*
X73260000Y-69180000D02*
X74810000Y-69180000D01*
X73260000Y-67980000D02*
X74810000Y-67980000D01*
X88500000Y-69180000D02*
X90050000Y-69180000D01*
X88500000Y-67980000D02*
X90050000Y-67980000D01*
X103740000Y-69180000D02*
X105290000Y-69180000D01*
X103740000Y-67980000D02*
X105290000Y-67980000D01*
X118980000Y-69180000D02*
X120530000Y-69180000D01*
X118980000Y-67980000D02*
X120530000Y-67980000D01*
X134220000Y-69180000D02*
X135770000Y-69180000D01*
X134220000Y-67980000D02*
X135770000Y-67980000D01*
X30015000Y-73575000D02*
X31915000Y-73575000D01*
X30015000Y-72475000D02*
X31915000Y-72475000D01*
X30915000Y-73025000D02*
X31365000Y-73025000D01*
X30865000Y-72775000D02*
X30865000Y-73275000D01*
X30865000Y-73025000D02*
X31115000Y-72775000D01*
X31115000Y-72775000D02*
X31115000Y-73275000D01*
X31115000Y-73275000D02*
X30865000Y-73025000D01*
X40240000Y-69180000D02*
X41790000Y-69180000D01*
X40240000Y-67980000D02*
X41790000Y-67980000D01*
X70720000Y-69180000D02*
X72270000Y-69180000D01*
X70720000Y-67980000D02*
X72270000Y-67980000D01*
X101200000Y-69180000D02*
X102750000Y-69180000D01*
X101200000Y-67980000D02*
X102750000Y-67980000D01*
X131680000Y-69180000D02*
X133230000Y-69180000D01*
X131680000Y-67980000D02*
X133230000Y-67980000D01*
X25000000Y-69180000D02*
X26550000Y-69180000D01*
X25000000Y-67980000D02*
X26550000Y-67980000D01*
X55480000Y-69180000D02*
X57030000Y-69180000D01*
X55480000Y-67980000D02*
X57030000Y-67980000D01*
X85960000Y-69180000D02*
X87510000Y-69180000D01*
X85960000Y-67980000D02*
X87510000Y-67980000D01*
X116440000Y-69180000D02*
X117990000Y-69180000D01*
X116440000Y-67980000D02*
X117990000Y-67980000D01*
X163830000Y-85090000D02*
X163830000Y-82550000D01*
X163550000Y-87910000D02*
X163550000Y-86360000D01*
X163830000Y-85090000D02*
X166370000Y-85090000D01*
X166650000Y-86360000D02*
X166650000Y-87910000D01*
X166650000Y-87910000D02*
X163550000Y-87910000D01*
X166370000Y-85090000D02*
X166370000Y-82550000D01*
X166370000Y-82550000D02*
X163830000Y-82550000D01*
X163830000Y-67310000D02*
X163830000Y-74930000D01*
X166370000Y-67310000D02*
X166370000Y-74930000D01*
X166650000Y-64490000D02*
X166650000Y-66040000D01*
X163830000Y-74930000D02*
X166370000Y-74930000D01*
X166370000Y-67310000D02*
X163830000Y-67310000D01*
X163550000Y-66040000D02*
X163550000Y-64490000D01*
X163550000Y-64490000D02*
X166650000Y-64490000D01*
X162194240Y-79531160D02*
X162194240Y-79482900D01*
X161493200Y-76732180D02*
X162194240Y-76732180D01*
X162194240Y-76732180D02*
X162194240Y-76981100D01*
X162194240Y-79531160D02*
X162194240Y-79731820D01*
X162194240Y-79731820D02*
X161493200Y-79731820D01*
X161790000Y-75605000D02*
X160790000Y-75605000D01*
X160790000Y-74255000D02*
X161790000Y-74255000D01*
X158790000Y-78240000D02*
X158790000Y-79240000D01*
X157440000Y-79240000D02*
X157440000Y-78240000D01*
X161790000Y-71795000D02*
X160790000Y-71795000D01*
X160790000Y-70445000D02*
X161790000Y-70445000D01*
X161790000Y-66080000D02*
X160790000Y-66080000D01*
X160790000Y-64730000D02*
X161790000Y-64730000D01*
X160695000Y-85860000D02*
X160695000Y-86860000D01*
X159345000Y-86860000D02*
X159345000Y-85860000D01*
X157440000Y-83050000D02*
X157440000Y-82050000D01*
X158790000Y-82050000D02*
X158790000Y-83050000D01*
X31615000Y-75605000D02*
X30615000Y-75605000D01*
X30615000Y-74255000D02*
X31615000Y-74255000D01*
X40140000Y-83145000D02*
X41140000Y-83145000D01*
X41140000Y-84495000D02*
X40140000Y-84495000D01*
X70620000Y-83145000D02*
X71620000Y-83145000D01*
X71620000Y-84495000D02*
X70620000Y-84495000D01*
X131580000Y-83145000D02*
X132580000Y-83145000D01*
X132580000Y-84495000D02*
X131580000Y-84495000D01*
X24900000Y-83145000D02*
X25900000Y-83145000D01*
X25900000Y-84495000D02*
X24900000Y-84495000D01*
X55380000Y-83145000D02*
X56380000Y-83145000D01*
X56380000Y-84495000D02*
X55380000Y-84495000D01*
X116340000Y-83145000D02*
X117340000Y-83145000D01*
X117340000Y-84495000D02*
X116340000Y-84495000D01*
X145585000Y-76865000D02*
X145585000Y-76307500D01*
X141435000Y-76865000D02*
X141435000Y-76307500D01*
X141435000Y-67915000D02*
X141435000Y-68472500D01*
X145585000Y-67915000D02*
X145585000Y-68472500D01*
X145585000Y-76865000D02*
X141435000Y-76865000D01*
X145585000Y-67915000D02*
X141435000Y-67915000D01*
X145585000Y-76307500D02*
X146710000Y-76307500D01*
X24900000Y-70445000D02*
X25900000Y-70445000D01*
X25900000Y-71795000D02*
X24900000Y-71795000D01*
X40140000Y-70445000D02*
X41140000Y-70445000D01*
X41140000Y-71795000D02*
X40140000Y-71795000D01*
X55380000Y-70445000D02*
X56380000Y-70445000D01*
X56380000Y-71795000D02*
X55380000Y-71795000D01*
X70595000Y-70445000D02*
X71595000Y-70445000D01*
X71595000Y-71795000D02*
X70595000Y-71795000D01*
X85860000Y-70445000D02*
X86860000Y-70445000D01*
X86860000Y-71795000D02*
X85860000Y-71795000D01*
X101100000Y-70445000D02*
X102100000Y-70445000D01*
X102100000Y-71795000D02*
X101100000Y-71795000D01*
X131580000Y-70445000D02*
X132580000Y-70445000D01*
X132580000Y-71795000D02*
X131580000Y-71795000D01*
X143510000Y-87910000D02*
X141960000Y-87910000D01*
X141960000Y-87910000D02*
X141960000Y-84810000D01*
X141960000Y-84810000D02*
X143510000Y-84810000D01*
X144780000Y-85090000D02*
X154940000Y-85090000D01*
X154940000Y-85090000D02*
X154940000Y-87630000D01*
X154940000Y-87630000D02*
X144780000Y-87630000D01*
X144780000Y-85090000D02*
X144780000Y-87630000D01*
X154853000Y-70112000D02*
X154853000Y-71112000D01*
X153503000Y-71112000D02*
X153503000Y-70112000D01*
X152821000Y-70112000D02*
X152821000Y-71112000D01*
X151471000Y-71112000D02*
X151471000Y-70112000D01*
X149563000Y-74173000D02*
X149563000Y-74278000D01*
X153713000Y-74173000D02*
X153713000Y-74278000D01*
X153713000Y-84323000D02*
X153713000Y-84218000D01*
X149563000Y-84323000D02*
X149563000Y-84218000D01*
X149563000Y-74173000D02*
X153713000Y-74173000D01*
X149563000Y-84323000D02*
X153713000Y-84323000D01*
X149563000Y-74278000D02*
X148188000Y-74278000D01*
X164075000Y-77740000D02*
X164075000Y-79740000D01*
X166125000Y-79740000D02*
X166125000Y-77740000D01*
X113022143Y-72842381D02*
X112688809Y-72366190D01*
X112450714Y-72842381D02*
X112450714Y-71842381D01*
X112831667Y-71842381D01*
X112926905Y-71890000D01*
X112974524Y-71937619D01*
X113022143Y-72032857D01*
X113022143Y-72175714D01*
X112974524Y-72270952D01*
X112926905Y-72318571D01*
X112831667Y-72366190D01*
X112450714Y-72366190D01*
X113355476Y-71842381D02*
X113974524Y-71842381D01*
X113641190Y-72223333D01*
X113784048Y-72223333D01*
X113879286Y-72270952D01*
X113926905Y-72318571D01*
X113974524Y-72413810D01*
X113974524Y-72651905D01*
X113926905Y-72747143D01*
X113879286Y-72794762D01*
X113784048Y-72842381D01*
X113498333Y-72842381D01*
X113403095Y-72794762D01*
X113355476Y-72747143D01*
X114926905Y-72842381D02*
X114355476Y-72842381D01*
X114641190Y-72842381D02*
X114641190Y-71842381D01*
X114545952Y-71985238D01*
X114450714Y-72080476D01*
X114355476Y-72128095D01*
X89007143Y-82277143D02*
X88959524Y-82324762D01*
X88816667Y-82372381D01*
X88721429Y-82372381D01*
X88578571Y-82324762D01*
X88483333Y-82229524D01*
X88435714Y-82134286D01*
X88388095Y-81943810D01*
X88388095Y-81800952D01*
X88435714Y-81610476D01*
X88483333Y-81515238D01*
X88578571Y-81420000D01*
X88721429Y-81372381D01*
X88816667Y-81372381D01*
X88959524Y-81420000D01*
X89007143Y-81467619D01*
X89959524Y-82372381D02*
X89388095Y-82372381D01*
X89673809Y-82372381D02*
X89673809Y-81372381D01*
X89578571Y-81515238D01*
X89483333Y-81610476D01*
X89388095Y-81658095D01*
X90864286Y-81372381D02*
X90388095Y-81372381D01*
X90340476Y-81848571D01*
X90388095Y-81800952D01*
X90483333Y-81753333D01*
X90721429Y-81753333D01*
X90816667Y-81800952D01*
X90864286Y-81848571D01*
X90911905Y-81943810D01*
X90911905Y-82181905D01*
X90864286Y-82277143D01*
X90816667Y-82324762D01*
X90721429Y-82372381D01*
X90483333Y-82372381D01*
X90388095Y-82324762D01*
X90340476Y-82277143D01*
X85717143Y-82367381D02*
X85383809Y-81891190D01*
X85145714Y-82367381D02*
X85145714Y-81367381D01*
X85526667Y-81367381D01*
X85621905Y-81415000D01*
X85669524Y-81462619D01*
X85717143Y-81557857D01*
X85717143Y-81700714D01*
X85669524Y-81795952D01*
X85621905Y-81843571D01*
X85526667Y-81891190D01*
X85145714Y-81891190D01*
X86098095Y-81462619D02*
X86145714Y-81415000D01*
X86240952Y-81367381D01*
X86479048Y-81367381D01*
X86574286Y-81415000D01*
X86621905Y-81462619D01*
X86669524Y-81557857D01*
X86669524Y-81653095D01*
X86621905Y-81795952D01*
X86050476Y-82367381D01*
X86669524Y-82367381D01*
X87050476Y-81462619D02*
X87098095Y-81415000D01*
X87193333Y-81367381D01*
X87431429Y-81367381D01*
X87526667Y-81415000D01*
X87574286Y-81462619D01*
X87621905Y-81557857D01*
X87621905Y-81653095D01*
X87574286Y-81795952D01*
X87002857Y-82367381D01*
X87621905Y-82367381D01*
X104247143Y-82277143D02*
X104199524Y-82324762D01*
X104056667Y-82372381D01*
X103961429Y-82372381D01*
X103818571Y-82324762D01*
X103723333Y-82229524D01*
X103675714Y-82134286D01*
X103628095Y-81943810D01*
X103628095Y-81800952D01*
X103675714Y-81610476D01*
X103723333Y-81515238D01*
X103818571Y-81420000D01*
X103961429Y-81372381D01*
X104056667Y-81372381D01*
X104199524Y-81420000D01*
X104247143Y-81467619D01*
X105199524Y-82372381D02*
X104628095Y-82372381D01*
X104913809Y-82372381D02*
X104913809Y-81372381D01*
X104818571Y-81515238D01*
X104723333Y-81610476D01*
X104628095Y-81658095D01*
X105532857Y-81372381D02*
X106199524Y-81372381D01*
X105770952Y-82372381D01*
X100957143Y-82367381D02*
X100623809Y-81891190D01*
X100385714Y-82367381D02*
X100385714Y-81367381D01*
X100766667Y-81367381D01*
X100861905Y-81415000D01*
X100909524Y-81462619D01*
X100957143Y-81557857D01*
X100957143Y-81700714D01*
X100909524Y-81795952D01*
X100861905Y-81843571D01*
X100766667Y-81891190D01*
X100385714Y-81891190D01*
X101909524Y-82367381D02*
X101338095Y-82367381D01*
X101623809Y-82367381D02*
X101623809Y-81367381D01*
X101528571Y-81510238D01*
X101433333Y-81605476D01*
X101338095Y-81653095D01*
X102480952Y-81795952D02*
X102385714Y-81748333D01*
X102338095Y-81700714D01*
X102290476Y-81605476D01*
X102290476Y-81557857D01*
X102338095Y-81462619D01*
X102385714Y-81415000D01*
X102480952Y-81367381D01*
X102671429Y-81367381D01*
X102766667Y-81415000D01*
X102814286Y-81462619D01*
X102861905Y-81557857D01*
X102861905Y-81605476D01*
X102814286Y-81700714D01*
X102766667Y-81748333D01*
X102671429Y-81795952D01*
X102480952Y-81795952D01*
X102385714Y-81843571D01*
X102338095Y-81891190D01*
X102290476Y-81986429D01*
X102290476Y-82176905D01*
X102338095Y-82272143D01*
X102385714Y-82319762D01*
X102480952Y-82367381D01*
X102671429Y-82367381D01*
X102766667Y-82319762D01*
X102814286Y-82272143D01*
X102861905Y-82176905D01*
X102861905Y-81986429D01*
X102814286Y-81891190D01*
X102766667Y-81843571D01*
X102671429Y-81795952D01*
X145883334Y-78462143D02*
X145835715Y-78509762D01*
X145692858Y-78557381D01*
X145597620Y-78557381D01*
X145454762Y-78509762D01*
X145359524Y-78414524D01*
X145311905Y-78319286D01*
X145264286Y-78128810D01*
X145264286Y-77985952D01*
X145311905Y-77795476D01*
X145359524Y-77700238D01*
X145454762Y-77605000D01*
X145597620Y-77557381D01*
X145692858Y-77557381D01*
X145835715Y-77605000D01*
X145883334Y-77652619D01*
X146835715Y-78557381D02*
X146264286Y-78557381D01*
X146550000Y-78557381D02*
X146550000Y-77557381D01*
X146454762Y-77700238D01*
X146359524Y-77795476D01*
X146264286Y-77843095D01*
X156821143Y-73572666D02*
X156868762Y-73620285D01*
X156916381Y-73763142D01*
X156916381Y-73858380D01*
X156868762Y-74001238D01*
X156773524Y-74096476D01*
X156678286Y-74144095D01*
X156487810Y-74191714D01*
X156344952Y-74191714D01*
X156154476Y-74144095D01*
X156059238Y-74096476D01*
X155964000Y-74001238D01*
X155916381Y-73858380D01*
X155916381Y-73763142D01*
X155964000Y-73620285D01*
X156011619Y-73572666D01*
X156011619Y-73191714D02*
X155964000Y-73144095D01*
X155916381Y-73048857D01*
X155916381Y-72810761D01*
X155964000Y-72715523D01*
X156011619Y-72667904D01*
X156106857Y-72620285D01*
X156202095Y-72620285D01*
X156344952Y-72667904D01*
X156916381Y-73239333D01*
X156916381Y-72620285D01*
X156567143Y-85256666D02*
X156614762Y-85304285D01*
X156662381Y-85447142D01*
X156662381Y-85542380D01*
X156614762Y-85685238D01*
X156519524Y-85780476D01*
X156424286Y-85828095D01*
X156233810Y-85875714D01*
X156090952Y-85875714D01*
X155900476Y-85828095D01*
X155805238Y-85780476D01*
X155710000Y-85685238D01*
X155662381Y-85542380D01*
X155662381Y-85447142D01*
X155710000Y-85304285D01*
X155757619Y-85256666D01*
X155995714Y-84399523D02*
X156662381Y-84399523D01*
X155614762Y-84637619D02*
X156329048Y-84875714D01*
X156329048Y-84256666D01*
X129373334Y-74017143D02*
X129325715Y-74064762D01*
X129182858Y-74112381D01*
X129087620Y-74112381D01*
X128944762Y-74064762D01*
X128849524Y-73969524D01*
X128801905Y-73874286D01*
X128754286Y-73683810D01*
X128754286Y-73540952D01*
X128801905Y-73350476D01*
X128849524Y-73255238D01*
X128944762Y-73160000D01*
X129087620Y-73112381D01*
X129182858Y-73112381D01*
X129325715Y-73160000D01*
X129373334Y-73207619D01*
X130278096Y-73112381D02*
X129801905Y-73112381D01*
X129754286Y-73588571D01*
X129801905Y-73540952D01*
X129897143Y-73493333D01*
X130135239Y-73493333D01*
X130230477Y-73540952D01*
X130278096Y-73588571D01*
X130325715Y-73683810D01*
X130325715Y-73921905D01*
X130278096Y-74017143D01*
X130230477Y-74064762D01*
X130135239Y-74112381D01*
X129897143Y-74112381D01*
X129801905Y-74064762D01*
X129754286Y-74017143D01*
X114133334Y-74652143D02*
X114085715Y-74699762D01*
X113942858Y-74747381D01*
X113847620Y-74747381D01*
X113704762Y-74699762D01*
X113609524Y-74604524D01*
X113561905Y-74509286D01*
X113514286Y-74318810D01*
X113514286Y-74175952D01*
X113561905Y-73985476D01*
X113609524Y-73890238D01*
X113704762Y-73795000D01*
X113847620Y-73747381D01*
X113942858Y-73747381D01*
X114085715Y-73795000D01*
X114133334Y-73842619D01*
X114990477Y-73747381D02*
X114800000Y-73747381D01*
X114704762Y-73795000D01*
X114657143Y-73842619D01*
X114561905Y-73985476D01*
X114514286Y-74175952D01*
X114514286Y-74556905D01*
X114561905Y-74652143D01*
X114609524Y-74699762D01*
X114704762Y-74747381D01*
X114895239Y-74747381D01*
X114990477Y-74699762D01*
X115038096Y-74652143D01*
X115085715Y-74556905D01*
X115085715Y-74318810D01*
X115038096Y-74223571D01*
X114990477Y-74175952D01*
X114895239Y-74128333D01*
X114704762Y-74128333D01*
X114609524Y-74175952D01*
X114561905Y-74223571D01*
X114514286Y-74318810D01*
X98893334Y-74017143D02*
X98845715Y-74064762D01*
X98702858Y-74112381D01*
X98607620Y-74112381D01*
X98464762Y-74064762D01*
X98369524Y-73969524D01*
X98321905Y-73874286D01*
X98274286Y-73683810D01*
X98274286Y-73540952D01*
X98321905Y-73350476D01*
X98369524Y-73255238D01*
X98464762Y-73160000D01*
X98607620Y-73112381D01*
X98702858Y-73112381D01*
X98845715Y-73160000D01*
X98893334Y-73207619D01*
X99226667Y-73112381D02*
X99893334Y-73112381D01*
X99464762Y-74112381D01*
X83653334Y-74017143D02*
X83605715Y-74064762D01*
X83462858Y-74112381D01*
X83367620Y-74112381D01*
X83224762Y-74064762D01*
X83129524Y-73969524D01*
X83081905Y-73874286D01*
X83034286Y-73683810D01*
X83034286Y-73540952D01*
X83081905Y-73350476D01*
X83129524Y-73255238D01*
X83224762Y-73160000D01*
X83367620Y-73112381D01*
X83462858Y-73112381D01*
X83605715Y-73160000D01*
X83653334Y-73207619D01*
X84224762Y-73540952D02*
X84129524Y-73493333D01*
X84081905Y-73445714D01*
X84034286Y-73350476D01*
X84034286Y-73302857D01*
X84081905Y-73207619D01*
X84129524Y-73160000D01*
X84224762Y-73112381D01*
X84415239Y-73112381D01*
X84510477Y-73160000D01*
X84558096Y-73207619D01*
X84605715Y-73302857D01*
X84605715Y-73350476D01*
X84558096Y-73445714D01*
X84510477Y-73493333D01*
X84415239Y-73540952D01*
X84224762Y-73540952D01*
X84129524Y-73588571D01*
X84081905Y-73636190D01*
X84034286Y-73731429D01*
X84034286Y-73921905D01*
X84081905Y-74017143D01*
X84129524Y-74064762D01*
X84224762Y-74112381D01*
X84415239Y-74112381D01*
X84510477Y-74064762D01*
X84558096Y-74017143D01*
X84605715Y-73921905D01*
X84605715Y-73731429D01*
X84558096Y-73636190D01*
X84510477Y-73588571D01*
X84415239Y-73540952D01*
X68413334Y-74017143D02*
X68365715Y-74064762D01*
X68222858Y-74112381D01*
X68127620Y-74112381D01*
X67984762Y-74064762D01*
X67889524Y-73969524D01*
X67841905Y-73874286D01*
X67794286Y-73683810D01*
X67794286Y-73540952D01*
X67841905Y-73350476D01*
X67889524Y-73255238D01*
X67984762Y-73160000D01*
X68127620Y-73112381D01*
X68222858Y-73112381D01*
X68365715Y-73160000D01*
X68413334Y-73207619D01*
X68889524Y-74112381D02*
X69080000Y-74112381D01*
X69175239Y-74064762D01*
X69222858Y-74017143D01*
X69318096Y-73874286D01*
X69365715Y-73683810D01*
X69365715Y-73302857D01*
X69318096Y-73207619D01*
X69270477Y-73160000D01*
X69175239Y-73112381D01*
X68984762Y-73112381D01*
X68889524Y-73160000D01*
X68841905Y-73207619D01*
X68794286Y-73302857D01*
X68794286Y-73540952D01*
X68841905Y-73636190D01*
X68889524Y-73683810D01*
X68984762Y-73731429D01*
X69175239Y-73731429D01*
X69270477Y-73683810D01*
X69318096Y-73636190D01*
X69365715Y-73540952D01*
X52062143Y-74017143D02*
X52014524Y-74064762D01*
X51871667Y-74112381D01*
X51776429Y-74112381D01*
X51633571Y-74064762D01*
X51538333Y-73969524D01*
X51490714Y-73874286D01*
X51443095Y-73683810D01*
X51443095Y-73540952D01*
X51490714Y-73350476D01*
X51538333Y-73255238D01*
X51633571Y-73160000D01*
X51776429Y-73112381D01*
X51871667Y-73112381D01*
X52014524Y-73160000D01*
X52062143Y-73207619D01*
X53014524Y-74112381D02*
X52443095Y-74112381D01*
X52728809Y-74112381D02*
X52728809Y-73112381D01*
X52633571Y-73255238D01*
X52538333Y-73350476D01*
X52443095Y-73398095D01*
X53633571Y-73112381D02*
X53728810Y-73112381D01*
X53824048Y-73160000D01*
X53871667Y-73207619D01*
X53919286Y-73302857D01*
X53966905Y-73493333D01*
X53966905Y-73731429D01*
X53919286Y-73921905D01*
X53871667Y-74017143D01*
X53824048Y-74064762D01*
X53728810Y-74112381D01*
X53633571Y-74112381D01*
X53538333Y-74064762D01*
X53490714Y-74017143D01*
X53443095Y-73921905D01*
X53395476Y-73731429D01*
X53395476Y-73493333D01*
X53443095Y-73302857D01*
X53490714Y-73207619D01*
X53538333Y-73160000D01*
X53633571Y-73112381D01*
X36822143Y-74017143D02*
X36774524Y-74064762D01*
X36631667Y-74112381D01*
X36536429Y-74112381D01*
X36393571Y-74064762D01*
X36298333Y-73969524D01*
X36250714Y-73874286D01*
X36203095Y-73683810D01*
X36203095Y-73540952D01*
X36250714Y-73350476D01*
X36298333Y-73255238D01*
X36393571Y-73160000D01*
X36536429Y-73112381D01*
X36631667Y-73112381D01*
X36774524Y-73160000D01*
X36822143Y-73207619D01*
X37774524Y-74112381D02*
X37203095Y-74112381D01*
X37488809Y-74112381D02*
X37488809Y-73112381D01*
X37393571Y-73255238D01*
X37298333Y-73350476D01*
X37203095Y-73398095D01*
X38726905Y-74112381D02*
X38155476Y-74112381D01*
X38441190Y-74112381D02*
X38441190Y-73112381D01*
X38345952Y-73255238D01*
X38250714Y-73350476D01*
X38155476Y-73398095D01*
X21582143Y-74017143D02*
X21534524Y-74064762D01*
X21391667Y-74112381D01*
X21296429Y-74112381D01*
X21153571Y-74064762D01*
X21058333Y-73969524D01*
X21010714Y-73874286D01*
X20963095Y-73683810D01*
X20963095Y-73540952D01*
X21010714Y-73350476D01*
X21058333Y-73255238D01*
X21153571Y-73160000D01*
X21296429Y-73112381D01*
X21391667Y-73112381D01*
X21534524Y-73160000D01*
X21582143Y-73207619D01*
X22534524Y-74112381D02*
X21963095Y-74112381D01*
X22248809Y-74112381D02*
X22248809Y-73112381D01*
X22153571Y-73255238D01*
X22058333Y-73350476D01*
X21963095Y-73398095D01*
X22915476Y-73207619D02*
X22963095Y-73160000D01*
X23058333Y-73112381D01*
X23296429Y-73112381D01*
X23391667Y-73160000D01*
X23439286Y-73207619D01*
X23486905Y-73302857D01*
X23486905Y-73398095D01*
X23439286Y-73540952D01*
X22867857Y-74112381D01*
X23486905Y-74112381D01*
X26392143Y-78112857D02*
X26439762Y-78160476D01*
X26487381Y-78303333D01*
X26487381Y-78398571D01*
X26439762Y-78541429D01*
X26344524Y-78636667D01*
X26249286Y-78684286D01*
X26058810Y-78731905D01*
X25915952Y-78731905D01*
X25725476Y-78684286D01*
X25630238Y-78636667D01*
X25535000Y-78541429D01*
X25487381Y-78398571D01*
X25487381Y-78303333D01*
X25535000Y-78160476D01*
X25582619Y-78112857D01*
X26487381Y-77160476D02*
X26487381Y-77731905D01*
X26487381Y-77446191D02*
X25487381Y-77446191D01*
X25630238Y-77541429D01*
X25725476Y-77636667D01*
X25773095Y-77731905D01*
X25487381Y-76827143D02*
X25487381Y-76208095D01*
X25868333Y-76541429D01*
X25868333Y-76398571D01*
X25915952Y-76303333D01*
X25963571Y-76255714D01*
X26058810Y-76208095D01*
X26296905Y-76208095D01*
X26392143Y-76255714D01*
X26439762Y-76303333D01*
X26487381Y-76398571D01*
X26487381Y-76684286D01*
X26439762Y-76779524D01*
X26392143Y-76827143D01*
X28047143Y-82277143D02*
X27999524Y-82324762D01*
X27856667Y-82372381D01*
X27761429Y-82372381D01*
X27618571Y-82324762D01*
X27523333Y-82229524D01*
X27475714Y-82134286D01*
X27428095Y-81943810D01*
X27428095Y-81800952D01*
X27475714Y-81610476D01*
X27523333Y-81515238D01*
X27618571Y-81420000D01*
X27761429Y-81372381D01*
X27856667Y-81372381D01*
X27999524Y-81420000D01*
X28047143Y-81467619D01*
X28999524Y-82372381D02*
X28428095Y-82372381D01*
X28713809Y-82372381D02*
X28713809Y-81372381D01*
X28618571Y-81515238D01*
X28523333Y-81610476D01*
X28428095Y-81658095D01*
X29856667Y-81705714D02*
X29856667Y-82372381D01*
X29618571Y-81324762D02*
X29380476Y-82039048D01*
X29999524Y-82039048D01*
X43287143Y-82277143D02*
X43239524Y-82324762D01*
X43096667Y-82372381D01*
X43001429Y-82372381D01*
X42858571Y-82324762D01*
X42763333Y-82229524D01*
X42715714Y-82134286D01*
X42668095Y-81943810D01*
X42668095Y-81800952D01*
X42715714Y-81610476D01*
X42763333Y-81515238D01*
X42858571Y-81420000D01*
X43001429Y-81372381D01*
X43096667Y-81372381D01*
X43239524Y-81420000D01*
X43287143Y-81467619D01*
X44239524Y-82372381D02*
X43668095Y-82372381D01*
X43953809Y-82372381D02*
X43953809Y-81372381D01*
X43858571Y-81515238D01*
X43763333Y-81610476D01*
X43668095Y-81658095D01*
X45096667Y-81372381D02*
X44906190Y-81372381D01*
X44810952Y-81420000D01*
X44763333Y-81467619D01*
X44668095Y-81610476D01*
X44620476Y-81800952D01*
X44620476Y-82181905D01*
X44668095Y-82277143D01*
X44715714Y-82324762D01*
X44810952Y-82372381D01*
X45001429Y-82372381D01*
X45096667Y-82324762D01*
X45144286Y-82277143D01*
X45191905Y-82181905D01*
X45191905Y-81943810D01*
X45144286Y-81848571D01*
X45096667Y-81800952D01*
X45001429Y-81753333D01*
X44810952Y-81753333D01*
X44715714Y-81800952D01*
X44668095Y-81848571D01*
X44620476Y-81943810D01*
X58527143Y-82277143D02*
X58479524Y-82324762D01*
X58336667Y-82372381D01*
X58241429Y-82372381D01*
X58098571Y-82324762D01*
X58003333Y-82229524D01*
X57955714Y-82134286D01*
X57908095Y-81943810D01*
X57908095Y-81800952D01*
X57955714Y-81610476D01*
X58003333Y-81515238D01*
X58098571Y-81420000D01*
X58241429Y-81372381D01*
X58336667Y-81372381D01*
X58479524Y-81420000D01*
X58527143Y-81467619D01*
X59479524Y-82372381D02*
X58908095Y-82372381D01*
X59193809Y-82372381D02*
X59193809Y-81372381D01*
X59098571Y-81515238D01*
X59003333Y-81610476D01*
X58908095Y-81658095D01*
X60050952Y-81800952D02*
X59955714Y-81753333D01*
X59908095Y-81705714D01*
X59860476Y-81610476D01*
X59860476Y-81562857D01*
X59908095Y-81467619D01*
X59955714Y-81420000D01*
X60050952Y-81372381D01*
X60241429Y-81372381D01*
X60336667Y-81420000D01*
X60384286Y-81467619D01*
X60431905Y-81562857D01*
X60431905Y-81610476D01*
X60384286Y-81705714D01*
X60336667Y-81753333D01*
X60241429Y-81800952D01*
X60050952Y-81800952D01*
X59955714Y-81848571D01*
X59908095Y-81896190D01*
X59860476Y-81991429D01*
X59860476Y-82181905D01*
X59908095Y-82277143D01*
X59955714Y-82324762D01*
X60050952Y-82372381D01*
X60241429Y-82372381D01*
X60336667Y-82324762D01*
X60384286Y-82277143D01*
X60431905Y-82181905D01*
X60431905Y-81991429D01*
X60384286Y-81896190D01*
X60336667Y-81848571D01*
X60241429Y-81800952D01*
X119487143Y-82277143D02*
X119439524Y-82324762D01*
X119296667Y-82372381D01*
X119201429Y-82372381D01*
X119058571Y-82324762D01*
X118963333Y-82229524D01*
X118915714Y-82134286D01*
X118868095Y-81943810D01*
X118868095Y-81800952D01*
X118915714Y-81610476D01*
X118963333Y-81515238D01*
X119058571Y-81420000D01*
X119201429Y-81372381D01*
X119296667Y-81372381D01*
X119439524Y-81420000D01*
X119487143Y-81467619D01*
X120439524Y-82372381D02*
X119868095Y-82372381D01*
X120153809Y-82372381D02*
X120153809Y-81372381D01*
X120058571Y-81515238D01*
X119963333Y-81610476D01*
X119868095Y-81658095D01*
X120915714Y-82372381D02*
X121106190Y-82372381D01*
X121201429Y-82324762D01*
X121249048Y-82277143D01*
X121344286Y-82134286D01*
X121391905Y-81943810D01*
X121391905Y-81562857D01*
X121344286Y-81467619D01*
X121296667Y-81420000D01*
X121201429Y-81372381D01*
X121010952Y-81372381D01*
X120915714Y-81420000D01*
X120868095Y-81467619D01*
X120820476Y-81562857D01*
X120820476Y-81800952D01*
X120868095Y-81896190D01*
X120915714Y-81943810D01*
X121010952Y-81991429D01*
X121201429Y-81991429D01*
X121296667Y-81943810D01*
X121344286Y-81896190D01*
X121391905Y-81800952D01*
X73767143Y-82277143D02*
X73719524Y-82324762D01*
X73576667Y-82372381D01*
X73481429Y-82372381D01*
X73338571Y-82324762D01*
X73243333Y-82229524D01*
X73195714Y-82134286D01*
X73148095Y-81943810D01*
X73148095Y-81800952D01*
X73195714Y-81610476D01*
X73243333Y-81515238D01*
X73338571Y-81420000D01*
X73481429Y-81372381D01*
X73576667Y-81372381D01*
X73719524Y-81420000D01*
X73767143Y-81467619D01*
X74148095Y-81467619D02*
X74195714Y-81420000D01*
X74290952Y-81372381D01*
X74529048Y-81372381D01*
X74624286Y-81420000D01*
X74671905Y-81467619D01*
X74719524Y-81562857D01*
X74719524Y-81658095D01*
X74671905Y-81800952D01*
X74100476Y-82372381D01*
X74719524Y-82372381D01*
X75338571Y-81372381D02*
X75433810Y-81372381D01*
X75529048Y-81420000D01*
X75576667Y-81467619D01*
X75624286Y-81562857D01*
X75671905Y-81753333D01*
X75671905Y-81991429D01*
X75624286Y-82181905D01*
X75576667Y-82277143D01*
X75529048Y-82324762D01*
X75433810Y-82372381D01*
X75338571Y-82372381D01*
X75243333Y-82324762D01*
X75195714Y-82277143D01*
X75148095Y-82181905D01*
X75100476Y-81991429D01*
X75100476Y-81753333D01*
X75148095Y-81562857D01*
X75195714Y-81467619D01*
X75243333Y-81420000D01*
X75338571Y-81372381D01*
X134727143Y-82277143D02*
X134679524Y-82324762D01*
X134536667Y-82372381D01*
X134441429Y-82372381D01*
X134298571Y-82324762D01*
X134203333Y-82229524D01*
X134155714Y-82134286D01*
X134108095Y-81943810D01*
X134108095Y-81800952D01*
X134155714Y-81610476D01*
X134203333Y-81515238D01*
X134298571Y-81420000D01*
X134441429Y-81372381D01*
X134536667Y-81372381D01*
X134679524Y-81420000D01*
X134727143Y-81467619D01*
X135108095Y-81467619D02*
X135155714Y-81420000D01*
X135250952Y-81372381D01*
X135489048Y-81372381D01*
X135584286Y-81420000D01*
X135631905Y-81467619D01*
X135679524Y-81562857D01*
X135679524Y-81658095D01*
X135631905Y-81800952D01*
X135060476Y-82372381D01*
X135679524Y-82372381D01*
X136631905Y-82372381D02*
X136060476Y-82372381D01*
X136346190Y-82372381D02*
X136346190Y-81372381D01*
X136250952Y-81515238D01*
X136155714Y-81610476D01*
X136060476Y-81658095D01*
D13*
X162190953Y-85062190D02*
X162190953Y-84562190D01*
X162310000Y-84562190D01*
X162381429Y-84586000D01*
X162429048Y-84633619D01*
X162452857Y-84681238D01*
X162476667Y-84776476D01*
X162476667Y-84847905D01*
X162452857Y-84943143D01*
X162429048Y-84990762D01*
X162381429Y-85038381D01*
X162310000Y-85062190D01*
X162190953Y-85062190D01*
X162952857Y-85062190D02*
X162667143Y-85062190D01*
X162810000Y-85062190D02*
X162810000Y-84562190D01*
X162762381Y-84633619D01*
X162714762Y-84681238D01*
X162667143Y-84705048D01*
D12*
X158011905Y-67762381D02*
X158011905Y-66762381D01*
X158250000Y-66762381D01*
X158392858Y-66810000D01*
X158488096Y-66905238D01*
X158535715Y-67000476D01*
X158583334Y-67190952D01*
X158583334Y-67333810D01*
X158535715Y-67524286D01*
X158488096Y-67619524D01*
X158392858Y-67714762D01*
X158250000Y-67762381D01*
X158011905Y-67762381D01*
X158964286Y-66857619D02*
X159011905Y-66810000D01*
X159107143Y-66762381D01*
X159345239Y-66762381D01*
X159440477Y-66810000D01*
X159488096Y-66857619D01*
X159535715Y-66952857D01*
X159535715Y-67048095D01*
X159488096Y-67190952D01*
X158916667Y-67762381D01*
X159535715Y-67762381D01*
X159281905Y-81097381D02*
X159281905Y-80097381D01*
X159520000Y-80097381D01*
X159662858Y-80145000D01*
X159758096Y-80240238D01*
X159805715Y-80335476D01*
X159853334Y-80525952D01*
X159853334Y-80668810D01*
X159805715Y-80859286D01*
X159758096Y-80954524D01*
X159662858Y-81049762D01*
X159520000Y-81097381D01*
X159281905Y-81097381D01*
X160186667Y-80097381D02*
X160805715Y-80097381D01*
X160472381Y-80478333D01*
X160615239Y-80478333D01*
X160710477Y-80525952D01*
X160758096Y-80573571D01*
X160805715Y-80668810D01*
X160805715Y-80906905D01*
X160758096Y-81002143D01*
X160710477Y-81049762D01*
X160615239Y-81097381D01*
X160329524Y-81097381D01*
X160234286Y-81049762D01*
X160186667Y-81002143D01*
X159837381Y-71858095D02*
X158837381Y-71858095D01*
X158837381Y-71620000D01*
X158885000Y-71477142D01*
X158980238Y-71381904D01*
X159075476Y-71334285D01*
X159265952Y-71286666D01*
X159408810Y-71286666D01*
X159599286Y-71334285D01*
X159694524Y-71381904D01*
X159789762Y-71477142D01*
X159837381Y-71620000D01*
X159837381Y-71858095D01*
X159170714Y-70429523D02*
X159837381Y-70429523D01*
X158789762Y-70667619D02*
X159504048Y-70905714D01*
X159504048Y-70286666D01*
X158011905Y-76017381D02*
X158011905Y-75017381D01*
X158250000Y-75017381D01*
X158392858Y-75065000D01*
X158488096Y-75160238D01*
X158535715Y-75255476D01*
X158583334Y-75445952D01*
X158583334Y-75588810D01*
X158535715Y-75779286D01*
X158488096Y-75874524D01*
X158392858Y-75969762D01*
X158250000Y-76017381D01*
X158011905Y-76017381D01*
X159488096Y-75017381D02*
X159011905Y-75017381D01*
X158964286Y-75493571D01*
X159011905Y-75445952D01*
X159107143Y-75398333D01*
X159345239Y-75398333D01*
X159440477Y-75445952D01*
X159488096Y-75493571D01*
X159535715Y-75588810D01*
X159535715Y-75826905D01*
X159488096Y-75922143D01*
X159440477Y-75969762D01*
X159345239Y-76017381D01*
X159107143Y-76017381D01*
X159011905Y-75969762D01*
X158964286Y-75922143D01*
X156662381Y-87606095D02*
X155662381Y-87606095D01*
X155662381Y-87368000D01*
X155710000Y-87225142D01*
X155805238Y-87129904D01*
X155900476Y-87082285D01*
X156090952Y-87034666D01*
X156233810Y-87034666D01*
X156424286Y-87082285D01*
X156519524Y-87129904D01*
X156614762Y-87225142D01*
X156662381Y-87368000D01*
X156662381Y-87606095D01*
X155662381Y-86177523D02*
X155662381Y-86368000D01*
X155710000Y-86463238D01*
X155757619Y-86510857D01*
X155900476Y-86606095D01*
X156090952Y-86653714D01*
X156471905Y-86653714D01*
X156567143Y-86606095D01*
X156614762Y-86558476D01*
X156662381Y-86463238D01*
X156662381Y-86272761D01*
X156614762Y-86177523D01*
X156567143Y-86129904D01*
X156471905Y-86082285D01*
X156233810Y-86082285D01*
X156138571Y-86129904D01*
X156090952Y-86177523D01*
X156043333Y-86272761D01*
X156043333Y-86463238D01*
X156090952Y-86558476D01*
X156138571Y-86606095D01*
X156233810Y-86653714D01*
X27201905Y-70937381D02*
X27201905Y-69937381D01*
X27440000Y-69937381D01*
X27582858Y-69985000D01*
X27678096Y-70080238D01*
X27725715Y-70175476D01*
X27773334Y-70365952D01*
X27773334Y-70508810D01*
X27725715Y-70699286D01*
X27678096Y-70794524D01*
X27582858Y-70889762D01*
X27440000Y-70937381D01*
X27201905Y-70937381D01*
X28106667Y-69937381D02*
X28773334Y-69937381D01*
X28344762Y-70937381D01*
X42441905Y-70556381D02*
X42441905Y-69556381D01*
X42680000Y-69556381D01*
X42822858Y-69604000D01*
X42918096Y-69699238D01*
X42965715Y-69794476D01*
X43013334Y-69984952D01*
X43013334Y-70127810D01*
X42965715Y-70318286D01*
X42918096Y-70413524D01*
X42822858Y-70508762D01*
X42680000Y-70556381D01*
X42441905Y-70556381D01*
X43584762Y-69984952D02*
X43489524Y-69937333D01*
X43441905Y-69889714D01*
X43394286Y-69794476D01*
X43394286Y-69746857D01*
X43441905Y-69651619D01*
X43489524Y-69604000D01*
X43584762Y-69556381D01*
X43775239Y-69556381D01*
X43870477Y-69604000D01*
X43918096Y-69651619D01*
X43965715Y-69746857D01*
X43965715Y-69794476D01*
X43918096Y-69889714D01*
X43870477Y-69937333D01*
X43775239Y-69984952D01*
X43584762Y-69984952D01*
X43489524Y-70032571D01*
X43441905Y-70080190D01*
X43394286Y-70175429D01*
X43394286Y-70365905D01*
X43441905Y-70461143D01*
X43489524Y-70508762D01*
X43584762Y-70556381D01*
X43775239Y-70556381D01*
X43870477Y-70508762D01*
X43918096Y-70461143D01*
X43965715Y-70365905D01*
X43965715Y-70175429D01*
X43918096Y-70080190D01*
X43870477Y-70032571D01*
X43775239Y-69984952D01*
X57681905Y-70556381D02*
X57681905Y-69556381D01*
X57920000Y-69556381D01*
X58062858Y-69604000D01*
X58158096Y-69699238D01*
X58205715Y-69794476D01*
X58253334Y-69984952D01*
X58253334Y-70127810D01*
X58205715Y-70318286D01*
X58158096Y-70413524D01*
X58062858Y-70508762D01*
X57920000Y-70556381D01*
X57681905Y-70556381D01*
X58729524Y-70556381D02*
X58920000Y-70556381D01*
X59015239Y-70508762D01*
X59062858Y-70461143D01*
X59158096Y-70318286D01*
X59205715Y-70127810D01*
X59205715Y-69746857D01*
X59158096Y-69651619D01*
X59110477Y-69604000D01*
X59015239Y-69556381D01*
X58824762Y-69556381D01*
X58729524Y-69604000D01*
X58681905Y-69651619D01*
X58634286Y-69746857D01*
X58634286Y-69984952D01*
X58681905Y-70080190D01*
X58729524Y-70127810D01*
X58824762Y-70175429D01*
X59015239Y-70175429D01*
X59110477Y-70127810D01*
X59158096Y-70080190D01*
X59205715Y-69984952D01*
X72445714Y-70556381D02*
X72445714Y-69556381D01*
X72683809Y-69556381D01*
X72826667Y-69604000D01*
X72921905Y-69699238D01*
X72969524Y-69794476D01*
X73017143Y-69984952D01*
X73017143Y-70127810D01*
X72969524Y-70318286D01*
X72921905Y-70413524D01*
X72826667Y-70508762D01*
X72683809Y-70556381D01*
X72445714Y-70556381D01*
X73969524Y-70556381D02*
X73398095Y-70556381D01*
X73683809Y-70556381D02*
X73683809Y-69556381D01*
X73588571Y-69699238D01*
X73493333Y-69794476D01*
X73398095Y-69842095D01*
X74588571Y-69556381D02*
X74683810Y-69556381D01*
X74779048Y-69604000D01*
X74826667Y-69651619D01*
X74874286Y-69746857D01*
X74921905Y-69937333D01*
X74921905Y-70175429D01*
X74874286Y-70365905D01*
X74826667Y-70461143D01*
X74779048Y-70508762D01*
X74683810Y-70556381D01*
X74588571Y-70556381D01*
X74493333Y-70508762D01*
X74445714Y-70461143D01*
X74398095Y-70365905D01*
X74350476Y-70175429D01*
X74350476Y-69937333D01*
X74398095Y-69746857D01*
X74445714Y-69651619D01*
X74493333Y-69604000D01*
X74588571Y-69556381D01*
X87685714Y-70556381D02*
X87685714Y-69556381D01*
X87923809Y-69556381D01*
X88066667Y-69604000D01*
X88161905Y-69699238D01*
X88209524Y-69794476D01*
X88257143Y-69984952D01*
X88257143Y-70127810D01*
X88209524Y-70318286D01*
X88161905Y-70413524D01*
X88066667Y-70508762D01*
X87923809Y-70556381D01*
X87685714Y-70556381D01*
X89209524Y-70556381D02*
X88638095Y-70556381D01*
X88923809Y-70556381D02*
X88923809Y-69556381D01*
X88828571Y-69699238D01*
X88733333Y-69794476D01*
X88638095Y-69842095D01*
X90161905Y-70556381D02*
X89590476Y-70556381D01*
X89876190Y-70556381D02*
X89876190Y-69556381D01*
X89780952Y-69699238D01*
X89685714Y-69794476D01*
X89590476Y-69842095D01*
X102925714Y-70556381D02*
X102925714Y-69556381D01*
X103163809Y-69556381D01*
X103306667Y-69604000D01*
X103401905Y-69699238D01*
X103449524Y-69794476D01*
X103497143Y-69984952D01*
X103497143Y-70127810D01*
X103449524Y-70318286D01*
X103401905Y-70413524D01*
X103306667Y-70508762D01*
X103163809Y-70556381D01*
X102925714Y-70556381D01*
X104449524Y-70556381D02*
X103878095Y-70556381D01*
X104163809Y-70556381D02*
X104163809Y-69556381D01*
X104068571Y-69699238D01*
X103973333Y-69794476D01*
X103878095Y-69842095D01*
X104830476Y-69651619D02*
X104878095Y-69604000D01*
X104973333Y-69556381D01*
X105211429Y-69556381D01*
X105306667Y-69604000D01*
X105354286Y-69651619D01*
X105401905Y-69746857D01*
X105401905Y-69842095D01*
X105354286Y-69984952D01*
X104782857Y-70556381D01*
X105401905Y-70556381D01*
X118165714Y-71064381D02*
X118165714Y-70064381D01*
X118403809Y-70064381D01*
X118546667Y-70112000D01*
X118641905Y-70207238D01*
X118689524Y-70302476D01*
X118737143Y-70492952D01*
X118737143Y-70635810D01*
X118689524Y-70826286D01*
X118641905Y-70921524D01*
X118546667Y-71016762D01*
X118403809Y-71064381D01*
X118165714Y-71064381D01*
X119689524Y-71064381D02*
X119118095Y-71064381D01*
X119403809Y-71064381D02*
X119403809Y-70064381D01*
X119308571Y-70207238D01*
X119213333Y-70302476D01*
X119118095Y-70350095D01*
X120022857Y-70064381D02*
X120641905Y-70064381D01*
X120308571Y-70445333D01*
X120451429Y-70445333D01*
X120546667Y-70492952D01*
X120594286Y-70540571D01*
X120641905Y-70635810D01*
X120641905Y-70873905D01*
X120594286Y-70969143D01*
X120546667Y-71016762D01*
X120451429Y-71064381D01*
X120165714Y-71064381D01*
X120070476Y-71016762D01*
X120022857Y-70969143D01*
X133405714Y-70556381D02*
X133405714Y-69556381D01*
X133643809Y-69556381D01*
X133786667Y-69604000D01*
X133881905Y-69699238D01*
X133929524Y-69794476D01*
X133977143Y-69984952D01*
X133977143Y-70127810D01*
X133929524Y-70318286D01*
X133881905Y-70413524D01*
X133786667Y-70508762D01*
X133643809Y-70556381D01*
X133405714Y-70556381D01*
X134929524Y-70556381D02*
X134358095Y-70556381D01*
X134643809Y-70556381D02*
X134643809Y-69556381D01*
X134548571Y-69699238D01*
X134453333Y-69794476D01*
X134358095Y-69842095D01*
X135786667Y-69889714D02*
X135786667Y-70556381D01*
X135548571Y-69508762D02*
X135310476Y-70223048D01*
X135929524Y-70223048D01*
X33075714Y-73477381D02*
X33075714Y-72477381D01*
X33313809Y-72477381D01*
X33456667Y-72525000D01*
X33551905Y-72620238D01*
X33599524Y-72715476D01*
X33647143Y-72905952D01*
X33647143Y-73048810D01*
X33599524Y-73239286D01*
X33551905Y-73334524D01*
X33456667Y-73429762D01*
X33313809Y-73477381D01*
X33075714Y-73477381D01*
X34599524Y-73477381D02*
X34028095Y-73477381D01*
X34313809Y-73477381D02*
X34313809Y-72477381D01*
X34218571Y-72620238D01*
X34123333Y-72715476D01*
X34028095Y-72763095D01*
X35504286Y-72477381D02*
X35028095Y-72477381D01*
X34980476Y-72953571D01*
X35028095Y-72905952D01*
X35123333Y-72858333D01*
X35361429Y-72858333D01*
X35456667Y-72905952D01*
X35504286Y-72953571D01*
X35551905Y-73048810D01*
X35551905Y-73286905D01*
X35504286Y-73382143D01*
X35456667Y-73429762D01*
X35361429Y-73477381D01*
X35123333Y-73477381D01*
X35028095Y-73429762D01*
X34980476Y-73382143D01*
X36885714Y-69540381D02*
X36885714Y-68540381D01*
X37123809Y-68540381D01*
X37266667Y-68588000D01*
X37361905Y-68683238D01*
X37409524Y-68778476D01*
X37457143Y-68968952D01*
X37457143Y-69111810D01*
X37409524Y-69302286D01*
X37361905Y-69397524D01*
X37266667Y-69492762D01*
X37123809Y-69540381D01*
X36885714Y-69540381D01*
X38409524Y-69540381D02*
X37838095Y-69540381D01*
X38123809Y-69540381D02*
X38123809Y-68540381D01*
X38028571Y-68683238D01*
X37933333Y-68778476D01*
X37838095Y-68826095D01*
X39266667Y-68540381D02*
X39076190Y-68540381D01*
X38980952Y-68588000D01*
X38933333Y-68635619D01*
X38838095Y-68778476D01*
X38790476Y-68968952D01*
X38790476Y-69349905D01*
X38838095Y-69445143D01*
X38885714Y-69492762D01*
X38980952Y-69540381D01*
X39171429Y-69540381D01*
X39266667Y-69492762D01*
X39314286Y-69445143D01*
X39361905Y-69349905D01*
X39361905Y-69111810D01*
X39314286Y-69016571D01*
X39266667Y-68968952D01*
X39171429Y-68921333D01*
X38980952Y-68921333D01*
X38885714Y-68968952D01*
X38838095Y-69016571D01*
X38790476Y-69111810D01*
X66857714Y-69032381D02*
X66857714Y-68032381D01*
X67095809Y-68032381D01*
X67238667Y-68080000D01*
X67333905Y-68175238D01*
X67381524Y-68270476D01*
X67429143Y-68460952D01*
X67429143Y-68603810D01*
X67381524Y-68794286D01*
X67333905Y-68889524D01*
X67238667Y-68984762D01*
X67095809Y-69032381D01*
X66857714Y-69032381D01*
X68381524Y-69032381D02*
X67810095Y-69032381D01*
X68095809Y-69032381D02*
X68095809Y-68032381D01*
X68000571Y-68175238D01*
X67905333Y-68270476D01*
X67810095Y-68318095D01*
X68714857Y-68032381D02*
X69381524Y-68032381D01*
X68952952Y-69032381D01*
X97337714Y-69032381D02*
X97337714Y-68032381D01*
X97575809Y-68032381D01*
X97718667Y-68080000D01*
X97813905Y-68175238D01*
X97861524Y-68270476D01*
X97909143Y-68460952D01*
X97909143Y-68603810D01*
X97861524Y-68794286D01*
X97813905Y-68889524D01*
X97718667Y-68984762D01*
X97575809Y-69032381D01*
X97337714Y-69032381D01*
X98861524Y-69032381D02*
X98290095Y-69032381D01*
X98575809Y-69032381D02*
X98575809Y-68032381D01*
X98480571Y-68175238D01*
X98385333Y-68270476D01*
X98290095Y-68318095D01*
X99432952Y-68460952D02*
X99337714Y-68413333D01*
X99290095Y-68365714D01*
X99242476Y-68270476D01*
X99242476Y-68222857D01*
X99290095Y-68127619D01*
X99337714Y-68080000D01*
X99432952Y-68032381D01*
X99623429Y-68032381D01*
X99718667Y-68080000D01*
X99766286Y-68127619D01*
X99813905Y-68222857D01*
X99813905Y-68270476D01*
X99766286Y-68365714D01*
X99718667Y-68413333D01*
X99623429Y-68460952D01*
X99432952Y-68460952D01*
X99337714Y-68508571D01*
X99290095Y-68556190D01*
X99242476Y-68651429D01*
X99242476Y-68841905D01*
X99290095Y-68937143D01*
X99337714Y-68984762D01*
X99432952Y-69032381D01*
X99623429Y-69032381D01*
X99718667Y-68984762D01*
X99766286Y-68937143D01*
X99813905Y-68841905D01*
X99813905Y-68651429D01*
X99766286Y-68556190D01*
X99718667Y-68508571D01*
X99623429Y-68460952D01*
X127817714Y-69032381D02*
X127817714Y-68032381D01*
X128055809Y-68032381D01*
X128198667Y-68080000D01*
X128293905Y-68175238D01*
X128341524Y-68270476D01*
X128389143Y-68460952D01*
X128389143Y-68603810D01*
X128341524Y-68794286D01*
X128293905Y-68889524D01*
X128198667Y-68984762D01*
X128055809Y-69032381D01*
X127817714Y-69032381D01*
X129341524Y-69032381D02*
X128770095Y-69032381D01*
X129055809Y-69032381D02*
X129055809Y-68032381D01*
X128960571Y-68175238D01*
X128865333Y-68270476D01*
X128770095Y-68318095D01*
X129817714Y-69032381D02*
X130008190Y-69032381D01*
X130103429Y-68984762D01*
X130151048Y-68937143D01*
X130246286Y-68794286D01*
X130293905Y-68603810D01*
X130293905Y-68222857D01*
X130246286Y-68127619D01*
X130198667Y-68080000D01*
X130103429Y-68032381D01*
X129912952Y-68032381D01*
X129817714Y-68080000D01*
X129770095Y-68127619D01*
X129722476Y-68222857D01*
X129722476Y-68460952D01*
X129770095Y-68556190D01*
X129817714Y-68603810D01*
X129912952Y-68651429D01*
X130103429Y-68651429D01*
X130198667Y-68603810D01*
X130246286Y-68556190D01*
X130293905Y-68460952D01*
X22280714Y-70302381D02*
X22280714Y-69302381D01*
X22518809Y-69302381D01*
X22661667Y-69350000D01*
X22756905Y-69445238D01*
X22804524Y-69540476D01*
X22852143Y-69730952D01*
X22852143Y-69873810D01*
X22804524Y-70064286D01*
X22756905Y-70159524D01*
X22661667Y-70254762D01*
X22518809Y-70302381D01*
X22280714Y-70302381D01*
X23233095Y-69397619D02*
X23280714Y-69350000D01*
X23375952Y-69302381D01*
X23614048Y-69302381D01*
X23709286Y-69350000D01*
X23756905Y-69397619D01*
X23804524Y-69492857D01*
X23804524Y-69588095D01*
X23756905Y-69730952D01*
X23185476Y-70302381D01*
X23804524Y-70302381D01*
X24423571Y-69302381D02*
X24518810Y-69302381D01*
X24614048Y-69350000D01*
X24661667Y-69397619D01*
X24709286Y-69492857D01*
X24756905Y-69683333D01*
X24756905Y-69921429D01*
X24709286Y-70111905D01*
X24661667Y-70207143D01*
X24614048Y-70254762D01*
X24518810Y-70302381D01*
X24423571Y-70302381D01*
X24328333Y-70254762D01*
X24280714Y-70207143D01*
X24233095Y-70111905D01*
X24185476Y-69921429D01*
X24185476Y-69683333D01*
X24233095Y-69492857D01*
X24280714Y-69397619D01*
X24328333Y-69350000D01*
X24423571Y-69302381D01*
X52125714Y-69540381D02*
X52125714Y-68540381D01*
X52363809Y-68540381D01*
X52506667Y-68588000D01*
X52601905Y-68683238D01*
X52649524Y-68778476D01*
X52697143Y-68968952D01*
X52697143Y-69111810D01*
X52649524Y-69302286D01*
X52601905Y-69397524D01*
X52506667Y-69492762D01*
X52363809Y-69540381D01*
X52125714Y-69540381D01*
X53078095Y-68635619D02*
X53125714Y-68588000D01*
X53220952Y-68540381D01*
X53459048Y-68540381D01*
X53554286Y-68588000D01*
X53601905Y-68635619D01*
X53649524Y-68730857D01*
X53649524Y-68826095D01*
X53601905Y-68968952D01*
X53030476Y-69540381D01*
X53649524Y-69540381D01*
X54601905Y-69540381D02*
X54030476Y-69540381D01*
X54316190Y-69540381D02*
X54316190Y-68540381D01*
X54220952Y-68683238D01*
X54125714Y-68778476D01*
X54030476Y-68826095D01*
X82097714Y-69032381D02*
X82097714Y-68032381D01*
X82335809Y-68032381D01*
X82478667Y-68080000D01*
X82573905Y-68175238D01*
X82621524Y-68270476D01*
X82669143Y-68460952D01*
X82669143Y-68603810D01*
X82621524Y-68794286D01*
X82573905Y-68889524D01*
X82478667Y-68984762D01*
X82335809Y-69032381D01*
X82097714Y-69032381D01*
X83050095Y-68127619D02*
X83097714Y-68080000D01*
X83192952Y-68032381D01*
X83431048Y-68032381D01*
X83526286Y-68080000D01*
X83573905Y-68127619D01*
X83621524Y-68222857D01*
X83621524Y-68318095D01*
X83573905Y-68460952D01*
X83002476Y-69032381D01*
X83621524Y-69032381D01*
X84002476Y-68127619D02*
X84050095Y-68080000D01*
X84145333Y-68032381D01*
X84383429Y-68032381D01*
X84478667Y-68080000D01*
X84526286Y-68127619D01*
X84573905Y-68222857D01*
X84573905Y-68318095D01*
X84526286Y-68460952D01*
X83954857Y-69032381D01*
X84573905Y-69032381D01*
X112577714Y-69032381D02*
X112577714Y-68032381D01*
X112815809Y-68032381D01*
X112958667Y-68080000D01*
X113053905Y-68175238D01*
X113101524Y-68270476D01*
X113149143Y-68460952D01*
X113149143Y-68603810D01*
X113101524Y-68794286D01*
X113053905Y-68889524D01*
X112958667Y-68984762D01*
X112815809Y-69032381D01*
X112577714Y-69032381D01*
X113530095Y-68127619D02*
X113577714Y-68080000D01*
X113672952Y-68032381D01*
X113911048Y-68032381D01*
X114006286Y-68080000D01*
X114053905Y-68127619D01*
X114101524Y-68222857D01*
X114101524Y-68318095D01*
X114053905Y-68460952D01*
X113482476Y-69032381D01*
X114101524Y-69032381D01*
X114434857Y-68032381D02*
X115053905Y-68032381D01*
X114720571Y-68413333D01*
X114863429Y-68413333D01*
X114958667Y-68460952D01*
X115006286Y-68508571D01*
X115053905Y-68603810D01*
X115053905Y-68841905D01*
X115006286Y-68937143D01*
X114958667Y-68984762D01*
X114863429Y-69032381D01*
X114577714Y-69032381D01*
X114482476Y-68984762D01*
X114434857Y-68937143D01*
X159805619Y-77057238D02*
X159758000Y-77152476D01*
X159662762Y-77247714D01*
X159519905Y-77390571D01*
X159472286Y-77485810D01*
X159472286Y-77581048D01*
X159710381Y-77533429D02*
X159662762Y-77628667D01*
X159567524Y-77723905D01*
X159377048Y-77771524D01*
X159043714Y-77771524D01*
X158853238Y-77723905D01*
X158758000Y-77628667D01*
X158710381Y-77533429D01*
X158710381Y-77342952D01*
X158758000Y-77247714D01*
X158853238Y-77152476D01*
X159043714Y-77104857D01*
X159377048Y-77104857D01*
X159567524Y-77152476D01*
X159662762Y-77247714D01*
X159710381Y-77342952D01*
X159710381Y-77533429D01*
X159710381Y-76152476D02*
X159710381Y-76723905D01*
X159710381Y-76438191D02*
X158710381Y-76438191D01*
X158853238Y-76533429D01*
X158948476Y-76628667D01*
X158996095Y-76723905D01*
X159218334Y-74112381D02*
X158885000Y-73636190D01*
X158646905Y-74112381D02*
X158646905Y-73112381D01*
X159027858Y-73112381D01*
X159123096Y-73160000D01*
X159170715Y-73207619D01*
X159218334Y-73302857D01*
X159218334Y-73445714D01*
X159170715Y-73540952D01*
X159123096Y-73588571D01*
X159027858Y-73636190D01*
X158646905Y-73636190D01*
X160170715Y-74112381D02*
X159599286Y-74112381D01*
X159885000Y-74112381D02*
X159885000Y-73112381D01*
X159789762Y-73255238D01*
X159694524Y-73350476D01*
X159599286Y-73398095D01*
X156667381Y-78906666D02*
X156191190Y-79240000D01*
X156667381Y-79478095D02*
X155667381Y-79478095D01*
X155667381Y-79097142D01*
X155715000Y-79001904D01*
X155762619Y-78954285D01*
X155857857Y-78906666D01*
X156000714Y-78906666D01*
X156095952Y-78954285D01*
X156143571Y-79001904D01*
X156191190Y-79097142D01*
X156191190Y-79478095D01*
X155762619Y-78525714D02*
X155715000Y-78478095D01*
X155667381Y-78382857D01*
X155667381Y-78144761D01*
X155715000Y-78049523D01*
X155762619Y-78001904D01*
X155857857Y-77954285D01*
X155953095Y-77954285D01*
X156095952Y-78001904D01*
X156667381Y-78573333D01*
X156667381Y-77954285D01*
X158583334Y-69032381D02*
X158250000Y-68556190D01*
X158011905Y-69032381D02*
X158011905Y-68032381D01*
X158392858Y-68032381D01*
X158488096Y-68080000D01*
X158535715Y-68127619D01*
X158583334Y-68222857D01*
X158583334Y-68365714D01*
X158535715Y-68460952D01*
X158488096Y-68508571D01*
X158392858Y-68556190D01*
X158011905Y-68556190D01*
X158916667Y-68032381D02*
X159535715Y-68032381D01*
X159202381Y-68413333D01*
X159345239Y-68413333D01*
X159440477Y-68460952D01*
X159488096Y-68508571D01*
X159535715Y-68603810D01*
X159535715Y-68841905D01*
X159488096Y-68937143D01*
X159440477Y-68984762D01*
X159345239Y-69032381D01*
X159059524Y-69032381D01*
X158964286Y-68984762D01*
X158916667Y-68937143D01*
X158583334Y-65857381D02*
X158250000Y-65381190D01*
X158011905Y-65857381D02*
X158011905Y-64857381D01*
X158392858Y-64857381D01*
X158488096Y-64905000D01*
X158535715Y-64952619D01*
X158583334Y-65047857D01*
X158583334Y-65190714D01*
X158535715Y-65285952D01*
X158488096Y-65333571D01*
X158392858Y-65381190D01*
X158011905Y-65381190D01*
X159440477Y-65190714D02*
X159440477Y-65857381D01*
X159202381Y-64809762D02*
X158964286Y-65524048D01*
X159583334Y-65524048D01*
X159218334Y-84907381D02*
X158885000Y-84431190D01*
X158646905Y-84907381D02*
X158646905Y-83907381D01*
X159027858Y-83907381D01*
X159123096Y-83955000D01*
X159170715Y-84002619D01*
X159218334Y-84097857D01*
X159218334Y-84240714D01*
X159170715Y-84335952D01*
X159123096Y-84383571D01*
X159027858Y-84431190D01*
X158646905Y-84431190D01*
X160123096Y-83907381D02*
X159646905Y-83907381D01*
X159599286Y-84383571D01*
X159646905Y-84335952D01*
X159742143Y-84288333D01*
X159980239Y-84288333D01*
X160075477Y-84335952D01*
X160123096Y-84383571D01*
X160170715Y-84478810D01*
X160170715Y-84716905D01*
X160123096Y-84812143D01*
X160075477Y-84859762D01*
X159980239Y-84907381D01*
X159742143Y-84907381D01*
X159646905Y-84859762D01*
X159599286Y-84812143D01*
X157821334Y-81224381D02*
X157488000Y-80748190D01*
X157249905Y-81224381D02*
X157249905Y-80224381D01*
X157630858Y-80224381D01*
X157726096Y-80272000D01*
X157773715Y-80319619D01*
X157821334Y-80414857D01*
X157821334Y-80557714D01*
X157773715Y-80652952D01*
X157726096Y-80700571D01*
X157630858Y-80748190D01*
X157249905Y-80748190D01*
X158678477Y-80224381D02*
X158488000Y-80224381D01*
X158392762Y-80272000D01*
X158345143Y-80319619D01*
X158249905Y-80462476D01*
X158202286Y-80652952D01*
X158202286Y-81033905D01*
X158249905Y-81129143D01*
X158297524Y-81176762D01*
X158392762Y-81224381D01*
X158583239Y-81224381D01*
X158678477Y-81176762D01*
X158726096Y-81129143D01*
X158773715Y-81033905D01*
X158773715Y-80795810D01*
X158726096Y-80700571D01*
X158678477Y-80652952D01*
X158583239Y-80605333D01*
X158392762Y-80605333D01*
X158297524Y-80652952D01*
X158249905Y-80700571D01*
X158202286Y-80795810D01*
X34123334Y-75382381D02*
X33790000Y-74906190D01*
X33551905Y-75382381D02*
X33551905Y-74382381D01*
X33932858Y-74382381D01*
X34028096Y-74430000D01*
X34075715Y-74477619D01*
X34123334Y-74572857D01*
X34123334Y-74715714D01*
X34075715Y-74810952D01*
X34028096Y-74858571D01*
X33932858Y-74906190D01*
X33551905Y-74906190D01*
X34456667Y-74382381D02*
X35123334Y-74382381D01*
X34694762Y-75382381D01*
X39997143Y-82367381D02*
X39663809Y-81891190D01*
X39425714Y-82367381D02*
X39425714Y-81367381D01*
X39806667Y-81367381D01*
X39901905Y-81415000D01*
X39949524Y-81462619D01*
X39997143Y-81557857D01*
X39997143Y-81700714D01*
X39949524Y-81795952D01*
X39901905Y-81843571D01*
X39806667Y-81891190D01*
X39425714Y-81891190D01*
X40949524Y-82367381D02*
X40378095Y-82367381D01*
X40663809Y-82367381D02*
X40663809Y-81367381D01*
X40568571Y-81510238D01*
X40473333Y-81605476D01*
X40378095Y-81653095D01*
X41806667Y-81367381D02*
X41616190Y-81367381D01*
X41520952Y-81415000D01*
X41473333Y-81462619D01*
X41378095Y-81605476D01*
X41330476Y-81795952D01*
X41330476Y-82176905D01*
X41378095Y-82272143D01*
X41425714Y-82319762D01*
X41520952Y-82367381D01*
X41711429Y-82367381D01*
X41806667Y-82319762D01*
X41854286Y-82272143D01*
X41901905Y-82176905D01*
X41901905Y-81938810D01*
X41854286Y-81843571D01*
X41806667Y-81795952D01*
X41711429Y-81748333D01*
X41520952Y-81748333D01*
X41425714Y-81795952D01*
X41378095Y-81843571D01*
X41330476Y-81938810D01*
X70477143Y-82367381D02*
X70143809Y-81891190D01*
X69905714Y-82367381D02*
X69905714Y-81367381D01*
X70286667Y-81367381D01*
X70381905Y-81415000D01*
X70429524Y-81462619D01*
X70477143Y-81557857D01*
X70477143Y-81700714D01*
X70429524Y-81795952D01*
X70381905Y-81843571D01*
X70286667Y-81891190D01*
X69905714Y-81891190D01*
X71429524Y-82367381D02*
X70858095Y-82367381D01*
X71143809Y-82367381D02*
X71143809Y-81367381D01*
X71048571Y-81510238D01*
X70953333Y-81605476D01*
X70858095Y-81653095D01*
X71762857Y-81367381D02*
X72429524Y-81367381D01*
X72000952Y-82367381D01*
X131437143Y-82367381D02*
X131103809Y-81891190D01*
X130865714Y-82367381D02*
X130865714Y-81367381D01*
X131246667Y-81367381D01*
X131341905Y-81415000D01*
X131389524Y-81462619D01*
X131437143Y-81557857D01*
X131437143Y-81700714D01*
X131389524Y-81795952D01*
X131341905Y-81843571D01*
X131246667Y-81891190D01*
X130865714Y-81891190D01*
X132389524Y-82367381D02*
X131818095Y-82367381D01*
X132103809Y-82367381D02*
X132103809Y-81367381D01*
X132008571Y-81510238D01*
X131913333Y-81605476D01*
X131818095Y-81653095D01*
X132865714Y-82367381D02*
X133056190Y-82367381D01*
X133151429Y-82319762D01*
X133199048Y-82272143D01*
X133294286Y-82129286D01*
X133341905Y-81938810D01*
X133341905Y-81557857D01*
X133294286Y-81462619D01*
X133246667Y-81415000D01*
X133151429Y-81367381D01*
X132960952Y-81367381D01*
X132865714Y-81415000D01*
X132818095Y-81462619D01*
X132770476Y-81557857D01*
X132770476Y-81795952D01*
X132818095Y-81891190D01*
X132865714Y-81938810D01*
X132960952Y-81986429D01*
X133151429Y-81986429D01*
X133246667Y-81938810D01*
X133294286Y-81891190D01*
X133341905Y-81795952D01*
X24757143Y-82367381D02*
X24423809Y-81891190D01*
X24185714Y-82367381D02*
X24185714Y-81367381D01*
X24566667Y-81367381D01*
X24661905Y-81415000D01*
X24709524Y-81462619D01*
X24757143Y-81557857D01*
X24757143Y-81700714D01*
X24709524Y-81795952D01*
X24661905Y-81843571D01*
X24566667Y-81891190D01*
X24185714Y-81891190D01*
X25138095Y-81462619D02*
X25185714Y-81415000D01*
X25280952Y-81367381D01*
X25519048Y-81367381D01*
X25614286Y-81415000D01*
X25661905Y-81462619D01*
X25709524Y-81557857D01*
X25709524Y-81653095D01*
X25661905Y-81795952D01*
X25090476Y-82367381D01*
X25709524Y-82367381D01*
X26328571Y-81367381D02*
X26423810Y-81367381D01*
X26519048Y-81415000D01*
X26566667Y-81462619D01*
X26614286Y-81557857D01*
X26661905Y-81748333D01*
X26661905Y-81986429D01*
X26614286Y-82176905D01*
X26566667Y-82272143D01*
X26519048Y-82319762D01*
X26423810Y-82367381D01*
X26328571Y-82367381D01*
X26233333Y-82319762D01*
X26185714Y-82272143D01*
X26138095Y-82176905D01*
X26090476Y-81986429D01*
X26090476Y-81748333D01*
X26138095Y-81557857D01*
X26185714Y-81462619D01*
X26233333Y-81415000D01*
X26328571Y-81367381D01*
X55237143Y-82367381D02*
X54903809Y-81891190D01*
X54665714Y-82367381D02*
X54665714Y-81367381D01*
X55046667Y-81367381D01*
X55141905Y-81415000D01*
X55189524Y-81462619D01*
X55237143Y-81557857D01*
X55237143Y-81700714D01*
X55189524Y-81795952D01*
X55141905Y-81843571D01*
X55046667Y-81891190D01*
X54665714Y-81891190D01*
X55618095Y-81462619D02*
X55665714Y-81415000D01*
X55760952Y-81367381D01*
X55999048Y-81367381D01*
X56094286Y-81415000D01*
X56141905Y-81462619D01*
X56189524Y-81557857D01*
X56189524Y-81653095D01*
X56141905Y-81795952D01*
X55570476Y-82367381D01*
X56189524Y-82367381D01*
X57141905Y-82367381D02*
X56570476Y-82367381D01*
X56856190Y-82367381D02*
X56856190Y-81367381D01*
X56760952Y-81510238D01*
X56665714Y-81605476D01*
X56570476Y-81653095D01*
X116197143Y-82367381D02*
X115863809Y-81891190D01*
X115625714Y-82367381D02*
X115625714Y-81367381D01*
X116006667Y-81367381D01*
X116101905Y-81415000D01*
X116149524Y-81462619D01*
X116197143Y-81557857D01*
X116197143Y-81700714D01*
X116149524Y-81795952D01*
X116101905Y-81843571D01*
X116006667Y-81891190D01*
X115625714Y-81891190D01*
X116578095Y-81462619D02*
X116625714Y-81415000D01*
X116720952Y-81367381D01*
X116959048Y-81367381D01*
X117054286Y-81415000D01*
X117101905Y-81462619D01*
X117149524Y-81557857D01*
X117149524Y-81653095D01*
X117101905Y-81795952D01*
X116530476Y-82367381D01*
X117149524Y-82367381D01*
X117482857Y-81367381D02*
X118101905Y-81367381D01*
X117768571Y-81748333D01*
X117911429Y-81748333D01*
X118006667Y-81795952D01*
X118054286Y-81843571D01*
X118101905Y-81938810D01*
X118101905Y-82176905D01*
X118054286Y-82272143D01*
X118006667Y-82319762D01*
X117911429Y-82367381D01*
X117625714Y-82367381D01*
X117530476Y-82319762D01*
X117482857Y-82272143D01*
X138938095Y-76922381D02*
X138938095Y-77731905D01*
X138985714Y-77827143D01*
X139033333Y-77874762D01*
X139128571Y-77922381D01*
X139319048Y-77922381D01*
X139414286Y-77874762D01*
X139461905Y-77827143D01*
X139509524Y-77731905D01*
X139509524Y-76922381D01*
X140509524Y-77922381D02*
X139938095Y-77922381D01*
X140223809Y-77922381D02*
X140223809Y-76922381D01*
X140128571Y-77065238D01*
X140033333Y-77160476D01*
X139938095Y-77208095D01*
X21582143Y-72207381D02*
X21248809Y-71731190D01*
X21010714Y-72207381D02*
X21010714Y-71207381D01*
X21391667Y-71207381D01*
X21486905Y-71255000D01*
X21534524Y-71302619D01*
X21582143Y-71397857D01*
X21582143Y-71540714D01*
X21534524Y-71635952D01*
X21486905Y-71683571D01*
X21391667Y-71731190D01*
X21010714Y-71731190D01*
X21963095Y-71302619D02*
X22010714Y-71255000D01*
X22105952Y-71207381D01*
X22344048Y-71207381D01*
X22439286Y-71255000D01*
X22486905Y-71302619D01*
X22534524Y-71397857D01*
X22534524Y-71493095D01*
X22486905Y-71635952D01*
X21915476Y-72207381D01*
X22534524Y-72207381D01*
X23439286Y-71207381D02*
X22963095Y-71207381D01*
X22915476Y-71683571D01*
X22963095Y-71635952D01*
X23058333Y-71588333D01*
X23296429Y-71588333D01*
X23391667Y-71635952D01*
X23439286Y-71683571D01*
X23486905Y-71778810D01*
X23486905Y-72016905D01*
X23439286Y-72112143D01*
X23391667Y-72159762D01*
X23296429Y-72207381D01*
X23058333Y-72207381D01*
X22963095Y-72159762D01*
X22915476Y-72112143D01*
X36822143Y-72207381D02*
X36488809Y-71731190D01*
X36250714Y-72207381D02*
X36250714Y-71207381D01*
X36631667Y-71207381D01*
X36726905Y-71255000D01*
X36774524Y-71302619D01*
X36822143Y-71397857D01*
X36822143Y-71540714D01*
X36774524Y-71635952D01*
X36726905Y-71683571D01*
X36631667Y-71731190D01*
X36250714Y-71731190D01*
X37203095Y-71302619D02*
X37250714Y-71255000D01*
X37345952Y-71207381D01*
X37584048Y-71207381D01*
X37679286Y-71255000D01*
X37726905Y-71302619D01*
X37774524Y-71397857D01*
X37774524Y-71493095D01*
X37726905Y-71635952D01*
X37155476Y-72207381D01*
X37774524Y-72207381D01*
X38631667Y-71207381D02*
X38441190Y-71207381D01*
X38345952Y-71255000D01*
X38298333Y-71302619D01*
X38203095Y-71445476D01*
X38155476Y-71635952D01*
X38155476Y-72016905D01*
X38203095Y-72112143D01*
X38250714Y-72159762D01*
X38345952Y-72207381D01*
X38536429Y-72207381D01*
X38631667Y-72159762D01*
X38679286Y-72112143D01*
X38726905Y-72016905D01*
X38726905Y-71778810D01*
X38679286Y-71683571D01*
X38631667Y-71635952D01*
X38536429Y-71588333D01*
X38345952Y-71588333D01*
X38250714Y-71635952D01*
X38203095Y-71683571D01*
X38155476Y-71778810D01*
X52062143Y-72207381D02*
X51728809Y-71731190D01*
X51490714Y-72207381D02*
X51490714Y-71207381D01*
X51871667Y-71207381D01*
X51966905Y-71255000D01*
X52014524Y-71302619D01*
X52062143Y-71397857D01*
X52062143Y-71540714D01*
X52014524Y-71635952D01*
X51966905Y-71683571D01*
X51871667Y-71731190D01*
X51490714Y-71731190D01*
X52443095Y-71302619D02*
X52490714Y-71255000D01*
X52585952Y-71207381D01*
X52824048Y-71207381D01*
X52919286Y-71255000D01*
X52966905Y-71302619D01*
X53014524Y-71397857D01*
X53014524Y-71493095D01*
X52966905Y-71635952D01*
X52395476Y-72207381D01*
X53014524Y-72207381D01*
X53347857Y-71207381D02*
X54014524Y-71207381D01*
X53585952Y-72207381D01*
X67277143Y-72207381D02*
X66943809Y-71731190D01*
X66705714Y-72207381D02*
X66705714Y-71207381D01*
X67086667Y-71207381D01*
X67181905Y-71255000D01*
X67229524Y-71302619D01*
X67277143Y-71397857D01*
X67277143Y-71540714D01*
X67229524Y-71635952D01*
X67181905Y-71683571D01*
X67086667Y-71731190D01*
X66705714Y-71731190D01*
X67658095Y-71302619D02*
X67705714Y-71255000D01*
X67800952Y-71207381D01*
X68039048Y-71207381D01*
X68134286Y-71255000D01*
X68181905Y-71302619D01*
X68229524Y-71397857D01*
X68229524Y-71493095D01*
X68181905Y-71635952D01*
X67610476Y-72207381D01*
X68229524Y-72207381D01*
X68800952Y-71635952D02*
X68705714Y-71588333D01*
X68658095Y-71540714D01*
X68610476Y-71445476D01*
X68610476Y-71397857D01*
X68658095Y-71302619D01*
X68705714Y-71255000D01*
X68800952Y-71207381D01*
X68991429Y-71207381D01*
X69086667Y-71255000D01*
X69134286Y-71302619D01*
X69181905Y-71397857D01*
X69181905Y-71445476D01*
X69134286Y-71540714D01*
X69086667Y-71588333D01*
X68991429Y-71635952D01*
X68800952Y-71635952D01*
X68705714Y-71683571D01*
X68658095Y-71731190D01*
X68610476Y-71826429D01*
X68610476Y-72016905D01*
X68658095Y-72112143D01*
X68705714Y-72159762D01*
X68800952Y-72207381D01*
X68991429Y-72207381D01*
X69086667Y-72159762D01*
X69134286Y-72112143D01*
X69181905Y-72016905D01*
X69181905Y-71826429D01*
X69134286Y-71731190D01*
X69086667Y-71683571D01*
X68991429Y-71635952D01*
X82542143Y-72207381D02*
X82208809Y-71731190D01*
X81970714Y-72207381D02*
X81970714Y-71207381D01*
X82351667Y-71207381D01*
X82446905Y-71255000D01*
X82494524Y-71302619D01*
X82542143Y-71397857D01*
X82542143Y-71540714D01*
X82494524Y-71635952D01*
X82446905Y-71683571D01*
X82351667Y-71731190D01*
X81970714Y-71731190D01*
X82923095Y-71302619D02*
X82970714Y-71255000D01*
X83065952Y-71207381D01*
X83304048Y-71207381D01*
X83399286Y-71255000D01*
X83446905Y-71302619D01*
X83494524Y-71397857D01*
X83494524Y-71493095D01*
X83446905Y-71635952D01*
X82875476Y-72207381D01*
X83494524Y-72207381D01*
X83970714Y-72207381D02*
X84161190Y-72207381D01*
X84256429Y-72159762D01*
X84304048Y-72112143D01*
X84399286Y-71969286D01*
X84446905Y-71778810D01*
X84446905Y-71397857D01*
X84399286Y-71302619D01*
X84351667Y-71255000D01*
X84256429Y-71207381D01*
X84065952Y-71207381D01*
X83970714Y-71255000D01*
X83923095Y-71302619D01*
X83875476Y-71397857D01*
X83875476Y-71635952D01*
X83923095Y-71731190D01*
X83970714Y-71778810D01*
X84065952Y-71826429D01*
X84256429Y-71826429D01*
X84351667Y-71778810D01*
X84399286Y-71731190D01*
X84446905Y-71635952D01*
X97782143Y-72207381D02*
X97448809Y-71731190D01*
X97210714Y-72207381D02*
X97210714Y-71207381D01*
X97591667Y-71207381D01*
X97686905Y-71255000D01*
X97734524Y-71302619D01*
X97782143Y-71397857D01*
X97782143Y-71540714D01*
X97734524Y-71635952D01*
X97686905Y-71683571D01*
X97591667Y-71731190D01*
X97210714Y-71731190D01*
X98115476Y-71207381D02*
X98734524Y-71207381D01*
X98401190Y-71588333D01*
X98544048Y-71588333D01*
X98639286Y-71635952D01*
X98686905Y-71683571D01*
X98734524Y-71778810D01*
X98734524Y-72016905D01*
X98686905Y-72112143D01*
X98639286Y-72159762D01*
X98544048Y-72207381D01*
X98258333Y-72207381D01*
X98163095Y-72159762D01*
X98115476Y-72112143D01*
X99353571Y-71207381D02*
X99448810Y-71207381D01*
X99544048Y-71255000D01*
X99591667Y-71302619D01*
X99639286Y-71397857D01*
X99686905Y-71588333D01*
X99686905Y-71826429D01*
X99639286Y-72016905D01*
X99591667Y-72112143D01*
X99544048Y-72159762D01*
X99448810Y-72207381D01*
X99353571Y-72207381D01*
X99258333Y-72159762D01*
X99210714Y-72112143D01*
X99163095Y-72016905D01*
X99115476Y-71826429D01*
X99115476Y-71588333D01*
X99163095Y-71397857D01*
X99210714Y-71302619D01*
X99258333Y-71255000D01*
X99353571Y-71207381D01*
X128262143Y-72207381D02*
X127928809Y-71731190D01*
X127690714Y-72207381D02*
X127690714Y-71207381D01*
X128071667Y-71207381D01*
X128166905Y-71255000D01*
X128214524Y-71302619D01*
X128262143Y-71397857D01*
X128262143Y-71540714D01*
X128214524Y-71635952D01*
X128166905Y-71683571D01*
X128071667Y-71731190D01*
X127690714Y-71731190D01*
X128595476Y-71207381D02*
X129214524Y-71207381D01*
X128881190Y-71588333D01*
X129024048Y-71588333D01*
X129119286Y-71635952D01*
X129166905Y-71683571D01*
X129214524Y-71778810D01*
X129214524Y-72016905D01*
X129166905Y-72112143D01*
X129119286Y-72159762D01*
X129024048Y-72207381D01*
X128738333Y-72207381D01*
X128643095Y-72159762D01*
X128595476Y-72112143D01*
X129595476Y-71302619D02*
X129643095Y-71255000D01*
X129738333Y-71207381D01*
X129976429Y-71207381D01*
X130071667Y-71255000D01*
X130119286Y-71302619D01*
X130166905Y-71397857D01*
X130166905Y-71493095D01*
X130119286Y-71635952D01*
X129547857Y-72207381D01*
X130166905Y-72207381D01*
X154805143Y-69032381D02*
X154471809Y-68556190D01*
X154233714Y-69032381D02*
X154233714Y-68032381D01*
X154614667Y-68032381D01*
X154709905Y-68080000D01*
X154757524Y-68127619D01*
X154805143Y-68222857D01*
X154805143Y-68365714D01*
X154757524Y-68460952D01*
X154709905Y-68508571D01*
X154614667Y-68556190D01*
X154233714Y-68556190D01*
X155138476Y-68032381D02*
X155757524Y-68032381D01*
X155424190Y-68413333D01*
X155567048Y-68413333D01*
X155662286Y-68460952D01*
X155709905Y-68508571D01*
X155757524Y-68603810D01*
X155757524Y-68841905D01*
X155709905Y-68937143D01*
X155662286Y-68984762D01*
X155567048Y-69032381D01*
X155281333Y-69032381D01*
X155186095Y-68984762D01*
X155138476Y-68937143D01*
X156090857Y-68032381D02*
X156709905Y-68032381D01*
X156376571Y-68413333D01*
X156519429Y-68413333D01*
X156614667Y-68460952D01*
X156662286Y-68508571D01*
X156709905Y-68603810D01*
X156709905Y-68841905D01*
X156662286Y-68937143D01*
X156614667Y-68984762D01*
X156519429Y-69032381D01*
X156233714Y-69032381D01*
X156138476Y-68984762D01*
X156090857Y-68937143D01*
X149725143Y-69032381D02*
X149391809Y-68556190D01*
X149153714Y-69032381D02*
X149153714Y-68032381D01*
X149534667Y-68032381D01*
X149629905Y-68080000D01*
X149677524Y-68127619D01*
X149725143Y-68222857D01*
X149725143Y-68365714D01*
X149677524Y-68460952D01*
X149629905Y-68508571D01*
X149534667Y-68556190D01*
X149153714Y-68556190D01*
X150058476Y-68032381D02*
X150677524Y-68032381D01*
X150344190Y-68413333D01*
X150487048Y-68413333D01*
X150582286Y-68460952D01*
X150629905Y-68508571D01*
X150677524Y-68603810D01*
X150677524Y-68841905D01*
X150629905Y-68937143D01*
X150582286Y-68984762D01*
X150487048Y-69032381D01*
X150201333Y-69032381D01*
X150106095Y-68984762D01*
X150058476Y-68937143D01*
X151534667Y-68365714D02*
X151534667Y-69032381D01*
X151296571Y-67984762D02*
X151058476Y-68699048D01*
X151677524Y-68699048D01*
X150876095Y-72700381D02*
X150876095Y-73509905D01*
X150923714Y-73605143D01*
X150971333Y-73652762D01*
X151066571Y-73700381D01*
X151257048Y-73700381D01*
X151352286Y-73652762D01*
X151399905Y-73605143D01*
X151447524Y-73509905D01*
X151447524Y-72700381D01*
X151876095Y-72795619D02*
X151923714Y-72748000D01*
X152018952Y-72700381D01*
X152257048Y-72700381D01*
X152352286Y-72748000D01*
X152399905Y-72795619D01*
X152447524Y-72890857D01*
X152447524Y-72986095D01*
X152399905Y-73128952D01*
X151828476Y-73700381D01*
X152447524Y-73700381D01*
X163250571Y-81105333D02*
X163250571Y-81438667D01*
X163774381Y-81438667D02*
X162774381Y-81438667D01*
X162774381Y-80962476D01*
X163774381Y-80057714D02*
X163774381Y-80629143D01*
X163774381Y-80343429D02*
X162774381Y-80343429D01*
X162917238Y-80438667D01*
X163012476Y-80533905D01*
X163060095Y-80629143D01*
M02*
