M48
;DRILL file {KiCad 4.0.4-1.fc25-product} date Mon Oct 24 00:38:04 2016
;FORMAT={-:-/ absolute / metric / decimal}
FMAT,2
METRIC,TZ
T1C0.400
T2C0.800
T3C1.001
T4C1.016
T5C1.199
%
G90
G05
M71
T1
X22.225Y-83.185
X22.606Y-84.836
X23.368Y-87.122
X25.146Y-82.804
X26.67Y-69.596
X26.67Y-73.66
X26.924Y-83.82
X29.464Y-78.232
X31.115Y-83.82
X33.528Y-77.724
X36.322Y-77.47
X37.084Y-83.82
X38.1Y-86.868
X38.608Y-76.708
X41.855Y-69.796
X42.164Y-83.82
X42.672Y-82.042
X44.68Y-82.296
X44.704Y-79.111
X47.498Y-76.708
X50.292Y-76.2
X51.562Y-83.82
X52.578Y-75.692
X53.086Y-85.09
X53.848Y-87.122
X54.102Y-82.296
X56.134Y-75.692
X56.771Y-69.471
X56.896Y-82.296
X57.404Y-83.82
X59.856Y-79.111
X59.92Y-82.296
X61.976Y-75.692
X64.516Y-75.184
X66.802Y-74.676
X68.834Y-82.296
X68.834Y-86.614
X71.12Y-82.296
X71.374Y-74.676
X72.011Y-69.471
X73.281Y-84.16
X75.088Y-79.111
X76.2Y-74.676
X76.2Y-82.55
X78.74Y-74.168
X81.28Y-73.66
X83.566Y-82.804
X83.82Y-85.09
X84.328Y-86.868
X87.251Y-69.471
X88.138Y-73.66
X88.24Y-84.16
X90.743Y-79.111
X92.202Y-73.152
X95.758Y-72.644
X97.282Y-83.566
X99.06Y-85.09
X99.06Y-87.122
X102.491Y-69.471
X103.632Y-72.644
X104.458Y-84.16
X105.664Y-79.111
X110.49Y-72.39
X112.522Y-83.82
X113.792Y-85.344
X114.3Y-87.122
X117.856Y-69.85
X118.364Y-83.82
X118.618Y-72.39
X120.734Y-79.111
X121.158Y-71.882
X124.714Y-71.374
X131.33Y-78.74
X133.295Y-69.796
X133.604Y-83.82
X134.366Y-71.374
X135.382Y-77.47
X135.89Y-79.365
X136.249Y-76.395
X137.53Y-76.445
X138.625Y-72.507
X139.7Y-64.77
X139.712Y-73.272
X141.929Y-72.235
X142.135Y-78.083
X142.494Y-68.834
X142.752Y-71.446
X143.763Y-72.244
X143.764Y-70.612
X143.764Y-78.994
X144.272Y-75.946
X144.338Y-74.996
X144.389Y-80.601
X144.48Y-73.339
X144.51Y-74.187
X144.78Y-69.987
X144.899Y-71.372
X144.906Y-68.737
X145.075Y-72.181
X145.516Y-79.163
X146.541Y-82.987
X146.766Y-79.172
X146.995Y-77.758
X147.15Y-75.976
X147.285Y-74.021
X147.32Y-70.612
X147.32Y-81.28
X147.32Y-82.55
X147.352Y-80.381
X147.945Y-71.628
X150.368Y-83.312
X150.495Y-66.04
X152.4Y-84.836
X152.654Y-76.708
X153.035Y-66.04
X153.162Y-78.74
X154.001Y-73.583
X154.021Y-72.751
X154.94Y-84.582
X155.448Y-77.47
X155.702Y-83.82
X155.956Y-87.376
X157.48Y-76.454
X157.988Y-82.296
X159.385Y-66.675
X159.385Y-67.945
X160.02Y-85.09
X160.655Y-84.455
X161.798Y-83.058
X163.764Y-76.454
X164.846Y-78.486
T2
X21.59Y-76.24
X21.59Y-78.74
T3
X20.32Y-69.85
X30.48Y-69.85
X35.56Y-69.85
X45.72Y-69.85
X50.8Y-69.85
X60.96Y-69.85
X66.04Y-69.85
X76.2Y-69.85
X81.28Y-69.85
X91.44Y-69.85
X96.52Y-69.85
X106.68Y-69.85
X111.76Y-69.85
X121.92Y-69.85
X127.Y-69.85
X137.16Y-69.85
T4
X20.32Y-66.04
X22.86Y-66.04
X27.94Y-66.04
X30.48Y-66.04
X35.56Y-66.04
X38.1Y-66.04
X43.18Y-66.04
X45.72Y-66.04
X50.8Y-66.04
X53.34Y-66.04
X58.42Y-66.04
X60.96Y-66.04
X66.04Y-66.04
X68.58Y-66.04
X73.66Y-66.04
X76.2Y-66.04
X81.28Y-66.04
X83.82Y-66.04
X88.9Y-66.04
X91.44Y-66.04
X96.52Y-66.04
X99.06Y-66.04
X104.14Y-66.04
X106.68Y-66.04
X111.76Y-66.04
X114.3Y-66.04
X119.38Y-66.04
X121.92Y-66.04
X127.Y-66.04
X129.54Y-66.04
X134.62Y-66.04
X137.16Y-66.04
X143.51Y-86.36
X146.05Y-86.36
X148.59Y-86.36
X151.13Y-86.36
X153.67Y-86.36
X165.1Y-66.04
X165.1Y-68.58
X165.1Y-71.12
X165.1Y-73.66
X165.1Y-83.82
X165.1Y-86.36
T5
X20.399Y-86.36
X25.4Y-86.36
X30.401Y-86.36
X35.639Y-86.36
X40.64Y-86.36
X45.641Y-86.36
X50.879Y-86.36
X55.88Y-86.36
X60.881Y-86.36
X66.119Y-86.36
X71.12Y-86.36
X76.121Y-86.36
X81.359Y-86.36
X86.36Y-86.36
X91.361Y-86.36
X96.599Y-86.36
X101.6Y-86.36
X106.601Y-86.36
X111.839Y-86.36
X116.84Y-86.36
X121.841Y-86.36
X127.079Y-86.36
X132.08Y-86.36
X137.081Y-86.36
T0
M30
