G04 #@! TF.FileFunction,Legend,Bot*
%FSLAX46Y46*%
G04 Gerber Fmt 4.6, Leading zero omitted, Abs format (unit mm)*
G04 Created by KiCad (PCBNEW 4.0.4-1.fc25-product) date Mon Oct 24 00:38:01 2016*
%MOMM*%
%LPD*%
G01*
G04 APERTURE LIST*
%ADD10C,0.100000*%
%ADD11C,0.200000*%
%ADD12C,0.250000*%
%ADD13C,1.000000*%
%ADD14C,0.150000*%
G04 APERTURE END LIST*
D10*
D11*
X144247904Y-66222571D02*
X144105047Y-66270190D01*
X144057428Y-66317810D01*
X144009809Y-66413048D01*
X144009809Y-66555905D01*
X144057428Y-66651143D01*
X144105047Y-66698762D01*
X144200285Y-66746381D01*
X144581238Y-66746381D01*
X144581238Y-65746381D01*
X144247904Y-65746381D01*
X144152666Y-65794000D01*
X144105047Y-65841619D01*
X144057428Y-65936857D01*
X144057428Y-66032095D01*
X144105047Y-66127333D01*
X144152666Y-66174952D01*
X144247904Y-66222571D01*
X144581238Y-66222571D01*
X143581238Y-65746381D02*
X143581238Y-66555905D01*
X143533619Y-66651143D01*
X143486000Y-66698762D01*
X143390762Y-66746381D01*
X143200285Y-66746381D01*
X143105047Y-66698762D01*
X143057428Y-66651143D01*
X143009809Y-66555905D01*
X143009809Y-65746381D01*
X142676476Y-65746381D02*
X142105047Y-65746381D01*
X142390762Y-66746381D02*
X142390762Y-65746381D01*
X141914571Y-65746381D02*
X141343142Y-65746381D01*
X141628857Y-66746381D02*
X141628857Y-65746381D01*
X140819333Y-65746381D02*
X140628856Y-65746381D01*
X140533618Y-65794000D01*
X140438380Y-65889238D01*
X140390761Y-66079714D01*
X140390761Y-66413048D01*
X140438380Y-66603524D01*
X140533618Y-66698762D01*
X140628856Y-66746381D01*
X140819333Y-66746381D01*
X140914571Y-66698762D01*
X141009809Y-66603524D01*
X141057428Y-66413048D01*
X141057428Y-66079714D01*
X141009809Y-65889238D01*
X140914571Y-65794000D01*
X140819333Y-65746381D01*
X139962190Y-66746381D02*
X139962190Y-65746381D01*
X139390761Y-66746381D01*
X139390761Y-65746381D01*
X127388857Y-73096381D02*
X127865048Y-73096381D01*
X127865048Y-72096381D01*
X127055524Y-72572571D02*
X126722190Y-72572571D01*
X126579333Y-73096381D02*
X127055524Y-73096381D01*
X127055524Y-72096381D01*
X126579333Y-72096381D01*
X126150762Y-73096381D02*
X126150762Y-72096381D01*
X125912667Y-72096381D01*
X125769809Y-72144000D01*
X125674571Y-72239238D01*
X125626952Y-72334476D01*
X125579333Y-72524952D01*
X125579333Y-72667810D01*
X125626952Y-72858286D01*
X125674571Y-72953524D01*
X125769809Y-73048762D01*
X125912667Y-73096381D01*
X126150762Y-73096381D01*
X131143048Y-84240667D02*
X130666857Y-84240667D01*
X131238286Y-84526381D02*
X130904953Y-83526381D01*
X130571619Y-84526381D01*
X130238286Y-84526381D02*
X130238286Y-83526381D01*
X129666857Y-84526381D01*
X129666857Y-83526381D01*
X129238286Y-84240667D02*
X128762095Y-84240667D01*
X129333524Y-84526381D02*
X129000191Y-83526381D01*
X128666857Y-84526381D01*
X127857333Y-84526381D02*
X128333524Y-84526381D01*
X128333524Y-83526381D01*
X127333524Y-83526381D02*
X127143047Y-83526381D01*
X127047809Y-83574000D01*
X126952571Y-83669238D01*
X126904952Y-83859714D01*
X126904952Y-84193048D01*
X126952571Y-84383524D01*
X127047809Y-84478762D01*
X127143047Y-84526381D01*
X127333524Y-84526381D01*
X127428762Y-84478762D01*
X127524000Y-84383524D01*
X127571619Y-84193048D01*
X127571619Y-83859714D01*
X127524000Y-83669238D01*
X127428762Y-83574000D01*
X127333524Y-83526381D01*
X125952571Y-83574000D02*
X126047809Y-83526381D01*
X126190666Y-83526381D01*
X126333524Y-83574000D01*
X126428762Y-83669238D01*
X126476381Y-83764476D01*
X126524000Y-83954952D01*
X126524000Y-84097810D01*
X126476381Y-84288286D01*
X126428762Y-84383524D01*
X126333524Y-84478762D01*
X126190666Y-84526381D01*
X126095428Y-84526381D01*
X125952571Y-84478762D01*
X125904952Y-84431143D01*
X125904952Y-84097810D01*
X126095428Y-84097810D01*
X124181904Y-72572571D02*
X124039047Y-72620190D01*
X123991428Y-72667810D01*
X123943809Y-72763048D01*
X123943809Y-72905905D01*
X123991428Y-73001143D01*
X124039047Y-73048762D01*
X124134285Y-73096381D01*
X124515238Y-73096381D01*
X124515238Y-72096381D01*
X124181904Y-72096381D01*
X124086666Y-72144000D01*
X124039047Y-72191619D01*
X123991428Y-72286857D01*
X123991428Y-72382095D01*
X124039047Y-72477333D01*
X124086666Y-72524952D01*
X124181904Y-72572571D01*
X124515238Y-72572571D01*
X123515238Y-72096381D02*
X123515238Y-72905905D01*
X123467619Y-73001143D01*
X123420000Y-73048762D01*
X123324762Y-73096381D01*
X123134285Y-73096381D01*
X123039047Y-73048762D01*
X122991428Y-73001143D01*
X122943809Y-72905905D01*
X122943809Y-72096381D01*
X122610476Y-72096381D02*
X122039047Y-72096381D01*
X122324762Y-73096381D02*
X122324762Y-72096381D01*
X121848571Y-72096381D02*
X121277142Y-72096381D01*
X121562857Y-73096381D02*
X121562857Y-72096381D01*
X120753333Y-72096381D02*
X120562856Y-72096381D01*
X120467618Y-72144000D01*
X120372380Y-72239238D01*
X120324761Y-72429714D01*
X120324761Y-72763048D01*
X120372380Y-72953524D01*
X120467618Y-73048762D01*
X120562856Y-73096381D01*
X120753333Y-73096381D01*
X120848571Y-73048762D01*
X120943809Y-72953524D01*
X120991428Y-72763048D01*
X120991428Y-72429714D01*
X120943809Y-72239238D01*
X120848571Y-72144000D01*
X120753333Y-72096381D01*
X119896190Y-73096381D02*
X119896190Y-72096381D01*
X119324761Y-73096381D01*
X119324761Y-72096381D01*
X112402857Y-73096381D02*
X112879048Y-73096381D01*
X112879048Y-72096381D01*
X112069524Y-72572571D02*
X111736190Y-72572571D01*
X111593333Y-73096381D02*
X112069524Y-73096381D01*
X112069524Y-72096381D01*
X111593333Y-72096381D01*
X111164762Y-73096381D02*
X111164762Y-72096381D01*
X110926667Y-72096381D01*
X110783809Y-72144000D01*
X110688571Y-72239238D01*
X110640952Y-72334476D01*
X110593333Y-72524952D01*
X110593333Y-72667810D01*
X110640952Y-72858286D01*
X110688571Y-72953524D01*
X110783809Y-73048762D01*
X110926667Y-73096381D01*
X111164762Y-73096381D01*
X116157048Y-84240667D02*
X115680857Y-84240667D01*
X116252286Y-84526381D02*
X115918953Y-83526381D01*
X115585619Y-84526381D01*
X115252286Y-84526381D02*
X115252286Y-83526381D01*
X114680857Y-84526381D01*
X114680857Y-83526381D01*
X114252286Y-84240667D02*
X113776095Y-84240667D01*
X114347524Y-84526381D02*
X114014191Y-83526381D01*
X113680857Y-84526381D01*
X112871333Y-84526381D02*
X113347524Y-84526381D01*
X113347524Y-83526381D01*
X112347524Y-83526381D02*
X112157047Y-83526381D01*
X112061809Y-83574000D01*
X111966571Y-83669238D01*
X111918952Y-83859714D01*
X111918952Y-84193048D01*
X111966571Y-84383524D01*
X112061809Y-84478762D01*
X112157047Y-84526381D01*
X112347524Y-84526381D01*
X112442762Y-84478762D01*
X112538000Y-84383524D01*
X112585619Y-84193048D01*
X112585619Y-83859714D01*
X112538000Y-83669238D01*
X112442762Y-83574000D01*
X112347524Y-83526381D01*
X110966571Y-83574000D02*
X111061809Y-83526381D01*
X111204666Y-83526381D01*
X111347524Y-83574000D01*
X111442762Y-83669238D01*
X111490381Y-83764476D01*
X111538000Y-83954952D01*
X111538000Y-84097810D01*
X111490381Y-84288286D01*
X111442762Y-84383524D01*
X111347524Y-84478762D01*
X111204666Y-84526381D01*
X111109428Y-84526381D01*
X110966571Y-84478762D01*
X110918952Y-84431143D01*
X110918952Y-84097810D01*
X111109428Y-84097810D01*
X108941904Y-72572571D02*
X108799047Y-72620190D01*
X108751428Y-72667810D01*
X108703809Y-72763048D01*
X108703809Y-72905905D01*
X108751428Y-73001143D01*
X108799047Y-73048762D01*
X108894285Y-73096381D01*
X109275238Y-73096381D01*
X109275238Y-72096381D01*
X108941904Y-72096381D01*
X108846666Y-72144000D01*
X108799047Y-72191619D01*
X108751428Y-72286857D01*
X108751428Y-72382095D01*
X108799047Y-72477333D01*
X108846666Y-72524952D01*
X108941904Y-72572571D01*
X109275238Y-72572571D01*
X108275238Y-72096381D02*
X108275238Y-72905905D01*
X108227619Y-73001143D01*
X108180000Y-73048762D01*
X108084762Y-73096381D01*
X107894285Y-73096381D01*
X107799047Y-73048762D01*
X107751428Y-73001143D01*
X107703809Y-72905905D01*
X107703809Y-72096381D01*
X107370476Y-72096381D02*
X106799047Y-72096381D01*
X107084762Y-73096381D02*
X107084762Y-72096381D01*
X106608571Y-72096381D02*
X106037142Y-72096381D01*
X106322857Y-73096381D02*
X106322857Y-72096381D01*
X105513333Y-72096381D02*
X105322856Y-72096381D01*
X105227618Y-72144000D01*
X105132380Y-72239238D01*
X105084761Y-72429714D01*
X105084761Y-72763048D01*
X105132380Y-72953524D01*
X105227618Y-73048762D01*
X105322856Y-73096381D01*
X105513333Y-73096381D01*
X105608571Y-73048762D01*
X105703809Y-72953524D01*
X105751428Y-72763048D01*
X105751428Y-72429714D01*
X105703809Y-72239238D01*
X105608571Y-72144000D01*
X105513333Y-72096381D01*
X104656190Y-73096381D02*
X104656190Y-72096381D01*
X104084761Y-73096381D01*
X104084761Y-72096381D01*
X97162857Y-73096381D02*
X97639048Y-73096381D01*
X97639048Y-72096381D01*
X96829524Y-72572571D02*
X96496190Y-72572571D01*
X96353333Y-73096381D02*
X96829524Y-73096381D01*
X96829524Y-72096381D01*
X96353333Y-72096381D01*
X95924762Y-73096381D02*
X95924762Y-72096381D01*
X95686667Y-72096381D01*
X95543809Y-72144000D01*
X95448571Y-72239238D01*
X95400952Y-72334476D01*
X95353333Y-72524952D01*
X95353333Y-72667810D01*
X95400952Y-72858286D01*
X95448571Y-72953524D01*
X95543809Y-73048762D01*
X95686667Y-73096381D01*
X95924762Y-73096381D01*
X100917048Y-84240667D02*
X100440857Y-84240667D01*
X101012286Y-84526381D02*
X100678953Y-83526381D01*
X100345619Y-84526381D01*
X100012286Y-84526381D02*
X100012286Y-83526381D01*
X99440857Y-84526381D01*
X99440857Y-83526381D01*
X99012286Y-84240667D02*
X98536095Y-84240667D01*
X99107524Y-84526381D02*
X98774191Y-83526381D01*
X98440857Y-84526381D01*
X97631333Y-84526381D02*
X98107524Y-84526381D01*
X98107524Y-83526381D01*
X97107524Y-83526381D02*
X96917047Y-83526381D01*
X96821809Y-83574000D01*
X96726571Y-83669238D01*
X96678952Y-83859714D01*
X96678952Y-84193048D01*
X96726571Y-84383524D01*
X96821809Y-84478762D01*
X96917047Y-84526381D01*
X97107524Y-84526381D01*
X97202762Y-84478762D01*
X97298000Y-84383524D01*
X97345619Y-84193048D01*
X97345619Y-83859714D01*
X97298000Y-83669238D01*
X97202762Y-83574000D01*
X97107524Y-83526381D01*
X95726571Y-83574000D02*
X95821809Y-83526381D01*
X95964666Y-83526381D01*
X96107524Y-83574000D01*
X96202762Y-83669238D01*
X96250381Y-83764476D01*
X96298000Y-83954952D01*
X96298000Y-84097810D01*
X96250381Y-84288286D01*
X96202762Y-84383524D01*
X96107524Y-84478762D01*
X95964666Y-84526381D01*
X95869428Y-84526381D01*
X95726571Y-84478762D01*
X95678952Y-84431143D01*
X95678952Y-84097810D01*
X95869428Y-84097810D01*
X93701904Y-72318571D02*
X93559047Y-72366190D01*
X93511428Y-72413810D01*
X93463809Y-72509048D01*
X93463809Y-72651905D01*
X93511428Y-72747143D01*
X93559047Y-72794762D01*
X93654285Y-72842381D01*
X94035238Y-72842381D01*
X94035238Y-71842381D01*
X93701904Y-71842381D01*
X93606666Y-71890000D01*
X93559047Y-71937619D01*
X93511428Y-72032857D01*
X93511428Y-72128095D01*
X93559047Y-72223333D01*
X93606666Y-72270952D01*
X93701904Y-72318571D01*
X94035238Y-72318571D01*
X93035238Y-71842381D02*
X93035238Y-72651905D01*
X92987619Y-72747143D01*
X92940000Y-72794762D01*
X92844762Y-72842381D01*
X92654285Y-72842381D01*
X92559047Y-72794762D01*
X92511428Y-72747143D01*
X92463809Y-72651905D01*
X92463809Y-71842381D01*
X92130476Y-71842381D02*
X91559047Y-71842381D01*
X91844762Y-72842381D02*
X91844762Y-71842381D01*
X91368571Y-71842381D02*
X90797142Y-71842381D01*
X91082857Y-72842381D02*
X91082857Y-71842381D01*
X90273333Y-71842381D02*
X90082856Y-71842381D01*
X89987618Y-71890000D01*
X89892380Y-71985238D01*
X89844761Y-72175714D01*
X89844761Y-72509048D01*
X89892380Y-72699524D01*
X89987618Y-72794762D01*
X90082856Y-72842381D01*
X90273333Y-72842381D01*
X90368571Y-72794762D01*
X90463809Y-72699524D01*
X90511428Y-72509048D01*
X90511428Y-72175714D01*
X90463809Y-71985238D01*
X90368571Y-71890000D01*
X90273333Y-71842381D01*
X89416190Y-72842381D02*
X89416190Y-71842381D01*
X88844761Y-72842381D01*
X88844761Y-71842381D01*
X81922857Y-72842381D02*
X82399048Y-72842381D01*
X82399048Y-71842381D01*
X81589524Y-72318571D02*
X81256190Y-72318571D01*
X81113333Y-72842381D02*
X81589524Y-72842381D01*
X81589524Y-71842381D01*
X81113333Y-71842381D01*
X80684762Y-72842381D02*
X80684762Y-71842381D01*
X80446667Y-71842381D01*
X80303809Y-71890000D01*
X80208571Y-71985238D01*
X80160952Y-72080476D01*
X80113333Y-72270952D01*
X80113333Y-72413810D01*
X80160952Y-72604286D01*
X80208571Y-72699524D01*
X80303809Y-72794762D01*
X80446667Y-72842381D01*
X80684762Y-72842381D01*
X85677048Y-83986667D02*
X85200857Y-83986667D01*
X85772286Y-84272381D02*
X85438953Y-83272381D01*
X85105619Y-84272381D01*
X84772286Y-84272381D02*
X84772286Y-83272381D01*
X84200857Y-84272381D01*
X84200857Y-83272381D01*
X83772286Y-83986667D02*
X83296095Y-83986667D01*
X83867524Y-84272381D02*
X83534191Y-83272381D01*
X83200857Y-84272381D01*
X82391333Y-84272381D02*
X82867524Y-84272381D01*
X82867524Y-83272381D01*
X81867524Y-83272381D02*
X81677047Y-83272381D01*
X81581809Y-83320000D01*
X81486571Y-83415238D01*
X81438952Y-83605714D01*
X81438952Y-83939048D01*
X81486571Y-84129524D01*
X81581809Y-84224762D01*
X81677047Y-84272381D01*
X81867524Y-84272381D01*
X81962762Y-84224762D01*
X82058000Y-84129524D01*
X82105619Y-83939048D01*
X82105619Y-83605714D01*
X82058000Y-83415238D01*
X81962762Y-83320000D01*
X81867524Y-83272381D01*
X80486571Y-83320000D02*
X80581809Y-83272381D01*
X80724666Y-83272381D01*
X80867524Y-83320000D01*
X80962762Y-83415238D01*
X81010381Y-83510476D01*
X81058000Y-83700952D01*
X81058000Y-83843810D01*
X81010381Y-84034286D01*
X80962762Y-84129524D01*
X80867524Y-84224762D01*
X80724666Y-84272381D01*
X80629428Y-84272381D01*
X80486571Y-84224762D01*
X80438952Y-84177143D01*
X80438952Y-83843810D01*
X80629428Y-83843810D01*
X78461904Y-72318571D02*
X78319047Y-72366190D01*
X78271428Y-72413810D01*
X78223809Y-72509048D01*
X78223809Y-72651905D01*
X78271428Y-72747143D01*
X78319047Y-72794762D01*
X78414285Y-72842381D01*
X78795238Y-72842381D01*
X78795238Y-71842381D01*
X78461904Y-71842381D01*
X78366666Y-71890000D01*
X78319047Y-71937619D01*
X78271428Y-72032857D01*
X78271428Y-72128095D01*
X78319047Y-72223333D01*
X78366666Y-72270952D01*
X78461904Y-72318571D01*
X78795238Y-72318571D01*
X77795238Y-71842381D02*
X77795238Y-72651905D01*
X77747619Y-72747143D01*
X77700000Y-72794762D01*
X77604762Y-72842381D01*
X77414285Y-72842381D01*
X77319047Y-72794762D01*
X77271428Y-72747143D01*
X77223809Y-72651905D01*
X77223809Y-71842381D01*
X76890476Y-71842381D02*
X76319047Y-71842381D01*
X76604762Y-72842381D02*
X76604762Y-71842381D01*
X76128571Y-71842381D02*
X75557142Y-71842381D01*
X75842857Y-72842381D02*
X75842857Y-71842381D01*
X75033333Y-71842381D02*
X74842856Y-71842381D01*
X74747618Y-71890000D01*
X74652380Y-71985238D01*
X74604761Y-72175714D01*
X74604761Y-72509048D01*
X74652380Y-72699524D01*
X74747618Y-72794762D01*
X74842856Y-72842381D01*
X75033333Y-72842381D01*
X75128571Y-72794762D01*
X75223809Y-72699524D01*
X75271428Y-72509048D01*
X75271428Y-72175714D01*
X75223809Y-71985238D01*
X75128571Y-71890000D01*
X75033333Y-71842381D01*
X74176190Y-72842381D02*
X74176190Y-71842381D01*
X73604761Y-72842381D01*
X73604761Y-71842381D01*
X66682857Y-72842381D02*
X67159048Y-72842381D01*
X67159048Y-71842381D01*
X66349524Y-72318571D02*
X66016190Y-72318571D01*
X65873333Y-72842381D02*
X66349524Y-72842381D01*
X66349524Y-71842381D01*
X65873333Y-71842381D01*
X65444762Y-72842381D02*
X65444762Y-71842381D01*
X65206667Y-71842381D01*
X65063809Y-71890000D01*
X64968571Y-71985238D01*
X64920952Y-72080476D01*
X64873333Y-72270952D01*
X64873333Y-72413810D01*
X64920952Y-72604286D01*
X64968571Y-72699524D01*
X65063809Y-72794762D01*
X65206667Y-72842381D01*
X65444762Y-72842381D01*
X70437048Y-83986667D02*
X69960857Y-83986667D01*
X70532286Y-84272381D02*
X70198953Y-83272381D01*
X69865619Y-84272381D01*
X69532286Y-84272381D02*
X69532286Y-83272381D01*
X68960857Y-84272381D01*
X68960857Y-83272381D01*
X68532286Y-83986667D02*
X68056095Y-83986667D01*
X68627524Y-84272381D02*
X68294191Y-83272381D01*
X67960857Y-84272381D01*
X67151333Y-84272381D02*
X67627524Y-84272381D01*
X67627524Y-83272381D01*
X66627524Y-83272381D02*
X66437047Y-83272381D01*
X66341809Y-83320000D01*
X66246571Y-83415238D01*
X66198952Y-83605714D01*
X66198952Y-83939048D01*
X66246571Y-84129524D01*
X66341809Y-84224762D01*
X66437047Y-84272381D01*
X66627524Y-84272381D01*
X66722762Y-84224762D01*
X66818000Y-84129524D01*
X66865619Y-83939048D01*
X66865619Y-83605714D01*
X66818000Y-83415238D01*
X66722762Y-83320000D01*
X66627524Y-83272381D01*
X65246571Y-83320000D02*
X65341809Y-83272381D01*
X65484666Y-83272381D01*
X65627524Y-83320000D01*
X65722762Y-83415238D01*
X65770381Y-83510476D01*
X65818000Y-83700952D01*
X65818000Y-83843810D01*
X65770381Y-84034286D01*
X65722762Y-84129524D01*
X65627524Y-84224762D01*
X65484666Y-84272381D01*
X65389428Y-84272381D01*
X65246571Y-84224762D01*
X65198952Y-84177143D01*
X65198952Y-83843810D01*
X65389428Y-83843810D01*
X63221904Y-72318571D02*
X63079047Y-72366190D01*
X63031428Y-72413810D01*
X62983809Y-72509048D01*
X62983809Y-72651905D01*
X63031428Y-72747143D01*
X63079047Y-72794762D01*
X63174285Y-72842381D01*
X63555238Y-72842381D01*
X63555238Y-71842381D01*
X63221904Y-71842381D01*
X63126666Y-71890000D01*
X63079047Y-71937619D01*
X63031428Y-72032857D01*
X63031428Y-72128095D01*
X63079047Y-72223333D01*
X63126666Y-72270952D01*
X63221904Y-72318571D01*
X63555238Y-72318571D01*
X62555238Y-71842381D02*
X62555238Y-72651905D01*
X62507619Y-72747143D01*
X62460000Y-72794762D01*
X62364762Y-72842381D01*
X62174285Y-72842381D01*
X62079047Y-72794762D01*
X62031428Y-72747143D01*
X61983809Y-72651905D01*
X61983809Y-71842381D01*
X61650476Y-71842381D02*
X61079047Y-71842381D01*
X61364762Y-72842381D02*
X61364762Y-71842381D01*
X60888571Y-71842381D02*
X60317142Y-71842381D01*
X60602857Y-72842381D02*
X60602857Y-71842381D01*
X59793333Y-71842381D02*
X59602856Y-71842381D01*
X59507618Y-71890000D01*
X59412380Y-71985238D01*
X59364761Y-72175714D01*
X59364761Y-72509048D01*
X59412380Y-72699524D01*
X59507618Y-72794762D01*
X59602856Y-72842381D01*
X59793333Y-72842381D01*
X59888571Y-72794762D01*
X59983809Y-72699524D01*
X60031428Y-72509048D01*
X60031428Y-72175714D01*
X59983809Y-71985238D01*
X59888571Y-71890000D01*
X59793333Y-71842381D01*
X58936190Y-72842381D02*
X58936190Y-71842381D01*
X58364761Y-72842381D01*
X58364761Y-71842381D01*
X51442857Y-72842381D02*
X51919048Y-72842381D01*
X51919048Y-71842381D01*
X51109524Y-72318571D02*
X50776190Y-72318571D01*
X50633333Y-72842381D02*
X51109524Y-72842381D01*
X51109524Y-71842381D01*
X50633333Y-71842381D01*
X50204762Y-72842381D02*
X50204762Y-71842381D01*
X49966667Y-71842381D01*
X49823809Y-71890000D01*
X49728571Y-71985238D01*
X49680952Y-72080476D01*
X49633333Y-72270952D01*
X49633333Y-72413810D01*
X49680952Y-72604286D01*
X49728571Y-72699524D01*
X49823809Y-72794762D01*
X49966667Y-72842381D01*
X50204762Y-72842381D01*
X55197048Y-83986667D02*
X54720857Y-83986667D01*
X55292286Y-84272381D02*
X54958953Y-83272381D01*
X54625619Y-84272381D01*
X54292286Y-84272381D02*
X54292286Y-83272381D01*
X53720857Y-84272381D01*
X53720857Y-83272381D01*
X53292286Y-83986667D02*
X52816095Y-83986667D01*
X53387524Y-84272381D02*
X53054191Y-83272381D01*
X52720857Y-84272381D01*
X51911333Y-84272381D02*
X52387524Y-84272381D01*
X52387524Y-83272381D01*
X51387524Y-83272381D02*
X51197047Y-83272381D01*
X51101809Y-83320000D01*
X51006571Y-83415238D01*
X50958952Y-83605714D01*
X50958952Y-83939048D01*
X51006571Y-84129524D01*
X51101809Y-84224762D01*
X51197047Y-84272381D01*
X51387524Y-84272381D01*
X51482762Y-84224762D01*
X51578000Y-84129524D01*
X51625619Y-83939048D01*
X51625619Y-83605714D01*
X51578000Y-83415238D01*
X51482762Y-83320000D01*
X51387524Y-83272381D01*
X50006571Y-83320000D02*
X50101809Y-83272381D01*
X50244666Y-83272381D01*
X50387524Y-83320000D01*
X50482762Y-83415238D01*
X50530381Y-83510476D01*
X50578000Y-83700952D01*
X50578000Y-83843810D01*
X50530381Y-84034286D01*
X50482762Y-84129524D01*
X50387524Y-84224762D01*
X50244666Y-84272381D01*
X50149428Y-84272381D01*
X50006571Y-84224762D01*
X49958952Y-84177143D01*
X49958952Y-83843810D01*
X50149428Y-83843810D01*
X47981904Y-72318571D02*
X47839047Y-72366190D01*
X47791428Y-72413810D01*
X47743809Y-72509048D01*
X47743809Y-72651905D01*
X47791428Y-72747143D01*
X47839047Y-72794762D01*
X47934285Y-72842381D01*
X48315238Y-72842381D01*
X48315238Y-71842381D01*
X47981904Y-71842381D01*
X47886666Y-71890000D01*
X47839047Y-71937619D01*
X47791428Y-72032857D01*
X47791428Y-72128095D01*
X47839047Y-72223333D01*
X47886666Y-72270952D01*
X47981904Y-72318571D01*
X48315238Y-72318571D01*
X47315238Y-71842381D02*
X47315238Y-72651905D01*
X47267619Y-72747143D01*
X47220000Y-72794762D01*
X47124762Y-72842381D01*
X46934285Y-72842381D01*
X46839047Y-72794762D01*
X46791428Y-72747143D01*
X46743809Y-72651905D01*
X46743809Y-71842381D01*
X46410476Y-71842381D02*
X45839047Y-71842381D01*
X46124762Y-72842381D02*
X46124762Y-71842381D01*
X45648571Y-71842381D02*
X45077142Y-71842381D01*
X45362857Y-72842381D02*
X45362857Y-71842381D01*
X44553333Y-71842381D02*
X44362856Y-71842381D01*
X44267618Y-71890000D01*
X44172380Y-71985238D01*
X44124761Y-72175714D01*
X44124761Y-72509048D01*
X44172380Y-72699524D01*
X44267618Y-72794762D01*
X44362856Y-72842381D01*
X44553333Y-72842381D01*
X44648571Y-72794762D01*
X44743809Y-72699524D01*
X44791428Y-72509048D01*
X44791428Y-72175714D01*
X44743809Y-71985238D01*
X44648571Y-71890000D01*
X44553333Y-71842381D01*
X43696190Y-72842381D02*
X43696190Y-71842381D01*
X43124761Y-72842381D01*
X43124761Y-71842381D01*
X36202857Y-72842381D02*
X36679048Y-72842381D01*
X36679048Y-71842381D01*
X35869524Y-72318571D02*
X35536190Y-72318571D01*
X35393333Y-72842381D02*
X35869524Y-72842381D01*
X35869524Y-71842381D01*
X35393333Y-71842381D01*
X34964762Y-72842381D02*
X34964762Y-71842381D01*
X34726667Y-71842381D01*
X34583809Y-71890000D01*
X34488571Y-71985238D01*
X34440952Y-72080476D01*
X34393333Y-72270952D01*
X34393333Y-72413810D01*
X34440952Y-72604286D01*
X34488571Y-72699524D01*
X34583809Y-72794762D01*
X34726667Y-72842381D01*
X34964762Y-72842381D01*
X39957048Y-83986667D02*
X39480857Y-83986667D01*
X40052286Y-84272381D02*
X39718953Y-83272381D01*
X39385619Y-84272381D01*
X39052286Y-84272381D02*
X39052286Y-83272381D01*
X38480857Y-84272381D01*
X38480857Y-83272381D01*
X38052286Y-83986667D02*
X37576095Y-83986667D01*
X38147524Y-84272381D02*
X37814191Y-83272381D01*
X37480857Y-84272381D01*
X36671333Y-84272381D02*
X37147524Y-84272381D01*
X37147524Y-83272381D01*
X36147524Y-83272381D02*
X35957047Y-83272381D01*
X35861809Y-83320000D01*
X35766571Y-83415238D01*
X35718952Y-83605714D01*
X35718952Y-83939048D01*
X35766571Y-84129524D01*
X35861809Y-84224762D01*
X35957047Y-84272381D01*
X36147524Y-84272381D01*
X36242762Y-84224762D01*
X36338000Y-84129524D01*
X36385619Y-83939048D01*
X36385619Y-83605714D01*
X36338000Y-83415238D01*
X36242762Y-83320000D01*
X36147524Y-83272381D01*
X34766571Y-83320000D02*
X34861809Y-83272381D01*
X35004666Y-83272381D01*
X35147524Y-83320000D01*
X35242762Y-83415238D01*
X35290381Y-83510476D01*
X35338000Y-83700952D01*
X35338000Y-83843810D01*
X35290381Y-84034286D01*
X35242762Y-84129524D01*
X35147524Y-84224762D01*
X35004666Y-84272381D01*
X34909428Y-84272381D01*
X34766571Y-84224762D01*
X34718952Y-84177143D01*
X34718952Y-83843810D01*
X34909428Y-83843810D01*
D12*
X143010000Y-82550096D02*
X142962381Y-82454858D01*
X142962381Y-82312001D01*
X143010000Y-82169143D01*
X143105238Y-82073905D01*
X143200476Y-82026286D01*
X143390952Y-81978667D01*
X143533810Y-81978667D01*
X143724286Y-82026286D01*
X143819524Y-82073905D01*
X143914762Y-82169143D01*
X143962381Y-82312001D01*
X143962381Y-82407239D01*
X143914762Y-82550096D01*
X143867143Y-82597715D01*
X143533810Y-82597715D01*
X143533810Y-82407239D01*
X143962381Y-83026286D02*
X142962381Y-83026286D01*
X143962381Y-83597715D01*
X142962381Y-83597715D01*
X143962381Y-84073905D02*
X142962381Y-84073905D01*
X142962381Y-84312000D01*
X143010000Y-84454858D01*
X143105238Y-84550096D01*
X143200476Y-84597715D01*
X143390952Y-84645334D01*
X143533810Y-84645334D01*
X143724286Y-84597715D01*
X143819524Y-84550096D01*
X143914762Y-84454858D01*
X143962381Y-84312000D01*
X143962381Y-84073905D01*
X146407143Y-82716762D02*
X146454762Y-82669143D01*
X146502381Y-82526286D01*
X146502381Y-82431048D01*
X146454762Y-82288190D01*
X146359524Y-82192952D01*
X146264286Y-82145333D01*
X146073810Y-82097714D01*
X145930952Y-82097714D01*
X145740476Y-82145333D01*
X145645238Y-82192952D01*
X145550000Y-82288190D01*
X145502381Y-82431048D01*
X145502381Y-82526286D01*
X145550000Y-82669143D01*
X145597619Y-82716762D01*
X146502381Y-83621524D02*
X146502381Y-83145333D01*
X145502381Y-83145333D01*
X146502381Y-83954857D02*
X145502381Y-83954857D01*
X146502381Y-84526286D02*
X145930952Y-84097714D01*
X145502381Y-84526286D02*
X146073810Y-83954857D01*
X149042381Y-81232572D02*
X148042381Y-81232572D01*
X148756667Y-81565906D01*
X148042381Y-81899239D01*
X149042381Y-81899239D01*
X149042381Y-82375429D02*
X148042381Y-82375429D01*
X148994762Y-82804000D02*
X149042381Y-82946857D01*
X149042381Y-83184953D01*
X148994762Y-83280191D01*
X148947143Y-83327810D01*
X148851905Y-83375429D01*
X148756667Y-83375429D01*
X148661429Y-83327810D01*
X148613810Y-83280191D01*
X148566190Y-83184953D01*
X148518571Y-82994476D01*
X148470952Y-82899238D01*
X148423333Y-82851619D01*
X148328095Y-82804000D01*
X148232857Y-82804000D01*
X148137619Y-82851619D01*
X148090000Y-82899238D01*
X148042381Y-82994476D01*
X148042381Y-83232572D01*
X148090000Y-83375429D01*
X148042381Y-83994476D02*
X148042381Y-84184953D01*
X148090000Y-84280191D01*
X148185238Y-84375429D01*
X148375714Y-84423048D01*
X148709048Y-84423048D01*
X148899524Y-84375429D01*
X148994762Y-84280191D01*
X149042381Y-84184953D01*
X149042381Y-83994476D01*
X148994762Y-83899238D01*
X148899524Y-83804000D01*
X148709048Y-83756381D01*
X148375714Y-83756381D01*
X148185238Y-83804000D01*
X148090000Y-83899238D01*
X148042381Y-83994476D01*
X151582381Y-81232572D02*
X150582381Y-81232572D01*
X151296667Y-81565906D01*
X150582381Y-81899239D01*
X151582381Y-81899239D01*
X150582381Y-82565905D02*
X150582381Y-82756382D01*
X150630000Y-82851620D01*
X150725238Y-82946858D01*
X150915714Y-82994477D01*
X151249048Y-82994477D01*
X151439524Y-82946858D01*
X151534762Y-82851620D01*
X151582381Y-82756382D01*
X151582381Y-82565905D01*
X151534762Y-82470667D01*
X151439524Y-82375429D01*
X151249048Y-82327810D01*
X150915714Y-82327810D01*
X150725238Y-82375429D01*
X150630000Y-82470667D01*
X150582381Y-82565905D01*
X151534762Y-83375429D02*
X151582381Y-83518286D01*
X151582381Y-83756382D01*
X151534762Y-83851620D01*
X151487143Y-83899239D01*
X151391905Y-83946858D01*
X151296667Y-83946858D01*
X151201429Y-83899239D01*
X151153810Y-83851620D01*
X151106190Y-83756382D01*
X151058571Y-83565905D01*
X151010952Y-83470667D01*
X150963333Y-83423048D01*
X150868095Y-83375429D01*
X150772857Y-83375429D01*
X150677619Y-83423048D01*
X150630000Y-83470667D01*
X150582381Y-83565905D01*
X150582381Y-83804001D01*
X150630000Y-83946858D01*
X151582381Y-84375429D02*
X150582381Y-84375429D01*
X154027143Y-83399334D02*
X154074762Y-83351715D01*
X154122381Y-83208858D01*
X154122381Y-83113620D01*
X154074762Y-82970762D01*
X153979524Y-82875524D01*
X153884286Y-82827905D01*
X153693810Y-82780286D01*
X153550952Y-82780286D01*
X153360476Y-82827905D01*
X153265238Y-82875524D01*
X153170000Y-82970762D01*
X153122381Y-83113620D01*
X153122381Y-83208858D01*
X153170000Y-83351715D01*
X153217619Y-83399334D01*
X154074762Y-83780286D02*
X154122381Y-83923143D01*
X154122381Y-84161239D01*
X154074762Y-84256477D01*
X154027143Y-84304096D01*
X153931905Y-84351715D01*
X153836667Y-84351715D01*
X153741429Y-84304096D01*
X153693810Y-84256477D01*
X153646190Y-84161239D01*
X153598571Y-83970762D01*
X153550952Y-83875524D01*
X153503333Y-83827905D01*
X153408095Y-83780286D01*
X153312857Y-83780286D01*
X153217619Y-83827905D01*
X153170000Y-83875524D01*
X153122381Y-83970762D01*
X153122381Y-84208858D01*
X153170000Y-84351715D01*
X152950000Y-82589810D02*
X152950000Y-84542191D01*
D11*
X24717048Y-83986667D02*
X24240857Y-83986667D01*
X24812286Y-84272381D02*
X24478953Y-83272381D01*
X24145619Y-84272381D01*
X23812286Y-84272381D02*
X23812286Y-83272381D01*
X23240857Y-84272381D01*
X23240857Y-83272381D01*
X22812286Y-83986667D02*
X22336095Y-83986667D01*
X22907524Y-84272381D02*
X22574191Y-83272381D01*
X22240857Y-84272381D01*
X21431333Y-84272381D02*
X21907524Y-84272381D01*
X21907524Y-83272381D01*
X20907524Y-83272381D02*
X20717047Y-83272381D01*
X20621809Y-83320000D01*
X20526571Y-83415238D01*
X20478952Y-83605714D01*
X20478952Y-83939048D01*
X20526571Y-84129524D01*
X20621809Y-84224762D01*
X20717047Y-84272381D01*
X20907524Y-84272381D01*
X21002762Y-84224762D01*
X21098000Y-84129524D01*
X21145619Y-83939048D01*
X21145619Y-83605714D01*
X21098000Y-83415238D01*
X21002762Y-83320000D01*
X20907524Y-83272381D01*
X19526571Y-83320000D02*
X19621809Y-83272381D01*
X19764666Y-83272381D01*
X19907524Y-83320000D01*
X20002762Y-83415238D01*
X20050381Y-83510476D01*
X20098000Y-83700952D01*
X20098000Y-83843810D01*
X20050381Y-84034286D01*
X20002762Y-84129524D01*
X19907524Y-84224762D01*
X19764666Y-84272381D01*
X19669428Y-84272381D01*
X19526571Y-84224762D01*
X19478952Y-84177143D01*
X19478952Y-83843810D01*
X19669428Y-83843810D01*
X32741904Y-72318571D02*
X32599047Y-72366190D01*
X32551428Y-72413810D01*
X32503809Y-72509048D01*
X32503809Y-72651905D01*
X32551428Y-72747143D01*
X32599047Y-72794762D01*
X32694285Y-72842381D01*
X33075238Y-72842381D01*
X33075238Y-71842381D01*
X32741904Y-71842381D01*
X32646666Y-71890000D01*
X32599047Y-71937619D01*
X32551428Y-72032857D01*
X32551428Y-72128095D01*
X32599047Y-72223333D01*
X32646666Y-72270952D01*
X32741904Y-72318571D01*
X33075238Y-72318571D01*
X32075238Y-71842381D02*
X32075238Y-72651905D01*
X32027619Y-72747143D01*
X31980000Y-72794762D01*
X31884762Y-72842381D01*
X31694285Y-72842381D01*
X31599047Y-72794762D01*
X31551428Y-72747143D01*
X31503809Y-72651905D01*
X31503809Y-71842381D01*
X31170476Y-71842381D02*
X30599047Y-71842381D01*
X30884762Y-72842381D02*
X30884762Y-71842381D01*
X30408571Y-71842381D02*
X29837142Y-71842381D01*
X30122857Y-72842381D02*
X30122857Y-71842381D01*
X29313333Y-71842381D02*
X29122856Y-71842381D01*
X29027618Y-71890000D01*
X28932380Y-71985238D01*
X28884761Y-72175714D01*
X28884761Y-72509048D01*
X28932380Y-72699524D01*
X29027618Y-72794762D01*
X29122856Y-72842381D01*
X29313333Y-72842381D01*
X29408571Y-72794762D01*
X29503809Y-72699524D01*
X29551428Y-72509048D01*
X29551428Y-72175714D01*
X29503809Y-71985238D01*
X29408571Y-71890000D01*
X29313333Y-71842381D01*
X28456190Y-72842381D02*
X28456190Y-71842381D01*
X27884761Y-72842381D01*
X27884761Y-71842381D01*
X20962857Y-72842381D02*
X21439048Y-72842381D01*
X21439048Y-71842381D01*
X20629524Y-72318571D02*
X20296190Y-72318571D01*
X20153333Y-72842381D02*
X20629524Y-72842381D01*
X20629524Y-71842381D01*
X20153333Y-71842381D01*
X19724762Y-72842381D02*
X19724762Y-71842381D01*
X19486667Y-71842381D01*
X19343809Y-71890000D01*
X19248571Y-71985238D01*
X19200952Y-72080476D01*
X19153333Y-72270952D01*
X19153333Y-72413810D01*
X19200952Y-72604286D01*
X19248571Y-72699524D01*
X19343809Y-72794762D01*
X19486667Y-72842381D01*
X19724762Y-72842381D01*
D12*
X162829762Y-66492381D02*
X162829762Y-65492381D01*
X162353572Y-66492381D02*
X162353572Y-65492381D01*
X161782143Y-66492381D01*
X161782143Y-65492381D01*
X161448810Y-65492381D02*
X160877381Y-65492381D01*
X161163096Y-66492381D02*
X161163096Y-65492381D01*
X162686904Y-68080000D02*
X162782142Y-68032381D01*
X162924999Y-68032381D01*
X163067857Y-68080000D01*
X163163095Y-68175238D01*
X163210714Y-68270476D01*
X163258333Y-68460952D01*
X163258333Y-68603810D01*
X163210714Y-68794286D01*
X163163095Y-68889524D01*
X163067857Y-68984762D01*
X162924999Y-69032381D01*
X162829761Y-69032381D01*
X162686904Y-68984762D01*
X162639285Y-68937143D01*
X162639285Y-68603810D01*
X162829761Y-68603810D01*
X162210714Y-69032381D02*
X162210714Y-68032381D01*
X161639285Y-69032381D01*
X161639285Y-68032381D01*
X161163095Y-69032381D02*
X161163095Y-68032381D01*
X160925000Y-68032381D01*
X160782142Y-68080000D01*
X160686904Y-68175238D01*
X160639285Y-68270476D01*
X160591666Y-68460952D01*
X160591666Y-68603810D01*
X160639285Y-68794286D01*
X160686904Y-68889524D01*
X160782142Y-68984762D01*
X160925000Y-69032381D01*
X161163095Y-69032381D01*
X163393095Y-71572381D02*
X163393095Y-70572381D01*
X162964524Y-70667619D02*
X162916905Y-70620000D01*
X162821667Y-70572381D01*
X162583571Y-70572381D01*
X162488333Y-70620000D01*
X162440714Y-70667619D01*
X162393095Y-70762857D01*
X162393095Y-70858095D01*
X162440714Y-71000952D01*
X163012143Y-71572381D01*
X162393095Y-71572381D01*
X161393095Y-71477143D02*
X161440714Y-71524762D01*
X161583571Y-71572381D01*
X161678809Y-71572381D01*
X161821667Y-71524762D01*
X161916905Y-71429524D01*
X161964524Y-71334286D01*
X162012143Y-71143810D01*
X162012143Y-71000952D01*
X161964524Y-70810476D01*
X161916905Y-70715238D01*
X161821667Y-70620000D01*
X161678809Y-70572381D01*
X161583571Y-70572381D01*
X161440714Y-70620000D01*
X161393095Y-70667619D01*
X160250238Y-71524762D02*
X160107381Y-71572381D01*
X159869285Y-71572381D01*
X159774047Y-71524762D01*
X159726428Y-71477143D01*
X159678809Y-71381905D01*
X159678809Y-71286667D01*
X159726428Y-71191429D01*
X159774047Y-71143810D01*
X159869285Y-71096190D01*
X160059762Y-71048571D01*
X160155000Y-71000952D01*
X160202619Y-70953333D01*
X160250238Y-70858095D01*
X160250238Y-70762857D01*
X160202619Y-70667619D01*
X160155000Y-70620000D01*
X160059762Y-70572381D01*
X159821666Y-70572381D01*
X159678809Y-70620000D01*
X158678809Y-71477143D02*
X158726428Y-71524762D01*
X158869285Y-71572381D01*
X158964523Y-71572381D01*
X159107381Y-71524762D01*
X159202619Y-71429524D01*
X159250238Y-71334286D01*
X159297857Y-71143810D01*
X159297857Y-71000952D01*
X159250238Y-70810476D01*
X159202619Y-70715238D01*
X159107381Y-70620000D01*
X158964523Y-70572381D01*
X158869285Y-70572381D01*
X158726428Y-70620000D01*
X158678809Y-70667619D01*
X157774047Y-71572381D02*
X158250238Y-71572381D01*
X158250238Y-70572381D01*
X163416905Y-74112381D02*
X163416905Y-73112381D01*
X162988334Y-73207619D02*
X162940715Y-73160000D01*
X162845477Y-73112381D01*
X162607381Y-73112381D01*
X162512143Y-73160000D01*
X162464524Y-73207619D01*
X162416905Y-73302857D01*
X162416905Y-73398095D01*
X162464524Y-73540952D01*
X163035953Y-74112381D01*
X162416905Y-74112381D01*
X161416905Y-74017143D02*
X161464524Y-74064762D01*
X161607381Y-74112381D01*
X161702619Y-74112381D01*
X161845477Y-74064762D01*
X161940715Y-73969524D01*
X161988334Y-73874286D01*
X162035953Y-73683810D01*
X162035953Y-73540952D01*
X161988334Y-73350476D01*
X161940715Y-73255238D01*
X161845477Y-73160000D01*
X161702619Y-73112381D01*
X161607381Y-73112381D01*
X161464524Y-73160000D01*
X161416905Y-73207619D01*
X160274048Y-74064762D02*
X160131191Y-74112381D01*
X159893095Y-74112381D01*
X159797857Y-74064762D01*
X159750238Y-74017143D01*
X159702619Y-73921905D01*
X159702619Y-73826667D01*
X159750238Y-73731429D01*
X159797857Y-73683810D01*
X159893095Y-73636190D01*
X160083572Y-73588571D01*
X160178810Y-73540952D01*
X160226429Y-73493333D01*
X160274048Y-73398095D01*
X160274048Y-73302857D01*
X160226429Y-73207619D01*
X160178810Y-73160000D01*
X160083572Y-73112381D01*
X159845476Y-73112381D01*
X159702619Y-73160000D01*
X159274048Y-74112381D02*
X159274048Y-73112381D01*
X159035953Y-73112381D01*
X158893095Y-73160000D01*
X158797857Y-73255238D01*
X158750238Y-73350476D01*
X158702619Y-73540952D01*
X158702619Y-73683810D01*
X158750238Y-73874286D01*
X158797857Y-73969524D01*
X158893095Y-74064762D01*
X159035953Y-74112381D01*
X159274048Y-74112381D01*
X158321667Y-73826667D02*
X157845476Y-73826667D01*
X158416905Y-74112381D02*
X158083572Y-73112381D01*
X157750238Y-74112381D01*
X162766190Y-83272381D02*
X162147142Y-83272381D01*
X162480476Y-83653333D01*
X162337618Y-83653333D01*
X162242380Y-83700952D01*
X162194761Y-83748571D01*
X162147142Y-83843810D01*
X162147142Y-84081905D01*
X162194761Y-84177143D01*
X162242380Y-84224762D01*
X162337618Y-84272381D01*
X162623333Y-84272381D01*
X162718571Y-84224762D01*
X162766190Y-84177143D01*
X161718571Y-84177143D02*
X161670952Y-84224762D01*
X161718571Y-84272381D01*
X161766190Y-84224762D01*
X161718571Y-84177143D01*
X161718571Y-84272381D01*
X161337619Y-83272381D02*
X160718571Y-83272381D01*
X161051905Y-83653333D01*
X160909047Y-83653333D01*
X160813809Y-83700952D01*
X160766190Y-83748571D01*
X160718571Y-83843810D01*
X160718571Y-84081905D01*
X160766190Y-84177143D01*
X160813809Y-84224762D01*
X160909047Y-84272381D01*
X161194762Y-84272381D01*
X161290000Y-84224762D01*
X161337619Y-84177143D01*
X160432857Y-83272381D02*
X160099524Y-84272381D01*
X159766190Y-83272381D01*
X162051904Y-85860000D02*
X162147142Y-85812381D01*
X162289999Y-85812381D01*
X162432857Y-85860000D01*
X162528095Y-85955238D01*
X162575714Y-86050476D01*
X162623333Y-86240952D01*
X162623333Y-86383810D01*
X162575714Y-86574286D01*
X162528095Y-86669524D01*
X162432857Y-86764762D01*
X162289999Y-86812381D01*
X162194761Y-86812381D01*
X162051904Y-86764762D01*
X162004285Y-86717143D01*
X162004285Y-86383810D01*
X162194761Y-86383810D01*
X161575714Y-86812381D02*
X161575714Y-85812381D01*
X161004285Y-86812381D01*
X161004285Y-85812381D01*
X160528095Y-86812381D02*
X160528095Y-85812381D01*
X160290000Y-85812381D01*
X160147142Y-85860000D01*
X160051904Y-85955238D01*
X160004285Y-86050476D01*
X159956666Y-86240952D01*
X159956666Y-86383810D01*
X160004285Y-86574286D01*
X160051904Y-86669524D01*
X160147142Y-86764762D01*
X160290000Y-86812381D01*
X160528095Y-86812381D01*
X156416476Y-69388143D02*
X156464095Y-69435762D01*
X156606952Y-69483381D01*
X156702190Y-69483381D01*
X156845048Y-69435762D01*
X156940286Y-69340524D01*
X156987905Y-69245286D01*
X157035524Y-69054810D01*
X157035524Y-68911952D01*
X156987905Y-68721476D01*
X156940286Y-68626238D01*
X156845048Y-68531000D01*
X156702190Y-68483381D01*
X156606952Y-68483381D01*
X156464095Y-68531000D01*
X156416476Y-68578619D01*
X155797429Y-68483381D02*
X155606952Y-68483381D01*
X155511714Y-68531000D01*
X155416476Y-68626238D01*
X155368857Y-68816714D01*
X155368857Y-69150048D01*
X155416476Y-69340524D01*
X155511714Y-69435762D01*
X155606952Y-69483381D01*
X155797429Y-69483381D01*
X155892667Y-69435762D01*
X155987905Y-69340524D01*
X156035524Y-69150048D01*
X156035524Y-68816714D01*
X155987905Y-68626238D01*
X155892667Y-68531000D01*
X155797429Y-68483381D01*
X154987905Y-69435762D02*
X154845048Y-69483381D01*
X154606952Y-69483381D01*
X154511714Y-69435762D01*
X154464095Y-69388143D01*
X154416476Y-69292905D01*
X154416476Y-69197667D01*
X154464095Y-69102429D01*
X154511714Y-69054810D01*
X154606952Y-69007190D01*
X154797429Y-68959571D01*
X154892667Y-68911952D01*
X154940286Y-68864333D01*
X154987905Y-68769095D01*
X154987905Y-68673857D01*
X154940286Y-68578619D01*
X154892667Y-68531000D01*
X154797429Y-68483381D01*
X154559333Y-68483381D01*
X154416476Y-68531000D01*
X153987905Y-69483381D02*
X153987905Y-68483381D01*
X153654571Y-69197667D01*
X153321238Y-68483381D01*
X153321238Y-69483381D01*
X152654572Y-68483381D02*
X152464095Y-68483381D01*
X152368857Y-68531000D01*
X152273619Y-68626238D01*
X152226000Y-68816714D01*
X152226000Y-69150048D01*
X152273619Y-69340524D01*
X152368857Y-69435762D01*
X152464095Y-69483381D01*
X152654572Y-69483381D01*
X152749810Y-69435762D01*
X152845048Y-69340524D01*
X152892667Y-69150048D01*
X152892667Y-68816714D01*
X152845048Y-68626238D01*
X152749810Y-68531000D01*
X152654572Y-68483381D01*
X151035524Y-68816714D02*
X151035524Y-69816714D01*
X151035524Y-68864333D02*
X150940286Y-68816714D01*
X150749809Y-68816714D01*
X150654571Y-68864333D01*
X150606952Y-68911952D01*
X150559333Y-69007190D01*
X150559333Y-69292905D01*
X150606952Y-69388143D01*
X150654571Y-69435762D01*
X150749809Y-69483381D01*
X150940286Y-69483381D01*
X151035524Y-69435762D01*
X149987905Y-69483381D02*
X150083143Y-69435762D01*
X150130762Y-69340524D01*
X150130762Y-68483381D01*
X149178380Y-69483381D02*
X149178380Y-68959571D01*
X149225999Y-68864333D01*
X149321237Y-68816714D01*
X149511714Y-68816714D01*
X149606952Y-68864333D01*
X149178380Y-69435762D02*
X149273618Y-69483381D01*
X149511714Y-69483381D01*
X149606952Y-69435762D01*
X149654571Y-69340524D01*
X149654571Y-69245286D01*
X149606952Y-69150048D01*
X149511714Y-69102429D01*
X149273618Y-69102429D01*
X149178380Y-69054810D01*
X148702190Y-68816714D02*
X148702190Y-69483381D01*
X148702190Y-68911952D02*
X148654571Y-68864333D01*
X148559333Y-68816714D01*
X148416475Y-68816714D01*
X148321237Y-68864333D01*
X148273618Y-68959571D01*
X148273618Y-69483381D01*
X147797428Y-69483381D02*
X147797428Y-68483381D01*
X147702190Y-69102429D02*
X147416475Y-69483381D01*
X147416475Y-68816714D02*
X147797428Y-69197667D01*
X145702189Y-69483381D02*
X146273618Y-69483381D01*
X145987904Y-69483381D02*
X145987904Y-68483381D01*
X146083142Y-68626238D01*
X146178380Y-68721476D01*
X146273618Y-68769095D01*
X145273618Y-69388143D02*
X145225999Y-69435762D01*
X145273618Y-69483381D01*
X145321237Y-69435762D01*
X145273618Y-69388143D01*
X145273618Y-69483381D01*
X144606952Y-68483381D02*
X144511713Y-68483381D01*
X144416475Y-68531000D01*
X144368856Y-68578619D01*
X144321237Y-68673857D01*
X144273618Y-68864333D01*
X144273618Y-69102429D01*
X144321237Y-69292905D01*
X144368856Y-69388143D01*
X144416475Y-69435762D01*
X144511713Y-69483381D01*
X144606952Y-69483381D01*
X144702190Y-69435762D01*
X144749809Y-69388143D01*
X144797428Y-69292905D01*
X144845047Y-69102429D01*
X144845047Y-68864333D01*
X144797428Y-68673857D01*
X144749809Y-68578619D01*
X144702190Y-68531000D01*
X144606952Y-68483381D01*
X157083143Y-71983381D02*
X156464095Y-71983381D01*
X156797429Y-72364333D01*
X156654571Y-72364333D01*
X156559333Y-72411952D01*
X156511714Y-72459571D01*
X156464095Y-72554810D01*
X156464095Y-72792905D01*
X156511714Y-72888143D01*
X156559333Y-72935762D01*
X156654571Y-72983381D01*
X156940286Y-72983381D01*
X157035524Y-72935762D01*
X157083143Y-72888143D01*
X156035524Y-72888143D02*
X155987905Y-72935762D01*
X156035524Y-72983381D01*
X156083143Y-72935762D01*
X156035524Y-72888143D01*
X156035524Y-72983381D01*
X155654572Y-71983381D02*
X155035524Y-71983381D01*
X155368858Y-72364333D01*
X155226000Y-72364333D01*
X155130762Y-72411952D01*
X155083143Y-72459571D01*
X155035524Y-72554810D01*
X155035524Y-72792905D01*
X155083143Y-72888143D01*
X155130762Y-72935762D01*
X155226000Y-72983381D01*
X155511715Y-72983381D01*
X155606953Y-72935762D01*
X155654572Y-72888143D01*
X153987905Y-71983381D02*
X153654572Y-72983381D01*
X153321238Y-71983381D01*
X152273619Y-72935762D02*
X152178381Y-72983381D01*
X151987905Y-72983381D01*
X151892666Y-72935762D01*
X151845047Y-72840524D01*
X151845047Y-72792905D01*
X151892666Y-72697667D01*
X151987905Y-72650048D01*
X152130762Y-72650048D01*
X152226000Y-72602429D01*
X152273619Y-72507190D01*
X152273619Y-72459571D01*
X152226000Y-72364333D01*
X152130762Y-72316714D01*
X151987905Y-72316714D01*
X151892666Y-72364333D01*
X150987904Y-72316714D02*
X150987904Y-72983381D01*
X151416476Y-72316714D02*
X151416476Y-72840524D01*
X151368857Y-72935762D01*
X151273619Y-72983381D01*
X151130761Y-72983381D01*
X151035523Y-72935762D01*
X150987904Y-72888143D01*
X150511714Y-72316714D02*
X150511714Y-73316714D01*
X150511714Y-72364333D02*
X150416476Y-72316714D01*
X150225999Y-72316714D01*
X150130761Y-72364333D01*
X150083142Y-72411952D01*
X150035523Y-72507190D01*
X150035523Y-72792905D01*
X150083142Y-72888143D01*
X150130761Y-72935762D01*
X150225999Y-72983381D01*
X150416476Y-72983381D01*
X150511714Y-72935762D01*
X149606952Y-72316714D02*
X149606952Y-73316714D01*
X149606952Y-72364333D02*
X149511714Y-72316714D01*
X149321237Y-72316714D01*
X149225999Y-72364333D01*
X149178380Y-72411952D01*
X149130761Y-72507190D01*
X149130761Y-72792905D01*
X149178380Y-72888143D01*
X149225999Y-72935762D01*
X149321237Y-72983381D01*
X149511714Y-72983381D01*
X149606952Y-72935762D01*
X148559333Y-72983381D02*
X148654571Y-72935762D01*
X148702190Y-72840524D01*
X148702190Y-71983381D01*
X148273618Y-72316714D02*
X148035523Y-72983381D01*
X147797427Y-72316714D02*
X148035523Y-72983381D01*
X148130761Y-73221476D01*
X148178380Y-73269095D01*
X148273618Y-73316714D01*
X146225998Y-72983381D02*
X146225998Y-72459571D01*
X146273617Y-72364333D01*
X146368855Y-72316714D01*
X146559332Y-72316714D01*
X146654570Y-72364333D01*
X146225998Y-72935762D02*
X146321236Y-72983381D01*
X146559332Y-72983381D01*
X146654570Y-72935762D01*
X146702189Y-72840524D01*
X146702189Y-72745286D01*
X146654570Y-72650048D01*
X146559332Y-72602429D01*
X146321236Y-72602429D01*
X146225998Y-72554810D01*
X145749808Y-72316714D02*
X145749808Y-72983381D01*
X145749808Y-72411952D02*
X145702189Y-72364333D01*
X145606951Y-72316714D01*
X145464093Y-72316714D01*
X145368855Y-72364333D01*
X145321236Y-72459571D01*
X145321236Y-72983381D01*
X144416474Y-72983381D02*
X144416474Y-71983381D01*
X144416474Y-72935762D02*
X144511712Y-72983381D01*
X144702189Y-72983381D01*
X144797427Y-72935762D01*
X144845046Y-72888143D01*
X144892665Y-72792905D01*
X144892665Y-72507190D01*
X144845046Y-72411952D01*
X144797427Y-72364333D01*
X144702189Y-72316714D01*
X144511712Y-72316714D01*
X144416474Y-72364333D01*
X143178379Y-72983381D02*
X143178379Y-71983381D01*
X141987903Y-71935762D02*
X142845046Y-73221476D01*
X141464094Y-71983381D02*
X141273617Y-71983381D01*
X141178379Y-72031000D01*
X141083141Y-72126238D01*
X141035522Y-72316714D01*
X141035522Y-72650048D01*
X141083141Y-72840524D01*
X141178379Y-72935762D01*
X141273617Y-72983381D01*
X141464094Y-72983381D01*
X141559332Y-72935762D01*
X141654570Y-72840524D01*
X141702189Y-72650048D01*
X141702189Y-72316714D01*
X141654570Y-72126238D01*
X141559332Y-72031000D01*
X141464094Y-71983381D01*
X156511714Y-74733381D02*
X156987905Y-74733381D01*
X156987905Y-73733381D01*
X156178381Y-74209571D02*
X155845047Y-74209571D01*
X155702190Y-74733381D02*
X156178381Y-74733381D01*
X156178381Y-73733381D01*
X155702190Y-73733381D01*
X155273619Y-74733381D02*
X155273619Y-73733381D01*
X155035524Y-73733381D01*
X154892666Y-73781000D01*
X154797428Y-73876238D01*
X154749809Y-73971476D01*
X154702190Y-74161952D01*
X154702190Y-74304810D01*
X154749809Y-74495286D01*
X154797428Y-74590524D01*
X154892666Y-74685762D01*
X155035524Y-74733381D01*
X155273619Y-74733381D01*
X154226000Y-73733381D02*
X154321238Y-73923857D01*
X153845048Y-74685762D02*
X153749810Y-74733381D01*
X153559334Y-74733381D01*
X153464095Y-74685762D01*
X153416476Y-74590524D01*
X153416476Y-74542905D01*
X153464095Y-74447667D01*
X153559334Y-74400048D01*
X153702191Y-74400048D01*
X153797429Y-74352429D01*
X153845048Y-74257190D01*
X153845048Y-74209571D01*
X153797429Y-74114333D01*
X153702191Y-74066714D01*
X153559334Y-74066714D01*
X153464095Y-74114333D01*
X152368857Y-74066714D02*
X151987905Y-74066714D01*
X152226000Y-74733381D02*
X152226000Y-73876238D01*
X152178381Y-73781000D01*
X152083143Y-73733381D01*
X151987905Y-73733381D01*
X151654571Y-74733381D02*
X151654571Y-74066714D01*
X151654571Y-74257190D02*
X151606952Y-74161952D01*
X151559333Y-74114333D01*
X151464095Y-74066714D01*
X151368856Y-74066714D01*
X150892666Y-74733381D02*
X150987904Y-74685762D01*
X151035523Y-74638143D01*
X151083142Y-74542905D01*
X151083142Y-74257190D01*
X151035523Y-74161952D01*
X150987904Y-74114333D01*
X150892666Y-74066714D01*
X150749808Y-74066714D01*
X150654570Y-74114333D01*
X150606951Y-74161952D01*
X150559332Y-74257190D01*
X150559332Y-74542905D01*
X150606951Y-74638143D01*
X150654570Y-74685762D01*
X150749808Y-74733381D01*
X150892666Y-74733381D01*
X150130761Y-74733381D02*
X150130761Y-74066714D01*
X150130761Y-74161952D02*
X150083142Y-74114333D01*
X149987904Y-74066714D01*
X149845046Y-74066714D01*
X149749808Y-74114333D01*
X149702189Y-74209571D01*
X149702189Y-74733381D01*
X149702189Y-74209571D02*
X149654570Y-74114333D01*
X149559332Y-74066714D01*
X149416475Y-74066714D01*
X149321237Y-74114333D01*
X149273618Y-74209571D01*
X149273618Y-74733381D01*
X148130761Y-73733381D02*
X147511713Y-73733381D01*
X147845047Y-74114333D01*
X147702189Y-74114333D01*
X147606951Y-74161952D01*
X147559332Y-74209571D01*
X147511713Y-74304810D01*
X147511713Y-74542905D01*
X147559332Y-74638143D01*
X147606951Y-74685762D01*
X147702189Y-74733381D01*
X147987904Y-74733381D01*
X148083142Y-74685762D01*
X148130761Y-74638143D01*
X147083142Y-74638143D02*
X147035523Y-74685762D01*
X147083142Y-74733381D01*
X147130761Y-74685762D01*
X147083142Y-74638143D01*
X147083142Y-74733381D01*
X146702190Y-73733381D02*
X146083142Y-73733381D01*
X146416476Y-74114333D01*
X146273618Y-74114333D01*
X146178380Y-74161952D01*
X146130761Y-74209571D01*
X146083142Y-74304810D01*
X146083142Y-74542905D01*
X146130761Y-74638143D01*
X146178380Y-74685762D01*
X146273618Y-74733381D01*
X146559333Y-74733381D01*
X146654571Y-74685762D01*
X146702190Y-74638143D01*
X145797428Y-73733381D02*
X145464095Y-74733381D01*
X145130761Y-73733381D01*
X144178380Y-74066714D02*
X143797428Y-74066714D01*
X144035523Y-73733381D02*
X144035523Y-74590524D01*
X143987904Y-74685762D01*
X143892666Y-74733381D01*
X143797428Y-74733381D01*
X143321237Y-74733381D02*
X143416475Y-74685762D01*
X143464094Y-74638143D01*
X143511713Y-74542905D01*
X143511713Y-74257190D01*
X143464094Y-74161952D01*
X143416475Y-74114333D01*
X143321237Y-74066714D01*
X143178379Y-74066714D01*
X143083141Y-74114333D01*
X143035522Y-74161952D01*
X142987903Y-74257190D01*
X142987903Y-74542905D01*
X143035522Y-74638143D01*
X143083141Y-74685762D01*
X143178379Y-74733381D01*
X143321237Y-74733381D01*
X141797427Y-74733381D02*
X141797427Y-74066714D01*
X141797427Y-74257190D02*
X141749808Y-74161952D01*
X141702189Y-74114333D01*
X141606951Y-74066714D01*
X141511712Y-74066714D01*
X141035522Y-74733381D02*
X141130760Y-74685762D01*
X141178379Y-74638143D01*
X141225998Y-74542905D01*
X141225998Y-74257190D01*
X141178379Y-74161952D01*
X141130760Y-74114333D01*
X141035522Y-74066714D01*
X140892664Y-74066714D01*
X140797426Y-74114333D01*
X140749807Y-74161952D01*
X140702188Y-74257190D01*
X140702188Y-74542905D01*
X140749807Y-74638143D01*
X140797426Y-74685762D01*
X140892664Y-74733381D01*
X141035522Y-74733381D01*
X139845045Y-74066714D02*
X139845045Y-74733381D01*
X140273617Y-74066714D02*
X140273617Y-74590524D01*
X140225998Y-74685762D01*
X140130760Y-74733381D01*
X139987902Y-74733381D01*
X139892664Y-74685762D01*
X139845045Y-74638143D01*
X139368855Y-74066714D02*
X139368855Y-74733381D01*
X139368855Y-74161952D02*
X139321236Y-74114333D01*
X139225998Y-74066714D01*
X139083140Y-74066714D01*
X138987902Y-74114333D01*
X138940283Y-74209571D01*
X138940283Y-74733381D01*
X138035521Y-74733381D02*
X138035521Y-73733381D01*
X138035521Y-74685762D02*
X138130759Y-74733381D01*
X138321236Y-74733381D01*
X138416474Y-74685762D01*
X138464093Y-74638143D01*
X138511712Y-74542905D01*
X138511712Y-74257190D01*
X138464093Y-74161952D01*
X138416474Y-74114333D01*
X138321236Y-74066714D01*
X138130759Y-74066714D01*
X138035521Y-74114333D01*
X136797426Y-74066714D02*
X136797426Y-75066714D01*
X136797426Y-74114333D02*
X136702188Y-74066714D01*
X136511711Y-74066714D01*
X136416473Y-74114333D01*
X136368854Y-74161952D01*
X136321235Y-74257190D01*
X136321235Y-74542905D01*
X136368854Y-74638143D01*
X136416473Y-74685762D01*
X136511711Y-74733381D01*
X136702188Y-74733381D01*
X136797426Y-74685762D01*
X135464092Y-74733381D02*
X135464092Y-74209571D01*
X135511711Y-74114333D01*
X135606949Y-74066714D01*
X135797426Y-74066714D01*
X135892664Y-74114333D01*
X135464092Y-74685762D02*
X135559330Y-74733381D01*
X135797426Y-74733381D01*
X135892664Y-74685762D01*
X135940283Y-74590524D01*
X135940283Y-74495286D01*
X135892664Y-74400048D01*
X135797426Y-74352429D01*
X135559330Y-74352429D01*
X135464092Y-74304810D01*
X134559330Y-74733381D02*
X134559330Y-73733381D01*
X134559330Y-74685762D02*
X134654568Y-74733381D01*
X134845045Y-74733381D01*
X134940283Y-74685762D01*
X134987902Y-74638143D01*
X135035521Y-74542905D01*
X135035521Y-74257190D01*
X134987902Y-74161952D01*
X134940283Y-74114333D01*
X134845045Y-74066714D01*
X134654568Y-74066714D01*
X134559330Y-74114333D01*
X156511714Y-76483381D02*
X156987905Y-76483381D01*
X156987905Y-75483381D01*
X156178381Y-75959571D02*
X155845047Y-75959571D01*
X155702190Y-76483381D02*
X156178381Y-76483381D01*
X156178381Y-75483381D01*
X155702190Y-75483381D01*
X155273619Y-76483381D02*
X155273619Y-75483381D01*
X155035524Y-75483381D01*
X154892666Y-75531000D01*
X154797428Y-75626238D01*
X154749809Y-75721476D01*
X154702190Y-75911952D01*
X154702190Y-76054810D01*
X154749809Y-76245286D01*
X154797428Y-76340524D01*
X154892666Y-76435762D01*
X155035524Y-76483381D01*
X155273619Y-76483381D01*
X153511714Y-76483381D02*
X153511714Y-75816714D01*
X153511714Y-75911952D02*
X153464095Y-75864333D01*
X153368857Y-75816714D01*
X153225999Y-75816714D01*
X153130761Y-75864333D01*
X153083142Y-75959571D01*
X153083142Y-76483381D01*
X153083142Y-75959571D02*
X153035523Y-75864333D01*
X152940285Y-75816714D01*
X152797428Y-75816714D01*
X152702190Y-75864333D01*
X152654571Y-75959571D01*
X152654571Y-76483381D01*
X151749809Y-76483381D02*
X151749809Y-75959571D01*
X151797428Y-75864333D01*
X151892666Y-75816714D01*
X152083143Y-75816714D01*
X152178381Y-75864333D01*
X151749809Y-76435762D02*
X151845047Y-76483381D01*
X152083143Y-76483381D01*
X152178381Y-76435762D01*
X152226000Y-76340524D01*
X152226000Y-76245286D01*
X152178381Y-76150048D01*
X152083143Y-76102429D01*
X151845047Y-76102429D01*
X151749809Y-76054810D01*
X151368857Y-76483381D02*
X150845047Y-75816714D01*
X151368857Y-75816714D02*
X150845047Y-76483381D01*
X149225999Y-75483381D02*
X149702190Y-75483381D01*
X149749809Y-75959571D01*
X149702190Y-75911952D01*
X149606952Y-75864333D01*
X149368856Y-75864333D01*
X149273618Y-75911952D01*
X149225999Y-75959571D01*
X149178380Y-76054810D01*
X149178380Y-76292905D01*
X149225999Y-76388143D01*
X149273618Y-76435762D01*
X149368856Y-76483381D01*
X149606952Y-76483381D01*
X149702190Y-76435762D01*
X149749809Y-76388143D01*
X148559333Y-75483381D02*
X148464094Y-75483381D01*
X148368856Y-75531000D01*
X148321237Y-75578619D01*
X148273618Y-75673857D01*
X148225999Y-75864333D01*
X148225999Y-76102429D01*
X148273618Y-76292905D01*
X148321237Y-76388143D01*
X148368856Y-76435762D01*
X148464094Y-76483381D01*
X148559333Y-76483381D01*
X148654571Y-76435762D01*
X148702190Y-76388143D01*
X148749809Y-76292905D01*
X148797428Y-76102429D01*
X148797428Y-75864333D01*
X148749809Y-75673857D01*
X148702190Y-75578619D01*
X148654571Y-75531000D01*
X148559333Y-75483381D01*
X147035523Y-76483381D02*
X147035523Y-75816714D01*
X147035523Y-75911952D02*
X146987904Y-75864333D01*
X146892666Y-75816714D01*
X146749808Y-75816714D01*
X146654570Y-75864333D01*
X146606951Y-75959571D01*
X146606951Y-76483381D01*
X146606951Y-75959571D02*
X146559332Y-75864333D01*
X146464094Y-75816714D01*
X146321237Y-75816714D01*
X146225999Y-75864333D01*
X146178380Y-75959571D01*
X146178380Y-76483381D01*
X145749809Y-76197667D02*
X145273618Y-76197667D01*
X145845047Y-76483381D02*
X145511714Y-75483381D01*
X145178380Y-76483381D01*
X156654571Y-77709571D02*
X156511714Y-77757190D01*
X156464095Y-77804810D01*
X156416476Y-77900048D01*
X156416476Y-78042905D01*
X156464095Y-78138143D01*
X156511714Y-78185762D01*
X156606952Y-78233381D01*
X156987905Y-78233381D01*
X156987905Y-77233381D01*
X156654571Y-77233381D01*
X156559333Y-77281000D01*
X156511714Y-77328619D01*
X156464095Y-77423857D01*
X156464095Y-77519095D01*
X156511714Y-77614333D01*
X156559333Y-77661952D01*
X156654571Y-77709571D01*
X156987905Y-77709571D01*
X155559333Y-77566714D02*
X155559333Y-78233381D01*
X155987905Y-77566714D02*
X155987905Y-78090524D01*
X155940286Y-78185762D01*
X155845048Y-78233381D01*
X155702190Y-78233381D01*
X155606952Y-78185762D01*
X155559333Y-78138143D01*
X155226000Y-77566714D02*
X154845048Y-77566714D01*
X155083143Y-77233381D02*
X155083143Y-78090524D01*
X155035524Y-78185762D01*
X154940286Y-78233381D01*
X154845048Y-78233381D01*
X154654571Y-77566714D02*
X154273619Y-77566714D01*
X154511714Y-77233381D02*
X154511714Y-78090524D01*
X154464095Y-78185762D01*
X154368857Y-78233381D01*
X154273619Y-78233381D01*
X153797428Y-78233381D02*
X153892666Y-78185762D01*
X153940285Y-78138143D01*
X153987904Y-78042905D01*
X153987904Y-77757190D01*
X153940285Y-77661952D01*
X153892666Y-77614333D01*
X153797428Y-77566714D01*
X153654570Y-77566714D01*
X153559332Y-77614333D01*
X153511713Y-77661952D01*
X153464094Y-77757190D01*
X153464094Y-78042905D01*
X153511713Y-78138143D01*
X153559332Y-78185762D01*
X153654570Y-78233381D01*
X153797428Y-78233381D01*
X153035523Y-77566714D02*
X153035523Y-78233381D01*
X153035523Y-77661952D02*
X152987904Y-77614333D01*
X152892666Y-77566714D01*
X152749808Y-77566714D01*
X152654570Y-77614333D01*
X152606951Y-77709571D01*
X152606951Y-78233381D01*
X152178380Y-78185762D02*
X152083142Y-78233381D01*
X151892666Y-78233381D01*
X151797427Y-78185762D01*
X151749808Y-78090524D01*
X151749808Y-78042905D01*
X151797427Y-77947667D01*
X151892666Y-77900048D01*
X152035523Y-77900048D01*
X152130761Y-77852429D01*
X152178380Y-77757190D01*
X152178380Y-77709571D01*
X152130761Y-77614333D01*
X152035523Y-77566714D01*
X151892666Y-77566714D01*
X151797427Y-77614333D01*
X150702189Y-77566714D02*
X150321237Y-77566714D01*
X150559332Y-78233381D02*
X150559332Y-77376238D01*
X150511713Y-77281000D01*
X150416475Y-77233381D01*
X150321237Y-77233381D01*
X149987903Y-78233381D02*
X149987903Y-77566714D01*
X149987903Y-77757190D02*
X149940284Y-77661952D01*
X149892665Y-77614333D01*
X149797427Y-77566714D01*
X149702188Y-77566714D01*
X149225998Y-78233381D02*
X149321236Y-78185762D01*
X149368855Y-78138143D01*
X149416474Y-78042905D01*
X149416474Y-77757190D01*
X149368855Y-77661952D01*
X149321236Y-77614333D01*
X149225998Y-77566714D01*
X149083140Y-77566714D01*
X148987902Y-77614333D01*
X148940283Y-77661952D01*
X148892664Y-77757190D01*
X148892664Y-78042905D01*
X148940283Y-78138143D01*
X148987902Y-78185762D01*
X149083140Y-78233381D01*
X149225998Y-78233381D01*
X148464093Y-78233381D02*
X148464093Y-77566714D01*
X148464093Y-77661952D02*
X148416474Y-77614333D01*
X148321236Y-77566714D01*
X148178378Y-77566714D01*
X148083140Y-77614333D01*
X148035521Y-77709571D01*
X148035521Y-78233381D01*
X148035521Y-77709571D02*
X147987902Y-77614333D01*
X147892664Y-77566714D01*
X147749807Y-77566714D01*
X147654569Y-77614333D01*
X147606950Y-77709571D01*
X147606950Y-78233381D01*
X145845045Y-77281000D02*
X145940283Y-77233381D01*
X146083140Y-77233381D01*
X146225998Y-77281000D01*
X146321236Y-77376238D01*
X146368855Y-77471476D01*
X146416474Y-77661952D01*
X146416474Y-77804810D01*
X146368855Y-77995286D01*
X146321236Y-78090524D01*
X146225998Y-78185762D01*
X146083140Y-78233381D01*
X145987902Y-78233381D01*
X145845045Y-78185762D01*
X145797426Y-78138143D01*
X145797426Y-77804810D01*
X145987902Y-77804810D01*
X145368855Y-78233381D02*
X145368855Y-77233381D01*
X144797426Y-78233381D01*
X144797426Y-77233381D01*
X144321236Y-78233381D02*
X144321236Y-77233381D01*
X144083141Y-77233381D01*
X143940283Y-77281000D01*
X143845045Y-77376238D01*
X143797426Y-77471476D01*
X143749807Y-77661952D01*
X143749807Y-77804810D01*
X143797426Y-77995286D01*
X143845045Y-78090524D01*
X143940283Y-78185762D01*
X144083141Y-78233381D01*
X144321236Y-78233381D01*
X142702188Y-77566714D02*
X142321236Y-77566714D01*
X142559331Y-77233381D02*
X142559331Y-78090524D01*
X142511712Y-78185762D01*
X142416474Y-78233381D01*
X142321236Y-78233381D01*
X141845045Y-78233381D02*
X141940283Y-78185762D01*
X141987902Y-78138143D01*
X142035521Y-78042905D01*
X142035521Y-77757190D01*
X141987902Y-77661952D01*
X141940283Y-77614333D01*
X141845045Y-77566714D01*
X141702187Y-77566714D01*
X141606949Y-77614333D01*
X141559330Y-77661952D01*
X141511711Y-77757190D01*
X141511711Y-78042905D01*
X141559330Y-78138143D01*
X141606949Y-78185762D01*
X141702187Y-78233381D01*
X141845045Y-78233381D01*
X140368854Y-78185762D02*
X140273616Y-78233381D01*
X140083140Y-78233381D01*
X139987901Y-78185762D01*
X139940282Y-78090524D01*
X139940282Y-78042905D01*
X139987901Y-77947667D01*
X140083140Y-77900048D01*
X140225997Y-77900048D01*
X140321235Y-77852429D01*
X140368854Y-77757190D01*
X140368854Y-77709571D01*
X140321235Y-77614333D01*
X140225997Y-77566714D01*
X140083140Y-77566714D01*
X139987901Y-77614333D01*
X139083139Y-77566714D02*
X139083139Y-78566714D01*
X139083139Y-78185762D02*
X139178377Y-78233381D01*
X139368854Y-78233381D01*
X139464092Y-78185762D01*
X139511711Y-78138143D01*
X139559330Y-78042905D01*
X139559330Y-77757190D01*
X139511711Y-77661952D01*
X139464092Y-77614333D01*
X139368854Y-77566714D01*
X139178377Y-77566714D01*
X139083139Y-77614333D01*
X138178377Y-77566714D02*
X138178377Y-78233381D01*
X138606949Y-77566714D02*
X138606949Y-78090524D01*
X138559330Y-78185762D01*
X138464092Y-78233381D01*
X138321234Y-78233381D01*
X138225996Y-78185762D01*
X138178377Y-78138143D01*
X137273615Y-78233381D02*
X137273615Y-77709571D01*
X137321234Y-77614333D01*
X137416472Y-77566714D01*
X137606949Y-77566714D01*
X137702187Y-77614333D01*
X137273615Y-78185762D02*
X137368853Y-78233381D01*
X137606949Y-78233381D01*
X137702187Y-78185762D01*
X137749806Y-78090524D01*
X137749806Y-77995286D01*
X137702187Y-77900048D01*
X137606949Y-77852429D01*
X137368853Y-77852429D01*
X137273615Y-77804810D01*
X136797425Y-78233381D02*
X136797425Y-77566714D01*
X136797425Y-77757190D02*
X136749806Y-77661952D01*
X136702187Y-77614333D01*
X136606949Y-77566714D01*
X136511710Y-77566714D01*
X135797424Y-78185762D02*
X135892662Y-78233381D01*
X136083139Y-78233381D01*
X136178377Y-78185762D01*
X136225996Y-78090524D01*
X136225996Y-77709571D01*
X136178377Y-77614333D01*
X136083139Y-77566714D01*
X135892662Y-77566714D01*
X135797424Y-77614333D01*
X135749805Y-77709571D01*
X135749805Y-77804810D01*
X136225996Y-77900048D01*
X134559329Y-77566714D02*
X134559329Y-78566714D01*
X134559329Y-77614333D02*
X134464091Y-77566714D01*
X134273614Y-77566714D01*
X134178376Y-77614333D01*
X134130757Y-77661952D01*
X134083138Y-77757190D01*
X134083138Y-78042905D01*
X134130757Y-78138143D01*
X134178376Y-78185762D01*
X134273614Y-78233381D01*
X134464091Y-78233381D01*
X134559329Y-78185762D01*
X133225995Y-78233381D02*
X133225995Y-77709571D01*
X133273614Y-77614333D01*
X133368852Y-77566714D01*
X133559329Y-77566714D01*
X133654567Y-77614333D01*
X133225995Y-78185762D02*
X133321233Y-78233381D01*
X133559329Y-78233381D01*
X133654567Y-78185762D01*
X133702186Y-78090524D01*
X133702186Y-77995286D01*
X133654567Y-77900048D01*
X133559329Y-77852429D01*
X133321233Y-77852429D01*
X133225995Y-77804810D01*
X132321233Y-78233381D02*
X132321233Y-77233381D01*
X132321233Y-78185762D02*
X132416471Y-78233381D01*
X132606948Y-78233381D01*
X132702186Y-78185762D01*
X132749805Y-78138143D01*
X132797424Y-78042905D01*
X132797424Y-77757190D01*
X132749805Y-77661952D01*
X132702186Y-77614333D01*
X132606948Y-77566714D01*
X132416471Y-77566714D01*
X132321233Y-77614333D01*
D13*
X134746667Y-73089048D02*
X129413334Y-73089048D01*
X132841905Y-81089048D01*
X115316191Y-73089048D02*
X116840000Y-73089048D01*
X117601905Y-73470000D01*
X117982857Y-73850952D01*
X118744762Y-74993810D01*
X119125714Y-76517619D01*
X119125714Y-79565238D01*
X118744762Y-80327143D01*
X118363810Y-80708095D01*
X117601905Y-81089048D01*
X116078095Y-81089048D01*
X115316191Y-80708095D01*
X114935238Y-80327143D01*
X114554286Y-79565238D01*
X114554286Y-77660476D01*
X114935238Y-76898571D01*
X115316191Y-76517619D01*
X116078095Y-76136667D01*
X117601905Y-76136667D01*
X118363810Y-76517619D01*
X118744762Y-76898571D01*
X119125714Y-77660476D01*
X99695238Y-73089048D02*
X103504762Y-73089048D01*
X103885714Y-76898571D01*
X103504762Y-76517619D01*
X102742857Y-76136667D01*
X100838095Y-76136667D01*
X100076191Y-76517619D01*
X99695238Y-76898571D01*
X99314286Y-77660476D01*
X99314286Y-79565238D01*
X99695238Y-80327143D01*
X100076191Y-80708095D01*
X100838095Y-81089048D01*
X102742857Y-81089048D01*
X103504762Y-80708095D01*
X103885714Y-80327143D01*
X84836191Y-75755714D02*
X84836191Y-81089048D01*
X86740953Y-72708095D02*
X88645714Y-78422381D01*
X83693334Y-78422381D01*
X73786667Y-73089048D02*
X68834286Y-73089048D01*
X71500953Y-76136667D01*
X70358095Y-76136667D01*
X69596191Y-76517619D01*
X69215238Y-76898571D01*
X68834286Y-77660476D01*
X68834286Y-79565238D01*
X69215238Y-80327143D01*
X69596191Y-80708095D01*
X70358095Y-81089048D01*
X72643810Y-81089048D01*
X73405714Y-80708095D01*
X73786667Y-80327143D01*
X58165714Y-73850952D02*
X57784762Y-73470000D01*
X57022857Y-73089048D01*
X55118095Y-73089048D01*
X54356191Y-73470000D01*
X53975238Y-73850952D01*
X53594286Y-74612857D01*
X53594286Y-75374762D01*
X53975238Y-76517619D01*
X58546667Y-81089048D01*
X53594286Y-81089048D01*
X38354286Y-81089048D02*
X42925714Y-81089048D01*
X40640000Y-81089048D02*
X40640000Y-73089048D01*
X41401905Y-74231905D01*
X42163810Y-74993810D01*
X42925714Y-75374762D01*
X25780953Y-73089048D02*
X25019048Y-73089048D01*
X24257143Y-73470000D01*
X23876191Y-73850952D01*
X23495238Y-74612857D01*
X23114286Y-76136667D01*
X23114286Y-78041429D01*
X23495238Y-79565238D01*
X23876191Y-80327143D01*
X24257143Y-80708095D01*
X25019048Y-81089048D01*
X25780953Y-81089048D01*
X26542857Y-80708095D01*
X26923810Y-80327143D01*
X27304762Y-79565238D01*
X27685714Y-78041429D01*
X27685714Y-76136667D01*
X27304762Y-74612857D01*
X26923810Y-73850952D01*
X26542857Y-73470000D01*
X25780953Y-73089048D01*
D14*
X20350480Y-80860900D02*
X20350480Y-84409280D01*
X22100540Y-80860900D02*
X20350480Y-80860900D01*
X28699460Y-80860900D02*
X30449520Y-80860900D01*
X30449520Y-80860900D02*
X30449520Y-84460080D01*
X25400000Y-82260440D02*
X25349200Y-84510880D01*
X25400000Y-82260440D02*
X24450040Y-83261200D01*
X25349200Y-82260440D02*
X26349960Y-83210400D01*
X28699460Y-82260440D02*
X28699460Y-79560420D01*
X28699460Y-79560420D02*
X22100540Y-79560420D01*
X22100540Y-79560420D02*
X22100540Y-82260440D01*
X22100540Y-82260440D02*
X28699460Y-82260440D01*
X29210000Y-64770000D02*
X26670000Y-64770000D01*
X32030000Y-64490000D02*
X30480000Y-64490000D01*
X29210000Y-64770000D02*
X29210000Y-67310000D01*
X30480000Y-67590000D02*
X32030000Y-67590000D01*
X32030000Y-67590000D02*
X32030000Y-64490000D01*
X29210000Y-67310000D02*
X26670000Y-67310000D01*
X26670000Y-67310000D02*
X26670000Y-64770000D01*
X44450000Y-64770000D02*
X41910000Y-64770000D01*
X47270000Y-64490000D02*
X45720000Y-64490000D01*
X44450000Y-64770000D02*
X44450000Y-67310000D01*
X45720000Y-67590000D02*
X47270000Y-67590000D01*
X47270000Y-67590000D02*
X47270000Y-64490000D01*
X44450000Y-67310000D02*
X41910000Y-67310000D01*
X41910000Y-67310000D02*
X41910000Y-64770000D01*
X59690000Y-64770000D02*
X57150000Y-64770000D01*
X62510000Y-64490000D02*
X60960000Y-64490000D01*
X59690000Y-64770000D02*
X59690000Y-67310000D01*
X60960000Y-67590000D02*
X62510000Y-67590000D01*
X62510000Y-67590000D02*
X62510000Y-64490000D01*
X59690000Y-67310000D02*
X57150000Y-67310000D01*
X57150000Y-67310000D02*
X57150000Y-64770000D01*
X74930000Y-64770000D02*
X72390000Y-64770000D01*
X77750000Y-64490000D02*
X76200000Y-64490000D01*
X74930000Y-64770000D02*
X74930000Y-67310000D01*
X76200000Y-67590000D02*
X77750000Y-67590000D01*
X77750000Y-67590000D02*
X77750000Y-64490000D01*
X74930000Y-67310000D02*
X72390000Y-67310000D01*
X72390000Y-67310000D02*
X72390000Y-64770000D01*
X21590000Y-64770000D02*
X19050000Y-64770000D01*
X24410000Y-64490000D02*
X22860000Y-64490000D01*
X21590000Y-64770000D02*
X21590000Y-67310000D01*
X22860000Y-67590000D02*
X24410000Y-67590000D01*
X24410000Y-67590000D02*
X24410000Y-64490000D01*
X21590000Y-67310000D02*
X19050000Y-67310000D01*
X19050000Y-67310000D02*
X19050000Y-64770000D01*
X81310480Y-80860900D02*
X81310480Y-84409280D01*
X83060540Y-80860900D02*
X81310480Y-80860900D01*
X89659460Y-80860900D02*
X91409520Y-80860900D01*
X91409520Y-80860900D02*
X91409520Y-84460080D01*
X86360000Y-82260440D02*
X86309200Y-84510880D01*
X86360000Y-82260440D02*
X85410040Y-83261200D01*
X86309200Y-82260440D02*
X87309960Y-83210400D01*
X89659460Y-82260440D02*
X89659460Y-79560420D01*
X89659460Y-79560420D02*
X83060540Y-79560420D01*
X83060540Y-79560420D02*
X83060540Y-82260440D01*
X83060540Y-82260440D02*
X89659460Y-82260440D01*
X90170000Y-64770000D02*
X87630000Y-64770000D01*
X92990000Y-64490000D02*
X91440000Y-64490000D01*
X90170000Y-64770000D02*
X90170000Y-67310000D01*
X91440000Y-67590000D02*
X92990000Y-67590000D01*
X92990000Y-67590000D02*
X92990000Y-64490000D01*
X90170000Y-67310000D02*
X87630000Y-67310000D01*
X87630000Y-67310000D02*
X87630000Y-64770000D01*
X36830000Y-64770000D02*
X34290000Y-64770000D01*
X39650000Y-64490000D02*
X38100000Y-64490000D01*
X36830000Y-64770000D02*
X36830000Y-67310000D01*
X38100000Y-67590000D02*
X39650000Y-67590000D01*
X39650000Y-67590000D02*
X39650000Y-64490000D01*
X36830000Y-67310000D02*
X34290000Y-67310000D01*
X34290000Y-67310000D02*
X34290000Y-64770000D01*
X35590480Y-80860900D02*
X35590480Y-84409280D01*
X37340540Y-80860900D02*
X35590480Y-80860900D01*
X43939460Y-80860900D02*
X45689520Y-80860900D01*
X45689520Y-80860900D02*
X45689520Y-84460080D01*
X40640000Y-82260440D02*
X40589200Y-84510880D01*
X40640000Y-82260440D02*
X39690040Y-83261200D01*
X40589200Y-82260440D02*
X41589960Y-83210400D01*
X43939460Y-82260440D02*
X43939460Y-79560420D01*
X43939460Y-79560420D02*
X37340540Y-79560420D01*
X37340540Y-79560420D02*
X37340540Y-82260440D01*
X37340540Y-82260440D02*
X43939460Y-82260440D01*
X96550480Y-80860900D02*
X96550480Y-84409280D01*
X98300540Y-80860900D02*
X96550480Y-80860900D01*
X104899460Y-80860900D02*
X106649520Y-80860900D01*
X106649520Y-80860900D02*
X106649520Y-84460080D01*
X101600000Y-82260440D02*
X101549200Y-84510880D01*
X101600000Y-82260440D02*
X100650040Y-83261200D01*
X101549200Y-82260440D02*
X102549960Y-83210400D01*
X104899460Y-82260440D02*
X104899460Y-79560420D01*
X104899460Y-79560420D02*
X98300540Y-79560420D01*
X98300540Y-79560420D02*
X98300540Y-82260440D01*
X98300540Y-82260440D02*
X104899460Y-82260440D01*
X105410000Y-64770000D02*
X102870000Y-64770000D01*
X108230000Y-64490000D02*
X106680000Y-64490000D01*
X105410000Y-64770000D02*
X105410000Y-67310000D01*
X106680000Y-67590000D02*
X108230000Y-67590000D01*
X108230000Y-67590000D02*
X108230000Y-64490000D01*
X105410000Y-67310000D02*
X102870000Y-67310000D01*
X102870000Y-67310000D02*
X102870000Y-64770000D01*
X52070000Y-64770000D02*
X49530000Y-64770000D01*
X54890000Y-64490000D02*
X53340000Y-64490000D01*
X52070000Y-64770000D02*
X52070000Y-67310000D01*
X53340000Y-67590000D02*
X54890000Y-67590000D01*
X54890000Y-67590000D02*
X54890000Y-64490000D01*
X52070000Y-67310000D02*
X49530000Y-67310000D01*
X49530000Y-67310000D02*
X49530000Y-64770000D01*
X50830480Y-80860900D02*
X50830480Y-84409280D01*
X52580540Y-80860900D02*
X50830480Y-80860900D01*
X59179460Y-80860900D02*
X60929520Y-80860900D01*
X60929520Y-80860900D02*
X60929520Y-84460080D01*
X55880000Y-82260440D02*
X55829200Y-84510880D01*
X55880000Y-82260440D02*
X54930040Y-83261200D01*
X55829200Y-82260440D02*
X56829960Y-83210400D01*
X59179460Y-82260440D02*
X59179460Y-79560420D01*
X59179460Y-79560420D02*
X52580540Y-79560420D01*
X52580540Y-79560420D02*
X52580540Y-82260440D01*
X52580540Y-82260440D02*
X59179460Y-82260440D01*
X111790480Y-80860900D02*
X111790480Y-84409280D01*
X113540540Y-80860900D02*
X111790480Y-80860900D01*
X120139460Y-80860900D02*
X121889520Y-80860900D01*
X121889520Y-80860900D02*
X121889520Y-84460080D01*
X116840000Y-82260440D02*
X116789200Y-84510880D01*
X116840000Y-82260440D02*
X115890040Y-83261200D01*
X116789200Y-82260440D02*
X117789960Y-83210400D01*
X120139460Y-82260440D02*
X120139460Y-79560420D01*
X120139460Y-79560420D02*
X113540540Y-79560420D01*
X113540540Y-79560420D02*
X113540540Y-82260440D01*
X113540540Y-82260440D02*
X120139460Y-82260440D01*
X120650000Y-64770000D02*
X118110000Y-64770000D01*
X123470000Y-64490000D02*
X121920000Y-64490000D01*
X120650000Y-64770000D02*
X120650000Y-67310000D01*
X121920000Y-67590000D02*
X123470000Y-67590000D01*
X123470000Y-67590000D02*
X123470000Y-64490000D01*
X120650000Y-67310000D02*
X118110000Y-67310000D01*
X118110000Y-67310000D02*
X118110000Y-64770000D01*
X67310000Y-64770000D02*
X64770000Y-64770000D01*
X70130000Y-64490000D02*
X68580000Y-64490000D01*
X67310000Y-64770000D02*
X67310000Y-67310000D01*
X68580000Y-67590000D02*
X70130000Y-67590000D01*
X70130000Y-67590000D02*
X70130000Y-64490000D01*
X67310000Y-67310000D02*
X64770000Y-67310000D01*
X64770000Y-67310000D02*
X64770000Y-64770000D01*
X135890000Y-64770000D02*
X133350000Y-64770000D01*
X138710000Y-64490000D02*
X137160000Y-64490000D01*
X135890000Y-64770000D02*
X135890000Y-67310000D01*
X137160000Y-67590000D02*
X138710000Y-67590000D01*
X138710000Y-67590000D02*
X138710000Y-64490000D01*
X135890000Y-67310000D02*
X133350000Y-67310000D01*
X133350000Y-67310000D02*
X133350000Y-64770000D01*
X82550000Y-64770000D02*
X80010000Y-64770000D01*
X85370000Y-64490000D02*
X83820000Y-64490000D01*
X82550000Y-64770000D02*
X82550000Y-67310000D01*
X83820000Y-67590000D02*
X85370000Y-67590000D01*
X85370000Y-67590000D02*
X85370000Y-64490000D01*
X82550000Y-67310000D02*
X80010000Y-67310000D01*
X80010000Y-67310000D02*
X80010000Y-64770000D01*
X66070480Y-80860900D02*
X66070480Y-84409280D01*
X67820540Y-80860900D02*
X66070480Y-80860900D01*
X74419460Y-80860900D02*
X76169520Y-80860900D01*
X76169520Y-80860900D02*
X76169520Y-84460080D01*
X71120000Y-82260440D02*
X71069200Y-84510880D01*
X71120000Y-82260440D02*
X70170040Y-83261200D01*
X71069200Y-82260440D02*
X72069960Y-83210400D01*
X74419460Y-82260440D02*
X74419460Y-79560420D01*
X74419460Y-79560420D02*
X67820540Y-79560420D01*
X67820540Y-79560420D02*
X67820540Y-82260440D01*
X67820540Y-82260440D02*
X74419460Y-82260440D01*
X127030480Y-80860900D02*
X127030480Y-84409280D01*
X128780540Y-80860900D02*
X127030480Y-80860900D01*
X135379460Y-80860900D02*
X137129520Y-80860900D01*
X137129520Y-80860900D02*
X137129520Y-84460080D01*
X132080000Y-82260440D02*
X132029200Y-84510880D01*
X132080000Y-82260440D02*
X131130040Y-83261200D01*
X132029200Y-82260440D02*
X133029960Y-83210400D01*
X135379460Y-82260440D02*
X135379460Y-79560420D01*
X135379460Y-79560420D02*
X128780540Y-79560420D01*
X128780540Y-79560420D02*
X128780540Y-82260440D01*
X128780540Y-82260440D02*
X135379460Y-82260440D01*
X97790000Y-64770000D02*
X95250000Y-64770000D01*
X100610000Y-64490000D02*
X99060000Y-64490000D01*
X97790000Y-64770000D02*
X97790000Y-67310000D01*
X99060000Y-67590000D02*
X100610000Y-67590000D01*
X100610000Y-67590000D02*
X100610000Y-64490000D01*
X97790000Y-67310000D02*
X95250000Y-67310000D01*
X95250000Y-67310000D02*
X95250000Y-64770000D01*
X113030000Y-64770000D02*
X110490000Y-64770000D01*
X115850000Y-64490000D02*
X114300000Y-64490000D01*
X113030000Y-64770000D02*
X113030000Y-67310000D01*
X114300000Y-67590000D02*
X115850000Y-67590000D01*
X115850000Y-67590000D02*
X115850000Y-64490000D01*
X113030000Y-67310000D02*
X110490000Y-67310000D01*
X110490000Y-67310000D02*
X110490000Y-64770000D01*
X128270000Y-64770000D02*
X125730000Y-64770000D01*
X131090000Y-64490000D02*
X129540000Y-64490000D01*
X128270000Y-64770000D02*
X128270000Y-67310000D01*
X129540000Y-67590000D02*
X131090000Y-67590000D01*
X131090000Y-67590000D02*
X131090000Y-64490000D01*
X128270000Y-67310000D02*
X125730000Y-67310000D01*
X125730000Y-67310000D02*
X125730000Y-64770000D01*
X22860000Y-71120000D02*
X27940000Y-71120000D01*
X27940000Y-71120000D02*
X27940000Y-68580000D01*
X27940000Y-68580000D02*
X22860000Y-68580000D01*
X22860000Y-68580000D02*
X22860000Y-71120000D01*
X22860000Y-69850000D02*
X21590000Y-69850000D01*
X27940000Y-69850000D02*
X29210000Y-69850000D01*
X38100000Y-71120000D02*
X43180000Y-71120000D01*
X43180000Y-71120000D02*
X43180000Y-68580000D01*
X43180000Y-68580000D02*
X38100000Y-68580000D01*
X38100000Y-68580000D02*
X38100000Y-71120000D01*
X38100000Y-69850000D02*
X36830000Y-69850000D01*
X43180000Y-69850000D02*
X44450000Y-69850000D01*
X53340000Y-71120000D02*
X58420000Y-71120000D01*
X58420000Y-71120000D02*
X58420000Y-68580000D01*
X58420000Y-68580000D02*
X53340000Y-68580000D01*
X53340000Y-68580000D02*
X53340000Y-71120000D01*
X53340000Y-69850000D02*
X52070000Y-69850000D01*
X58420000Y-69850000D02*
X59690000Y-69850000D01*
X68580000Y-71120000D02*
X73660000Y-71120000D01*
X73660000Y-71120000D02*
X73660000Y-68580000D01*
X73660000Y-68580000D02*
X68580000Y-68580000D01*
X68580000Y-68580000D02*
X68580000Y-71120000D01*
X68580000Y-69850000D02*
X67310000Y-69850000D01*
X73660000Y-69850000D02*
X74930000Y-69850000D01*
X83820000Y-71120000D02*
X88900000Y-71120000D01*
X88900000Y-71120000D02*
X88900000Y-68580000D01*
X88900000Y-68580000D02*
X83820000Y-68580000D01*
X83820000Y-68580000D02*
X83820000Y-71120000D01*
X83820000Y-69850000D02*
X82550000Y-69850000D01*
X88900000Y-69850000D02*
X90170000Y-69850000D01*
X99060000Y-71120000D02*
X104140000Y-71120000D01*
X104140000Y-71120000D02*
X104140000Y-68580000D01*
X104140000Y-68580000D02*
X99060000Y-68580000D01*
X99060000Y-68580000D02*
X99060000Y-71120000D01*
X99060000Y-69850000D02*
X97790000Y-69850000D01*
X104140000Y-69850000D02*
X105410000Y-69850000D01*
X114300000Y-71120000D02*
X119380000Y-71120000D01*
X119380000Y-71120000D02*
X119380000Y-68580000D01*
X119380000Y-68580000D02*
X114300000Y-68580000D01*
X114300000Y-68580000D02*
X114300000Y-71120000D01*
X114300000Y-69850000D02*
X113030000Y-69850000D01*
X119380000Y-69850000D02*
X120650000Y-69850000D01*
X129540000Y-71120000D02*
X134620000Y-71120000D01*
X134620000Y-71120000D02*
X134620000Y-68580000D01*
X134620000Y-68580000D02*
X129540000Y-68580000D01*
X129540000Y-68580000D02*
X129540000Y-71120000D01*
X129540000Y-69850000D02*
X128270000Y-69850000D01*
X134620000Y-69850000D02*
X135890000Y-69850000D01*
X25312666Y-70302381D02*
X25646000Y-69826190D01*
X25884095Y-70302381D02*
X25884095Y-69302381D01*
X25503142Y-69302381D01*
X25407904Y-69350000D01*
X25360285Y-69397619D01*
X25312666Y-69492857D01*
X25312666Y-69635714D01*
X25360285Y-69730952D01*
X25407904Y-69778571D01*
X25503142Y-69826190D01*
X25884095Y-69826190D01*
X24741238Y-69730952D02*
X24836476Y-69683333D01*
X24884095Y-69635714D01*
X24931714Y-69540476D01*
X24931714Y-69492857D01*
X24884095Y-69397619D01*
X24836476Y-69350000D01*
X24741238Y-69302381D01*
X24550761Y-69302381D01*
X24455523Y-69350000D01*
X24407904Y-69397619D01*
X24360285Y-69492857D01*
X24360285Y-69540476D01*
X24407904Y-69635714D01*
X24455523Y-69683333D01*
X24550761Y-69730952D01*
X24741238Y-69730952D01*
X24836476Y-69778571D01*
X24884095Y-69826190D01*
X24931714Y-69921429D01*
X24931714Y-70111905D01*
X24884095Y-70207143D01*
X24836476Y-70254762D01*
X24741238Y-70302381D01*
X24550761Y-70302381D01*
X24455523Y-70254762D01*
X24407904Y-70207143D01*
X24360285Y-70111905D01*
X24360285Y-69921429D01*
X24407904Y-69826190D01*
X24455523Y-69778571D01*
X24550761Y-69730952D01*
X40044666Y-70302381D02*
X40378000Y-69826190D01*
X40616095Y-70302381D02*
X40616095Y-69302381D01*
X40235142Y-69302381D01*
X40139904Y-69350000D01*
X40092285Y-69397619D01*
X40044666Y-69492857D01*
X40044666Y-69635714D01*
X40092285Y-69730952D01*
X40139904Y-69778571D01*
X40235142Y-69826190D01*
X40616095Y-69826190D01*
X39568476Y-70302381D02*
X39378000Y-70302381D01*
X39282761Y-70254762D01*
X39235142Y-70207143D01*
X39139904Y-70064286D01*
X39092285Y-69873810D01*
X39092285Y-69492857D01*
X39139904Y-69397619D01*
X39187523Y-69350000D01*
X39282761Y-69302381D01*
X39473238Y-69302381D01*
X39568476Y-69350000D01*
X39616095Y-69397619D01*
X39663714Y-69492857D01*
X39663714Y-69730952D01*
X39616095Y-69826190D01*
X39568476Y-69873810D01*
X39473238Y-69921429D01*
X39282761Y-69921429D01*
X39187523Y-69873810D01*
X39139904Y-69826190D01*
X39092285Y-69730952D01*
X55506857Y-70302381D02*
X55840191Y-69826190D01*
X56078286Y-70302381D02*
X56078286Y-69302381D01*
X55697333Y-69302381D01*
X55602095Y-69350000D01*
X55554476Y-69397619D01*
X55506857Y-69492857D01*
X55506857Y-69635714D01*
X55554476Y-69730952D01*
X55602095Y-69778571D01*
X55697333Y-69826190D01*
X56078286Y-69826190D01*
X54554476Y-70302381D02*
X55125905Y-70302381D01*
X54840191Y-70302381D02*
X54840191Y-69302381D01*
X54935429Y-69445238D01*
X55030667Y-69540476D01*
X55125905Y-69588095D01*
X53935429Y-69302381D02*
X53840190Y-69302381D01*
X53744952Y-69350000D01*
X53697333Y-69397619D01*
X53649714Y-69492857D01*
X53602095Y-69683333D01*
X53602095Y-69921429D01*
X53649714Y-70111905D01*
X53697333Y-70207143D01*
X53744952Y-70254762D01*
X53840190Y-70302381D01*
X53935429Y-70302381D01*
X54030667Y-70254762D01*
X54078286Y-70207143D01*
X54125905Y-70111905D01*
X54173524Y-69921429D01*
X54173524Y-69683333D01*
X54125905Y-69492857D01*
X54078286Y-69397619D01*
X54030667Y-69350000D01*
X53935429Y-69302381D01*
X70746857Y-70302381D02*
X71080191Y-69826190D01*
X71318286Y-70302381D02*
X71318286Y-69302381D01*
X70937333Y-69302381D01*
X70842095Y-69350000D01*
X70794476Y-69397619D01*
X70746857Y-69492857D01*
X70746857Y-69635714D01*
X70794476Y-69730952D01*
X70842095Y-69778571D01*
X70937333Y-69826190D01*
X71318286Y-69826190D01*
X69794476Y-70302381D02*
X70365905Y-70302381D01*
X70080191Y-70302381D02*
X70080191Y-69302381D01*
X70175429Y-69445238D01*
X70270667Y-69540476D01*
X70365905Y-69588095D01*
X68842095Y-70302381D02*
X69413524Y-70302381D01*
X69127810Y-70302381D02*
X69127810Y-69302381D01*
X69223048Y-69445238D01*
X69318286Y-69540476D01*
X69413524Y-69588095D01*
X85986857Y-70302381D02*
X86320191Y-69826190D01*
X86558286Y-70302381D02*
X86558286Y-69302381D01*
X86177333Y-69302381D01*
X86082095Y-69350000D01*
X86034476Y-69397619D01*
X85986857Y-69492857D01*
X85986857Y-69635714D01*
X86034476Y-69730952D01*
X86082095Y-69778571D01*
X86177333Y-69826190D01*
X86558286Y-69826190D01*
X85034476Y-70302381D02*
X85605905Y-70302381D01*
X85320191Y-70302381D02*
X85320191Y-69302381D01*
X85415429Y-69445238D01*
X85510667Y-69540476D01*
X85605905Y-69588095D01*
X84653524Y-69397619D02*
X84605905Y-69350000D01*
X84510667Y-69302381D01*
X84272571Y-69302381D01*
X84177333Y-69350000D01*
X84129714Y-69397619D01*
X84082095Y-69492857D01*
X84082095Y-69588095D01*
X84129714Y-69730952D01*
X84701143Y-70302381D01*
X84082095Y-70302381D01*
X101226857Y-70302381D02*
X101560191Y-69826190D01*
X101798286Y-70302381D02*
X101798286Y-69302381D01*
X101417333Y-69302381D01*
X101322095Y-69350000D01*
X101274476Y-69397619D01*
X101226857Y-69492857D01*
X101226857Y-69635714D01*
X101274476Y-69730952D01*
X101322095Y-69778571D01*
X101417333Y-69826190D01*
X101798286Y-69826190D01*
X100274476Y-70302381D02*
X100845905Y-70302381D01*
X100560191Y-70302381D02*
X100560191Y-69302381D01*
X100655429Y-69445238D01*
X100750667Y-69540476D01*
X100845905Y-69588095D01*
X99941143Y-69302381D02*
X99322095Y-69302381D01*
X99655429Y-69683333D01*
X99512571Y-69683333D01*
X99417333Y-69730952D01*
X99369714Y-69778571D01*
X99322095Y-69873810D01*
X99322095Y-70111905D01*
X99369714Y-70207143D01*
X99417333Y-70254762D01*
X99512571Y-70302381D01*
X99798286Y-70302381D01*
X99893524Y-70254762D01*
X99941143Y-70207143D01*
X116466857Y-70302381D02*
X116800191Y-69826190D01*
X117038286Y-70302381D02*
X117038286Y-69302381D01*
X116657333Y-69302381D01*
X116562095Y-69350000D01*
X116514476Y-69397619D01*
X116466857Y-69492857D01*
X116466857Y-69635714D01*
X116514476Y-69730952D01*
X116562095Y-69778571D01*
X116657333Y-69826190D01*
X117038286Y-69826190D01*
X115514476Y-70302381D02*
X116085905Y-70302381D01*
X115800191Y-70302381D02*
X115800191Y-69302381D01*
X115895429Y-69445238D01*
X115990667Y-69540476D01*
X116085905Y-69588095D01*
X114657333Y-69635714D02*
X114657333Y-70302381D01*
X114895429Y-69254762D02*
X115133524Y-69969048D01*
X114514476Y-69969048D01*
X131706857Y-70302381D02*
X132040191Y-69826190D01*
X132278286Y-70302381D02*
X132278286Y-69302381D01*
X131897333Y-69302381D01*
X131802095Y-69350000D01*
X131754476Y-69397619D01*
X131706857Y-69492857D01*
X131706857Y-69635714D01*
X131754476Y-69730952D01*
X131802095Y-69778571D01*
X131897333Y-69826190D01*
X132278286Y-69826190D01*
X130754476Y-70302381D02*
X131325905Y-70302381D01*
X131040191Y-70302381D02*
X131040191Y-69302381D01*
X131135429Y-69445238D01*
X131230667Y-69540476D01*
X131325905Y-69588095D01*
X129849714Y-69302381D02*
X130325905Y-69302381D01*
X130373524Y-69778571D01*
X130325905Y-69730952D01*
X130230667Y-69683333D01*
X129992571Y-69683333D01*
X129897333Y-69730952D01*
X129849714Y-69778571D01*
X129802095Y-69873810D01*
X129802095Y-70111905D01*
X129849714Y-70207143D01*
X129897333Y-70254762D01*
X129992571Y-70302381D01*
X130230667Y-70302381D01*
X130325905Y-70254762D01*
X130373524Y-70207143D01*
M02*
